<?xml version="1.0" encoding="utf-8" standalone="no"?>
<!DOCTYPE svg PUBLIC "-//W3C//DTD SVG 1.1//EN"
  "http://www.w3.org/Graphics/SVG/1.1/DTD/svg11.dtd">
<svg xmlns:xlink="http://www.w3.org/1999/xlink" width="460.8pt" height="345.6pt" viewBox="0 0 460.8 345.6" xmlns="http://www.w3.org/2000/svg" version="1.1">
 <metadata>
  <rdf:RDF xmlns:dc="http://purl.org/dc/elements/1.1/" xmlns:cc="http://creativecommons.org/ns#" xmlns:rdf="http://www.w3.org/1999/02/22-rdf-syntax-ns#">
   <cc:Work>
    <dc:type rdf:resource="http://purl.org/dc/dcmitype/StillImage"/>
    <dc:date>2023-07-24T08:24:48.813373</dc:date>
    <dc:format>image/svg+xml</dc:format>
    <dc:creator>
     <cc:Agent>
      <dc:title>Matplotlib v3.7.1, https://matplotlib.org/</dc:title>
     </cc:Agent>
    </dc:creator>
   </cc:Work>
  </rdf:RDF>
 </metadata>
 <defs>
  <style type="text/css">*{stroke-linejoin: round; stroke-linecap: butt}</style>
 </defs>
 <g id="figure_1">
  <g id="patch_1">
   <path d="M 0 345.6 
L 460.8 345.6 
L 460.8 0 
L 0 0 
z
" style="fill: #ffffff"/>
  </g>
  <g id="axes_1">
   <g id="patch_2">
    <path d="M 57.6 307.584 
L 414.72 307.584 
L 414.72 41.472 
L 57.6 41.472 
z
" style="fill: #ffffff"/>
   </g>
   <g id="matplotlib.axis_1">
    <g id="xtick_1">
     <g id="text_1">
      <!-- 9369 -->
      <g style="fill: #262626" transform="translate(76.238125 321.741812) scale(0.1 -0.1)">
       <defs>
        <path id="ArialMT-39" d="M 350 1059 
L 891 1109 
Q 959 728 1153 556 
Q 1347 384 1650 384 
Q 1909 384 2104 503 
Q 2300 622 2425 820 
Q 2550 1019 2634 1356 
Q 2719 1694 2719 2044 
Q 2719 2081 2716 2156 
Q 2547 1888 2255 1720 
Q 1963 1553 1622 1553 
Q 1053 1553 659 1965 
Q 266 2378 266 3053 
Q 266 3750 677 4175 
Q 1088 4600 1706 4600 
Q 2153 4600 2523 4359 
Q 2894 4119 3086 3673 
Q 3278 3228 3278 2384 
Q 3278 1506 3087 986 
Q 2897 466 2520 194 
Q 2144 -78 1638 -78 
Q 1100 -78 759 220 
Q 419 519 350 1059 
z
M 2653 3081 
Q 2653 3566 2395 3850 
Q 2138 4134 1775 4134 
Q 1400 4134 1122 3828 
Q 844 3522 844 3034 
Q 844 2597 1108 2323 
Q 1372 2050 1759 2050 
Q 2150 2050 2401 2323 
Q 2653 2597 2653 3081 
z
" transform="scale(0.015625)"/>
        <path id="ArialMT-33" d="M 269 1209 
L 831 1284 
Q 928 806 1161 595 
Q 1394 384 1728 384 
Q 2125 384 2398 659 
Q 2672 934 2672 1341 
Q 2672 1728 2419 1979 
Q 2166 2231 1775 2231 
Q 1616 2231 1378 2169 
L 1441 2663 
Q 1497 2656 1531 2656 
Q 1891 2656 2178 2843 
Q 2466 3031 2466 3422 
Q 2466 3731 2256 3934 
Q 2047 4138 1716 4138 
Q 1388 4138 1169 3931 
Q 950 3725 888 3313 
L 325 3413 
Q 428 3978 793 4289 
Q 1159 4600 1703 4600 
Q 2078 4600 2393 4439 
Q 2709 4278 2876 4000 
Q 3044 3722 3044 3409 
Q 3044 3113 2884 2869 
Q 2725 2625 2413 2481 
Q 2819 2388 3044 2092 
Q 3269 1797 3269 1353 
Q 3269 753 2831 336 
Q 2394 -81 1725 -81 
Q 1122 -81 723 278 
Q 325 638 269 1209 
z
" transform="scale(0.015625)"/>
        <path id="ArialMT-36" d="M 3184 3459 
L 2625 3416 
Q 2550 3747 2413 3897 
Q 2184 4138 1850 4138 
Q 1581 4138 1378 3988 
Q 1113 3794 959 3422 
Q 806 3050 800 2363 
Q 1003 2672 1297 2822 
Q 1591 2972 1913 2972 
Q 2475 2972 2870 2558 
Q 3266 2144 3266 1488 
Q 3266 1056 3080 686 
Q 2894 316 2569 119 
Q 2244 -78 1831 -78 
Q 1128 -78 684 439 
Q 241 956 241 2144 
Q 241 3472 731 4075 
Q 1159 4600 1884 4600 
Q 2425 4600 2770 4297 
Q 3116 3994 3184 3459 
z
M 888 1484 
Q 888 1194 1011 928 
Q 1134 663 1356 523 
Q 1578 384 1822 384 
Q 2178 384 2434 671 
Q 2691 959 2691 1453 
Q 2691 1928 2437 2201 
Q 2184 2475 1800 2475 
Q 1419 2475 1153 2201 
Q 888 1928 888 1484 
z
" transform="scale(0.015625)"/>
       </defs>
       <use xlink:href="#ArialMT-39"/>
       <use xlink:href="#ArialMT-33" x="55.615234"/>
       <use xlink:href="#ArialMT-36" x="111.230469"/>
       <use xlink:href="#ArialMT-39" x="166.845703"/>
      </g>
     </g>
    </g>
    <g id="xtick_2">
     <g id="text_2">
      <!-- 9808 -->
      <g style="fill: #262626" transform="translate(135.758125 321.741812) scale(0.1 -0.1)">
       <defs>
        <path id="ArialMT-38" d="M 1131 2484 
Q 781 2613 612 2850 
Q 444 3088 444 3419 
Q 444 3919 803 4259 
Q 1163 4600 1759 4600 
Q 2359 4600 2725 4251 
Q 3091 3903 3091 3403 
Q 3091 3084 2923 2848 
Q 2756 2613 2416 2484 
Q 2838 2347 3058 2040 
Q 3278 1734 3278 1309 
Q 3278 722 2862 322 
Q 2447 -78 1769 -78 
Q 1091 -78 675 323 
Q 259 725 259 1325 
Q 259 1772 486 2073 
Q 713 2375 1131 2484 
z
M 1019 3438 
Q 1019 3113 1228 2906 
Q 1438 2700 1772 2700 
Q 2097 2700 2305 2904 
Q 2513 3109 2513 3406 
Q 2513 3716 2298 3927 
Q 2084 4138 1766 4138 
Q 1444 4138 1231 3931 
Q 1019 3725 1019 3438 
z
M 838 1322 
Q 838 1081 952 856 
Q 1066 631 1291 507 
Q 1516 384 1775 384 
Q 2178 384 2440 643 
Q 2703 903 2703 1303 
Q 2703 1709 2433 1975 
Q 2163 2241 1756 2241 
Q 1359 2241 1098 1978 
Q 838 1716 838 1322 
z
" transform="scale(0.015625)"/>
        <path id="ArialMT-30" d="M 266 2259 
Q 266 3072 433 3567 
Q 600 4063 929 4331 
Q 1259 4600 1759 4600 
Q 2128 4600 2406 4451 
Q 2684 4303 2865 4023 
Q 3047 3744 3150 3342 
Q 3253 2941 3253 2259 
Q 3253 1453 3087 958 
Q 2922 463 2592 192 
Q 2263 -78 1759 -78 
Q 1097 -78 719 397 
Q 266 969 266 2259 
z
M 844 2259 
Q 844 1131 1108 757 
Q 1372 384 1759 384 
Q 2147 384 2411 759 
Q 2675 1134 2675 2259 
Q 2675 3391 2411 3762 
Q 2147 4134 1753 4134 
Q 1366 4134 1134 3806 
Q 844 3388 844 2259 
z
" transform="scale(0.015625)"/>
       </defs>
       <use xlink:href="#ArialMT-39"/>
       <use xlink:href="#ArialMT-38" x="55.615234"/>
       <use xlink:href="#ArialMT-30" x="111.230469"/>
       <use xlink:href="#ArialMT-38" x="166.845703"/>
      </g>
     </g>
    </g>
    <g id="xtick_3">
     <g id="text_3">
      <!-- 9809 -->
      <g style="fill: #262626" transform="translate(195.278125 321.741812) scale(0.1 -0.1)">
       <use xlink:href="#ArialMT-39"/>
       <use xlink:href="#ArialMT-38" x="55.615234"/>
       <use xlink:href="#ArialMT-30" x="111.230469"/>
       <use xlink:href="#ArialMT-39" x="166.845703"/>
      </g>
     </g>
    </g>
    <g id="xtick_4">
     <g id="text_4">
      <!-- 9810 -->
      <g style="fill: #262626" transform="translate(254.798125 321.741812) scale(0.1 -0.1)">
       <defs>
        <path id="ArialMT-31" d="M 2384 0 
L 1822 0 
L 1822 3584 
Q 1619 3391 1289 3197 
Q 959 3003 697 2906 
L 697 3450 
Q 1169 3672 1522 3987 
Q 1875 4303 2022 4600 
L 2384 4600 
L 2384 0 
z
" transform="scale(0.015625)"/>
       </defs>
       <use xlink:href="#ArialMT-39"/>
       <use xlink:href="#ArialMT-38" x="55.615234"/>
       <use xlink:href="#ArialMT-31" x="111.230469"/>
       <use xlink:href="#ArialMT-30" x="166.845703"/>
      </g>
     </g>
    </g>
    <g id="xtick_5">
     <g id="text_5">
      <!-- 9811 -->
      <g style="fill: #262626" transform="translate(314.686875 321.741812) scale(0.1 -0.1)">
       <use xlink:href="#ArialMT-39"/>
       <use xlink:href="#ArialMT-38" x="55.615234"/>
       <use xlink:href="#ArialMT-31" x="111.230469"/>
       <use xlink:href="#ArialMT-31" x="159.470703"/>
      </g>
     </g>
    </g>
    <g id="xtick_6">
     <g id="text_6">
      <!-- 9812 -->
      <g style="fill: #262626" transform="translate(373.838125 321.741812) scale(0.1 -0.1)">
       <defs>
        <path id="ArialMT-32" d="M 3222 541 
L 3222 0 
L 194 0 
Q 188 203 259 391 
Q 375 700 629 1000 
Q 884 1300 1366 1694 
Q 2113 2306 2375 2664 
Q 2638 3022 2638 3341 
Q 2638 3675 2398 3904 
Q 2159 4134 1775 4134 
Q 1369 4134 1125 3890 
Q 881 3647 878 3216 
L 300 3275 
Q 359 3922 746 4261 
Q 1134 4600 1788 4600 
Q 2447 4600 2831 4234 
Q 3216 3869 3216 3328 
Q 3216 3053 3103 2787 
Q 2991 2522 2730 2228 
Q 2469 1934 1863 1422 
Q 1356 997 1212 845 
Q 1069 694 975 541 
L 3222 541 
z
" transform="scale(0.015625)"/>
       </defs>
       <use xlink:href="#ArialMT-39"/>
       <use xlink:href="#ArialMT-38" x="55.615234"/>
       <use xlink:href="#ArialMT-31" x="111.230469"/>
       <use xlink:href="#ArialMT-32" x="166.845703"/>
      </g>
     </g>
    </g>
    <g id="text_7">
     <!-- Random Seed (Episodes) -->
     <g style="fill: #262626" transform="translate(178.91 335.009) scale(0.1 -0.1)">
      <defs>
       <path id="ArialMT-52" d="M 503 0 
L 503 4581 
L 2534 4581 
Q 3147 4581 3465 4457 
Q 3784 4334 3975 4021 
Q 4166 3709 4166 3331 
Q 4166 2844 3850 2509 
Q 3534 2175 2875 2084 
Q 3116 1969 3241 1856 
Q 3506 1613 3744 1247 
L 4541 0 
L 3778 0 
L 3172 953 
Q 2906 1366 2734 1584 
Q 2563 1803 2427 1890 
Q 2291 1978 2150 2013 
Q 2047 2034 1813 2034 
L 1109 2034 
L 1109 0 
L 503 0 
z
M 1109 2559 
L 2413 2559 
Q 2828 2559 3062 2645 
Q 3297 2731 3419 2920 
Q 3541 3109 3541 3331 
Q 3541 3656 3305 3865 
Q 3069 4075 2559 4075 
L 1109 4075 
L 1109 2559 
z
" transform="scale(0.015625)"/>
       <path id="ArialMT-61" d="M 2588 409 
Q 2275 144 1986 34 
Q 1697 -75 1366 -75 
Q 819 -75 525 192 
Q 231 459 231 875 
Q 231 1119 342 1320 
Q 453 1522 633 1644 
Q 813 1766 1038 1828 
Q 1203 1872 1538 1913 
Q 2219 1994 2541 2106 
Q 2544 2222 2544 2253 
Q 2544 2597 2384 2738 
Q 2169 2928 1744 2928 
Q 1347 2928 1158 2789 
Q 969 2650 878 2297 
L 328 2372 
Q 403 2725 575 2942 
Q 747 3159 1072 3276 
Q 1397 3394 1825 3394 
Q 2250 3394 2515 3294 
Q 2781 3194 2906 3042 
Q 3031 2891 3081 2659 
Q 3109 2516 3109 2141 
L 3109 1391 
Q 3109 606 3145 398 
Q 3181 191 3288 0 
L 2700 0 
Q 2613 175 2588 409 
z
M 2541 1666 
Q 2234 1541 1622 1453 
Q 1275 1403 1131 1340 
Q 988 1278 909 1158 
Q 831 1038 831 891 
Q 831 666 1001 516 
Q 1172 366 1500 366 
Q 1825 366 2078 508 
Q 2331 650 2450 897 
Q 2541 1088 2541 1459 
L 2541 1666 
z
" transform="scale(0.015625)"/>
       <path id="ArialMT-6e" d="M 422 0 
L 422 3319 
L 928 3319 
L 928 2847 
Q 1294 3394 1984 3394 
Q 2284 3394 2536 3286 
Q 2788 3178 2913 3003 
Q 3038 2828 3088 2588 
Q 3119 2431 3119 2041 
L 3119 0 
L 2556 0 
L 2556 2019 
Q 2556 2363 2490 2533 
Q 2425 2703 2258 2804 
Q 2091 2906 1866 2906 
Q 1506 2906 1245 2678 
Q 984 2450 984 1813 
L 984 0 
L 422 0 
z
" transform="scale(0.015625)"/>
       <path id="ArialMT-64" d="M 2575 0 
L 2575 419 
Q 2259 -75 1647 -75 
Q 1250 -75 917 144 
Q 584 363 401 755 
Q 219 1147 219 1656 
Q 219 2153 384 2558 
Q 550 2963 881 3178 
Q 1213 3394 1622 3394 
Q 1922 3394 2156 3267 
Q 2391 3141 2538 2938 
L 2538 4581 
L 3097 4581 
L 3097 0 
L 2575 0 
z
M 797 1656 
Q 797 1019 1065 703 
Q 1334 388 1700 388 
Q 2069 388 2326 689 
Q 2584 991 2584 1609 
Q 2584 2291 2321 2609 
Q 2059 2928 1675 2928 
Q 1300 2928 1048 2622 
Q 797 2316 797 1656 
z
" transform="scale(0.015625)"/>
       <path id="ArialMT-6f" d="M 213 1659 
Q 213 2581 725 3025 
Q 1153 3394 1769 3394 
Q 2453 3394 2887 2945 
Q 3322 2497 3322 1706 
Q 3322 1066 3130 698 
Q 2938 331 2570 128 
Q 2203 -75 1769 -75 
Q 1072 -75 642 372 
Q 213 819 213 1659 
z
M 791 1659 
Q 791 1022 1069 705 
Q 1347 388 1769 388 
Q 2188 388 2466 706 
Q 2744 1025 2744 1678 
Q 2744 2294 2464 2611 
Q 2184 2928 1769 2928 
Q 1347 2928 1069 2612 
Q 791 2297 791 1659 
z
" transform="scale(0.015625)"/>
       <path id="ArialMT-6d" d="M 422 0 
L 422 3319 
L 925 3319 
L 925 2853 
Q 1081 3097 1340 3245 
Q 1600 3394 1931 3394 
Q 2300 3394 2536 3241 
Q 2772 3088 2869 2813 
Q 3263 3394 3894 3394 
Q 4388 3394 4653 3120 
Q 4919 2847 4919 2278 
L 4919 0 
L 4359 0 
L 4359 2091 
Q 4359 2428 4304 2576 
Q 4250 2725 4106 2815 
Q 3963 2906 3769 2906 
Q 3419 2906 3187 2673 
Q 2956 2441 2956 1928 
L 2956 0 
L 2394 0 
L 2394 2156 
Q 2394 2531 2256 2718 
Q 2119 2906 1806 2906 
Q 1569 2906 1367 2781 
Q 1166 2656 1075 2415 
Q 984 2175 984 1722 
L 984 0 
L 422 0 
z
" transform="scale(0.015625)"/>
       <path id="ArialMT-20" transform="scale(0.015625)"/>
       <path id="ArialMT-53" d="M 288 1472 
L 859 1522 
Q 900 1178 1048 958 
Q 1197 738 1509 602 
Q 1822 466 2213 466 
Q 2559 466 2825 569 
Q 3091 672 3220 851 
Q 3350 1031 3350 1244 
Q 3350 1459 3225 1620 
Q 3100 1781 2813 1891 
Q 2628 1963 1997 2114 
Q 1366 2266 1113 2400 
Q 784 2572 623 2826 
Q 463 3081 463 3397 
Q 463 3744 659 4045 
Q 856 4347 1234 4503 
Q 1613 4659 2075 4659 
Q 2584 4659 2973 4495 
Q 3363 4331 3572 4012 
Q 3781 3694 3797 3291 
L 3216 3247 
Q 3169 3681 2898 3903 
Q 2628 4125 2100 4125 
Q 1550 4125 1298 3923 
Q 1047 3722 1047 3438 
Q 1047 3191 1225 3031 
Q 1400 2872 2139 2705 
Q 2878 2538 3153 2413 
Q 3553 2228 3743 1945 
Q 3934 1663 3934 1294 
Q 3934 928 3725 604 
Q 3516 281 3123 101 
Q 2731 -78 2241 -78 
Q 1619 -78 1198 103 
Q 778 284 539 648 
Q 300 1013 288 1472 
z
" transform="scale(0.015625)"/>
       <path id="ArialMT-65" d="M 2694 1069 
L 3275 997 
Q 3138 488 2766 206 
Q 2394 -75 1816 -75 
Q 1088 -75 661 373 
Q 234 822 234 1631 
Q 234 2469 665 2931 
Q 1097 3394 1784 3394 
Q 2450 3394 2872 2941 
Q 3294 2488 3294 1666 
Q 3294 1616 3291 1516 
L 816 1516 
Q 847 969 1125 678 
Q 1403 388 1819 388 
Q 2128 388 2347 550 
Q 2566 713 2694 1069 
z
M 847 1978 
L 2700 1978 
Q 2663 2397 2488 2606 
Q 2219 2931 1791 2931 
Q 1403 2931 1139 2672 
Q 875 2413 847 1978 
z
" transform="scale(0.015625)"/>
       <path id="ArialMT-28" d="M 1497 -1347 
Q 1031 -759 709 28 
Q 388 816 388 1659 
Q 388 2403 628 3084 
Q 909 3875 1497 4659 
L 1900 4659 
Q 1522 4009 1400 3731 
Q 1209 3300 1100 2831 
Q 966 2247 966 1656 
Q 966 153 1900 -1347 
L 1497 -1347 
z
" transform="scale(0.015625)"/>
       <path id="ArialMT-45" d="M 506 0 
L 506 4581 
L 3819 4581 
L 3819 4041 
L 1113 4041 
L 1113 2638 
L 3647 2638 
L 3647 2100 
L 1113 2100 
L 1113 541 
L 3925 541 
L 3925 0 
L 506 0 
z
" transform="scale(0.015625)"/>
       <path id="ArialMT-70" d="M 422 -1272 
L 422 3319 
L 934 3319 
L 934 2888 
Q 1116 3141 1344 3267 
Q 1572 3394 1897 3394 
Q 2322 3394 2647 3175 
Q 2972 2956 3137 2557 
Q 3303 2159 3303 1684 
Q 3303 1175 3120 767 
Q 2938 359 2589 142 
Q 2241 -75 1856 -75 
Q 1575 -75 1351 44 
Q 1128 163 984 344 
L 984 -1272 
L 422 -1272 
z
M 931 1641 
Q 931 1000 1190 694 
Q 1450 388 1819 388 
Q 2194 388 2461 705 
Q 2728 1022 2728 1688 
Q 2728 2322 2467 2637 
Q 2206 2953 1844 2953 
Q 1484 2953 1207 2617 
Q 931 2281 931 1641 
z
" transform="scale(0.015625)"/>
       <path id="ArialMT-69" d="M 425 3934 
L 425 4581 
L 988 4581 
L 988 3934 
L 425 3934 
z
M 425 0 
L 425 3319 
L 988 3319 
L 988 0 
L 425 0 
z
" transform="scale(0.015625)"/>
       <path id="ArialMT-73" d="M 197 991 
L 753 1078 
Q 800 744 1014 566 
Q 1228 388 1613 388 
Q 2000 388 2187 545 
Q 2375 703 2375 916 
Q 2375 1106 2209 1216 
Q 2094 1291 1634 1406 
Q 1016 1563 777 1677 
Q 538 1791 414 1992 
Q 291 2194 291 2438 
Q 291 2659 392 2848 
Q 494 3038 669 3163 
Q 800 3259 1026 3326 
Q 1253 3394 1513 3394 
Q 1903 3394 2198 3281 
Q 2494 3169 2634 2976 
Q 2775 2784 2828 2463 
L 2278 2388 
Q 2241 2644 2061 2787 
Q 1881 2931 1553 2931 
Q 1166 2931 1000 2803 
Q 834 2675 834 2503 
Q 834 2394 903 2306 
Q 972 2216 1119 2156 
Q 1203 2125 1616 2013 
Q 2213 1853 2448 1751 
Q 2684 1650 2818 1456 
Q 2953 1263 2953 975 
Q 2953 694 2789 445 
Q 2625 197 2315 61 
Q 2006 -75 1616 -75 
Q 969 -75 630 194 
Q 291 463 197 991 
z
" transform="scale(0.015625)"/>
       <path id="ArialMT-29" d="M 791 -1347 
L 388 -1347 
Q 1322 153 1322 1656 
Q 1322 2244 1188 2822 
Q 1081 3291 891 3722 
Q 769 4003 388 4659 
L 791 4659 
Q 1378 3875 1659 3084 
Q 1900 2403 1900 1659 
Q 1900 816 1576 28 
Q 1253 -759 791 -1347 
z
" transform="scale(0.015625)"/>
      </defs>
      <use xlink:href="#ArialMT-52"/>
      <use xlink:href="#ArialMT-61" x="72.216797"/>
      <use xlink:href="#ArialMT-6e" x="127.832031"/>
      <use xlink:href="#ArialMT-64" x="183.447266"/>
      <use xlink:href="#ArialMT-6f" x="239.0625"/>
      <use xlink:href="#ArialMT-6d" x="294.677734"/>
      <use xlink:href="#ArialMT-20" x="377.978516"/>
      <use xlink:href="#ArialMT-53" x="405.761719"/>
      <use xlink:href="#ArialMT-65" x="472.460938"/>
      <use xlink:href="#ArialMT-65" x="528.076172"/>
      <use xlink:href="#ArialMT-64" x="583.691406"/>
      <use xlink:href="#ArialMT-20" x="639.306641"/>
      <use xlink:href="#ArialMT-28" x="667.089844"/>
      <use xlink:href="#ArialMT-45" x="700.390625"/>
      <use xlink:href="#ArialMT-70" x="767.089844"/>
      <use xlink:href="#ArialMT-69" x="822.705078"/>
      <use xlink:href="#ArialMT-73" x="844.921875"/>
      <use xlink:href="#ArialMT-6f" x="894.921875"/>
      <use xlink:href="#ArialMT-64" x="950.537109"/>
      <use xlink:href="#ArialMT-65" x="1006.152344"/>
      <use xlink:href="#ArialMT-73" x="1061.767578"/>
      <use xlink:href="#ArialMT-29" x="1111.767578"/>
     </g>
    </g>
   </g>
   <g id="matplotlib.axis_2">
    <g id="ytick_1">
     <g id="line2d_1">
      <path d="M 57.6 257.731991 
L 414.72 257.731991 
" clip-path="url(#pc07ddda4ec)" style="fill: none; stroke: #cccccc; stroke-width: 0.8; stroke-linecap: round"/>
     </g>
     <g id="text_8">
      <!-- 2 -->
      <g style="fill: #262626" transform="translate(45.039062 261.310898) scale(0.1 -0.1)">
       <use xlink:href="#ArialMT-32"/>
      </g>
     </g>
    </g>
    <g id="ytick_2">
     <g id="line2d_2">
      <path d="M 57.6 207.410423 
L 414.72 207.410423 
" clip-path="url(#pc07ddda4ec)" style="fill: none; stroke: #cccccc; stroke-width: 0.8; stroke-linecap: round"/>
     </g>
     <g id="text_9">
      <!-- 4 -->
      <g style="fill: #262626" transform="translate(45.039062 210.98933) scale(0.1 -0.1)">
       <defs>
        <path id="ArialMT-34" d="M 2069 0 
L 2069 1097 
L 81 1097 
L 81 1613 
L 2172 4581 
L 2631 4581 
L 2631 1613 
L 3250 1613 
L 3250 1097 
L 2631 1097 
L 2631 0 
L 2069 0 
z
M 2069 1613 
L 2069 3678 
L 634 1613 
L 2069 1613 
z
" transform="scale(0.015625)"/>
       </defs>
       <use xlink:href="#ArialMT-34"/>
      </g>
     </g>
    </g>
    <g id="ytick_3">
     <g id="line2d_3">
      <path d="M 57.6 157.088855 
L 414.72 157.088855 
" clip-path="url(#pc07ddda4ec)" style="fill: none; stroke: #cccccc; stroke-width: 0.8; stroke-linecap: round"/>
     </g>
     <g id="text_10">
      <!-- 6 -->
      <g style="fill: #262626" transform="translate(45.039062 160.667761) scale(0.1 -0.1)">
       <use xlink:href="#ArialMT-36"/>
      </g>
     </g>
    </g>
    <g id="ytick_4">
     <g id="line2d_4">
      <path d="M 57.6 106.767287 
L 414.72 106.767287 
" clip-path="url(#pc07ddda4ec)" style="fill: none; stroke: #cccccc; stroke-width: 0.8; stroke-linecap: round"/>
     </g>
     <g id="text_11">
      <!-- 8 -->
      <g style="fill: #262626" transform="translate(45.039062 110.346193) scale(0.1 -0.1)">
       <use xlink:href="#ArialMT-38"/>
      </g>
     </g>
    </g>
    <g id="ytick_5">
     <g id="line2d_5">
      <path d="M 57.6 56.445719 
L 414.72 56.445719 
" clip-path="url(#pc07ddda4ec)" style="fill: none; stroke: #cccccc; stroke-width: 0.8; stroke-linecap: round"/>
     </g>
     <g id="text_12">
      <!-- 10 -->
      <g style="fill: #262626" transform="translate(39.478125 60.024625) scale(0.1 -0.1)">
       <use xlink:href="#ArialMT-31"/>
       <use xlink:href="#ArialMT-30" x="55.615234"/>
      </g>
     </g>
    </g>
    <g id="text_13">
     <!-- MSE validation -->
     <g style="fill: #262626" transform="translate(33.490625 207.876438) rotate(-90) scale(0.1 -0.1)">
      <defs>
       <path id="ArialMT-4d" d="M 475 0 
L 475 4581 
L 1388 4581 
L 2472 1338 
Q 2622 884 2691 659 
Q 2769 909 2934 1394 
L 4031 4581 
L 4847 4581 
L 4847 0 
L 4263 0 
L 4263 3834 
L 2931 0 
L 2384 0 
L 1059 3900 
L 1059 0 
L 475 0 
z
" transform="scale(0.015625)"/>
       <path id="ArialMT-76" d="M 1344 0 
L 81 3319 
L 675 3319 
L 1388 1331 
Q 1503 1009 1600 663 
Q 1675 925 1809 1294 
L 2547 3319 
L 3125 3319 
L 1869 0 
L 1344 0 
z
" transform="scale(0.015625)"/>
       <path id="ArialMT-6c" d="M 409 0 
L 409 4581 
L 972 4581 
L 972 0 
L 409 0 
z
" transform="scale(0.015625)"/>
       <path id="ArialMT-74" d="M 1650 503 
L 1731 6 
Q 1494 -44 1306 -44 
Q 1000 -44 831 53 
Q 663 150 594 308 
Q 525 466 525 972 
L 525 2881 
L 113 2881 
L 113 3319 
L 525 3319 
L 525 4141 
L 1084 4478 
L 1084 3319 
L 1650 3319 
L 1650 2881 
L 1084 2881 
L 1084 941 
Q 1084 700 1114 631 
Q 1144 563 1211 522 
Q 1278 481 1403 481 
Q 1497 481 1650 503 
z
" transform="scale(0.015625)"/>
      </defs>
      <use xlink:href="#ArialMT-4d"/>
      <use xlink:href="#ArialMT-53" x="83.300781"/>
      <use xlink:href="#ArialMT-45" x="150"/>
      <use xlink:href="#ArialMT-20" x="216.699219"/>
      <use xlink:href="#ArialMT-76" x="244.482422"/>
      <use xlink:href="#ArialMT-61" x="294.482422"/>
      <use xlink:href="#ArialMT-6c" x="350.097656"/>
      <use xlink:href="#ArialMT-69" x="372.314453"/>
      <use xlink:href="#ArialMT-64" x="394.53125"/>
      <use xlink:href="#ArialMT-61" x="450.146484"/>
      <use xlink:href="#ArialMT-74" x="505.761719"/>
      <use xlink:href="#ArialMT-69" x="533.544922"/>
      <use xlink:href="#ArialMT-6f" x="555.761719"/>
      <use xlink:href="#ArialMT-6e" x="611.376953"/>
     </g>
    </g>
   </g>
   <g id="line2d_6"/>
   <g id="line2d_7">
    <path clip-path="url(#pc07ddda4ec)" style="fill: none; stroke: #1f77b4; stroke-linecap: round"/>
   </g>
   <g id="line2d_8">
    <path clip-path="url(#pc07ddda4ec)" style="fill: none; stroke: #1f77b4; stroke-linecap: round"/>
   </g>
   <g id="line2d_9">
    <path clip-path="url(#pc07ddda4ec)" style="fill: none; stroke: #1f77b4; stroke-linecap: round"/>
   </g>
   <g id="line2d_10">
    <path clip-path="url(#pc07ddda4ec)" style="fill: none; stroke: #1f77b4; stroke-linecap: round"/>
   </g>
   <g id="line2d_11">
    <path clip-path="url(#pc07ddda4ec)" style="fill: none; stroke: #1f77b4; stroke-linecap: round"/>
   </g>
   <g id="line2d_12">
    <path clip-path="url(#pc07ddda4ec)" style="fill: none; stroke: #1f77b4; stroke-linecap: round"/>
   </g>
   <g id="PathCollection_1">
    <defs>
     <path id="mc2cfee6726" d="M 0 3.383948 
C 0.897434 3.383948 1.758231 3.027394 2.392813 2.392813 
C 3.027394 1.758231 3.383948 0.897434 3.383948 0 
C 3.383948 -0.897434 3.027394 -1.758231 2.392813 -2.392813 
C 1.758231 -3.027394 0.897434 -3.383948 0 -3.383948 
C -0.897434 -3.383948 -1.758231 -3.027394 -2.392813 -2.392813 
C -3.027394 -1.758231 -3.383948 -0.897434 -3.383948 0 
C -3.383948 0.897434 -3.027394 1.758231 -2.392813 2.392813 
C -1.758231 3.027394 -0.897434 3.383948 0 3.383948 
z
" style="stroke: #1f77b4; stroke-width: 2.025"/>
    </defs>
    <g clip-path="url(#pc07ddda4ec)">
     <use xlink:href="#mc2cfee6726" x="84.384" y="144.854133" style="fill: #1f77b4; stroke: #1f77b4; stroke-width: 2.025"/>
     <use xlink:href="#mc2cfee6726" x="143.904" y="111.151727" style="fill: #1f77b4; stroke: #1f77b4; stroke-width: 2.025"/>
     <use xlink:href="#mc2cfee6726" x="203.424" y="180.402102" style="fill: #1f77b4; stroke: #1f77b4; stroke-width: 2.025"/>
     <use xlink:href="#mc2cfee6726" x="262.944" y="53.568" style="fill: #1f77b4; stroke: #1f77b4; stroke-width: 2.025"/>
     <use xlink:href="#mc2cfee6726" x="322.464" y="69.675232" style="fill: #1f77b4; stroke: #1f77b4; stroke-width: 2.025"/>
     <use xlink:href="#mc2cfee6726" x="381.984" y="190.670771" style="fill: #1f77b4; stroke: #1f77b4; stroke-width: 2.025"/>
    </g>
   </g>
   <g id="line2d_13"/>
   <g id="line2d_14">
    <path clip-path="url(#pc07ddda4ec)" style="fill: none; stroke: #ff7f0e; stroke-linecap: round"/>
   </g>
   <g id="line2d_15">
    <path clip-path="url(#pc07ddda4ec)" style="fill: none; stroke: #ff7f0e; stroke-linecap: round"/>
   </g>
   <g id="line2d_16">
    <path clip-path="url(#pc07ddda4ec)" style="fill: none; stroke: #ff7f0e; stroke-linecap: round"/>
   </g>
   <g id="line2d_17">
    <path clip-path="url(#pc07ddda4ec)" style="fill: none; stroke: #ff7f0e; stroke-linecap: round"/>
   </g>
   <g id="line2d_18">
    <path clip-path="url(#pc07ddda4ec)" style="fill: none; stroke: #ff7f0e; stroke-linecap: round"/>
   </g>
   <g id="line2d_19">
    <path clip-path="url(#pc07ddda4ec)" style="fill: none; stroke: #ff7f0e; stroke-linecap: round"/>
   </g>
   <g id="PathCollection_2">
    <defs>
     <path id="mfb3c3635a9" d="M 0 3.383948 
C 0.897434 3.383948 1.758231 3.027394 2.392813 2.392813 
C 3.027394 1.758231 3.383948 0.897434 3.383948 0 
C 3.383948 -0.897434 3.027394 -1.758231 2.392813 -2.392813 
C 1.758231 -3.027394 0.897434 -3.383948 0 -3.383948 
C -0.897434 -3.383948 -1.758231 -3.027394 -2.392813 -2.392813 
C -3.027394 -1.758231 -3.383948 -0.897434 -3.383948 0 
C -3.383948 0.897434 -3.027394 1.758231 -2.392813 2.392813 
C -1.758231 3.027394 -0.897434 3.383948 0 3.383948 
z
" style="stroke: #ff7f0e; stroke-width: 2.025"/>
    </defs>
    <g clip-path="url(#pc07ddda4ec)">
     <use xlink:href="#mfb3c3635a9" x="86.368" y="295.488" style="fill: #ff7f0e; stroke: #ff7f0e; stroke-width: 2.025"/>
     <use xlink:href="#mfb3c3635a9" x="145.888" y="292.574565" style="fill: #ff7f0e; stroke: #ff7f0e; stroke-width: 2.025"/>
     <use xlink:href="#mfb3c3635a9" x="205.408" y="294.334977" style="fill: #ff7f0e; stroke: #ff7f0e; stroke-width: 2.025"/>
     <use xlink:href="#mfb3c3635a9" x="264.928" y="288.692304" style="fill: #ff7f0e; stroke: #ff7f0e; stroke-width: 2.025"/>
     <use xlink:href="#mfb3c3635a9" x="324.448" y="283.99313" style="fill: #ff7f0e; stroke: #ff7f0e; stroke-width: 2.025"/>
     <use xlink:href="#mfb3c3635a9" x="383.968" y="295.427679" style="fill: #ff7f0e; stroke: #ff7f0e; stroke-width: 2.025"/>
    </g>
   </g>
   <g id="patch_3">
    <path d="M 57.6 307.584 
L 57.6 41.472 
" style="fill: none; stroke: #cccccc; stroke-width: 0.8; stroke-linejoin: miter; stroke-linecap: square"/>
   </g>
   <g id="patch_4">
    <path d="M 414.72 307.584 
L 414.72 41.472 
" style="fill: none; stroke: #cccccc; stroke-width: 0.8; stroke-linejoin: miter; stroke-linecap: square"/>
   </g>
   <g id="patch_5">
    <path d="M 57.6 307.584 
L 414.72 307.584 
" style="fill: none; stroke: #cccccc; stroke-width: 0.8; stroke-linejoin: miter; stroke-linecap: square"/>
   </g>
   <g id="patch_6">
    <path d="M 57.6 41.472 
L 414.72 41.472 
" style="fill: none; stroke: #cccccc; stroke-width: 0.8; stroke-linejoin: miter; stroke-linecap: square"/>
   </g>
   <g id="line2d_20"/>
   <g id="line2d_21">
    <path clip-path="url(#pc07ddda4ec)" style="fill: none; stroke: #2ca02c; stroke-linecap: round"/>
   </g>
   <g id="line2d_22">
    <path clip-path="url(#pc07ddda4ec)" style="fill: none; stroke: #2ca02c; stroke-linecap: round"/>
   </g>
   <g id="line2d_23">
    <path clip-path="url(#pc07ddda4ec)" style="fill: none; stroke: #2ca02c; stroke-linecap: round"/>
   </g>
   <g id="line2d_24">
    <path clip-path="url(#pc07ddda4ec)" style="fill: none; stroke: #2ca02c; stroke-linecap: round"/>
   </g>
   <g id="line2d_25">
    <path clip-path="url(#pc07ddda4ec)" style="fill: none; stroke: #2ca02c; stroke-linecap: round"/>
   </g>
   <g id="line2d_26">
    <path clip-path="url(#pc07ddda4ec)" style="fill: none; stroke: #2ca02c; stroke-linecap: round"/>
   </g>
   <g id="PathCollection_3">
    <defs>
     <path id="mad2fd333f0" d="M 0 3.383948 
C 0.897434 3.383948 1.758231 3.027394 2.392813 2.392813 
C 3.027394 1.758231 3.383948 0.897434 3.383948 0 
C 3.383948 -0.897434 3.027394 -1.758231 2.392813 -2.392813 
C 1.758231 -3.027394 0.897434 -3.383948 0 -3.383948 
C -0.897434 -3.383948 -1.758231 -3.027394 -2.392813 -2.392813 
C -3.027394 -1.758231 -3.383948 -0.897434 -3.383948 0 
C -3.383948 0.897434 -3.027394 1.758231 -2.392813 2.392813 
C -1.758231 3.027394 -0.897434 3.383948 0 3.383948 
z
" style="stroke: #2ca02c; stroke-width: 2.025"/>
    </defs>
    <g clip-path="url(#pc07ddda4ec)">
     <use xlink:href="#mad2fd333f0" x="88.352" y="208.790484" style="fill: #2ca02c; stroke: #2ca02c; stroke-width: 2.025"/>
     <use xlink:href="#mad2fd333f0" x="147.872" y="150.435474" style="fill: #2ca02c; stroke: #2ca02c; stroke-width: 2.025"/>
     <use xlink:href="#mad2fd333f0" x="207.392" y="189.6259" style="fill: #2ca02c; stroke: #2ca02c; stroke-width: 2.025"/>
     <use xlink:href="#mad2fd333f0" x="266.912" y="184.013347" style="fill: #2ca02c; stroke: #2ca02c; stroke-width: 2.025"/>
     <use xlink:href="#mad2fd333f0" x="326.432" y="156.980548" style="fill: #2ca02c; stroke: #2ca02c; stroke-width: 2.025"/>
     <use xlink:href="#mad2fd333f0" x="385.952" y="102.579354" style="fill: #2ca02c; stroke: #2ca02c; stroke-width: 2.025"/>
    </g>
   </g>
   <g id="text_14">
    <!-- Variance in different seeds for data -->
    <g style="fill: #262626" transform="translate(143.65875 35.472) scale(0.12 -0.12)">
     <defs>
      <path id="ArialMT-56" d="M 1803 0 
L 28 4581 
L 684 4581 
L 1875 1253 
Q 2019 853 2116 503 
Q 2222 878 2363 1253 
L 3600 4581 
L 4219 4581 
L 2425 0 
L 1803 0 
z
" transform="scale(0.015625)"/>
      <path id="ArialMT-72" d="M 416 0 
L 416 3319 
L 922 3319 
L 922 2816 
Q 1116 3169 1280 3281 
Q 1444 3394 1641 3394 
Q 1925 3394 2219 3213 
L 2025 2691 
Q 1819 2813 1613 2813 
Q 1428 2813 1281 2702 
Q 1134 2591 1072 2394 
Q 978 2094 978 1738 
L 978 0 
L 416 0 
z
" transform="scale(0.015625)"/>
      <path id="ArialMT-63" d="M 2588 1216 
L 3141 1144 
Q 3050 572 2676 248 
Q 2303 -75 1759 -75 
Q 1078 -75 664 370 
Q 250 816 250 1647 
Q 250 2184 428 2587 
Q 606 2991 970 3192 
Q 1334 3394 1763 3394 
Q 2303 3394 2647 3120 
Q 2991 2847 3088 2344 
L 2541 2259 
Q 2463 2594 2264 2762 
Q 2066 2931 1784 2931 
Q 1359 2931 1093 2626 
Q 828 2322 828 1663 
Q 828 994 1084 691 
Q 1341 388 1753 388 
Q 2084 388 2306 591 
Q 2528 794 2588 1216 
z
" transform="scale(0.015625)"/>
      <path id="ArialMT-66" d="M 556 0 
L 556 2881 
L 59 2881 
L 59 3319 
L 556 3319 
L 556 3672 
Q 556 4006 616 4169 
Q 697 4388 901 4523 
Q 1106 4659 1475 4659 
Q 1713 4659 2000 4603 
L 1916 4113 
Q 1741 4144 1584 4144 
Q 1328 4144 1222 4034 
Q 1116 3925 1116 3625 
L 1116 3319 
L 1763 3319 
L 1763 2881 
L 1116 2881 
L 1116 0 
L 556 0 
z
" transform="scale(0.015625)"/>
     </defs>
     <use xlink:href="#ArialMT-56"/>
     <use xlink:href="#ArialMT-61" x="59.324219"/>
     <use xlink:href="#ArialMT-72" x="114.939453"/>
     <use xlink:href="#ArialMT-69" x="148.240234"/>
     <use xlink:href="#ArialMT-61" x="170.457031"/>
     <use xlink:href="#ArialMT-6e" x="226.072266"/>
     <use xlink:href="#ArialMT-63" x="281.6875"/>
     <use xlink:href="#ArialMT-65" x="331.6875"/>
     <use xlink:href="#ArialMT-20" x="387.302734"/>
     <use xlink:href="#ArialMT-69" x="415.085938"/>
     <use xlink:href="#ArialMT-6e" x="437.302734"/>
     <use xlink:href="#ArialMT-20" x="492.917969"/>
     <use xlink:href="#ArialMT-64" x="520.701172"/>
     <use xlink:href="#ArialMT-69" x="576.316406"/>
     <use xlink:href="#ArialMT-66" x="598.533203"/>
     <use xlink:href="#ArialMT-66" x="624.566406"/>
     <use xlink:href="#ArialMT-65" x="652.349609"/>
     <use xlink:href="#ArialMT-72" x="707.964844"/>
     <use xlink:href="#ArialMT-65" x="741.265625"/>
     <use xlink:href="#ArialMT-6e" x="796.880859"/>
     <use xlink:href="#ArialMT-74" x="852.496094"/>
     <use xlink:href="#ArialMT-20" x="880.279297"/>
     <use xlink:href="#ArialMT-73" x="908.0625"/>
     <use xlink:href="#ArialMT-65" x="958.0625"/>
     <use xlink:href="#ArialMT-65" x="1013.677734"/>
     <use xlink:href="#ArialMT-64" x="1069.292969"/>
     <use xlink:href="#ArialMT-73" x="1124.908203"/>
     <use xlink:href="#ArialMT-20" x="1174.908203"/>
     <use xlink:href="#ArialMT-66" x="1202.691406"/>
     <use xlink:href="#ArialMT-6f" x="1230.474609"/>
     <use xlink:href="#ArialMT-72" x="1286.089844"/>
     <use xlink:href="#ArialMT-20" x="1319.390625"/>
     <use xlink:href="#ArialMT-64" x="1347.173828"/>
     <use xlink:href="#ArialMT-61" x="1402.789062"/>
     <use xlink:href="#ArialMT-74" x="1458.404297"/>
     <use xlink:href="#ArialMT-61" x="1486.1875"/>
    </g>
   </g>
   <g id="line2d_27"/>
   <g id="line2d_28">
    <path clip-path="url(#pc07ddda4ec)" style="fill: none; stroke: #d62728; stroke-linecap: round"/>
   </g>
   <g id="line2d_29">
    <path clip-path="url(#pc07ddda4ec)" style="fill: none; stroke: #d62728; stroke-linecap: round"/>
   </g>
   <g id="line2d_30">
    <path clip-path="url(#pc07ddda4ec)" style="fill: none; stroke: #d62728; stroke-linecap: round"/>
   </g>
   <g id="line2d_31">
    <path clip-path="url(#pc07ddda4ec)" style="fill: none; stroke: #d62728; stroke-linecap: round"/>
   </g>
   <g id="line2d_32">
    <path clip-path="url(#pc07ddda4ec)" style="fill: none; stroke: #d62728; stroke-linecap: round"/>
   </g>
   <g id="line2d_33">
    <path clip-path="url(#pc07ddda4ec)" style="fill: none; stroke: #d62728; stroke-linecap: round"/>
   </g>
   <g id="PathCollection_4">
    <defs>
     <path id="m3d9b853d30" d="M 0 3.383948 
C 0.897434 3.383948 1.758231 3.027394 2.392813 2.392813 
C 3.027394 1.758231 3.383948 0.897434 3.383948 0 
C 3.383948 -0.897434 3.027394 -1.758231 2.392813 -2.392813 
C 1.758231 -3.027394 0.897434 -3.383948 0 -3.383948 
C -0.897434 -3.383948 -1.758231 -3.027394 -2.392813 -2.392813 
C -3.027394 -1.758231 -3.383948 -0.897434 -3.383948 0 
C -3.383948 0.897434 -3.027394 1.758231 -2.392813 2.392813 
C -1.758231 3.027394 -0.897434 3.383948 0 3.383948 
z
" style="stroke: #d62728; stroke-width: 2.025"/>
    </defs>
    <g clip-path="url(#pc07ddda4ec)">
     <use xlink:href="#m3d9b853d30" x="90.336" y="294.075788" style="fill: #d62728; stroke: #d62728; stroke-width: 2.025"/>
     <use xlink:href="#m3d9b853d30" x="149.856" y="294.794485" style="fill: #d62728; stroke: #d62728; stroke-width: 2.025"/>
     <use xlink:href="#m3d9b853d30" x="209.376" y="295.28558" style="fill: #d62728; stroke: #d62728; stroke-width: 2.025"/>
     <use xlink:href="#m3d9b853d30" x="268.896" y="295.059433" style="fill: #d62728; stroke: #d62728; stroke-width: 2.025"/>
     <use xlink:href="#m3d9b853d30" x="328.416" y="294.738565" style="fill: #d62728; stroke: #d62728; stroke-width: 2.025"/>
     <use xlink:href="#m3d9b853d30" x="387.936" y="294.904746" style="fill: #d62728; stroke: #d62728; stroke-width: 2.025"/>
    </g>
   </g>
   <g id="legend_1">
    <g id="patch_7">
     <path d="M 64.6 120.31575 
L 223.139062 120.31575 
Q 225.139062 120.31575 225.139062 118.31575 
L 225.139062 48.472 
Q 225.139062 46.472 223.139062 46.472 
L 64.6 46.472 
Q 62.6 46.472 62.6 48.472 
L 62.6 118.31575 
Q 62.6 120.31575 64.6 120.31575 
z
" style="fill: #ffffff; opacity: 0.8; stroke: #cccccc; stroke-linejoin: miter"/>
    </g>
    <g id="text_15">
     <!-- train_equal_val, use_true_y_in_val -->
     <g style="fill: #262626" transform="translate(66.6 57.629813) scale(0.1 -0.1)">
      <defs>
       <path id="ArialMT-5f" d="M -97 -1272 
L -97 -866 
L 3631 -866 
L 3631 -1272 
L -97 -1272 
z
" transform="scale(0.015625)"/>
       <path id="ArialMT-71" d="M 2538 -1272 
L 2538 353 
Q 2406 169 2170 47 
Q 1934 -75 1669 -75 
Q 1078 -75 651 397 
Q 225 869 225 1691 
Q 225 2191 398 2587 
Q 572 2984 901 3189 
Q 1231 3394 1625 3394 
Q 2241 3394 2594 2875 
L 2594 3319 
L 3100 3319 
L 3100 -1272 
L 2538 -1272 
z
M 803 1669 
Q 803 1028 1072 708 
Q 1341 388 1716 388 
Q 2075 388 2334 692 
Q 2594 997 2594 1619 
Q 2594 2281 2320 2615 
Q 2047 2950 1678 2950 
Q 1313 2950 1058 2639 
Q 803 2328 803 1669 
z
" transform="scale(0.015625)"/>
       <path id="ArialMT-75" d="M 2597 0 
L 2597 488 
Q 2209 -75 1544 -75 
Q 1250 -75 995 37 
Q 741 150 617 320 
Q 494 491 444 738 
Q 409 903 409 1263 
L 409 3319 
L 972 3319 
L 972 1478 
Q 972 1038 1006 884 
Q 1059 663 1231 536 
Q 1403 409 1656 409 
Q 1909 409 2131 539 
Q 2353 669 2445 892 
Q 2538 1116 2538 1541 
L 2538 3319 
L 3100 3319 
L 3100 0 
L 2597 0 
z
" transform="scale(0.015625)"/>
       <path id="ArialMT-2c" d="M 569 0 
L 569 641 
L 1209 641 
L 1209 0 
Q 1209 -353 1084 -570 
Q 959 -788 688 -906 
L 531 -666 
Q 709 -588 793 -436 
Q 878 -284 888 0 
L 569 0 
z
" transform="scale(0.015625)"/>
       <path id="ArialMT-79" d="M 397 -1278 
L 334 -750 
Q 519 -800 656 -800 
Q 844 -800 956 -737 
Q 1069 -675 1141 -563 
Q 1194 -478 1313 -144 
Q 1328 -97 1363 -6 
L 103 3319 
L 709 3319 
L 1400 1397 
Q 1534 1031 1641 628 
Q 1738 1016 1872 1384 
L 2581 3319 
L 3144 3319 
L 1881 -56 
Q 1678 -603 1566 -809 
Q 1416 -1088 1222 -1217 
Q 1028 -1347 759 -1347 
Q 597 -1347 397 -1278 
z
" transform="scale(0.015625)"/>
      </defs>
      <use xlink:href="#ArialMT-74"/>
      <use xlink:href="#ArialMT-72" x="27.783203"/>
      <use xlink:href="#ArialMT-61" x="61.083984"/>
      <use xlink:href="#ArialMT-69" x="116.699219"/>
      <use xlink:href="#ArialMT-6e" x="138.916016"/>
      <use xlink:href="#ArialMT-5f" x="194.53125"/>
      <use xlink:href="#ArialMT-65" x="250.146484"/>
      <use xlink:href="#ArialMT-71" x="305.761719"/>
      <use xlink:href="#ArialMT-75" x="361.376953"/>
      <use xlink:href="#ArialMT-61" x="416.992188"/>
      <use xlink:href="#ArialMT-6c" x="472.607422"/>
      <use xlink:href="#ArialMT-5f" x="494.824219"/>
      <use xlink:href="#ArialMT-76" x="550.439453"/>
      <use xlink:href="#ArialMT-61" x="600.439453"/>
      <use xlink:href="#ArialMT-6c" x="656.054688"/>
      <use xlink:href="#ArialMT-2c" x="678.271484"/>
      <use xlink:href="#ArialMT-20" x="706.054688"/>
      <use xlink:href="#ArialMT-75" x="733.837891"/>
      <use xlink:href="#ArialMT-73" x="789.453125"/>
      <use xlink:href="#ArialMT-65" x="839.453125"/>
      <use xlink:href="#ArialMT-5f" x="895.068359"/>
      <use xlink:href="#ArialMT-74" x="950.683594"/>
      <use xlink:href="#ArialMT-72" x="978.466797"/>
      <use xlink:href="#ArialMT-75" x="1011.767578"/>
      <use xlink:href="#ArialMT-65" x="1067.382812"/>
      <use xlink:href="#ArialMT-5f" x="1122.998047"/>
      <use xlink:href="#ArialMT-79" x="1178.613281"/>
      <use xlink:href="#ArialMT-5f" x="1228.613281"/>
      <use xlink:href="#ArialMT-69" x="1284.228516"/>
      <use xlink:href="#ArialMT-6e" x="1306.445312"/>
      <use xlink:href="#ArialMT-5f" x="1362.060547"/>
      <use xlink:href="#ArialMT-76" x="1417.675781"/>
      <use xlink:href="#ArialMT-61" x="1467.675781"/>
      <use xlink:href="#ArialMT-6c" x="1523.291016"/>
     </g>
    </g>
    <g id="PathCollection_5">
     <g>
      <use xlink:href="#mc2cfee6726" x="112.639844" y="69.267313" style="fill: #1f77b4; stroke: #1f77b4; stroke-width: 2.025"/>
     </g>
    </g>
    <g id="text_16">
     <!-- False, False -->
     <g style="fill: #262626" transform="translate(130.639844 71.892313) scale(0.1 -0.1)">
      <defs>
       <path id="ArialMT-46" d="M 525 0 
L 525 4581 
L 3616 4581 
L 3616 4041 
L 1131 4041 
L 1131 2622 
L 3281 2622 
L 3281 2081 
L 1131 2081 
L 1131 0 
L 525 0 
z
" transform="scale(0.015625)"/>
      </defs>
      <use xlink:href="#ArialMT-46"/>
      <use xlink:href="#ArialMT-61" x="61.083984"/>
      <use xlink:href="#ArialMT-6c" x="116.699219"/>
      <use xlink:href="#ArialMT-73" x="138.916016"/>
      <use xlink:href="#ArialMT-65" x="188.916016"/>
      <use xlink:href="#ArialMT-2c" x="244.53125"/>
      <use xlink:href="#ArialMT-20" x="272.314453"/>
      <use xlink:href="#ArialMT-46" x="300.097656"/>
      <use xlink:href="#ArialMT-61" x="361.181641"/>
      <use xlink:href="#ArialMT-6c" x="416.796875"/>
      <use xlink:href="#ArialMT-73" x="439.013672"/>
      <use xlink:href="#ArialMT-65" x="489.013672"/>
     </g>
    </g>
    <g id="PathCollection_6">
     <g>
      <use xlink:href="#mfb3c3635a9" x="112.639844" y="83.412625" style="fill: #ff7f0e; stroke: #ff7f0e; stroke-width: 2.025"/>
     </g>
    </g>
    <g id="text_17">
     <!-- False, True -->
     <g style="fill: #262626" transform="translate(130.639844 86.037625) scale(0.1 -0.1)">
      <defs>
       <path id="ArialMT-54" d="M 1659 0 
L 1659 4041 
L 150 4041 
L 150 4581 
L 3781 4581 
L 3781 4041 
L 2266 4041 
L 2266 0 
L 1659 0 
z
" transform="scale(0.015625)"/>
      </defs>
      <use xlink:href="#ArialMT-46"/>
      <use xlink:href="#ArialMT-61" x="61.083984"/>
      <use xlink:href="#ArialMT-6c" x="116.699219"/>
      <use xlink:href="#ArialMT-73" x="138.916016"/>
      <use xlink:href="#ArialMT-65" x="188.916016"/>
      <use xlink:href="#ArialMT-2c" x="244.53125"/>
      <use xlink:href="#ArialMT-20" x="272.314453"/>
      <use xlink:href="#ArialMT-54" x="298.347656"/>
      <use xlink:href="#ArialMT-72" x="355.681641"/>
      <use xlink:href="#ArialMT-75" x="388.982422"/>
      <use xlink:href="#ArialMT-65" x="444.597656"/>
     </g>
    </g>
    <g id="PathCollection_7">
     <g>
      <use xlink:href="#mad2fd333f0" x="112.639844" y="97.557938" style="fill: #2ca02c; stroke: #2ca02c; stroke-width: 2.025"/>
     </g>
    </g>
    <g id="text_18">
     <!-- True, False -->
     <g style="fill: #262626" transform="translate(130.639844 100.182938) scale(0.1 -0.1)">
      <use xlink:href="#ArialMT-54"/>
      <use xlink:href="#ArialMT-72" x="57.333984"/>
      <use xlink:href="#ArialMT-75" x="90.634766"/>
      <use xlink:href="#ArialMT-65" x="146.25"/>
      <use xlink:href="#ArialMT-2c" x="201.865234"/>
      <use xlink:href="#ArialMT-20" x="229.648438"/>
      <use xlink:href="#ArialMT-46" x="257.431641"/>
      <use xlink:href="#ArialMT-61" x="318.515625"/>
      <use xlink:href="#ArialMT-6c" x="374.130859"/>
      <use xlink:href="#ArialMT-73" x="396.347656"/>
      <use xlink:href="#ArialMT-65" x="446.347656"/>
     </g>
    </g>
    <g id="PathCollection_8">
     <g>
      <use xlink:href="#m3d9b853d30" x="112.639844" y="111.70325" style="fill: #d62728; stroke: #d62728; stroke-width: 2.025"/>
     </g>
    </g>
    <g id="text_19">
     <!-- True, True -->
     <g style="fill: #262626" transform="translate(130.639844 114.32825) scale(0.1 -0.1)">
      <use xlink:href="#ArialMT-54"/>
      <use xlink:href="#ArialMT-72" x="57.333984"/>
      <use xlink:href="#ArialMT-75" x="90.634766"/>
      <use xlink:href="#ArialMT-65" x="146.25"/>
      <use xlink:href="#ArialMT-2c" x="201.865234"/>
      <use xlink:href="#ArialMT-20" x="229.648438"/>
      <use xlink:href="#ArialMT-54" x="255.681641"/>
      <use xlink:href="#ArialMT-72" x="313.015625"/>
      <use xlink:href="#ArialMT-75" x="346.316406"/>
      <use xlink:href="#ArialMT-65" x="401.931641"/>
     </g>
    </g>
   </g>
  </g>
 </g>
 <defs>
  <clipPath id="pc07ddda4ec">
   <rect x="57.6" y="41.472" width="357.12" height="266.112"/>
  </clipPath>
 </defs>
</svg>
