<?xml version="1.0" encoding="utf-8" standalone="no"?>
<!DOCTYPE svg PUBLIC "-//W3C//DTD SVG 1.1//EN"
  "http://www.w3.org/Graphics/SVG/1.1/DTD/svg11.dtd">
<svg xmlns:xlink="http://www.w3.org/1999/xlink" width="302.686995pt" height="162.732798pt" viewBox="0 0 302.686995 162.732798" xmlns="http://www.w3.org/2000/svg" version="1.1">
 <metadata>
  <rdf:RDF xmlns:dc="http://purl.org/dc/elements/1.1/" xmlns:cc="http://creativecommons.org/ns#" xmlns:rdf="http://www.w3.org/1999/02/22-rdf-syntax-ns#">
   <cc:Work>
    <dc:type rdf:resource="http://purl.org/dc/dcmitype/StillImage"/>
    <dc:date>2023-07-25T15:32:26.970912</dc:date>
    <dc:format>image/svg+xml</dc:format>
    <dc:creator>
     <cc:Agent>
      <dc:title>Matplotlib v3.7.1, https://matplotlib.org/</dc:title>
     </cc:Agent>
    </dc:creator>
   </cc:Work>
  </rdf:RDF>
 </metadata>
 <defs>
  <style type="text/css">*{stroke-linejoin: round; stroke-linecap: butt}</style>
 </defs>
 <g id="figure_1">
  <g id="patch_1">
   <path d="M 0 162.732798 
L 302.686995 162.732798 
L 302.686995 0 
L 0 0 
z
" style="fill: #ffffff"/>
  </g>
  <g id="axes_1">
   <g id="patch_2">
    <path d="M 184.469166 136.353831 
L 190.495186 136.353831 
L 187.482176 140.699518 
z
" clip-path="url(#p9c696dc842)" style="fill: #778899"/>
   </g>
   <g id="patch_3">
    <path d="M 207.646166 136.353831 
L 213.672186 136.353831 
L 210.659176 140.699518 
z
" clip-path="url(#p9c696dc842)" style="fill: #778899"/>
   </g>
   <g id="patch_4">
    <path d="M 230.823166 136.353831 
L 236.849186 136.353831 
L 233.836176 140.699518 
z
" clip-path="url(#p9c696dc842)" style="fill: #778899"/>
   </g>
   <g id="patch_5">
    <path d="M 254.000165 136.353831 
L 260.026185 136.353831 
L 257.013175 140.699518 
z
" clip-path="url(#p9c696dc842)" style="fill: #778899"/>
   </g>
   <g id="patch_6">
    <path d="M 277.177165 136.353831 
L 283.203185 136.353831 
L 280.190175 140.699518 
z
" clip-path="url(#p9c696dc842)" style="fill: #778899"/>
   </g>
   <g id="line2d_1">
    <path d="M 35.904598 25.7416 
L 293.169295 25.7416 
" clip-path="url(#p9c696dc842)" style="fill: none; stroke: #000000; stroke-linecap: square"/>
   </g>
   <g id="line2d_2">
    <path d="M 35.904598 48.918599 
L 293.169295 48.918599 
" clip-path="url(#p9c696dc842)" style="fill: none; stroke: #000000; stroke-linecap: square"/>
   </g>
   <g id="line2d_3">
    <path d="M 35.904598 72.095599 
L 293.169295 72.095599 
" clip-path="url(#p9c696dc842)" style="fill: none; stroke: #000000; stroke-linecap: square"/>
   </g>
   <g id="line2d_4">
    <path d="M 35.904598 95.272599 
L 293.169295 95.272599 
" clip-path="url(#p9c696dc842)" style="fill: none; stroke: #000000; stroke-linecap: square"/>
   </g>
   <g id="line2d_5">
    <path d="M 35.904598 118.449599 
L 293.169295 118.449599 
" clip-path="url(#p9c696dc842)" style="fill: none; stroke: #000000; stroke-linecap: square"/>
   </g>
   <g id="line2d_6">
    <path d="M 35.904598 140.873346 
L 293.169295 140.873346 
" clip-path="url(#p9c696dc842)" style="fill: none; stroke: #778899; stroke-linecap: square"/>
   </g>
   <g id="line2d_7">
    <path d="M 35.904598 142.379851 
L 293.169295 142.379851 
" clip-path="url(#p9c696dc842)" style="fill: none; stroke: #778899; stroke-linecap: square"/>
   </g>
   <g id="line2d_8">
    <path d="M 40.539998 143.944298 
L 42.857698 139.308898 
" clip-path="url(#p9c696dc842)" style="fill: none; stroke: #778899; stroke-width: 1.5; stroke-linecap: square"/>
   </g>
   <g id="line2d_9">
    <path d="M 188.235429 25.7416 
L 188.235429 136.353831 
" clip-path="url(#p9c696dc842)" style="fill: none; stroke: #778899; stroke-linecap: square"/>
   </g>
   <g id="line2d_10">
    <path d="M 186.728924 25.7416 
L 186.728924 136.353831 
" clip-path="url(#p9c696dc842)" style="fill: none; stroke: #778899; stroke-linecap: square"/>
   </g>
   <g id="line2d_11">
    <path d="M 211.412428 48.918599 
L 211.412428 136.353831 
" clip-path="url(#p9c696dc842)" style="fill: none; stroke: #778899; stroke-linecap: square"/>
   </g>
   <g id="line2d_12">
    <path d="M 209.905923 48.918599 
L 209.905923 136.353831 
" clip-path="url(#p9c696dc842)" style="fill: none; stroke: #778899; stroke-linecap: square"/>
   </g>
   <g id="line2d_13">
    <path d="M 234.589428 72.095599 
L 234.589428 136.353831 
" clip-path="url(#p9c696dc842)" style="fill: none; stroke: #778899; stroke-linecap: square"/>
   </g>
   <g id="line2d_14">
    <path d="M 233.082923 72.095599 
L 233.082923 136.353831 
" clip-path="url(#p9c696dc842)" style="fill: none; stroke: #778899; stroke-linecap: square"/>
   </g>
   <g id="line2d_15">
    <path d="M 257.766428 95.272599 
L 257.766428 136.353831 
" clip-path="url(#p9c696dc842)" style="fill: none; stroke: #778899; stroke-linecap: square"/>
   </g>
   <g id="line2d_16">
    <path d="M 256.259923 95.272599 
L 256.259923 136.353831 
" clip-path="url(#p9c696dc842)" style="fill: none; stroke: #778899; stroke-linecap: square"/>
   </g>
   <g id="line2d_17">
    <path d="M 280.943427 118.449599 
L 280.943427 136.353831 
" clip-path="url(#p9c696dc842)" style="fill: none; stroke: #778899; stroke-linecap: square"/>
   </g>
   <g id="line2d_18">
    <path d="M 279.436922 118.449599 
L 279.436922 136.353831 
" clip-path="url(#p9c696dc842)" style="fill: none; stroke: #778899; stroke-linecap: square"/>
   </g>
   <g id="patch_7">
    <path d="M 40.887653 33.274125 
L 55.952703 33.274125 
L 55.952703 18.209075 
L 40.887653 18.209075 
z
" clip-path="url(#p9c696dc842)" style="stroke: #000000; stroke-width: 0.75; stroke-linejoin: miter"/>
   </g>
   <g id="patch_8">
    <path d="M 40.887653 56.451124 
L 55.952703 56.451124 
L 55.952703 41.386075 
L 40.887653 41.386075 
z
" clip-path="url(#p9c696dc842)" style="stroke: #000000; stroke-width: 0.75; stroke-linejoin: miter"/>
   </g>
   <g id="patch_9">
    <path d="M 64.064653 33.274125 
L 79.129703 33.274125 
L 79.129703 18.209075 
L 64.064653 18.209075 
z
" clip-path="url(#p9c696dc842)" style="fill: #ffffff; stroke: #000000; stroke-width: 0.75; stroke-linejoin: miter"/>
   </g>
   <g id="patch_10">
    <path d="M 64.064653 56.451124 
L 79.129703 56.451124 
L 79.129703 41.386075 
L 64.064653 41.386075 
z
" clip-path="url(#p9c696dc842)" style="fill: #ffffff; stroke: #000000; stroke-width: 0.75; stroke-linejoin: miter"/>
   </g>
   <g id="patch_11">
    <path d="M 87.241653 125.982123 
L 102.306702 125.982123 
L 102.306702 18.209075 
L 87.241653 18.209075 
z
" clip-path="url(#p9c696dc842)" style="fill: #ffffff; stroke: #000000; stroke-width: 0.75; stroke-linejoin: miter"/>
   </g>
   <g id="patch_12">
    <path d="M 110.418652 33.274125 
L 125.483702 33.274125 
L 125.483702 18.209075 
L 110.418652 18.209075 
z
" clip-path="url(#p9c696dc842)" style="stroke: #000000; stroke-width: 0.75; stroke-linejoin: miter"/>
   </g>
   <g id="patch_13">
    <path d="M 110.418652 56.451124 
L 125.483702 56.451124 
L 125.483702 41.386075 
L 110.418652 41.386075 
z
" clip-path="url(#p9c696dc842)" style="stroke: #000000; stroke-width: 0.75; stroke-linejoin: miter"/>
   </g>
   <g id="patch_14">
    <path d="M 133.595652 33.274125 
L 148.660702 33.274125 
L 148.660702 18.209075 
L 133.595652 18.209075 
z
" clip-path="url(#p9c696dc842)" style="fill: #ffffff; stroke: #000000; stroke-width: 0.75; stroke-linejoin: miter"/>
   </g>
   <g id="patch_15">
    <path d="M 133.595652 56.451124 
L 148.660702 56.451124 
L 148.660702 41.386075 
L 133.595652 41.386075 
z
" clip-path="url(#p9c696dc842)" style="fill: #ffffff; stroke: #000000; stroke-width: 0.75; stroke-linejoin: miter"/>
   </g>
   <g id="patch_16">
    <path d="M 156.772652 125.982123 
L 171.837701 125.982123 
L 171.837701 18.209075 
L 156.772652 18.209075 
z
" clip-path="url(#p9c696dc842)" style="fill: #ffffff; stroke: #000000; stroke-width: 0.75; stroke-linejoin: miter"/>
   </g>
   <g id="patch_17">
    <path d="M 179.949651 33.274125 
L 195.014701 33.274125 
L 195.014701 18.209075 
L 179.949651 18.209075 
z
" clip-path="url(#p9c696dc842)" style="stroke: #000000; stroke-width: 0.75; stroke-linejoin: miter"/>
   </g>
   <g id="patch_18">
    <path d="M 192.754944 28.001357 
C 192.754944 26.603469 192.199042 25.261404 191.210586 24.272948 
C 190.222129 23.284491 188.880065 22.72859 187.482176 22.72859 
C 186.084288 22.72859 184.742223 23.284491 183.753767 24.272948 
C 182.76531 25.261404 182.209409 26.603469 182.209409 28.001357 
" clip-path="url(#p9c696dc842)" style="fill: none; stroke: #ffffff; stroke-linejoin: miter"/>
   </g>
   <g id="line2d_19">
    <path d="M 187.482176 28.001357 
L 192.754944 22.72859 
" clip-path="url(#p9c696dc842)" style="fill: none; stroke: #ffffff; stroke-linecap: square"/>
   </g>
   <g id="patch_19">
    <path d="M 203.126651 56.451124 
L 218.191701 56.451124 
L 218.191701 41.386075 
L 203.126651 41.386075 
z
" clip-path="url(#p9c696dc842)" style="stroke: #000000; stroke-width: 0.75; stroke-linejoin: miter"/>
   </g>
   <g id="patch_20">
    <path d="M 215.931943 51.178357 
C 215.931943 49.780468 215.376042 48.438404 214.387586 47.449947 
C 213.399129 46.461491 212.057064 45.905589 210.659176 45.905589 
C 209.261287 45.905589 207.919223 46.461491 206.930766 47.449947 
C 205.94231 48.438404 205.386408 49.780468 205.386408 51.178357 
" clip-path="url(#p9c696dc842)" style="fill: none; stroke: #ffffff; stroke-linejoin: miter"/>
   </g>
   <g id="line2d_20">
    <path d="M 210.659176 51.178357 
L 215.931943 45.905589 
" clip-path="url(#p9c696dc842)" style="fill: none; stroke: #ffffff; stroke-linecap: square"/>
   </g>
   <g id="patch_21">
    <path d="M 226.303651 79.628124 
L 241.368701 79.628124 
L 241.368701 64.563074 
L 226.303651 64.563074 
z
" clip-path="url(#p9c696dc842)" style="stroke: #000000; stroke-width: 0.75; stroke-linejoin: miter"/>
   </g>
   <g id="patch_22">
    <path d="M 239.108943 74.355357 
C 239.108943 72.957468 238.553042 71.615403 237.564585 70.626947 
C 236.576129 69.638491 235.234064 69.082589 233.836176 69.082589 
C 232.438287 69.082589 231.096222 69.638491 230.107766 70.626947 
C 229.11931 71.615403 228.563408 72.957468 228.563408 74.355357 
" clip-path="url(#p9c696dc842)" style="fill: none; stroke: #ffffff; stroke-linejoin: miter"/>
   </g>
   <g id="line2d_21">
    <path d="M 233.836176 74.355357 
L 239.108943 69.082589 
" clip-path="url(#p9c696dc842)" style="fill: none; stroke: #ffffff; stroke-linecap: square"/>
   </g>
   <g id="patch_23">
    <path d="M 249.48065 102.805124 
L 264.5457 102.805124 
L 264.5457 87.740074 
L 249.48065 87.740074 
z
" clip-path="url(#p9c696dc842)" style="stroke: #000000; stroke-width: 0.75; stroke-linejoin: miter"/>
   </g>
   <g id="patch_24">
    <path d="M 262.285943 97.532356 
C 262.285943 96.134468 261.730041 94.792403 260.741585 93.803947 
C 259.753128 92.81549 258.411064 92.259589 257.013175 92.259589 
C 255.615287 92.259589 254.273222 92.81549 253.284766 93.803947 
C 252.296309 94.792403 251.740408 96.134468 251.740408 97.532356 
" clip-path="url(#p9c696dc842)" style="fill: none; stroke: #ffffff; stroke-linejoin: miter"/>
   </g>
   <g id="line2d_22">
    <path d="M 257.013175 97.532356 
L 262.285943 92.259589 
" clip-path="url(#p9c696dc842)" style="fill: none; stroke: #ffffff; stroke-linecap: square"/>
   </g>
   <g id="patch_25">
    <path d="M 272.65765 125.982123 
L 287.7227 125.982123 
L 287.7227 110.917074 
L 272.65765 110.917074 
z
" clip-path="url(#p9c696dc842)" style="stroke: #000000; stroke-width: 0.75; stroke-linejoin: miter"/>
   </g>
   <g id="patch_26">
    <path d="M 285.462942 120.709356 
C 285.462942 119.311467 284.907041 117.969403 283.918585 116.980946 
C 282.930128 115.99249 281.588064 115.436589 280.190175 115.436589 
C 278.792286 115.436589 277.450222 115.99249 276.461765 116.980946 
C 275.473309 117.969403 274.917408 119.311467 274.917408 120.709356 
" clip-path="url(#p9c696dc842)" style="fill: none; stroke: #ffffff; stroke-linejoin: miter"/>
   </g>
   <g id="line2d_23">
    <path d="M 280.190175 120.709356 
L 285.462942 115.436589 
" clip-path="url(#p9c696dc842)" style="fill: none; stroke: #ffffff; stroke-linecap: square"/>
   </g>
   <g id="text_1">
    <g clip-path="url(#p9c696dc842)">
     <!-- ${q}_{0}$ -->
     <g transform="translate(22.250448 27.967088) scale(0.08125 -0.08125)">
      <defs>
       <path id="DejaVuSans-Oblique-71" d="M 2669 525 
Q 2438 222 2123 65 
Q 1809 -91 1428 -91 
Q 897 -91 595 267 
Q 294 625 294 1253 
Q 294 1759 480 2231 
Q 666 2703 1013 3078 
Q 1238 3322 1530 3453 
Q 1822 3584 2144 3584 
Q 2531 3584 2781 3431 
Q 3031 3278 3144 2969 
L 3244 3494 
L 3822 3494 
L 2888 -1319 
L 2309 -1319 
L 2669 525 
z
M 891 1338 
Q 891 875 1084 633 
Q 1278 391 1644 391 
Q 2188 391 2572 911 
Q 2956 1431 2956 2175 
Q 2956 2625 2757 2864 
Q 2559 3103 2188 3103 
Q 1916 3103 1684 2976 
Q 1453 2850 1281 2606 
Q 1100 2350 995 2006 
Q 891 1663 891 1338 
z
" transform="scale(0.015625)"/>
       <path id="DejaVuSans-30" d="M 2034 4250 
Q 1547 4250 1301 3770 
Q 1056 3291 1056 2328 
Q 1056 1369 1301 889 
Q 1547 409 2034 409 
Q 2525 409 2770 889 
Q 3016 1369 3016 2328 
Q 3016 3291 2770 3770 
Q 2525 4250 2034 4250 
z
M 2034 4750 
Q 2819 4750 3233 4129 
Q 3647 3509 3647 2328 
Q 3647 1150 3233 529 
Q 2819 -91 2034 -91 
Q 1250 -91 836 529 
Q 422 1150 422 2328 
Q 422 3509 836 4129 
Q 1250 4750 2034 4750 
z
" transform="scale(0.015625)"/>
      </defs>
      <use xlink:href="#DejaVuSans-Oblique-71"/>
      <use xlink:href="#DejaVuSans-30" transform="translate(63.476562 -16.40625) scale(0.7)"/>
     </g>
    </g>
   </g>
   <g id="text_2">
    <g clip-path="url(#p9c696dc842)">
     <!-- ${q}_{1}$ -->
     <g transform="translate(22.250448 51.144088) scale(0.08125 -0.08125)">
      <defs>
       <path id="DejaVuSans-31" d="M 794 531 
L 1825 531 
L 1825 4091 
L 703 3866 
L 703 4441 
L 1819 4666 
L 2450 4666 
L 2450 531 
L 3481 531 
L 3481 0 
L 794 0 
L 794 531 
z
" transform="scale(0.015625)"/>
      </defs>
      <use xlink:href="#DejaVuSans-Oblique-71"/>
      <use xlink:href="#DejaVuSans-31" transform="translate(63.476562 -16.40625) scale(0.7)"/>
     </g>
    </g>
   </g>
   <g id="text_3">
    <g clip-path="url(#p9c696dc842)">
     <!-- ${q}_{2}$ -->
     <g transform="translate(22.250448 74.321087) scale(0.08125 -0.08125)">
      <defs>
       <path id="DejaVuSans-32" d="M 1228 531 
L 3431 531 
L 3431 0 
L 469 0 
L 469 531 
Q 828 903 1448 1529 
Q 2069 2156 2228 2338 
Q 2531 2678 2651 2914 
Q 2772 3150 2772 3378 
Q 2772 3750 2511 3984 
Q 2250 4219 1831 4219 
Q 1534 4219 1204 4116 
Q 875 4013 500 3803 
L 500 4441 
Q 881 4594 1212 4672 
Q 1544 4750 1819 4750 
Q 2544 4750 2975 4387 
Q 3406 4025 3406 3419 
Q 3406 3131 3298 2873 
Q 3191 2616 2906 2266 
Q 2828 2175 2409 1742 
Q 1991 1309 1228 531 
z
" transform="scale(0.015625)"/>
      </defs>
      <use xlink:href="#DejaVuSans-Oblique-71"/>
      <use xlink:href="#DejaVuSans-32" transform="translate(63.476562 -16.40625) scale(0.7)"/>
     </g>
    </g>
   </g>
   <g id="text_4">
    <g clip-path="url(#p9c696dc842)">
     <!-- ${q}_{3}$ -->
     <g transform="translate(22.250448 97.498087) scale(0.08125 -0.08125)">
      <defs>
       <path id="DejaVuSans-33" d="M 2597 2516 
Q 3050 2419 3304 2112 
Q 3559 1806 3559 1356 
Q 3559 666 3084 287 
Q 2609 -91 1734 -91 
Q 1441 -91 1130 -33 
Q 819 25 488 141 
L 488 750 
Q 750 597 1062 519 
Q 1375 441 1716 441 
Q 2309 441 2620 675 
Q 2931 909 2931 1356 
Q 2931 1769 2642 2001 
Q 2353 2234 1838 2234 
L 1294 2234 
L 1294 2753 
L 1863 2753 
Q 2328 2753 2575 2939 
Q 2822 3125 2822 3475 
Q 2822 3834 2567 4026 
Q 2313 4219 1838 4219 
Q 1578 4219 1281 4162 
Q 984 4106 628 3988 
L 628 4550 
Q 988 4650 1302 4700 
Q 1616 4750 1894 4750 
Q 2613 4750 3031 4423 
Q 3450 4097 3450 3541 
Q 3450 3153 3228 2886 
Q 3006 2619 2597 2516 
z
" transform="scale(0.015625)"/>
      </defs>
      <use xlink:href="#DejaVuSans-Oblique-71"/>
      <use xlink:href="#DejaVuSans-33" transform="translate(63.476562 -16.40625) scale(0.7)"/>
     </g>
    </g>
   </g>
   <g id="text_5">
    <g clip-path="url(#p9c696dc842)">
     <!-- ${q}_{4}$ -->
     <g transform="translate(22.250448 120.675087) scale(0.08125 -0.08125)">
      <defs>
       <path id="DejaVuSans-34" d="M 2419 4116 
L 825 1625 
L 2419 1625 
L 2419 4116 
z
M 2253 4666 
L 3047 4666 
L 3047 1625 
L 3713 1625 
L 3713 1100 
L 3047 1100 
L 3047 0 
L 2419 0 
L 2419 1100 
L 313 1100 
L 313 1709 
L 2253 4666 
z
" transform="scale(0.015625)"/>
      </defs>
      <use xlink:href="#DejaVuSans-Oblique-71"/>
      <use xlink:href="#DejaVuSans-34" transform="translate(63.476562 -16.40625) scale(0.7)"/>
     </g>
    </g>
   </g>
   <g id="text_6">
    <g clip-path="url(#p9c696dc842)">
     <!-- 5 -->
     <g transform="translate(38.222298 138.227461) scale(0.052 -0.052)">
      <defs>
       <path id="DejaVuSans-35" d="M 691 4666 
L 3169 4666 
L 3169 4134 
L 1269 4134 
L 1269 2991 
Q 1406 3038 1543 3061 
Q 1681 3084 1819 3084 
Q 2600 3084 3056 2656 
Q 3513 2228 3513 1497 
Q 3513 744 3044 326 
Q 2575 -91 1722 -91 
Q 1428 -91 1123 -41 
Q 819 9 494 109 
L 494 744 
Q 775 591 1075 516 
Q 1375 441 1709 441 
Q 2250 441 2565 725 
Q 2881 1009 2881 1497 
Q 2881 1984 2565 2268 
Q 2250 2553 1709 2553 
Q 1456 2553 1204 2497 
Q 953 2441 691 2322 
L 691 4666 
z
" transform="scale(0.015625)"/>
      </defs>
      <use xlink:href="#DejaVuSans-35"/>
     </g>
    </g>
   </g>
   <g id="text_7">
    <g clip-path="url(#p9c696dc842)">
     <!-- c -->
     <g transform="translate(26.801718 143.86859) scale(0.08125 -0.08125)">
      <defs>
       <path id="DejaVuSans-63" d="M 3122 3366 
L 3122 2828 
Q 2878 2963 2633 3030 
Q 2388 3097 2138 3097 
Q 1578 3097 1268 2742 
Q 959 2388 959 1747 
Q 959 1106 1268 751 
Q 1578 397 2138 397 
Q 2388 397 2633 464 
Q 2878 531 3122 666 
L 3122 134 
Q 2881 22 2623 -34 
Q 2366 -91 2075 -91 
Q 1284 -91 818 406 
Q 353 903 353 1747 
Q 353 2603 823 3093 
Q 1294 3584 2113 3584 
Q 2378 3584 2631 3529 
Q 2884 3475 3122 3366 
z
" transform="scale(0.015625)"/>
      </defs>
      <use xlink:href="#DejaVuSans-63"/>
     </g>
    </g>
   </g>
   <g id="text_8">
    <g clip-path="url(#p9c696dc842)">
     <!-- $\mathrm{\left|0\right\rangle}$ -->
     <g style="fill: #ffffff" transform="translate(44.227678 27.535194) scale(0.065 -0.065)">
      <defs>
       <path id="DejaVuSans-7c" d="M 1344 4891 
L 1344 -1509 
L 813 -1509 
L 813 4891 
L 1344 4891 
z
" transform="scale(0.015625)"/>
       <path id="DejaVuSans-27e9" d="M 1925 2006 
L 1044 -844 
L 513 -844 
L 1394 2006 
L 513 4856 
L 1044 4856 
L 1925 2006 
z
" transform="scale(0.015625)"/>
      </defs>
      <use xlink:href="#DejaVuSans-7c" transform="translate(0 16.546875) scale(0.756406)"/>
      <use xlink:href="#DejaVuSans-30" transform="translate(25.48439 0.125)"/>
      <use xlink:href="#DejaVuSans-27e9" transform="translate(89.107437 0.125)"/>
     </g>
    </g>
   </g>
   <g id="text_9">
    <g clip-path="url(#p9c696dc842)">
     <!-- $\mathrm{\left|0\right\rangle}$ -->
     <g style="fill: #ffffff" transform="translate(44.227678 50.712193) scale(0.065 -0.065)">
      <use xlink:href="#DejaVuSans-7c" transform="translate(0 16.546875) scale(0.756406)"/>
      <use xlink:href="#DejaVuSans-30" transform="translate(25.48439 0.125)"/>
      <use xlink:href="#DejaVuSans-27e9" transform="translate(89.107437 0.125)"/>
     </g>
    </g>
   </g>
   <g id="text_10">
    <g clip-path="url(#p9c696dc842)">
     <!-- a0 -->
     <g transform="translate(67.537725 27.535194) scale(0.065 -0.065)">
      <defs>
       <path id="DejaVuSans-61" d="M 2194 1759 
Q 1497 1759 1228 1600 
Q 959 1441 959 1056 
Q 959 750 1161 570 
Q 1363 391 1709 391 
Q 2188 391 2477 730 
Q 2766 1069 2766 1631 
L 2766 1759 
L 2194 1759 
z
M 3341 1997 
L 3341 0 
L 2766 0 
L 2766 531 
Q 2569 213 2275 61 
Q 1981 -91 1556 -91 
Q 1019 -91 701 211 
Q 384 513 384 1019 
Q 384 1609 779 1909 
Q 1175 2209 1959 2209 
L 2766 2209 
L 2766 2266 
Q 2766 2663 2505 2880 
Q 2244 3097 1772 3097 
Q 1472 3097 1187 3025 
Q 903 2953 641 2809 
L 641 3341 
Q 956 3463 1253 3523 
Q 1550 3584 1831 3584 
Q 2591 3584 2966 3190 
Q 3341 2797 3341 1997 
z
" transform="scale(0.015625)"/>
      </defs>
      <use xlink:href="#DejaVuSans-61"/>
      <use xlink:href="#DejaVuSans-30" x="61.279297"/>
     </g>
    </g>
   </g>
   <g id="text_11">
    <g clip-path="url(#p9c696dc842)">
     <!-- s0 -->
     <g transform="translate(67.836318 50.712193) scale(0.065 -0.065)">
      <defs>
       <path id="DejaVuSans-73" d="M 2834 3397 
L 2834 2853 
Q 2591 2978 2328 3040 
Q 2066 3103 1784 3103 
Q 1356 3103 1142 2972 
Q 928 2841 928 2578 
Q 928 2378 1081 2264 
Q 1234 2150 1697 2047 
L 1894 2003 
Q 2506 1872 2764 1633 
Q 3022 1394 3022 966 
Q 3022 478 2636 193 
Q 2250 -91 1575 -91 
Q 1294 -91 989 -36 
Q 684 19 347 128 
L 347 722 
Q 666 556 975 473 
Q 1284 391 1588 391 
Q 1994 391 2212 530 
Q 2431 669 2431 922 
Q 2431 1156 2273 1281 
Q 2116 1406 1581 1522 
L 1381 1569 
Q 847 1681 609 1914 
Q 372 2147 372 2553 
Q 372 3047 722 3315 
Q 1072 3584 1716 3584 
Q 2034 3584 2315 3537 
Q 2597 3491 2834 3397 
z
" transform="scale(0.015625)"/>
      </defs>
      <use xlink:href="#DejaVuSans-73"/>
      <use xlink:href="#DejaVuSans-30" x="52.099609"/>
     </g>
    </g>
   </g>
   <g id="text_12">
    <g clip-path="url(#p9c696dc842)">
     <!-- 0 -->
     <g transform="translate(88.864043 27.535194) scale(0.065 -0.065)">
      <use xlink:href="#DejaVuSans-30"/>
     </g>
    </g>
   </g>
   <g id="text_13">
    <g clip-path="url(#p9c696dc842)">
     <!-- 1 -->
     <g transform="translate(88.864043 50.712193) scale(0.065 -0.065)">
      <use xlink:href="#DejaVuSans-31"/>
     </g>
    </g>
   </g>
   <g id="text_14">
    <g clip-path="url(#p9c696dc842)">
     <!-- 2 -->
     <g transform="translate(88.864043 73.889193) scale(0.065 -0.065)">
      <use xlink:href="#DejaVuSans-32"/>
     </g>
    </g>
   </g>
   <g id="text_15">
    <g clip-path="url(#p9c696dc842)">
     <!-- 3 -->
     <g transform="translate(88.864043 97.066193) scale(0.065 -0.065)">
      <use xlink:href="#DejaVuSans-33"/>
     </g>
    </g>
   </g>
   <g id="text_16">
    <g clip-path="url(#p9c696dc842)">
     <!-- 4 -->
     <g transform="translate(88.864043 120.243192) scale(0.065 -0.065)">
      <use xlink:href="#DejaVuSans-34"/>
     </g>
    </g>
   </g>
   <g id="text_17">
    <g clip-path="url(#p9c696dc842)">
     <!-- $\hat{U}$ -->
     <g transform="translate(94.918647 74.383802) scale(0.065 -0.065)">
      <defs>
       <path id="DejaVuSans-302" d="M -1831 5119 
L -1369 5119 
L -603 3944 
L -1038 3944 
L -1600 4709 
L -2163 3944 
L -2597 3944 
L -1831 5119 
z
M -1600 3584 
L -1600 3584 
z
" transform="scale(0.015625)"/>
       <path id="DejaVuSans-Oblique-55" d="M 991 4666 
L 1625 4666 
L 1075 1831 
Q 1041 1641 1027 1517 
Q 1013 1394 1013 1300 
Q 1013 869 1253 645 
Q 1494 422 1959 422 
Q 2563 422 2898 753 
Q 3234 1084 3378 1831 
L 3928 4666 
L 4563 4666 
L 4000 1753 
Q 3816 809 3300 359 
Q 2784 -91 1888 -91 
Q 1188 -91 780 261 
Q 372 613 372 1216 
Q 372 1325 387 1461 
Q 403 1597 434 1753 
L 991 4666 
z
" transform="scale(0.015625)"/>
      </defs>
      <use xlink:href="#DejaVuSans-302" transform="translate(70.876465 30.015625)"/>
      <use xlink:href="#DejaVuSans-Oblique-55" transform="translate(0 0.609375)"/>
     </g>
    </g>
   </g>
   <g id="text_18">
    <g clip-path="url(#p9c696dc842)">
     <!-- $\mathrm{\left|0\right\rangle}$ -->
     <g style="fill: #ffffff" transform="translate(113.758677 27.535194) scale(0.065 -0.065)">
      <use xlink:href="#DejaVuSans-7c" transform="translate(0 16.546875) scale(0.756406)"/>
      <use xlink:href="#DejaVuSans-30" transform="translate(25.48439 0.125)"/>
      <use xlink:href="#DejaVuSans-27e9" transform="translate(89.107437 0.125)"/>
     </g>
    </g>
   </g>
   <g id="text_19">
    <g clip-path="url(#p9c696dc842)">
     <!-- $\mathrm{\left|0\right\rangle}$ -->
     <g style="fill: #ffffff" transform="translate(113.758677 50.712193) scale(0.065 -0.065)">
      <use xlink:href="#DejaVuSans-7c" transform="translate(0 16.546875) scale(0.756406)"/>
      <use xlink:href="#DejaVuSans-30" transform="translate(25.48439 0.125)"/>
      <use xlink:href="#DejaVuSans-27e9" transform="translate(89.107437 0.125)"/>
     </g>
    </g>
   </g>
   <g id="text_20">
    <g clip-path="url(#p9c696dc842)">
     <!-- a1 -->
     <g transform="translate(137.068724 27.535194) scale(0.065 -0.065)">
      <use xlink:href="#DejaVuSans-61"/>
      <use xlink:href="#DejaVuSans-31" x="61.279297"/>
     </g>
    </g>
   </g>
   <g id="text_21">
    <g clip-path="url(#p9c696dc842)">
     <!-- s1 -->
     <g transform="translate(137.367317 50.712193) scale(0.065 -0.065)">
      <use xlink:href="#DejaVuSans-73"/>
      <use xlink:href="#DejaVuSans-31" x="52.099609"/>
     </g>
    </g>
   </g>
   <g id="text_22">
    <g clip-path="url(#p9c696dc842)">
     <!-- 0 -->
     <g transform="translate(158.395042 27.535194) scale(0.065 -0.065)">
      <use xlink:href="#DejaVuSans-30"/>
     </g>
    </g>
   </g>
   <g id="text_23">
    <g clip-path="url(#p9c696dc842)">
     <!-- 1 -->
     <g transform="translate(158.395042 50.712193) scale(0.065 -0.065)">
      <use xlink:href="#DejaVuSans-31"/>
     </g>
    </g>
   </g>
   <g id="text_24">
    <g clip-path="url(#p9c696dc842)">
     <!-- 2 -->
     <g transform="translate(158.395042 73.889193) scale(0.065 -0.065)">
      <use xlink:href="#DejaVuSans-32"/>
     </g>
    </g>
   </g>
   <g id="text_25">
    <g clip-path="url(#p9c696dc842)">
     <!-- 3 -->
     <g transform="translate(158.395042 97.066193) scale(0.065 -0.065)">
      <use xlink:href="#DejaVuSans-33"/>
     </g>
    </g>
   </g>
   <g id="text_26">
    <g clip-path="url(#p9c696dc842)">
     <!-- 4 -->
     <g transform="translate(158.395042 120.243192) scale(0.065 -0.065)">
      <use xlink:href="#DejaVuSans-34"/>
     </g>
    </g>
   </g>
   <g id="text_27">
    <g clip-path="url(#p9c696dc842)">
     <!-- $\hat{U}$ -->
     <g transform="translate(164.449646 74.383802) scale(0.065 -0.065)">
      <use xlink:href="#DejaVuSans-302" transform="translate(70.876465 30.015625)"/>
      <use xlink:href="#DejaVuSans-Oblique-55" transform="translate(0 0.609375)"/>
     </g>
    </g>
   </g>
   <g id="text_28">
    <g clip-path="url(#p9c696dc842)">
     <!-- 0 -->
     <g transform="translate(193.276426 138.227461) scale(0.052 -0.052)">
      <use xlink:href="#DejaVuSans-30"/>
     </g>
    </g>
   </g>
   <g id="text_29">
    <g clip-path="url(#p9c696dc842)">
     <!-- 1 -->
     <g transform="translate(216.453426 138.227461) scale(0.052 -0.052)">
      <use xlink:href="#DejaVuSans-31"/>
     </g>
    </g>
   </g>
   <g id="text_30">
    <g clip-path="url(#p9c696dc842)">
     <!-- 2 -->
     <g transform="translate(239.630426 138.227461) scale(0.052 -0.052)">
      <use xlink:href="#DejaVuSans-32"/>
     </g>
    </g>
   </g>
   <g id="text_31">
    <g clip-path="url(#p9c696dc842)">
     <!-- 3 -->
     <g transform="translate(262.807425 138.227461) scale(0.052 -0.052)">
      <use xlink:href="#DejaVuSans-33"/>
     </g>
    </g>
   </g>
   <g id="text_32">
    <g clip-path="url(#p9c696dc842)">
     <!-- 4 -->
     <g transform="translate(285.984425 138.227461) scale(0.052 -0.052)">
      <use xlink:href="#DejaVuSans-34"/>
     </g>
    </g>
   </g>
  </g>
 </g>
 <defs>
  <clipPath id="p9c696dc842">
   <rect x="7.2" y="7.2" width="288.286995" height="148.332798"/>
  </clipPath>
 </defs>
</svg>
