<?xml version="1.0" encoding="utf-8" standalone="no"?>
<!DOCTYPE svg PUBLIC "-//W3C//DTD SVG 1.1//EN"
  "http://www.w3.org/Graphics/SVG/1.1/DTD/svg11.dtd">
<svg xmlns:xlink="http://www.w3.org/1999/xlink" width="590.97399pt" height="264.711597pt" viewBox="0 0 590.97399 264.711597" xmlns="http://www.w3.org/2000/svg" version="1.1">
 <metadata>
  <rdf:RDF xmlns:dc="http://purl.org/dc/elements/1.1/" xmlns:cc="http://creativecommons.org/ns#" xmlns:rdf="http://www.w3.org/1999/02/22-rdf-syntax-ns#">
   <cc:Work>
    <dc:type rdf:resource="http://purl.org/dc/dcmitype/StillImage"/>
    <dc:date>2023-08-11T14:17:45.338835</dc:date>
    <dc:format>image/svg+xml</dc:format>
    <dc:creator>
     <cc:Agent>
      <dc:title>Matplotlib v3.7.1, https://matplotlib.org/</dc:title>
     </cc:Agent>
    </dc:creator>
   </cc:Work>
  </rdf:RDF>
 </metadata>
 <defs>
  <style type="text/css">*{stroke-linejoin: round; stroke-linecap: butt}</style>
 </defs>
 <g id="figure_1">
  <g id="patch_1">
   <path d="M 0 264.711597 
L 590.97399 264.711597 
L 590.97399 0 
L 0 0 
z
" style="fill: #ffffff"/>
  </g>
  <g id="axes_1">
   <g id="line2d_1">
    <path d="M 64.609196 44.2832 
L 579.13859 44.2832 
" clip-path="url(#pcb77b583e2)" style="fill: none; stroke: #000000; stroke-width: 2; stroke-linecap: round"/>
   </g>
   <g id="line2d_2">
    <path d="M 64.609196 90.637199 
L 579.13859 90.637199 
" clip-path="url(#pcb77b583e2)" style="fill: none; stroke: #000000; stroke-width: 2; stroke-linecap: round"/>
   </g>
   <g id="line2d_3">
    <path d="M 64.609196 136.991198 
L 579.13859 136.991198 
" clip-path="url(#pcb77b583e2)" style="fill: none; stroke: #000000; stroke-width: 2; stroke-linecap: round"/>
   </g>
   <g id="line2d_4">
    <path d="M 64.609196 183.345198 
L 579.13859 183.345198 
" clip-path="url(#pcb77b583e2)" style="fill: none; stroke: #000000; stroke-width: 2; stroke-linecap: round"/>
   </g>
   <g id="line2d_5">
    <path d="M 64.609196 229.699197 
L 579.13859 229.699197 
" clip-path="url(#pcb77b583e2)" style="fill: none; stroke: #000000; stroke-width: 2; stroke-linecap: round"/>
   </g>
   <g id="patch_2">
    <path d="M 70.387222 105.702249 
L 108.89349 105.702249 
L 108.89349 29.21815 
L 70.387222 29.21815 
z
" clip-path="url(#pcb77b583e2)" style="fill: #ffffff; stroke: #000000; stroke-width: 1.5; stroke-linejoin: miter"/>
   </g>
   <g id="patch_3">
    <path d="M 116.741222 152.056248 
L 155.247489 152.056248 
L 155.247489 29.21815 
L 116.741222 29.21815 
z
" clip-path="url(#pcb77b583e2)" style="fill: #ffffff; stroke: #000000; stroke-width: 1.5; stroke-linejoin: miter"/>
   </g>
   <g id="patch_4">
    <path d="M 162.4115 198.410247 
L 202.28521 198.410247 
L 202.28521 29.21815 
L 162.4115 29.21815 
z
" clip-path="url(#pcb77b583e2)" style="fill: #ffffff; stroke: #000000; stroke-width: 1.5; stroke-linejoin: miter"/>
   </g>
   <g id="patch_5">
    <path d="M 207.947351 152.056248 
L 249.457358 152.056248 
L 249.457358 75.572149 
L 207.947351 75.572149 
z
" clip-path="url(#pcb77b583e2)" style="fill: #ffffff; stroke: #000000; stroke-width: 1.5; stroke-linejoin: miter"/>
   </g>
   <g id="patch_6">
    <path d="M 255.80322 244.764247 
L 294.309487 244.764247 
L 294.309487 29.21815 
L 255.80322 29.21815 
z
" clip-path="url(#pcb77b583e2)" style="fill: #ffffff; stroke: #000000; stroke-width: 1.5; stroke-linejoin: miter"/>
   </g>
   <g id="patch_7">
    <path d="M 297.950594 198.410247 
L 344.870112 198.410247 
L 344.870112 75.572149 
L 297.950594 75.572149 
z
" clip-path="url(#pcb77b583e2)" style="fill: #ffffff; stroke: #000000; stroke-width: 1.5; stroke-linejoin: miter"/>
   </g>
   <g id="patch_8">
    <path d="M 306.345303 59.348249 
L 336.475403 59.348249 
L 336.475403 29.21815 
L 306.345303 29.21815 
z
" clip-path="url(#pcb77b583e2)" style="fill: #ffffff; stroke: #000000; stroke-width: 1.5; stroke-linejoin: miter"/>
   </g>
   <g id="patch_9">
    <path d="M 347.058021 244.764247 
L 388.470684 244.764247 
L 388.470684 75.572149 
L 347.058021 75.572149 
z
" clip-path="url(#pcb77b583e2)" style="fill: #ffffff; stroke: #000000; stroke-width: 1.5; stroke-linejoin: miter"/>
   </g>
   <g id="patch_10">
    <path d="M 393.314677 198.410247 
L 434.922027 198.410247 
L 434.922027 121.926148 
L 393.314677 121.926148 
z
" clip-path="url(#pcb77b583e2)" style="fill: #ffffff; stroke: #000000; stroke-width: 1.5; stroke-linejoin: miter"/>
   </g>
   <g id="patch_11">
    <path d="M 399.053302 105.702249 
L 429.183402 105.702249 
L 429.183402 75.572149 
L 399.053302 75.572149 
z
" clip-path="url(#pcb77b583e2)" style="fill: #ffffff; stroke: #000000; stroke-width: 1.5; stroke-linejoin: miter"/>
   </g>
   <g id="patch_12">
    <path d="M 441.219218 244.764247 
L 479.725485 244.764247 
L 479.725485 121.926148 
L 441.219218 121.926148 
z
" clip-path="url(#pcb77b583e2)" style="fill: #ffffff; stroke: #000000; stroke-width: 1.5; stroke-linejoin: miter"/>
   </g>
   <g id="patch_13">
    <path d="M 491.761301 152.056248 
L 521.8914 152.056248 
L 521.8914 121.926148 
L 491.761301 121.926148 
z
" clip-path="url(#pcb77b583e2)" style="fill: #ffffff; stroke: #000000; stroke-width: 1.5; stroke-linejoin: miter"/>
   </g>
   <g id="patch_14">
    <path d="M 487.573217 244.764247 
L 526.079484 244.764247 
L 526.079484 168.280148 
L 487.573217 168.280148 
z
" clip-path="url(#pcb77b583e2)" style="fill: #ffffff; stroke: #000000; stroke-width: 1.5; stroke-linejoin: miter"/>
   </g>
   <g id="patch_15">
    <path d="M 538.1153 198.410247 
L 568.2454 198.410247 
L 568.2454 168.280148 
L 538.1153 168.280148 
z
" clip-path="url(#pcb77b583e2)" style="fill: #ffffff; stroke: #000000; stroke-width: 1.5; stroke-linejoin: miter"/>
   </g>
   <g id="patch_16">
    <path d="M 538.1153 244.764247 
L 568.2454 244.764247 
L 568.2454 214.634147 
L 538.1153 214.634147 
z
" clip-path="url(#pcb77b583e2)" style="fill: #ffffff; stroke: #000000; stroke-width: 1.5; stroke-linejoin: miter"/>
   </g>
   <g id="text_1">
    <g clip-path="url(#pcb77b583e2)">
     <!-- ${q}_{0}$ -->
     <g transform="translate(37.300897 48.301266) scale(0.1625 -0.1625)">
      <defs>
       <path id="DejaVuSans-Oblique-71" d="M 2669 525 
Q 2438 222 2123 65 
Q 1809 -91 1428 -91 
Q 897 -91 595 267 
Q 294 625 294 1253 
Q 294 1759 480 2231 
Q 666 2703 1013 3078 
Q 1238 3322 1530 3453 
Q 1822 3584 2144 3584 
Q 2531 3584 2781 3431 
Q 3031 3278 3144 2969 
L 3244 3494 
L 3822 3494 
L 2888 -1319 
L 2309 -1319 
L 2669 525 
z
M 891 1338 
Q 891 875 1084 633 
Q 1278 391 1644 391 
Q 2188 391 2572 911 
Q 2956 1431 2956 2175 
Q 2956 2625 2757 2864 
Q 2559 3103 2188 3103 
Q 1916 3103 1684 2976 
Q 1453 2850 1281 2606 
Q 1100 2350 995 2006 
Q 891 1663 891 1338 
z
" transform="scale(0.015625)"/>
       <path id="DejaVuSans-30" d="M 2034 4250 
Q 1547 4250 1301 3770 
Q 1056 3291 1056 2328 
Q 1056 1369 1301 889 
Q 1547 409 2034 409 
Q 2525 409 2770 889 
Q 3016 1369 3016 2328 
Q 3016 3291 2770 3770 
Q 2525 4250 2034 4250 
z
M 2034 4750 
Q 2819 4750 3233 4129 
Q 3647 3509 3647 2328 
Q 3647 1150 3233 529 
Q 2819 -91 2034 -91 
Q 1250 -91 836 529 
Q 422 1150 422 2328 
Q 422 3509 836 4129 
Q 1250 4750 2034 4750 
z
" transform="scale(0.015625)"/>
      </defs>
      <use xlink:href="#DejaVuSans-Oblique-71"/>
      <use xlink:href="#DejaVuSans-30" transform="translate(63.476562 -16.40625) scale(0.7)"/>
     </g>
    </g>
   </g>
   <g id="text_2">
    <g clip-path="url(#pcb77b583e2)">
     <!-- ${q}_{1}$ -->
     <g transform="translate(37.300897 94.655265) scale(0.1625 -0.1625)">
      <defs>
       <path id="DejaVuSans-31" d="M 794 531 
L 1825 531 
L 1825 4091 
L 703 3866 
L 703 4441 
L 1819 4666 
L 2450 4666 
L 2450 531 
L 3481 531 
L 3481 0 
L 794 0 
L 794 531 
z
" transform="scale(0.015625)"/>
      </defs>
      <use xlink:href="#DejaVuSans-Oblique-71"/>
      <use xlink:href="#DejaVuSans-31" transform="translate(63.476562 -16.40625) scale(0.7)"/>
     </g>
    </g>
   </g>
   <g id="text_3">
    <g clip-path="url(#pcb77b583e2)">
     <!-- ${q}_{2}$ -->
     <g transform="translate(37.300897 141.009265) scale(0.1625 -0.1625)">
      <defs>
       <path id="DejaVuSans-32" d="M 1228 531 
L 3431 531 
L 3431 0 
L 469 0 
L 469 531 
Q 828 903 1448 1529 
Q 2069 2156 2228 2338 
Q 2531 2678 2651 2914 
Q 2772 3150 2772 3378 
Q 2772 3750 2511 3984 
Q 2250 4219 1831 4219 
Q 1534 4219 1204 4116 
Q 875 4013 500 3803 
L 500 4441 
Q 881 4594 1212 4672 
Q 1544 4750 1819 4750 
Q 2544 4750 2975 4387 
Q 3406 4025 3406 3419 
Q 3406 3131 3298 2873 
Q 3191 2616 2906 2266 
Q 2828 2175 2409 1742 
Q 1991 1309 1228 531 
z
" transform="scale(0.015625)"/>
      </defs>
      <use xlink:href="#DejaVuSans-Oblique-71"/>
      <use xlink:href="#DejaVuSans-32" transform="translate(63.476562 -16.40625) scale(0.7)"/>
     </g>
    </g>
   </g>
   <g id="text_4">
    <g clip-path="url(#pcb77b583e2)">
     <!-- ${q}_{3}$ -->
     <g transform="translate(37.300897 187.363264) scale(0.1625 -0.1625)">
      <defs>
       <path id="DejaVuSans-33" d="M 2597 2516 
Q 3050 2419 3304 2112 
Q 3559 1806 3559 1356 
Q 3559 666 3084 287 
Q 2609 -91 1734 -91 
Q 1441 -91 1130 -33 
Q 819 25 488 141 
L 488 750 
Q 750 597 1062 519 
Q 1375 441 1716 441 
Q 2309 441 2620 675 
Q 2931 909 2931 1356 
Q 2931 1769 2642 2001 
Q 2353 2234 1838 2234 
L 1294 2234 
L 1294 2753 
L 1863 2753 
Q 2328 2753 2575 2939 
Q 2822 3125 2822 3475 
Q 2822 3834 2567 4026 
Q 2313 4219 1838 4219 
Q 1578 4219 1281 4162 
Q 984 4106 628 3988 
L 628 4550 
Q 988 4650 1302 4700 
Q 1616 4750 1894 4750 
Q 2613 4750 3031 4423 
Q 3450 4097 3450 3541 
Q 3450 3153 3228 2886 
Q 3006 2619 2597 2516 
z
" transform="scale(0.015625)"/>
      </defs>
      <use xlink:href="#DejaVuSans-Oblique-71"/>
      <use xlink:href="#DejaVuSans-33" transform="translate(63.476562 -16.40625) scale(0.7)"/>
     </g>
    </g>
   </g>
   <g id="text_5">
    <g clip-path="url(#pcb77b583e2)">
     <!-- ${q}_{4}$ -->
     <g transform="translate(37.300897 233.717263) scale(0.1625 -0.1625)">
      <defs>
       <path id="DejaVuSans-34" d="M 2419 4116 
L 825 1625 
L 2419 1625 
L 2419 4116 
z
M 2253 4666 
L 3047 4666 
L 3047 1625 
L 3713 1625 
L 3713 1100 
L 3047 1100 
L 3047 0 
L 2419 0 
L 2419 1100 
L 313 1100 
L 313 1709 
L 2253 4666 
z
" transform="scale(0.015625)"/>
      </defs>
      <use xlink:href="#DejaVuSans-Oblique-71"/>
      <use xlink:href="#DejaVuSans-34" transform="translate(63.476562 -16.40625) scale(0.7)"/>
     </g>
    </g>
   </g>
   <g id="text_6">
    <g clip-path="url(#pcb77b583e2)">
     <!-- 0 -->
     <g transform="translate(73.632002 93.997902) scale(0.13 -0.13)">
      <defs>
       <path id="ArialMT-30" d="M 266 2259 
Q 266 3072 433 3567 
Q 600 4063 929 4331 
Q 1259 4600 1759 4600 
Q 2128 4600 2406 4451 
Q 2684 4303 2865 4023 
Q 3047 3744 3150 3342 
Q 3253 2941 3253 2259 
Q 3253 1453 3087 958 
Q 2922 463 2592 192 
Q 2263 -78 1759 -78 
Q 1097 -78 719 397 
Q 266 969 266 2259 
z
M 844 2259 
Q 844 1131 1108 757 
Q 1372 384 1759 384 
Q 2147 384 2411 759 
Q 2675 1134 2675 2259 
Q 2675 3391 2411 3762 
Q 2147 4134 1753 4134 
Q 1366 4134 1134 3806 
Q 844 3388 844 2259 
z
" transform="scale(0.015625)"/>
      </defs>
      <use xlink:href="#ArialMT-30"/>
     </g>
    </g>
   </g>
   <g id="text_7">
    <g clip-path="url(#pcb77b583e2)">
     <!-- 1 -->
     <g transform="translate(73.632002 47.643903) scale(0.13 -0.13)">
      <defs>
       <path id="ArialMT-31" d="M 2384 0 
L 1822 0 
L 1822 3584 
Q 1619 3391 1289 3197 
Q 959 3003 697 2906 
L 697 3450 
Q 1169 3672 1522 3987 
Q 1875 4303 2022 4600 
L 2384 4600 
L 2384 0 
z
" transform="scale(0.015625)"/>
      </defs>
      <use xlink:href="#ArialMT-31"/>
     </g>
    </g>
   </g>
   <g id="text_8">
    <g clip-path="url(#pcb77b583e2)">
     <!-- 0.931 -->
     <g transform="translate(84.730546 77.408504) scale(0.08 -0.08)">
      <defs>
       <path id="ArialMT-2e" d="M 581 0 
L 581 641 
L 1222 641 
L 1222 0 
L 581 0 
z
" transform="scale(0.015625)"/>
       <path id="ArialMT-39" d="M 350 1059 
L 891 1109 
Q 959 728 1153 556 
Q 1347 384 1650 384 
Q 1909 384 2104 503 
Q 2300 622 2425 820 
Q 2550 1019 2634 1356 
Q 2719 1694 2719 2044 
Q 2719 2081 2716 2156 
Q 2547 1888 2255 1720 
Q 1963 1553 1622 1553 
Q 1053 1553 659 1965 
Q 266 2378 266 3053 
Q 266 3750 677 4175 
Q 1088 4600 1706 4600 
Q 2153 4600 2523 4359 
Q 2894 4119 3086 3673 
Q 3278 3228 3278 2384 
Q 3278 1506 3087 986 
Q 2897 466 2520 194 
Q 2144 -78 1638 -78 
Q 1100 -78 759 220 
Q 419 519 350 1059 
z
M 2653 3081 
Q 2653 3566 2395 3850 
Q 2138 4134 1775 4134 
Q 1400 4134 1122 3828 
Q 844 3522 844 3034 
Q 844 2597 1108 2323 
Q 1372 2050 1759 2050 
Q 2150 2050 2401 2323 
Q 2653 2597 2653 3081 
z
" transform="scale(0.015625)"/>
       <path id="ArialMT-33" d="M 269 1209 
L 831 1284 
Q 928 806 1161 595 
Q 1394 384 1728 384 
Q 2125 384 2398 659 
Q 2672 934 2672 1341 
Q 2672 1728 2419 1979 
Q 2166 2231 1775 2231 
Q 1616 2231 1378 2169 
L 1441 2663 
Q 1497 2656 1531 2656 
Q 1891 2656 2178 2843 
Q 2466 3031 2466 3422 
Q 2466 3731 2256 3934 
Q 2047 4138 1716 4138 
Q 1388 4138 1169 3931 
Q 950 3725 888 3313 
L 325 3413 
Q 428 3978 793 4289 
Q 1159 4600 1703 4600 
Q 2078 4600 2393 4439 
Q 2709 4278 2876 4000 
Q 3044 3722 3044 3409 
Q 3044 3113 2884 2869 
Q 2725 2625 2413 2481 
Q 2819 2388 3044 2092 
Q 3269 1797 3269 1353 
Q 3269 753 2831 336 
Q 2394 -81 1725 -81 
Q 1122 -81 723 278 
Q 325 638 269 1209 
z
" transform="scale(0.015625)"/>
      </defs>
      <use xlink:href="#ArialMT-30"/>
      <use xlink:href="#ArialMT-2e" x="55.615234"/>
      <use xlink:href="#ArialMT-39" x="83.398438"/>
      <use xlink:href="#ArialMT-33" x="139.013672"/>
      <use xlink:href="#ArialMT-31" x="194.628906"/>
     </g>
    </g>
   </g>
   <g id="text_9">
    <g clip-path="url(#pcb77b583e2)">
     <!-- $\mathrm{R_{XX}}$ -->
     <g transform="translate(83.689296 63.404262) scale(0.13 -0.13)">
      <defs>
       <path id="DejaVuSans-52" d="M 2841 2188 
Q 3044 2119 3236 1894 
Q 3428 1669 3622 1275 
L 4263 0 
L 3584 0 
L 2988 1197 
Q 2756 1666 2539 1819 
Q 2322 1972 1947 1972 
L 1259 1972 
L 1259 0 
L 628 0 
L 628 4666 
L 2053 4666 
Q 2853 4666 3247 4331 
Q 3641 3997 3641 3322 
Q 3641 2881 3436 2590 
Q 3231 2300 2841 2188 
z
M 1259 4147 
L 1259 2491 
L 2053 2491 
Q 2509 2491 2742 2702 
Q 2975 2913 2975 3322 
Q 2975 3731 2742 3939 
Q 2509 4147 2053 4147 
L 1259 4147 
z
" transform="scale(0.015625)"/>
       <path id="DejaVuSans-58" d="M 403 4666 
L 1081 4666 
L 2241 2931 
L 3406 4666 
L 4084 4666 
L 2584 2425 
L 4184 0 
L 3506 0 
L 2194 1984 
L 872 0 
L 191 0 
L 1856 2491 
L 403 4666 
z
" transform="scale(0.015625)"/>
      </defs>
      <use xlink:href="#DejaVuSans-52" transform="translate(0 0.09375)"/>
      <use xlink:href="#DejaVuSans-58" transform="translate(70.439453 -16.3125) scale(0.7)"/>
      <use xlink:href="#DejaVuSans-58" transform="translate(118.393555 -16.3125) scale(0.7)"/>
     </g>
    </g>
   </g>
   <g id="text_10">
    <g clip-path="url(#pcb77b583e2)">
     <!-- 0 -->
     <g transform="translate(119.986002 140.351901) scale(0.13 -0.13)">
      <use xlink:href="#ArialMT-30"/>
     </g>
    </g>
   </g>
   <g id="text_11">
    <g clip-path="url(#pcb77b583e2)">
     <!-- 1 -->
     <g transform="translate(119.986002 47.643903) scale(0.13 -0.13)">
      <use xlink:href="#ArialMT-31"/>
     </g>
    </g>
   </g>
   <g id="text_12">
    <g clip-path="url(#pcb77b583e2)">
     <!-- 0.16 -->
     <g transform="translate(133.30892 114.491704) scale(0.08 -0.08)">
      <defs>
       <path id="ArialMT-36" d="M 3184 3459 
L 2625 3416 
Q 2550 3747 2413 3897 
Q 2184 4138 1850 4138 
Q 1581 4138 1378 3988 
Q 1113 3794 959 3422 
Q 806 3050 800 2363 
Q 1003 2672 1297 2822 
Q 1591 2972 1913 2972 
Q 2475 2972 2870 2558 
Q 3266 2144 3266 1488 
Q 3266 1056 3080 686 
Q 2894 316 2569 119 
Q 2244 -78 1831 -78 
Q 1128 -78 684 439 
Q 241 956 241 2144 
Q 241 3472 731 4075 
Q 1159 4600 1884 4600 
Q 2425 4600 2770 4297 
Q 3116 3994 3184 3459 
z
M 888 1484 
Q 888 1194 1011 928 
Q 1134 663 1356 523 
Q 1578 384 1822 384 
Q 2178 384 2434 671 
Q 2691 959 2691 1453 
Q 2691 1928 2437 2201 
Q 2184 2475 1800 2475 
Q 1419 2475 1153 2201 
Q 888 1928 888 1484 
z
" transform="scale(0.015625)"/>
      </defs>
      <use xlink:href="#ArialMT-30"/>
      <use xlink:href="#ArialMT-2e" x="55.615234"/>
      <use xlink:href="#ArialMT-31" x="83.398438"/>
      <use xlink:href="#ArialMT-36" x="139.013672"/>
     </g>
    </g>
   </g>
   <g id="text_13">
    <g clip-path="url(#pcb77b583e2)">
     <!-- $\mathrm{R_{XX}}$ -->
     <g transform="translate(130.043295 91.216662) scale(0.13 -0.13)">
      <use xlink:href="#DejaVuSans-52" transform="translate(0 0.09375)"/>
      <use xlink:href="#DejaVuSans-58" transform="translate(70.439453 -16.3125) scale(0.7)"/>
      <use xlink:href="#DejaVuSans-58" transform="translate(118.393555 -16.3125) scale(0.7)"/>
     </g>
    </g>
   </g>
   <g id="text_14">
    <g clip-path="url(#pcb77b583e2)">
     <!-- 0 -->
     <g transform="translate(165.65628 186.705901) scale(0.13 -0.13)">
      <use xlink:href="#ArialMT-30"/>
     </g>
    </g>
   </g>
   <g id="text_15">
    <g clip-path="url(#pcb77b583e2)">
     <!-- 1 -->
     <g transform="translate(165.65628 47.643903) scale(0.13 -0.13)">
      <use xlink:href="#ArialMT-31"/>
     </g>
    </g>
   </g>
   <g id="text_16">
    <g clip-path="url(#pcb77b583e2)">
     <!-- 0.0899 -->
     <g transform="translate(175.21417 151.574903) scale(0.08 -0.08)">
      <defs>
       <path id="ArialMT-38" d="M 1131 2484 
Q 781 2613 612 2850 
Q 444 3088 444 3419 
Q 444 3919 803 4259 
Q 1163 4600 1759 4600 
Q 2359 4600 2725 4251 
Q 3091 3903 3091 3403 
Q 3091 3084 2923 2848 
Q 2756 2613 2416 2484 
Q 2838 2347 3058 2040 
Q 3278 1734 3278 1309 
Q 3278 722 2862 322 
Q 2447 -78 1769 -78 
Q 1091 -78 675 323 
Q 259 725 259 1325 
Q 259 1772 486 2073 
Q 713 2375 1131 2484 
z
M 1019 3438 
Q 1019 3113 1228 2906 
Q 1438 2700 1772 2700 
Q 2097 2700 2305 2904 
Q 2513 3109 2513 3406 
Q 2513 3716 2298 3927 
Q 2084 4138 1766 4138 
Q 1444 4138 1231 3931 
Q 1019 3725 1019 3438 
z
M 838 1322 
Q 838 1081 952 856 
Q 1066 631 1291 507 
Q 1516 384 1775 384 
Q 2178 384 2440 643 
Q 2703 903 2703 1303 
Q 2703 1709 2433 1975 
Q 2163 2241 1756 2241 
Q 1359 2241 1098 1978 
Q 838 1716 838 1322 
z
" transform="scale(0.015625)"/>
      </defs>
      <use xlink:href="#ArialMT-30"/>
      <use xlink:href="#ArialMT-2e" x="55.615234"/>
      <use xlink:href="#ArialMT-30" x="83.398438"/>
      <use xlink:href="#ArialMT-38" x="139.013672"/>
      <use xlink:href="#ArialMT-39" x="194.628906"/>
      <use xlink:href="#ArialMT-39" x="250.244141"/>
     </g>
    </g>
   </g>
   <g id="text_17">
    <g clip-path="url(#pcb77b583e2)">
     <!-- $\mathrm{R_{XX}}$ -->
     <g transform="translate(176.397295 119.029062) scale(0.13 -0.13)">
      <use xlink:href="#DejaVuSans-52" transform="translate(0 0.09375)"/>
      <use xlink:href="#DejaVuSans-58" transform="translate(70.439453 -16.3125) scale(0.7)"/>
      <use xlink:href="#DejaVuSans-58" transform="translate(118.393555 -16.3125) scale(0.7)"/>
     </g>
    </g>
   </g>
   <g id="text_18">
    <g clip-path="url(#pcb77b583e2)">
     <!-- 0 -->
     <g transform="translate(211.192131 140.351901) scale(0.13 -0.13)">
      <use xlink:href="#ArialMT-30"/>
     </g>
    </g>
   </g>
   <g id="text_19">
    <g clip-path="url(#pcb77b583e2)">
     <!-- 1 -->
     <g transform="translate(211.192131 93.997902) scale(0.13 -0.13)">
      <use xlink:href="#ArialMT-31"/>
     </g>
    </g>
   </g>
   <g id="text_20">
    <g clip-path="url(#pcb77b583e2)">
     <!-- $-$0.585 -->
     <g transform="translate(220.401294 123.762503) scale(0.08 -0.08)">
      <defs>
       <path id="DejaVuSans-2212" d="M 678 2272 
L 4684 2272 
L 4684 1741 
L 678 1741 
L 678 2272 
z
" transform="scale(0.015625)"/>
       <path id="ArialMT-35" d="M 266 1200 
L 856 1250 
Q 922 819 1161 601 
Q 1400 384 1738 384 
Q 2144 384 2425 690 
Q 2706 997 2706 1503 
Q 2706 1984 2436 2262 
Q 2166 2541 1728 2541 
Q 1456 2541 1237 2417 
Q 1019 2294 894 2097 
L 366 2166 
L 809 4519 
L 3088 4519 
L 3088 3981 
L 1259 3981 
L 1013 2750 
Q 1425 3038 1878 3038 
Q 2478 3038 2890 2622 
Q 3303 2206 3303 1553 
Q 3303 931 2941 478 
Q 2500 -78 1738 -78 
Q 1113 -78 717 272 
Q 322 622 266 1200 
z
" transform="scale(0.015625)"/>
      </defs>
      <use xlink:href="#DejaVuSans-2212" transform="translate(0 0.125)"/>
      <use xlink:href="#ArialMT-30" transform="translate(83.789062 0.125)"/>
      <use xlink:href="#ArialMT-2e" transform="translate(139.404297 0.125)"/>
      <use xlink:href="#ArialMT-35" transform="translate(167.1875 0.125)"/>
      <use xlink:href="#ArialMT-38" transform="translate(222.802734 0.125)"/>
      <use xlink:href="#ArialMT-35" transform="translate(278.417969 0.125)"/>
     </g>
    </g>
   </g>
   <g id="text_21">
    <g clip-path="url(#pcb77b583e2)">
     <!-- $\mathrm{R_{XX}}$ -->
     <g transform="translate(222.751294 109.758262) scale(0.13 -0.13)">
      <use xlink:href="#DejaVuSans-52" transform="translate(0 0.09375)"/>
      <use xlink:href="#DejaVuSans-58" transform="translate(70.439453 -16.3125) scale(0.7)"/>
      <use xlink:href="#DejaVuSans-58" transform="translate(118.393555 -16.3125) scale(0.7)"/>
     </g>
    </g>
   </g>
   <g id="text_22">
    <g clip-path="url(#pcb77b583e2)">
     <!-- 0 -->
     <g transform="translate(259.048 233.0599) scale(0.13 -0.13)">
      <use xlink:href="#ArialMT-30"/>
     </g>
    </g>
   </g>
   <g id="text_23">
    <g clip-path="url(#pcb77b583e2)">
     <!-- 1 -->
     <g transform="translate(259.048 47.643903) scale(0.13 -0.13)">
      <use xlink:href="#ArialMT-31"/>
     </g>
    </g>
   </g>
   <g id="text_24">
    <g clip-path="url(#pcb77b583e2)">
     <!-- 0.824 -->
     <g transform="translate(270.146544 188.658103) scale(0.08 -0.08)">
      <defs>
       <path id="ArialMT-32" d="M 3222 541 
L 3222 0 
L 194 0 
Q 188 203 259 391 
Q 375 700 629 1000 
Q 884 1300 1366 1694 
Q 2113 2306 2375 2664 
Q 2638 3022 2638 3341 
Q 2638 3675 2398 3904 
Q 2159 4134 1775 4134 
Q 1369 4134 1125 3890 
Q 881 3647 878 3216 
L 300 3275 
Q 359 3922 746 4261 
Q 1134 4600 1788 4600 
Q 2447 4600 2831 4234 
Q 3216 3869 3216 3328 
Q 3216 3053 3103 2787 
Q 2991 2522 2730 2228 
Q 2469 1934 1863 1422 
Q 1356 997 1212 845 
Q 1069 694 975 541 
L 3222 541 
z
" transform="scale(0.015625)"/>
       <path id="ArialMT-34" d="M 2069 0 
L 2069 1097 
L 81 1097 
L 81 1613 
L 2172 4581 
L 2631 4581 
L 2631 1613 
L 3250 1613 
L 3250 1097 
L 2631 1097 
L 2631 0 
L 2069 0 
z
M 2069 1613 
L 2069 3678 
L 634 1613 
L 2069 1613 
z
" transform="scale(0.015625)"/>
      </defs>
      <use xlink:href="#ArialMT-30"/>
      <use xlink:href="#ArialMT-2e" x="55.615234"/>
      <use xlink:href="#ArialMT-38" x="83.398438"/>
      <use xlink:href="#ArialMT-32" x="139.013672"/>
      <use xlink:href="#ArialMT-34" x="194.628906"/>
     </g>
    </g>
   </g>
   <g id="text_25">
    <g clip-path="url(#pcb77b583e2)">
     <!-- $\mathrm{R_{XX}}$ -->
     <g transform="translate(269.105294 146.841461) scale(0.13 -0.13)">
      <use xlink:href="#DejaVuSans-52" transform="translate(0 0.09375)"/>
      <use xlink:href="#DejaVuSans-58" transform="translate(70.439453 -16.3125) scale(0.7)"/>
      <use xlink:href="#DejaVuSans-58" transform="translate(118.393555 -16.3125) scale(0.7)"/>
     </g>
    </g>
   </g>
   <g id="text_26">
    <g clip-path="url(#pcb77b583e2)">
     <!-- 0 -->
     <g transform="translate(301.195374 186.705901) scale(0.13 -0.13)">
      <use xlink:href="#ArialMT-30"/>
     </g>
    </g>
   </g>
   <g id="text_27">
    <g clip-path="url(#pcb77b583e2)">
     <!-- 1 -->
     <g transform="translate(301.195374 93.997902) scale(0.13 -0.13)">
      <use xlink:href="#ArialMT-31"/>
     </g>
    </g>
   </g>
   <g id="text_28">
    <g clip-path="url(#pcb77b583e2)">
     <!-- $-$0.0761 -->
     <g transform="translate(310.909293 160.845703) scale(0.08 -0.08)">
      <defs>
       <path id="ArialMT-37" d="M 303 3981 
L 303 4522 
L 3269 4522 
L 3269 4084 
Q 2831 3619 2401 2847 
Q 1972 2075 1738 1259 
Q 1569 684 1522 0 
L 944 0 
Q 953 541 1156 1306 
Q 1359 2072 1739 2783 
Q 2119 3494 2547 3981 
L 303 3981 
z
" transform="scale(0.015625)"/>
      </defs>
      <use xlink:href="#DejaVuSans-2212" transform="translate(0 0.125)"/>
      <use xlink:href="#ArialMT-30" transform="translate(83.789062 0.125)"/>
      <use xlink:href="#ArialMT-2e" transform="translate(139.404297 0.125)"/>
      <use xlink:href="#ArialMT-30" transform="translate(167.1875 0.125)"/>
      <use xlink:href="#ArialMT-37" transform="translate(222.802734 0.125)"/>
      <use xlink:href="#ArialMT-36" transform="translate(278.417969 0.125)"/>
      <use xlink:href="#ArialMT-31" transform="translate(334.033203 0.125)"/>
     </g>
    </g>
   </g>
   <g id="text_29">
    <g clip-path="url(#pcb77b583e2)">
     <!-- $\mathrm{R_{XX}}$ -->
     <g transform="translate(315.459293 137.570661) scale(0.13 -0.13)">
      <use xlink:href="#DejaVuSans-52" transform="translate(0 0.09375)"/>
      <use xlink:href="#DejaVuSans-58" transform="translate(70.439453 -16.3125) scale(0.7)"/>
      <use xlink:href="#DejaVuSans-58" transform="translate(118.393555 -16.3125) scale(0.7)"/>
     </g>
    </g>
   </g>
   <g id="text_30">
    <g clip-path="url(#pcb77b583e2)">
     <!-- 2.53 -->
     <g transform="translate(313.625978 55.390354) scale(0.08 -0.08)">
      <use xlink:href="#ArialMT-32"/>
      <use xlink:href="#ArialMT-2e" x="55.615234"/>
      <use xlink:href="#ArialMT-35" x="83.398438"/>
      <use xlink:href="#ArialMT-33" x="139.013672"/>
     </g>
    </g>
   </g>
   <g id="text_31">
    <g clip-path="url(#pcb77b583e2)">
     <!-- $\mathrm{R_Z}$ -->
     <g transform="translate(313.480353 43.124388) scale(0.13 -0.13)">
      <defs>
       <path id="DejaVuSans-5a" d="M 359 4666 
L 4025 4666 
L 4025 4184 
L 1075 531 
L 4097 531 
L 4097 0 
L 288 0 
L 288 481 
L 3238 4134 
L 359 4134 
L 359 4666 
z
" transform="scale(0.015625)"/>
      </defs>
      <use xlink:href="#DejaVuSans-52" transform="translate(0 0.09375)"/>
      <use xlink:href="#DejaVuSans-5a" transform="translate(70.439453 -16.3125) scale(0.7)"/>
     </g>
    </g>
   </g>
   <g id="text_32">
    <g clip-path="url(#pcb77b583e2)">
     <!-- 0 -->
     <g transform="translate(350.302801 233.0599) scale(0.13 -0.13)">
      <use xlink:href="#ArialMT-30"/>
     </g>
    </g>
   </g>
   <g id="text_33">
    <g clip-path="url(#pcb77b583e2)">
     <!-- 1 -->
     <g transform="translate(350.302801 93.997902) scale(0.13 -0.13)">
      <use xlink:href="#ArialMT-31"/>
     </g>
    </g>
   </g>
   <g id="text_34">
    <g clip-path="url(#pcb77b583e2)">
     <!-- $-$0.103 -->
     <g transform="translate(359.463292 197.928902) scale(0.08 -0.08)">
      <use xlink:href="#DejaVuSans-2212" transform="translate(0 0.125)"/>
      <use xlink:href="#ArialMT-30" transform="translate(83.789062 0.125)"/>
      <use xlink:href="#ArialMT-2e" transform="translate(139.404297 0.125)"/>
      <use xlink:href="#ArialMT-31" transform="translate(167.1875 0.125)"/>
      <use xlink:href="#ArialMT-30" transform="translate(222.802734 0.125)"/>
      <use xlink:href="#ArialMT-33" transform="translate(278.417969 0.125)"/>
     </g>
    </g>
   </g>
   <g id="text_35">
    <g clip-path="url(#pcb77b583e2)">
     <!-- $\mathrm{R_{XX}}$ -->
     <g transform="translate(361.813292 165.383061) scale(0.13 -0.13)">
      <use xlink:href="#DejaVuSans-52" transform="translate(0 0.09375)"/>
      <use xlink:href="#DejaVuSans-58" transform="translate(70.439453 -16.3125) scale(0.7)"/>
      <use xlink:href="#DejaVuSans-58" transform="translate(118.393555 -16.3125) scale(0.7)"/>
     </g>
    </g>
   </g>
   <g id="text_36">
    <g clip-path="url(#pcb77b583e2)">
     <!-- 0 -->
     <g transform="translate(396.559457 186.705901) scale(0.13 -0.13)">
      <use xlink:href="#ArialMT-30"/>
     </g>
    </g>
   </g>
   <g id="text_37">
    <g clip-path="url(#pcb77b583e2)">
     <!-- 1 -->
     <g transform="translate(396.559457 140.351901) scale(0.13 -0.13)">
      <use xlink:href="#ArialMT-31"/>
     </g>
    </g>
   </g>
   <g id="text_38">
    <g clip-path="url(#pcb77b583e2)">
     <!-- $-$0.204 -->
     <g transform="translate(405.817292 170.116503) scale(0.08 -0.08)">
      <use xlink:href="#DejaVuSans-2212" transform="translate(0 0.125)"/>
      <use xlink:href="#ArialMT-30" transform="translate(83.789062 0.125)"/>
      <use xlink:href="#ArialMT-2e" transform="translate(139.404297 0.125)"/>
      <use xlink:href="#ArialMT-32" transform="translate(167.1875 0.125)"/>
      <use xlink:href="#ArialMT-30" transform="translate(222.802734 0.125)"/>
      <use xlink:href="#ArialMT-34" transform="translate(278.417969 0.125)"/>
     </g>
    </g>
   </g>
   <g id="text_39">
    <g clip-path="url(#pcb77b583e2)">
     <!-- $\mathrm{R_{XX}}$ -->
     <g transform="translate(408.167292 156.112261) scale(0.13 -0.13)">
      <use xlink:href="#DejaVuSans-52" transform="translate(0 0.09375)"/>
      <use xlink:href="#DejaVuSans-58" transform="translate(70.439453 -16.3125) scale(0.7)"/>
      <use xlink:href="#DejaVuSans-58" transform="translate(118.393555 -16.3125) scale(0.7)"/>
     </g>
    </g>
   </g>
   <g id="text_40">
    <g clip-path="url(#pcb77b583e2)">
     <!-- $-$3.27 -->
     <g transform="translate(402.958352 101.744354) scale(0.08 -0.08)">
      <use xlink:href="#DejaVuSans-2212" transform="translate(0 0.125)"/>
      <use xlink:href="#ArialMT-33" transform="translate(83.789062 0.125)"/>
      <use xlink:href="#ArialMT-2e" transform="translate(139.404297 0.125)"/>
      <use xlink:href="#ArialMT-32" transform="translate(167.1875 0.125)"/>
      <use xlink:href="#ArialMT-37" transform="translate(222.802734 0.125)"/>
     </g>
    </g>
   </g>
   <g id="text_41">
    <g clip-path="url(#pcb77b583e2)">
     <!-- $\mathrm{R_Z}$ -->
     <g transform="translate(406.188352 89.478387) scale(0.13 -0.13)">
      <use xlink:href="#DejaVuSans-52" transform="translate(0 0.09375)"/>
      <use xlink:href="#DejaVuSans-5a" transform="translate(70.439453 -16.3125) scale(0.7)"/>
     </g>
    </g>
   </g>
   <g id="text_42">
    <g clip-path="url(#pcb77b583e2)">
     <!-- 0 -->
     <g transform="translate(444.463998 233.0599) scale(0.13 -0.13)">
      <use xlink:href="#ArialMT-30"/>
     </g>
    </g>
   </g>
   <g id="text_43">
    <g clip-path="url(#pcb77b583e2)">
     <!-- 1 -->
     <g transform="translate(444.463998 140.351901) scale(0.13 -0.13)">
      <use xlink:href="#ArialMT-31"/>
     </g>
    </g>
   </g>
   <g id="text_44">
    <g clip-path="url(#pcb77b583e2)">
     <!-- 0.485 -->
     <g transform="translate(455.562541 207.199702) scale(0.08 -0.08)">
      <use xlink:href="#ArialMT-30"/>
      <use xlink:href="#ArialMT-2e" x="55.615234"/>
      <use xlink:href="#ArialMT-34" x="83.398438"/>
      <use xlink:href="#ArialMT-38" x="139.013672"/>
      <use xlink:href="#ArialMT-35" x="194.628906"/>
     </g>
    </g>
   </g>
   <g id="text_45">
    <g clip-path="url(#pcb77b583e2)">
     <!-- $\mathrm{R_{XX}}$ -->
     <g transform="translate(454.521291 183.924661) scale(0.13 -0.13)">
      <use xlink:href="#DejaVuSans-52" transform="translate(0 0.09375)"/>
      <use xlink:href="#DejaVuSans-58" transform="translate(70.439453 -16.3125) scale(0.7)"/>
      <use xlink:href="#DejaVuSans-58" transform="translate(118.393555 -16.3125) scale(0.7)"/>
     </g>
    </g>
   </g>
   <g id="text_46">
    <g clip-path="url(#pcb77b583e2)">
     <!-- 1.6 -->
     <g transform="translate(501.266351 148.098353) scale(0.08 -0.08)">
      <use xlink:href="#ArialMT-31"/>
      <use xlink:href="#ArialMT-2e" x="55.615234"/>
      <use xlink:href="#ArialMT-36" x="83.398438"/>
     </g>
    </g>
   </g>
   <g id="text_47">
    <g clip-path="url(#pcb77b583e2)">
     <!-- $\mathrm{R_Z}$ -->
     <g transform="translate(498.896351 135.832386) scale(0.13 -0.13)">
      <use xlink:href="#DejaVuSans-52" transform="translate(0 0.09375)"/>
      <use xlink:href="#DejaVuSans-5a" transform="translate(70.439453 -16.3125) scale(0.7)"/>
     </g>
    </g>
   </g>
   <g id="text_48">
    <g clip-path="url(#pcb77b583e2)">
     <!-- 0 -->
     <g transform="translate(490.817997 233.0599) scale(0.13 -0.13)">
      <use xlink:href="#ArialMT-30"/>
     </g>
    </g>
   </g>
   <g id="text_49">
    <g clip-path="url(#pcb77b583e2)">
     <!-- 1 -->
     <g transform="translate(490.817997 186.705901) scale(0.13 -0.13)">
      <use xlink:href="#ArialMT-31"/>
     </g>
    </g>
   </g>
   <g id="text_50">
    <g clip-path="url(#pcb77b583e2)">
     <!-- 0.112 -->
     <g transform="translate(502.211541 216.470502) scale(0.08 -0.08)">
      <use xlink:href="#ArialMT-30"/>
      <use xlink:href="#ArialMT-2e" x="55.615234"/>
      <use xlink:href="#ArialMT-31" x="83.398438"/>
      <use xlink:href="#ArialMT-31" x="131.638672"/>
      <use xlink:href="#ArialMT-32" x="187.253906"/>
     </g>
    </g>
   </g>
   <g id="text_51">
    <g clip-path="url(#pcb77b583e2)">
     <!-- $\mathrm{R_{XX}}$ -->
     <g transform="translate(500.875291 202.466261) scale(0.13 -0.13)">
      <use xlink:href="#DejaVuSans-52" transform="translate(0 0.09375)"/>
      <use xlink:href="#DejaVuSans-58" transform="translate(70.439453 -16.3125) scale(0.7)"/>
      <use xlink:href="#DejaVuSans-58" transform="translate(118.393555 -16.3125) scale(0.7)"/>
     </g>
    </g>
   </g>
   <g id="text_52">
    <g clip-path="url(#pcb77b583e2)">
     <!-- 3.24 -->
     <g transform="translate(545.395975 194.452353) scale(0.08 -0.08)">
      <use xlink:href="#ArialMT-33"/>
      <use xlink:href="#ArialMT-2e" x="55.615234"/>
      <use xlink:href="#ArialMT-32" x="83.398438"/>
      <use xlink:href="#ArialMT-34" x="139.013672"/>
     </g>
    </g>
   </g>
   <g id="text_53">
    <g clip-path="url(#pcb77b583e2)">
     <!-- $\mathrm{R_Z}$ -->
     <g transform="translate(545.25035 182.186386) scale(0.13 -0.13)">
      <use xlink:href="#DejaVuSans-52" transform="translate(0 0.09375)"/>
      <use xlink:href="#DejaVuSans-5a" transform="translate(70.439453 -16.3125) scale(0.7)"/>
     </g>
    </g>
   </g>
   <g id="text_54">
    <g clip-path="url(#pcb77b583e2)">
     <!-- $-$3.97 -->
     <g transform="translate(542.02035 240.806352) scale(0.08 -0.08)">
      <use xlink:href="#DejaVuSans-2212" transform="translate(0 0.125)"/>
      <use xlink:href="#ArialMT-33" transform="translate(83.789062 0.125)"/>
      <use xlink:href="#ArialMT-2e" transform="translate(139.404297 0.125)"/>
      <use xlink:href="#ArialMT-39" transform="translate(167.1875 0.125)"/>
      <use xlink:href="#ArialMT-37" transform="translate(222.802734 0.125)"/>
     </g>
    </g>
   </g>
   <g id="text_55">
    <g clip-path="url(#pcb77b583e2)">
     <!-- $\mathrm{R_Z}$ -->
     <g transform="translate(545.25035 228.540385) scale(0.13 -0.13)">
      <use xlink:href="#DejaVuSans-52" transform="translate(0 0.09375)"/>
      <use xlink:href="#DejaVuSans-5a" transform="translate(70.439453 -16.3125) scale(0.7)"/>
     </g>
    </g>
   </g>
  </g>
 </g>
 <defs>
  <clipPath id="pcb77b583e2">
   <rect x="7.2" y="7.2" width="576.57399" height="250.311597"/>
  </clipPath>
 </defs>
</svg>
