<?xml version="1.0" encoding="utf-8" standalone="no"?>
<!DOCTYPE svg PUBLIC "-//W3C//DTD SVG 1.1//EN"
  "http://www.w3.org/Graphics/SVG/1.1/DTD/svg11.dtd">
<svg xmlns:xlink="http://www.w3.org/1999/xlink" width="460.8pt" height="345.6pt" viewBox="0 0 460.8 345.6" xmlns="http://www.w3.org/2000/svg" version="1.1">
 <metadata>
  <rdf:RDF xmlns:dc="http://purl.org/dc/elements/1.1/" xmlns:cc="http://creativecommons.org/ns#" xmlns:rdf="http://www.w3.org/1999/02/22-rdf-syntax-ns#">
   <cc:Work>
    <dc:type rdf:resource="http://purl.org/dc/dcmitype/StillImage"/>
    <dc:date>2023-07-27T15:01:45.318765</dc:date>
    <dc:format>image/svg+xml</dc:format>
    <dc:creator>
     <cc:Agent>
      <dc:title>Matplotlib v3.7.1, https://matplotlib.org/</dc:title>
     </cc:Agent>
    </dc:creator>
   </cc:Work>
  </rdf:RDF>
 </metadata>
 <defs>
  <style type="text/css">*{stroke-linejoin: round; stroke-linecap: butt}</style>
 </defs>
 <g id="figure_1">
  <g id="patch_1">
   <path d="M 0 345.6 
L 460.8 345.6 
L 460.8 0 
L 0 0 
z
" style="fill: #ffffff"/>
  </g>
  <g id="axes_1">
   <g id="patch_2">
    <path d="M 57.6 307.584 
L 414.72 307.584 
L 414.72 41.472 
L 57.6 41.472 
z
" style="fill: #ffffff"/>
   </g>
   <g id="matplotlib.axis_1">
    <g id="xtick_1">
     <g id="line2d_1">
      <path d="M 73.832727 307.584 
L 73.832727 41.472 
" clip-path="url(#p7488da3f59)" style="fill: none; stroke: #cccccc; stroke-width: 0.8; stroke-linecap: round"/>
     </g>
     <g id="text_1">
      <!-- 0 -->
      <g style="fill: #262626" transform="translate(71.052259 321.741812) scale(0.1 -0.1)">
       <defs>
        <path id="ArialMT-30" d="M 266 2259 
Q 266 3072 433 3567 
Q 600 4063 929 4331 
Q 1259 4600 1759 4600 
Q 2128 4600 2406 4451 
Q 2684 4303 2865 4023 
Q 3047 3744 3150 3342 
Q 3253 2941 3253 2259 
Q 3253 1453 3087 958 
Q 2922 463 2592 192 
Q 2263 -78 1759 -78 
Q 1097 -78 719 397 
Q 266 969 266 2259 
z
M 844 2259 
Q 844 1131 1108 757 
Q 1372 384 1759 384 
Q 2147 384 2411 759 
Q 2675 1134 2675 2259 
Q 2675 3391 2411 3762 
Q 2147 4134 1753 4134 
Q 1366 4134 1134 3806 
Q 844 3388 844 2259 
z
" transform="scale(0.015625)"/>
       </defs>
       <use xlink:href="#ArialMT-30"/>
      </g>
     </g>
    </g>
    <g id="xtick_2">
     <g id="line2d_2">
      <path d="M 118.923636 307.584 
L 118.923636 41.472 
" clip-path="url(#p7488da3f59)" style="fill: none; stroke: #cccccc; stroke-width: 0.8; stroke-linecap: round"/>
     </g>
     <g id="text_2">
      <!-- 25 -->
      <g style="fill: #262626" transform="translate(113.362699 321.741812) scale(0.1 -0.1)">
       <defs>
        <path id="ArialMT-32" d="M 3222 541 
L 3222 0 
L 194 0 
Q 188 203 259 391 
Q 375 700 629 1000 
Q 884 1300 1366 1694 
Q 2113 2306 2375 2664 
Q 2638 3022 2638 3341 
Q 2638 3675 2398 3904 
Q 2159 4134 1775 4134 
Q 1369 4134 1125 3890 
Q 881 3647 878 3216 
L 300 3275 
Q 359 3922 746 4261 
Q 1134 4600 1788 4600 
Q 2447 4600 2831 4234 
Q 3216 3869 3216 3328 
Q 3216 3053 3103 2787 
Q 2991 2522 2730 2228 
Q 2469 1934 1863 1422 
Q 1356 997 1212 845 
Q 1069 694 975 541 
L 3222 541 
z
" transform="scale(0.015625)"/>
        <path id="ArialMT-35" d="M 266 1200 
L 856 1250 
Q 922 819 1161 601 
Q 1400 384 1738 384 
Q 2144 384 2425 690 
Q 2706 997 2706 1503 
Q 2706 1984 2436 2262 
Q 2166 2541 1728 2541 
Q 1456 2541 1237 2417 
Q 1019 2294 894 2097 
L 366 2166 
L 809 4519 
L 3088 4519 
L 3088 3981 
L 1259 3981 
L 1013 2750 
Q 1425 3038 1878 3038 
Q 2478 3038 2890 2622 
Q 3303 2206 3303 1553 
Q 3303 931 2941 478 
Q 2500 -78 1738 -78 
Q 1113 -78 717 272 
Q 322 622 266 1200 
z
" transform="scale(0.015625)"/>
       </defs>
       <use xlink:href="#ArialMT-32"/>
       <use xlink:href="#ArialMT-35" x="55.615234"/>
      </g>
     </g>
    </g>
    <g id="xtick_3">
     <g id="line2d_3">
      <path d="M 164.014545 307.584 
L 164.014545 41.472 
" clip-path="url(#p7488da3f59)" style="fill: none; stroke: #cccccc; stroke-width: 0.8; stroke-linecap: round"/>
     </g>
     <g id="text_3">
      <!-- 50 -->
      <g style="fill: #262626" transform="translate(158.453608 321.741812) scale(0.1 -0.1)">
       <use xlink:href="#ArialMT-35"/>
       <use xlink:href="#ArialMT-30" x="55.615234"/>
      </g>
     </g>
    </g>
    <g id="xtick_4">
     <g id="line2d_4">
      <path d="M 209.105455 307.584 
L 209.105455 41.472 
" clip-path="url(#p7488da3f59)" style="fill: none; stroke: #cccccc; stroke-width: 0.8; stroke-linecap: round"/>
     </g>
     <g id="text_4">
      <!-- 75 -->
      <g style="fill: #262626" transform="translate(203.544517 321.741812) scale(0.1 -0.1)">
       <defs>
        <path id="ArialMT-37" d="M 303 3981 
L 303 4522 
L 3269 4522 
L 3269 4084 
Q 2831 3619 2401 2847 
Q 1972 2075 1738 1259 
Q 1569 684 1522 0 
L 944 0 
Q 953 541 1156 1306 
Q 1359 2072 1739 2783 
Q 2119 3494 2547 3981 
L 303 3981 
z
" transform="scale(0.015625)"/>
       </defs>
       <use xlink:href="#ArialMT-37"/>
       <use xlink:href="#ArialMT-35" x="55.615234"/>
      </g>
     </g>
    </g>
    <g id="xtick_5">
     <g id="line2d_5">
      <path d="M 254.196364 307.584 
L 254.196364 41.472 
" clip-path="url(#p7488da3f59)" style="fill: none; stroke: #cccccc; stroke-width: 0.8; stroke-linecap: round"/>
     </g>
     <g id="text_5">
      <!-- 100 -->
      <g style="fill: #262626" transform="translate(245.854957 321.741812) scale(0.1 -0.1)">
       <defs>
        <path id="ArialMT-31" d="M 2384 0 
L 1822 0 
L 1822 3584 
Q 1619 3391 1289 3197 
Q 959 3003 697 2906 
L 697 3450 
Q 1169 3672 1522 3987 
Q 1875 4303 2022 4600 
L 2384 4600 
L 2384 0 
z
" transform="scale(0.015625)"/>
       </defs>
       <use xlink:href="#ArialMT-31"/>
       <use xlink:href="#ArialMT-30" x="55.615234"/>
       <use xlink:href="#ArialMT-30" x="111.230469"/>
      </g>
     </g>
    </g>
    <g id="xtick_6">
     <g id="line2d_6">
      <path d="M 299.287273 307.584 
L 299.287273 41.472 
" clip-path="url(#p7488da3f59)" style="fill: none; stroke: #cccccc; stroke-width: 0.8; stroke-linecap: round"/>
     </g>
     <g id="text_6">
      <!-- 125 -->
      <g style="fill: #262626" transform="translate(290.945866 321.741812) scale(0.1 -0.1)">
       <use xlink:href="#ArialMT-31"/>
       <use xlink:href="#ArialMT-32" x="55.615234"/>
       <use xlink:href="#ArialMT-35" x="111.230469"/>
      </g>
     </g>
    </g>
    <g id="xtick_7">
     <g id="line2d_7">
      <path d="M 344.378182 307.584 
L 344.378182 41.472 
" clip-path="url(#p7488da3f59)" style="fill: none; stroke: #cccccc; stroke-width: 0.8; stroke-linecap: round"/>
     </g>
     <g id="text_7">
      <!-- 150 -->
      <g style="fill: #262626" transform="translate(336.036776 321.741812) scale(0.1 -0.1)">
       <use xlink:href="#ArialMT-31"/>
       <use xlink:href="#ArialMT-35" x="55.615234"/>
       <use xlink:href="#ArialMT-30" x="111.230469"/>
      </g>
     </g>
    </g>
    <g id="xtick_8">
     <g id="line2d_8">
      <path d="M 389.469091 307.584 
L 389.469091 41.472 
" clip-path="url(#p7488da3f59)" style="fill: none; stroke: #cccccc; stroke-width: 0.8; stroke-linecap: round"/>
     </g>
     <g id="text_8">
      <!-- 175 -->
      <g style="fill: #262626" transform="translate(381.127685 321.741812) scale(0.1 -0.1)">
       <use xlink:href="#ArialMT-31"/>
       <use xlink:href="#ArialMT-37" x="55.615234"/>
       <use xlink:href="#ArialMT-35" x="111.230469"/>
      </g>
     </g>
    </g>
    <g id="text_9">
     <!-- Timesteps -->
     <g style="fill: #262626" transform="translate(213.287344 334.887125) scale(0.1 -0.1)">
      <defs>
       <path id="ArialMT-54" d="M 1659 0 
L 1659 4041 
L 150 4041 
L 150 4581 
L 3781 4581 
L 3781 4041 
L 2266 4041 
L 2266 0 
L 1659 0 
z
" transform="scale(0.015625)"/>
       <path id="ArialMT-69" d="M 425 3934 
L 425 4581 
L 988 4581 
L 988 3934 
L 425 3934 
z
M 425 0 
L 425 3319 
L 988 3319 
L 988 0 
L 425 0 
z
" transform="scale(0.015625)"/>
       <path id="ArialMT-6d" d="M 422 0 
L 422 3319 
L 925 3319 
L 925 2853 
Q 1081 3097 1340 3245 
Q 1600 3394 1931 3394 
Q 2300 3394 2536 3241 
Q 2772 3088 2869 2813 
Q 3263 3394 3894 3394 
Q 4388 3394 4653 3120 
Q 4919 2847 4919 2278 
L 4919 0 
L 4359 0 
L 4359 2091 
Q 4359 2428 4304 2576 
Q 4250 2725 4106 2815 
Q 3963 2906 3769 2906 
Q 3419 2906 3187 2673 
Q 2956 2441 2956 1928 
L 2956 0 
L 2394 0 
L 2394 2156 
Q 2394 2531 2256 2718 
Q 2119 2906 1806 2906 
Q 1569 2906 1367 2781 
Q 1166 2656 1075 2415 
Q 984 2175 984 1722 
L 984 0 
L 422 0 
z
" transform="scale(0.015625)"/>
       <path id="ArialMT-65" d="M 2694 1069 
L 3275 997 
Q 3138 488 2766 206 
Q 2394 -75 1816 -75 
Q 1088 -75 661 373 
Q 234 822 234 1631 
Q 234 2469 665 2931 
Q 1097 3394 1784 3394 
Q 2450 3394 2872 2941 
Q 3294 2488 3294 1666 
Q 3294 1616 3291 1516 
L 816 1516 
Q 847 969 1125 678 
Q 1403 388 1819 388 
Q 2128 388 2347 550 
Q 2566 713 2694 1069 
z
M 847 1978 
L 2700 1978 
Q 2663 2397 2488 2606 
Q 2219 2931 1791 2931 
Q 1403 2931 1139 2672 
Q 875 2413 847 1978 
z
" transform="scale(0.015625)"/>
       <path id="ArialMT-73" d="M 197 991 
L 753 1078 
Q 800 744 1014 566 
Q 1228 388 1613 388 
Q 2000 388 2187 545 
Q 2375 703 2375 916 
Q 2375 1106 2209 1216 
Q 2094 1291 1634 1406 
Q 1016 1563 777 1677 
Q 538 1791 414 1992 
Q 291 2194 291 2438 
Q 291 2659 392 2848 
Q 494 3038 669 3163 
Q 800 3259 1026 3326 
Q 1253 3394 1513 3394 
Q 1903 3394 2198 3281 
Q 2494 3169 2634 2976 
Q 2775 2784 2828 2463 
L 2278 2388 
Q 2241 2644 2061 2787 
Q 1881 2931 1553 2931 
Q 1166 2931 1000 2803 
Q 834 2675 834 2503 
Q 834 2394 903 2306 
Q 972 2216 1119 2156 
Q 1203 2125 1616 2013 
Q 2213 1853 2448 1751 
Q 2684 1650 2818 1456 
Q 2953 1263 2953 975 
Q 2953 694 2789 445 
Q 2625 197 2315 61 
Q 2006 -75 1616 -75 
Q 969 -75 630 194 
Q 291 463 197 991 
z
" transform="scale(0.015625)"/>
       <path id="ArialMT-74" d="M 1650 503 
L 1731 6 
Q 1494 -44 1306 -44 
Q 1000 -44 831 53 
Q 663 150 594 308 
Q 525 466 525 972 
L 525 2881 
L 113 2881 
L 113 3319 
L 525 3319 
L 525 4141 
L 1084 4478 
L 1084 3319 
L 1650 3319 
L 1650 2881 
L 1084 2881 
L 1084 941 
Q 1084 700 1114 631 
Q 1144 563 1211 522 
Q 1278 481 1403 481 
Q 1497 481 1650 503 
z
" transform="scale(0.015625)"/>
       <path id="ArialMT-70" d="M 422 -1272 
L 422 3319 
L 934 3319 
L 934 2888 
Q 1116 3141 1344 3267 
Q 1572 3394 1897 3394 
Q 2322 3394 2647 3175 
Q 2972 2956 3137 2557 
Q 3303 2159 3303 1684 
Q 3303 1175 3120 767 
Q 2938 359 2589 142 
Q 2241 -75 1856 -75 
Q 1575 -75 1351 44 
Q 1128 163 984 344 
L 984 -1272 
L 422 -1272 
z
M 931 1641 
Q 931 1000 1190 694 
Q 1450 388 1819 388 
Q 2194 388 2461 705 
Q 2728 1022 2728 1688 
Q 2728 2322 2467 2637 
Q 2206 2953 1844 2953 
Q 1484 2953 1207 2617 
Q 931 2281 931 1641 
z
" transform="scale(0.015625)"/>
      </defs>
      <use xlink:href="#ArialMT-54"/>
      <use xlink:href="#ArialMT-69" x="57.333984"/>
      <use xlink:href="#ArialMT-6d" x="79.550781"/>
      <use xlink:href="#ArialMT-65" x="162.851562"/>
      <use xlink:href="#ArialMT-73" x="218.466797"/>
      <use xlink:href="#ArialMT-74" x="268.466797"/>
      <use xlink:href="#ArialMT-65" x="296.25"/>
      <use xlink:href="#ArialMT-70" x="351.865234"/>
      <use xlink:href="#ArialMT-73" x="407.480469"/>
     </g>
    </g>
   </g>
   <g id="matplotlib.axis_2">
    <g id="ytick_1">
     <g id="line2d_9">
      <path d="M 57.6 267.755865 
L 414.72 267.755865 
" clip-path="url(#p7488da3f59)" style="fill: none; stroke: #cccccc; stroke-width: 0.8; stroke-linecap: round"/>
     </g>
     <g id="text_10">
      <!-- 320 -->
      <g style="fill: #262626" transform="translate(33.917187 271.334771) scale(0.1 -0.1)">
       <defs>
        <path id="ArialMT-33" d="M 269 1209 
L 831 1284 
Q 928 806 1161 595 
Q 1394 384 1728 384 
Q 2125 384 2398 659 
Q 2672 934 2672 1341 
Q 2672 1728 2419 1979 
Q 2166 2231 1775 2231 
Q 1616 2231 1378 2169 
L 1441 2663 
Q 1497 2656 1531 2656 
Q 1891 2656 2178 2843 
Q 2466 3031 2466 3422 
Q 2466 3731 2256 3934 
Q 2047 4138 1716 4138 
Q 1388 4138 1169 3931 
Q 950 3725 888 3313 
L 325 3413 
Q 428 3978 793 4289 
Q 1159 4600 1703 4600 
Q 2078 4600 2393 4439 
Q 2709 4278 2876 4000 
Q 3044 3722 3044 3409 
Q 3044 3113 2884 2869 
Q 2725 2625 2413 2481 
Q 2819 2388 3044 2092 
Q 3269 1797 3269 1353 
Q 3269 753 2831 336 
Q 2394 -81 1725 -81 
Q 1122 -81 723 278 
Q 325 638 269 1209 
z
" transform="scale(0.015625)"/>
       </defs>
       <use xlink:href="#ArialMT-33"/>
       <use xlink:href="#ArialMT-32" x="55.615234"/>
       <use xlink:href="#ArialMT-30" x="111.230469"/>
      </g>
     </g>
    </g>
    <g id="ytick_2">
     <g id="line2d_10">
      <path d="M 57.6 224.03156 
L 414.72 224.03156 
" clip-path="url(#p7488da3f59)" style="fill: none; stroke: #cccccc; stroke-width: 0.8; stroke-linecap: round"/>
     </g>
     <g id="text_11">
      <!-- 330 -->
      <g style="fill: #262626" transform="translate(33.917187 227.610466) scale(0.1 -0.1)">
       <use xlink:href="#ArialMT-33"/>
       <use xlink:href="#ArialMT-33" x="55.615234"/>
       <use xlink:href="#ArialMT-30" x="111.230469"/>
      </g>
     </g>
    </g>
    <g id="ytick_3">
     <g id="line2d_11">
      <path d="M 57.6 180.307255 
L 414.72 180.307255 
" clip-path="url(#p7488da3f59)" style="fill: none; stroke: #cccccc; stroke-width: 0.8; stroke-linecap: round"/>
     </g>
     <g id="text_12">
      <!-- 340 -->
      <g style="fill: #262626" transform="translate(33.917187 183.886161) scale(0.1 -0.1)">
       <defs>
        <path id="ArialMT-34" d="M 2069 0 
L 2069 1097 
L 81 1097 
L 81 1613 
L 2172 4581 
L 2631 4581 
L 2631 1613 
L 3250 1613 
L 3250 1097 
L 2631 1097 
L 2631 0 
L 2069 0 
z
M 2069 1613 
L 2069 3678 
L 634 1613 
L 2069 1613 
z
" transform="scale(0.015625)"/>
       </defs>
       <use xlink:href="#ArialMT-33"/>
       <use xlink:href="#ArialMT-34" x="55.615234"/>
       <use xlink:href="#ArialMT-30" x="111.230469"/>
      </g>
     </g>
    </g>
    <g id="ytick_4">
     <g id="line2d_12">
      <path d="M 57.6 136.58295 
L 414.72 136.58295 
" clip-path="url(#p7488da3f59)" style="fill: none; stroke: #cccccc; stroke-width: 0.8; stroke-linecap: round"/>
     </g>
     <g id="text_13">
      <!-- 350 -->
      <g style="fill: #262626" transform="translate(33.917187 140.161856) scale(0.1 -0.1)">
       <use xlink:href="#ArialMT-33"/>
       <use xlink:href="#ArialMT-35" x="55.615234"/>
       <use xlink:href="#ArialMT-30" x="111.230469"/>
      </g>
     </g>
    </g>
    <g id="ytick_5">
     <g id="line2d_13">
      <path d="M 57.6 92.858645 
L 414.72 92.858645 
" clip-path="url(#p7488da3f59)" style="fill: none; stroke: #cccccc; stroke-width: 0.8; stroke-linecap: round"/>
     </g>
     <g id="text_14">
      <!-- 360 -->
      <g style="fill: #262626" transform="translate(33.917187 96.437551) scale(0.1 -0.1)">
       <defs>
        <path id="ArialMT-36" d="M 3184 3459 
L 2625 3416 
Q 2550 3747 2413 3897 
Q 2184 4138 1850 4138 
Q 1581 4138 1378 3988 
Q 1113 3794 959 3422 
Q 806 3050 800 2363 
Q 1003 2672 1297 2822 
Q 1591 2972 1913 2972 
Q 2475 2972 2870 2558 
Q 3266 2144 3266 1488 
Q 3266 1056 3080 686 
Q 2894 316 2569 119 
Q 2244 -78 1831 -78 
Q 1128 -78 684 439 
Q 241 956 241 2144 
Q 241 3472 731 4075 
Q 1159 4600 1884 4600 
Q 2425 4600 2770 4297 
Q 3116 3994 3184 3459 
z
M 888 1484 
Q 888 1194 1011 928 
Q 1134 663 1356 523 
Q 1578 384 1822 384 
Q 2178 384 2434 671 
Q 2691 959 2691 1453 
Q 2691 1928 2437 2201 
Q 2184 2475 1800 2475 
Q 1419 2475 1153 2201 
Q 888 1928 888 1484 
z
" transform="scale(0.015625)"/>
       </defs>
       <use xlink:href="#ArialMT-33"/>
       <use xlink:href="#ArialMT-36" x="55.615234"/>
       <use xlink:href="#ArialMT-30" x="111.230469"/>
      </g>
     </g>
    </g>
    <g id="ytick_6">
     <g id="line2d_14">
      <path d="M 57.6 49.134339 
L 414.72 49.134339 
" clip-path="url(#p7488da3f59)" style="fill: none; stroke: #cccccc; stroke-width: 0.8; stroke-linecap: round"/>
     </g>
     <g id="text_15">
      <!-- 370 -->
      <g style="fill: #262626" transform="translate(33.917187 52.713246) scale(0.1 -0.1)">
       <use xlink:href="#ArialMT-33"/>
       <use xlink:href="#ArialMT-37" x="55.615234"/>
       <use xlink:href="#ArialMT-30" x="111.230469"/>
      </g>
     </g>
    </g>
   </g>
   <g id="line2d_15">
    <path d="M 73.832727 70.996492 
L 75.636364 70.996492 
L 77.44 70.996492 
L 79.243636 70.996492 
L 81.047273 70.996492 
L 82.850909 70.996492 
L 84.654545 127.838089 
L 86.458182 127.838089 
L 88.261818 127.838089 
L 90.065455 127.838089 
L 91.869091 127.838089 
L 93.672727 127.838089 
L 95.476364 127.838089 
L 97.28 127.838089 
L 99.083636 127.838089 
L 100.887273 127.838089 
L 102.690909 127.838089 
L 104.494545 127.838089 
L 106.298182 127.838089 
L 108.101818 127.838089 
L 109.905455 127.838089 
L 111.709091 127.838089 
L 113.512727 127.838089 
L 115.316364 127.838089 
L 117.12 127.838089 
L 118.923636 127.838089 
L 120.727273 127.838089 
L 122.530909 127.838089 
L 124.334545 127.838089 
L 126.138182 127.838089 
L 127.941818 127.838089 
L 129.745455 127.838089 
L 131.549091 127.838089 
L 133.352727 127.838089 
L 135.156364 127.838089 
L 136.96 127.838089 
L 138.763636 127.838089 
L 140.567273 127.838089 
L 142.370909 127.838089 
L 144.174545 127.838089 
L 145.978182 127.838089 
L 147.781818 127.838089 
L 149.585455 127.838089 
L 151.389091 127.838089 
L 153.192727 127.838089 
L 154.996364 127.838089 
L 156.8 127.838089 
L 158.603636 127.838089 
L 160.407273 127.838089 
L 162.210909 127.838089 
L 164.014545 127.838089 
L 165.818182 127.838089 
L 167.621818 127.838089 
L 169.425455 127.838089 
L 171.229091 127.838089 
L 173.032727 127.838089 
L 174.836364 127.838089 
" clip-path="url(#p7488da3f59)" style="fill: none; stroke-dasharray: 5.55,2.4; stroke-dashoffset: 0; stroke: #4878d0; stroke-width: 1.5"/>
   </g>
   <g id="line2d_16">
    <path d="M 73.832727 294.00646 
L 75.636364 277.184719 
L 77.44 258.398533 
L 79.243636 238.844289 
L 81.047273 218.608454 
L 82.850909 198.299363 
L 84.654545 174.433669 
L 86.458182 155.882197 
L 88.261818 139.292901 
L 90.065455 125.023256 
L 91.869091 114.071764 
L 93.672727 104.811307 
L 95.476364 97.320077 
L 97.28 91.472778 
L 99.083636 86.698038 
L 100.887273 82.989986 
L 102.690909 80.337278 
L 104.494545 78.800629 
L 106.298182 77.885792 
L 108.101818 77.843626 
L 109.905455 78.184822 
L 111.709091 78.64184 
L 113.512727 79.154635 
L 115.316364 80.235066 
L 117.12 81.087055 
L 118.923636 81.946383 
L 120.727273 82.69696 
L 122.530909 83.376283 
L 124.334545 84.156883 
L 126.138182 85.493512 
L 127.941818 86.605167 
L 129.745455 88.003176 
L 131.549091 89.536088 
L 133.352727 91.487056 
L 135.156364 93.243607 
L 136.96 95.032717 
L 138.763636 96.532805 
L 140.567273 98.100411 
L 142.370909 99.610506 
L 144.174545 100.97609 
L 145.978182 102.505666 
L 147.781818 103.563947 
L 149.585455 104.447961 
L 151.389091 105.392954 
L 153.192727 106.118179 
L 154.996364 106.837532 
L 156.8 107.212754 
L 158.603636 107.345657 
L 160.407273 107.338718 
L 162.210909 107.331512 
L 164.014545 106.952821 
L 165.818182 106.480057 
L 167.621818 105.384147 
L 169.425455 106.868356 
L 171.229091 110.14034 
L 173.032727 114.182383 
L 174.836364 118.2343 
" clip-path="url(#p7488da3f59)" style="fill: none; stroke: #ee854a; stroke-width: 1.5; stroke-linecap: round"/>
   </g>
   <g id="line2d_17">
    <path d="M 75.636364 278.240905 
L 77.44 257.33292 
L 79.243636 239.3398 
L 81.047273 219.547247 
L 82.850909 203.977268 
L 84.654545 185.98148 
L 86.458182 173.796431 
L 88.261818 161.520373 
L 90.065455 149.563767 
L 91.869091 144.708572 
L 93.672727 138.747636 
L 95.476364 132.956688 
L 97.28 129.326649 
L 99.083636 124.917047 
L 100.887273 118.758666 
L 102.690909 115.723596 
L 104.494545 115.563907 
L 106.298182 115.066244 
L 108.101818 116.474373 
L 109.905455 114.874905 
L 111.709091 113.704255 
L 113.512727 115.005218 
L 115.316364 113.348815 
L 117.12 115.263197 
L 118.923636 113.870968 
L 120.727273 112.683489 
L 122.530909 115.011404 
L 124.334545 111.291909 
L 126.138182 113.44826 
L 127.941818 111.793995 
L 129.745455 110.15899 
L 131.549091 110.391646 
L 133.352727 111.017165 
L 135.156364 110.819908 
L 136.96 108.848508 
L 138.763636 112.645019 
L 140.567273 112.528931 
L 142.370909 113.143926 
L 144.174545 115.138344 
L 145.978182 116.031814 
L 147.781818 118.713537 
L 149.585455 117.757421 
L 151.389091 117.984763 
L 153.192727 117.780349 
L 154.996364 117.96242 
L 156.8 120.098052 
L 158.603636 120.918559 
L 160.407273 119.13812 
L 162.210909 117.379912 
L 164.014545 118.567925 
L 165.818182 120.458583 
L 167.621818 121.908002 
L 169.425455 123.927062 
L 171.229091 124.916963 
L 173.032727 125.121466 
L 174.836364 124.269219 
" clip-path="url(#p7488da3f59)" style="fill: none; stroke: #6acc64; stroke-width: 1.5; stroke-linecap: round"/>
   </g>
   <g id="line2d_18">
    <path d="M 185.658182 70.996492 
L 187.461818 70.996492 
L 189.265455 70.996492 
L 191.069091 70.996492 
L 192.872727 70.996492 
L 194.676364 70.996492 
L 196.48 70.996492 
L 198.283636 70.996492 
L 200.087273 127.838089 
L 201.890909 127.838089 
L 203.694545 127.838089 
L 205.498182 127.838089 
L 207.301818 127.838089 
L 209.105455 127.838089 
L 210.909091 127.838089 
L 212.712727 127.838089 
L 214.516364 127.838089 
L 216.32 127.838089 
L 218.123636 127.838089 
L 219.927273 127.838089 
L 221.730909 127.838089 
L 223.534545 127.838089 
L 225.338182 127.838089 
L 227.141818 127.838089 
L 228.945455 127.838089 
L 230.749091 127.838089 
L 232.552727 127.838089 
L 234.356364 127.838089 
L 236.16 127.838089 
L 237.963636 127.838089 
L 239.767273 127.838089 
L 241.570909 127.838089 
L 243.374545 127.838089 
L 245.178182 127.838089 
L 246.981818 127.838089 
L 248.785455 127.838089 
L 250.589091 127.838089 
L 252.392727 127.838089 
L 254.196364 127.838089 
L 256 127.838089 
L 257.803636 127.838089 
L 259.607273 127.838089 
L 261.410909 127.838089 
L 263.214545 127.838089 
L 265.018182 127.838089 
L 266.821818 127.838089 
L 268.625455 127.838089 
L 270.429091 127.838089 
L 272.232727 127.838089 
L 274.036364 127.838089 
L 275.84 127.838089 
L 277.643636 127.838089 
L 279.447273 127.838089 
L 281.250909 127.838089 
L 283.054545 127.838089 
L 284.858182 127.838089 
L 286.661818 127.838089 
" clip-path="url(#p7488da3f59)" style="fill: none; stroke-dasharray: 5.55,2.4; stroke-dashoffset: 0; stroke: #4878d0; stroke-width: 1.5"/>
   </g>
   <g id="line2d_19">
    <path d="M 185.658182 295.488 
L 187.461818 278.794891 
L 189.265455 260.18017 
L 191.069091 240.707589 
L 192.872727 220.580371 
L 194.676364 196.375883 
L 196.48 176.222112 
L 198.283636 156.876696 
L 200.087273 137.9488 
L 201.890909 122.329317 
L 203.694545 109.151179 
L 205.498182 102.446954 
L 207.301818 96.07245 
L 209.105455 91.520148 
L 210.909091 88.04721 
L 212.712727 85.270273 
L 214.516364 83.396298 
L 216.32 82.182431 
L 218.123636 81.845772 
L 219.927273 82.042056 
L 221.730909 82.220994 
L 223.534545 82.856149 
L 225.338182 83.418715 
L 227.141818 84.342893 
L 228.945455 84.862359 
L 230.749091 85.338859 
L 232.552727 85.798279 
L 234.356364 86.359645 
L 236.16 87.013214 
L 237.963636 87.943263 
L 239.767273 88.992337 
L 241.570909 90.130946 
L 243.374545 91.581796 
L 245.178182 93.022771 
L 246.981818 94.43439 
L 248.785455 95.922335 
L 250.589091 97.657937 
L 252.392727 99.311342 
L 254.196364 100.591794 
L 256 102.330065 
L 257.803636 103.509372 
L 259.607273 104.570989 
L 261.410909 105.583101 
L 263.214545 106.393991 
L 265.018182 107.152841 
L 266.821818 107.469619 
L 268.625455 107.638949 
L 270.429091 107.788397 
L 272.232727 107.800807 
L 274.036364 107.775587 
L 275.84 107.403835 
L 277.643636 106.811112 
L 279.447273 106.064271 
L 281.250909 108.251687 
L 283.054545 111.186078 
L 284.858182 114.651277 
L 286.661818 118.321167 
" clip-path="url(#p7488da3f59)" style="fill: none; stroke: #ee854a; stroke-width: 1.5; stroke-linecap: round"/>
   </g>
   <g id="line2d_20">
    <path d="M 187.461818 278.568958 
L 189.265455 262.137475 
L 191.069091 243.189698 
L 192.872727 219.822774 
L 194.676364 202.505222 
L 196.48 185.66251 
L 198.283636 166.479538 
L 200.087273 148.680867 
L 201.890909 140.986173 
L 203.694545 134.617408 
L 205.498182 130.234009 
L 207.301818 126.777924 
L 209.105455 123.640174 
L 210.909091 121.647458 
L 212.712727 122.259993 
L 214.516364 118.351708 
L 216.32 114.302917 
L 218.123636 110.830382 
L 219.927273 107.866818 
L 221.730909 107.404349 
L 223.534545 106.243859 
L 225.338182 106.823227 
L 227.141818 107.244524 
L 228.945455 109.403656 
L 230.749091 112.091719 
L 232.552727 112.244072 
L 234.356364 112.415983 
L 236.16 111.682831 
L 237.963636 107.47642 
L 239.767273 107.742121 
L 241.570909 108.289321 
L 243.374545 108.949492 
L 245.178182 110.025591 
L 246.981818 111.854736 
L 248.785455 113.757849 
L 250.589091 115.976402 
L 252.392727 114.585267 
L 254.196364 113.837388 
L 256 117.258339 
L 257.803636 115.592977 
L 259.607273 116.57248 
L 261.410909 115.551795 
L 263.214545 113.842894 
L 265.018182 113.00919 
L 266.821818 113.529846 
L 268.625455 114.215484 
L 270.429091 112.1146 
L 272.232727 113.458919 
L 274.036364 115.883117 
L 275.84 117.684301 
L 277.643636 120.621516 
L 279.447273 119.933171 
L 281.250909 119.56104 
L 283.054545 118.313395 
L 284.858182 121.851886 
L 286.661818 124.839714 
" clip-path="url(#p7488da3f59)" style="fill: none; stroke: #6acc64; stroke-width: 1.5; stroke-linecap: round"/>
   </g>
   <g id="line2d_21">
    <path d="M 297.483636 127.838089 
L 299.287273 127.838089 
L 301.090909 127.838089 
L 302.894545 127.838089 
L 304.698182 127.838089 
L 306.501818 127.838089 
L 308.305455 127.838089 
L 310.109091 127.838089 
L 311.912727 127.838089 
L 313.716364 127.838089 
L 315.52 127.838089 
L 317.323636 127.838089 
L 319.127273 127.838089 
L 320.930909 127.838089 
L 322.734545 127.838089 
L 324.538182 127.838089 
L 326.341818 127.838089 
L 328.145455 127.838089 
L 329.949091 127.838089 
L 331.752727 127.838089 
L 333.556364 127.838089 
L 335.36 127.838089 
L 337.163636 127.838089 
L 338.967273 127.838089 
L 340.770909 127.838089 
L 342.574545 127.838089 
L 344.378182 127.838089 
L 346.181818 127.838089 
L 347.985455 127.838089 
L 349.789091 70.996492 
L 351.592727 70.996492 
L 353.396364 70.996492 
L 355.2 70.996492 
L 357.003636 70.996492 
L 358.807273 70.996492 
L 360.610909 70.996492 
L 362.414545 70.996492 
L 364.218182 70.996492 
L 366.021818 70.996492 
L 367.825455 70.996492 
L 369.629091 70.996492 
L 371.432727 70.996492 
L 373.236364 70.996492 
L 375.04 70.996492 
L 376.843636 70.996492 
L 378.647273 70.996492 
L 380.450909 70.996492 
L 382.254545 70.996492 
L 384.058182 70.996492 
L 385.861818 70.996492 
L 387.665455 70.996492 
L 389.469091 70.996492 
L 391.272727 70.996492 
L 393.076364 70.996492 
L 394.88 70.996492 
L 396.683636 70.996492 
L 398.487273 70.996492 
" clip-path="url(#p7488da3f59)" style="fill: none; stroke-dasharray: 5.55,2.4; stroke-dashoffset: 0; stroke: #4878d0; stroke-width: 1.5"/>
   </g>
   <g id="line2d_22">
    <path d="M 297.483636 291.387112 
L 299.287273 274.104215 
L 301.090909 255.463875 
L 302.894545 239.508934 
L 304.698182 219.413874 
L 306.501818 199.059948 
L 308.305455 180.397991 
L 310.109091 163.497122 
L 311.912727 149.085768 
L 313.716364 137.332059 
L 315.52 126.898833 
L 317.323636 121.111313 
L 319.127273 116.685909 
L 320.930909 112.965313 
L 322.734545 109.719349 
L 324.538182 106.229464 
L 326.341818 103.614386 
L 328.145455 101.550665 
L 329.949091 100.102884 
L 331.752727 99.035797 
L 333.556364 98.552091 
L 335.36 98.432933 
L 337.163636 98.392769 
L 338.967273 98.401709 
L 340.770909 98.418388 
L 342.574545 98.479102 
L 344.378182 98.518332 
L 346.181818 98.417321 
L 347.985455 98.202089 
L 349.789091 97.924809 
L 351.592727 97.101108 
L 353.396364 94.406769 
L 355.2 88.837017 
L 357.003636 83.037089 
L 358.807273 77.031535 
L 360.610909 71.485001 
L 362.414545 66.844898 
L 364.218182 63.21624 
L 366.021818 60.308536 
L 367.825455 59.017543 
L 369.629091 58.540643 
L 371.432727 58.539842 
L 373.236364 58.850881 
L 375.04 59.370748 
L 376.843636 59.836039 
L 378.647273 60.351503 
L 380.450909 60.873371 
L 382.254545 61.307171 
L 384.058182 61.843183 
L 385.861818 62.104985 
L 387.665455 62.396943 
L 389.469091 62.372791 
L 391.272727 62.367854 
L 393.076364 62.019052 
L 394.88 65.078072 
L 396.683636 70.4442 
L 398.487273 74.726962 
" clip-path="url(#p7488da3f59)" style="fill: none; stroke: #ee854a; stroke-width: 1.5; stroke-linecap: round"/>
   </g>
   <g id="line2d_23">
    <path d="M 299.287273 286.894391 
L 301.090909 264.051991 
L 302.894545 244.403543 
L 304.698182 223.239203 
L 306.501818 210.041288 
L 308.305455 193.907462 
L 310.109091 177.828744 
L 311.912727 167.163353 
L 313.716364 160.067882 
L 315.52 152.54998 
L 317.323636 147.083667 
L 319.127273 145.381717 
L 320.930909 140.140532 
L 322.734545 134.432047 
L 324.538182 133.701686 
L 326.341818 131.904372 
L 328.145455 129.386788 
L 329.949091 126.202698 
L 331.752727 121.430762 
L 333.556364 118.609253 
L 335.36 118.190048 
L 337.163636 119.318354 
L 338.967273 116.704575 
L 340.770909 113.346549 
L 342.574545 114.439464 
L 344.378182 112.069778 
L 346.181818 112.000238 
L 347.985455 113.249364 
L 349.789091 115.671121 
L 351.592727 107.20934 
L 353.396364 98.280894 
L 355.2 88.330571 
L 357.003636 84.27111 
L 358.807273 78.945836 
L 360.610909 75.723716 
L 362.414545 71.53521 
L 364.218182 67.626818 
L 366.021818 64.419908 
L 367.825455 58.596931 
L 369.629091 55.533065 
L 371.432727 54.30865 
L 373.236364 59.024474 
L 375.04 59.164955 
L 376.843636 57.568794 
L 378.647273 55.453589 
L 380.450909 53.568 
L 382.254545 56.698554 
L 384.058182 58.801705 
L 385.861818 59.488171 
L 387.665455 59.184073 
L 389.469091 59.065781 
L 391.272727 60.056491 
L 393.076364 61.280124 
L 394.88 59.409379 
L 396.683636 58.295316 
L 398.487273 56.830444 
" clip-path="url(#p7488da3f59)" style="fill: none; stroke: #6acc64; stroke-width: 1.5; stroke-linecap: round"/>
   </g>
   <g id="patch_3">
    <path d="M 57.6 307.584 
L 57.6 41.472 
" style="fill: none; stroke: #cccccc; stroke-width: 0.8; stroke-linejoin: miter; stroke-linecap: square"/>
   </g>
   <g id="patch_4">
    <path d="M 414.72 307.584 
L 414.72 41.472 
" style="fill: none; stroke: #cccccc; stroke-width: 0.8; stroke-linejoin: miter; stroke-linecap: square"/>
   </g>
   <g id="patch_5">
    <path d="M 57.6 307.584 
L 414.72 307.584 
" style="fill: none; stroke: #cccccc; stroke-width: 0.8; stroke-linejoin: miter; stroke-linecap: square"/>
   </g>
   <g id="patch_6">
    <path d="M 57.6 41.472 
L 414.72 41.472 
" style="fill: none; stroke: #cccccc; stroke-width: 0.8; stroke-linejoin: miter; stroke-linecap: square"/>
   </g>
   <g id="text_16">
    <!-- Validation (worst episodes) -->
    <g style="fill: #262626" transform="translate(164.571562 35.472) scale(0.12 -0.12)">
     <defs>
      <path id="ArialMT-56" d="M 1803 0 
L 28 4581 
L 684 4581 
L 1875 1253 
Q 2019 853 2116 503 
Q 2222 878 2363 1253 
L 3600 4581 
L 4219 4581 
L 2425 0 
L 1803 0 
z
" transform="scale(0.015625)"/>
      <path id="ArialMT-61" d="M 2588 409 
Q 2275 144 1986 34 
Q 1697 -75 1366 -75 
Q 819 -75 525 192 
Q 231 459 231 875 
Q 231 1119 342 1320 
Q 453 1522 633 1644 
Q 813 1766 1038 1828 
Q 1203 1872 1538 1913 
Q 2219 1994 2541 2106 
Q 2544 2222 2544 2253 
Q 2544 2597 2384 2738 
Q 2169 2928 1744 2928 
Q 1347 2928 1158 2789 
Q 969 2650 878 2297 
L 328 2372 
Q 403 2725 575 2942 
Q 747 3159 1072 3276 
Q 1397 3394 1825 3394 
Q 2250 3394 2515 3294 
Q 2781 3194 2906 3042 
Q 3031 2891 3081 2659 
Q 3109 2516 3109 2141 
L 3109 1391 
Q 3109 606 3145 398 
Q 3181 191 3288 0 
L 2700 0 
Q 2613 175 2588 409 
z
M 2541 1666 
Q 2234 1541 1622 1453 
Q 1275 1403 1131 1340 
Q 988 1278 909 1158 
Q 831 1038 831 891 
Q 831 666 1001 516 
Q 1172 366 1500 366 
Q 1825 366 2078 508 
Q 2331 650 2450 897 
Q 2541 1088 2541 1459 
L 2541 1666 
z
" transform="scale(0.015625)"/>
      <path id="ArialMT-6c" d="M 409 0 
L 409 4581 
L 972 4581 
L 972 0 
L 409 0 
z
" transform="scale(0.015625)"/>
      <path id="ArialMT-64" d="M 2575 0 
L 2575 419 
Q 2259 -75 1647 -75 
Q 1250 -75 917 144 
Q 584 363 401 755 
Q 219 1147 219 1656 
Q 219 2153 384 2558 
Q 550 2963 881 3178 
Q 1213 3394 1622 3394 
Q 1922 3394 2156 3267 
Q 2391 3141 2538 2938 
L 2538 4581 
L 3097 4581 
L 3097 0 
L 2575 0 
z
M 797 1656 
Q 797 1019 1065 703 
Q 1334 388 1700 388 
Q 2069 388 2326 689 
Q 2584 991 2584 1609 
Q 2584 2291 2321 2609 
Q 2059 2928 1675 2928 
Q 1300 2928 1048 2622 
Q 797 2316 797 1656 
z
" transform="scale(0.015625)"/>
      <path id="ArialMT-6f" d="M 213 1659 
Q 213 2581 725 3025 
Q 1153 3394 1769 3394 
Q 2453 3394 2887 2945 
Q 3322 2497 3322 1706 
Q 3322 1066 3130 698 
Q 2938 331 2570 128 
Q 2203 -75 1769 -75 
Q 1072 -75 642 372 
Q 213 819 213 1659 
z
M 791 1659 
Q 791 1022 1069 705 
Q 1347 388 1769 388 
Q 2188 388 2466 706 
Q 2744 1025 2744 1678 
Q 2744 2294 2464 2611 
Q 2184 2928 1769 2928 
Q 1347 2928 1069 2612 
Q 791 2297 791 1659 
z
" transform="scale(0.015625)"/>
      <path id="ArialMT-6e" d="M 422 0 
L 422 3319 
L 928 3319 
L 928 2847 
Q 1294 3394 1984 3394 
Q 2284 3394 2536 3286 
Q 2788 3178 2913 3003 
Q 3038 2828 3088 2588 
Q 3119 2431 3119 2041 
L 3119 0 
L 2556 0 
L 2556 2019 
Q 2556 2363 2490 2533 
Q 2425 2703 2258 2804 
Q 2091 2906 1866 2906 
Q 1506 2906 1245 2678 
Q 984 2450 984 1813 
L 984 0 
L 422 0 
z
" transform="scale(0.015625)"/>
      <path id="ArialMT-20" transform="scale(0.015625)"/>
      <path id="ArialMT-28" d="M 1497 -1347 
Q 1031 -759 709 28 
Q 388 816 388 1659 
Q 388 2403 628 3084 
Q 909 3875 1497 4659 
L 1900 4659 
Q 1522 4009 1400 3731 
Q 1209 3300 1100 2831 
Q 966 2247 966 1656 
Q 966 153 1900 -1347 
L 1497 -1347 
z
" transform="scale(0.015625)"/>
      <path id="ArialMT-77" d="M 1034 0 
L 19 3319 
L 600 3319 
L 1128 1403 
L 1325 691 
Q 1338 744 1497 1375 
L 2025 3319 
L 2603 3319 
L 3100 1394 
L 3266 759 
L 3456 1400 
L 4025 3319 
L 4572 3319 
L 3534 0 
L 2950 0 
L 2422 1988 
L 2294 2553 
L 1622 0 
L 1034 0 
z
" transform="scale(0.015625)"/>
      <path id="ArialMT-72" d="M 416 0 
L 416 3319 
L 922 3319 
L 922 2816 
Q 1116 3169 1280 3281 
Q 1444 3394 1641 3394 
Q 1925 3394 2219 3213 
L 2025 2691 
Q 1819 2813 1613 2813 
Q 1428 2813 1281 2702 
Q 1134 2591 1072 2394 
Q 978 2094 978 1738 
L 978 0 
L 416 0 
z
" transform="scale(0.015625)"/>
      <path id="ArialMT-29" d="M 791 -1347 
L 388 -1347 
Q 1322 153 1322 1656 
Q 1322 2244 1188 2822 
Q 1081 3291 891 3722 
Q 769 4003 388 4659 
L 791 4659 
Q 1378 3875 1659 3084 
Q 1900 2403 1900 1659 
Q 1900 816 1576 28 
Q 1253 -759 791 -1347 
z
" transform="scale(0.015625)"/>
     </defs>
     <use xlink:href="#ArialMT-56"/>
     <use xlink:href="#ArialMT-61" x="59.324219"/>
     <use xlink:href="#ArialMT-6c" x="114.939453"/>
     <use xlink:href="#ArialMT-69" x="137.15625"/>
     <use xlink:href="#ArialMT-64" x="159.373047"/>
     <use xlink:href="#ArialMT-61" x="214.988281"/>
     <use xlink:href="#ArialMT-74" x="270.603516"/>
     <use xlink:href="#ArialMT-69" x="298.386719"/>
     <use xlink:href="#ArialMT-6f" x="320.603516"/>
     <use xlink:href="#ArialMT-6e" x="376.21875"/>
     <use xlink:href="#ArialMT-20" x="431.833984"/>
     <use xlink:href="#ArialMT-28" x="459.617188"/>
     <use xlink:href="#ArialMT-77" x="492.917969"/>
     <use xlink:href="#ArialMT-6f" x="565.134766"/>
     <use xlink:href="#ArialMT-72" x="620.75"/>
     <use xlink:href="#ArialMT-73" x="654.050781"/>
     <use xlink:href="#ArialMT-74" x="704.050781"/>
     <use xlink:href="#ArialMT-20" x="731.833984"/>
     <use xlink:href="#ArialMT-65" x="759.617188"/>
     <use xlink:href="#ArialMT-70" x="815.232422"/>
     <use xlink:href="#ArialMT-69" x="870.847656"/>
     <use xlink:href="#ArialMT-73" x="893.064453"/>
     <use xlink:href="#ArialMT-6f" x="943.064453"/>
     <use xlink:href="#ArialMT-64" x="998.679688"/>
     <use xlink:href="#ArialMT-65" x="1054.294922"/>
     <use xlink:href="#ArialMT-73" x="1109.910156"/>
     <use xlink:href="#ArialMT-29" x="1159.910156"/>
    </g>
   </g>
   <g id="legend_1">
    <g id="patch_7">
     <path d="M 353.62 302.584 
L 407.72 302.584 
Q 409.72 302.584 409.72 300.584 
L 409.72 258.893375 
Q 409.72 256.893375 407.72 256.893375 
L 353.62 256.893375 
Q 351.62 256.893375 351.62 258.893375 
L 351.62 300.584 
Q 351.62 302.584 353.62 302.584 
z
" style="fill: #ffffff; opacity: 0.8; stroke: #cccccc; stroke-linejoin: miter"/>
    </g>
    <g id="line2d_24">
     <path d="M 355.62 264.551187 
L 365.62 264.551187 
L 375.62 264.551187 
" style="fill: none; stroke-dasharray: 5.55,2.4; stroke-dashoffset: 0; stroke: #4878d0; stroke-width: 1.5"/>
    </g>
    <g id="text_17">
     <!-- $a$ -->
     <g style="fill: #262626" transform="translate(383.62 268.051187) scale(0.1 -0.1)">
      <defs>
       <path id="DejaVuSans-Oblique-61" d="M 3438 1997 
L 3047 0 
L 2472 0 
L 2578 531 
Q 2325 219 2001 64 
Q 1678 -91 1281 -91 
Q 834 -91 548 182 
Q 263 456 263 884 
Q 263 1497 752 1853 
Q 1241 2209 2100 2209 
L 2900 2209 
L 2931 2363 
Q 2938 2388 2941 2417 
Q 2944 2447 2944 2509 
Q 2944 2788 2717 2942 
Q 2491 3097 2081 3097 
Q 1800 3097 1504 3025 
Q 1209 2953 897 2809 
L 997 3341 
Q 1322 3463 1633 3523 
Q 1944 3584 2234 3584 
Q 2853 3584 3176 3315 
Q 3500 3047 3500 2534 
Q 3500 2431 3484 2292 
Q 3469 2153 3438 1997 
z
M 2816 1759 
L 2241 1759 
Q 1534 1759 1195 1570 
Q 856 1381 856 984 
Q 856 709 1029 553 
Q 1203 397 1509 397 
Q 1978 397 2328 733 
Q 2678 1069 2791 1631 
L 2816 1759 
z
" transform="scale(0.015625)"/>
      </defs>
      <use xlink:href="#DejaVuSans-Oblique-61"/>
     </g>
    </g>
    <g id="line2d_25">
     <path d="M 355.62 278.6965 
L 365.62 278.6965 
L 375.62 278.6965 
" style="fill: none; stroke: #ee854a; stroke-width: 1.5; stroke-linecap: round"/>
    </g>
    <g id="text_18">
     <!-- $s^{true}$ -->
     <g style="fill: #262626" transform="translate(383.62 282.1965) scale(0.1 -0.1)">
      <defs>
       <path id="DejaVuSans-Oblique-73" d="M 3200 3397 
L 3091 2853 
Q 2863 2978 2609 3040 
Q 2356 3103 2088 3103 
Q 1634 3103 1373 2948 
Q 1113 2794 1113 2528 
Q 1113 2219 1719 2053 
Q 1766 2041 1788 2034 
L 1972 1978 
Q 2547 1819 2739 1644 
Q 2931 1469 2931 1166 
Q 2931 609 2489 259 
Q 2047 -91 1331 -91 
Q 1053 -91 747 -37 
Q 441 16 72 128 
L 184 722 
Q 500 559 806 475 
Q 1113 391 1394 391 
Q 1816 391 2080 572 
Q 2344 753 2344 1031 
Q 2344 1331 1650 1516 
L 1591 1531 
L 1394 1581 
Q 956 1697 753 1886 
Q 550 2075 550 2369 
Q 550 2928 970 3256 
Q 1391 3584 2113 3584 
Q 2397 3584 2667 3537 
Q 2938 3491 3200 3397 
z
" transform="scale(0.015625)"/>
       <path id="DejaVuSans-Oblique-74" d="M 2706 3500 
L 2619 3053 
L 1472 3053 
L 1100 1153 
Q 1081 1047 1072 975 
Q 1063 903 1063 863 
Q 1063 663 1183 572 
Q 1303 481 1569 481 
L 2150 481 
L 2053 0 
L 1503 0 
Q 991 0 739 200 
Q 488 400 488 806 
Q 488 878 497 964 
Q 506 1050 525 1153 
L 897 3053 
L 409 3053 
L 500 3500 
L 978 3500 
L 1172 4494 
L 1747 4494 
L 1556 3500 
L 2706 3500 
z
" transform="scale(0.015625)"/>
       <path id="DejaVuSans-Oblique-72" d="M 2853 2969 
Q 2766 3016 2653 3041 
Q 2541 3066 2413 3066 
Q 1953 3066 1609 2717 
Q 1266 2369 1153 1784 
L 800 0 
L 225 0 
L 909 3500 
L 1484 3500 
L 1375 2956 
Q 1603 3259 1920 3421 
Q 2238 3584 2597 3584 
Q 2691 3584 2781 3573 
Q 2872 3563 2963 3538 
L 2853 2969 
z
" transform="scale(0.015625)"/>
       <path id="DejaVuSans-Oblique-75" d="M 428 1388 
L 838 3500 
L 1416 3500 
L 1006 1409 
Q 975 1256 961 1147 
Q 947 1038 947 966 
Q 947 700 1109 554 
Q 1272 409 1569 409 
Q 2031 409 2368 721 
Q 2706 1034 2809 1563 
L 3194 3500 
L 3769 3500 
L 3091 0 
L 2516 0 
L 2631 550 
Q 2388 244 2052 76 
Q 1716 -91 1338 -91 
Q 878 -91 622 161 
Q 366 413 366 863 
Q 366 956 381 1097 
Q 397 1238 428 1388 
z
" transform="scale(0.015625)"/>
       <path id="DejaVuSans-Oblique-65" d="M 3078 2063 
Q 3088 2113 3092 2166 
Q 3097 2219 3097 2272 
Q 3097 2653 2873 2875 
Q 2650 3097 2266 3097 
Q 1838 3097 1509 2826 
Q 1181 2556 1013 2059 
L 3078 2063 
z
M 3578 1613 
L 903 1613 
Q 884 1494 878 1425 
Q 872 1356 872 1306 
Q 872 872 1139 634 
Q 1406 397 1894 397 
Q 2269 397 2603 481 
Q 2938 566 3225 728 
L 3116 159 
Q 2806 34 2476 -28 
Q 2147 -91 1806 -91 
Q 1078 -91 686 257 
Q 294 606 294 1247 
Q 294 1794 489 2264 
Q 684 2734 1063 3103 
Q 1306 3334 1642 3459 
Q 1978 3584 2356 3584 
Q 2950 3584 3301 3228 
Q 3653 2872 3653 2272 
Q 3653 2128 3634 1964 
Q 3616 1800 3578 1613 
z
" transform="scale(0.015625)"/>
      </defs>
      <use xlink:href="#DejaVuSans-Oblique-73" transform="translate(0 0.565625)"/>
      <use xlink:href="#DejaVuSans-Oblique-74" transform="translate(56.749505 38.846875) scale(0.7)"/>
      <use xlink:href="#DejaVuSans-Oblique-72" transform="translate(84.195794 38.846875) scale(0.7)"/>
      <use xlink:href="#DejaVuSans-Oblique-75" transform="translate(112.975091 38.846875) scale(0.7)"/>
      <use xlink:href="#DejaVuSans-Oblique-65" transform="translate(157.340326 38.846875) scale(0.7)"/>
     </g>
    </g>
    <g id="line2d_26">
     <path d="M 355.62 293.0965 
L 365.62 293.0965 
L 375.62 293.0965 
" style="fill: none; stroke: #6acc64; stroke-width: 1.5; stroke-linecap: round"/>
    </g>
    <g id="text_19">
     <!-- $s^{pred}$ -->
     <g style="fill: #262626" transform="translate(383.62 296.5965) scale(0.1 -0.1)">
      <defs>
       <path id="DejaVuSans-Oblique-70" d="M 3175 2156 
Q 3175 2616 2975 2859 
Q 2775 3103 2400 3103 
Q 2144 3103 1911 2972 
Q 1678 2841 1497 2591 
Q 1319 2344 1212 1994 
Q 1106 1644 1106 1300 
Q 1106 863 1306 627 
Q 1506 391 1875 391 
Q 2147 391 2380 519 
Q 2613 647 2778 891 
Q 2956 1147 3065 1494 
Q 3175 1841 3175 2156 
z
M 1394 2969 
Q 1625 3272 1939 3428 
Q 2253 3584 2638 3584 
Q 3175 3584 3472 3232 
Q 3769 2881 3769 2247 
Q 3769 1728 3584 1258 
Q 3400 788 3053 416 
Q 2822 169 2531 39 
Q 2241 -91 1919 -91 
Q 1547 -91 1294 64 
Q 1041 219 916 525 
L 556 -1331 
L -19 -1331 
L 922 3500 
L 1497 3500 
L 1394 2969 
z
" transform="scale(0.015625)"/>
       <path id="DejaVuSans-Oblique-64" d="M 2675 525 
Q 2444 222 2128 65 
Q 1813 -91 1428 -91 
Q 903 -91 598 267 
Q 294 625 294 1247 
Q 294 1766 478 2236 
Q 663 2706 1013 3078 
Q 1244 3325 1534 3454 
Q 1825 3584 2144 3584 
Q 2481 3584 2739 3421 
Q 2997 3259 3138 2956 
L 3513 4863 
L 4091 4863 
L 3144 0 
L 2566 0 
L 2675 525 
z
M 891 1350 
Q 891 897 1095 644 
Q 1300 391 1663 391 
Q 1931 391 2161 520 
Q 2391 650 2566 903 
Q 2750 1166 2856 1509 
Q 2963 1853 2963 2188 
Q 2963 2622 2758 2865 
Q 2553 3109 2194 3109 
Q 1922 3109 1687 2981 
Q 1453 2853 1288 2613 
Q 1106 2353 998 2009 
Q 891 1666 891 1350 
z
" transform="scale(0.015625)"/>
      </defs>
      <use xlink:href="#DejaVuSans-Oblique-73" transform="translate(0 0.529687)"/>
      <use xlink:href="#DejaVuSans-Oblique-70" transform="translate(56.749505 38.810937) scale(0.7)"/>
      <use xlink:href="#DejaVuSans-Oblique-72" transform="translate(101.183099 38.810937) scale(0.7)"/>
      <use xlink:href="#DejaVuSans-Oblique-65" transform="translate(129.962396 38.810937) scale(0.7)"/>
      <use xlink:href="#DejaVuSans-Oblique-64" transform="translate(173.028802 38.810937) scale(0.7)"/>
     </g>
    </g>
   </g>
  </g>
 </g>
 <defs>
  <clipPath id="p7488da3f59">
   <rect x="57.6" y="41.472" width="357.12" height="266.112"/>
  </clipPath>
 </defs>
</svg>
