<?xml version="1.0" encoding="utf-8" standalone="no"?>
<!DOCTYPE svg PUBLIC "-//W3C//DTD SVG 1.1//EN"
  "http://www.w3.org/Graphics/SVG/1.1/DTD/svg11.dtd">
<svg xmlns:xlink="http://www.w3.org/1999/xlink" width="460.8pt" height="345.6pt" viewBox="0 0 460.8 345.6" xmlns="http://www.w3.org/2000/svg" version="1.1">
 <metadata>
  <rdf:RDF xmlns:dc="http://purl.org/dc/elements/1.1/" xmlns:cc="http://creativecommons.org/ns#" xmlns:rdf="http://www.w3.org/1999/02/22-rdf-syntax-ns#">
   <cc:Work>
    <dc:type rdf:resource="http://purl.org/dc/dcmitype/StillImage"/>
    <dc:date>2023-08-11T14:17:38.043398</dc:date>
    <dc:format>image/svg+xml</dc:format>
    <dc:creator>
     <cc:Agent>
      <dc:title>Matplotlib v3.7.1, https://matplotlib.org/</dc:title>
     </cc:Agent>
    </dc:creator>
   </cc:Work>
  </rdf:RDF>
 </metadata>
 <defs>
  <style type="text/css">*{stroke-linejoin: round; stroke-linecap: butt}</style>
 </defs>
 <g id="figure_1">
  <g id="patch_1">
   <path d="M 0 345.6 
L 460.8 345.6 
L 460.8 0 
L 0 0 
z
" style="fill: #ffffff"/>
  </g>
  <g id="axes_1">
   <g id="patch_2">
    <path d="M 57.6 307.584 
L 414.72 307.584 
L 414.72 41.472 
L 57.6 41.472 
z
" style="fill: #ffffff"/>
   </g>
   <g id="matplotlib.axis_1">
    <g id="xtick_1">
     <g id="text_1">
      <!-- 0.0 -->
      <g style="fill: #262626" transform="translate(55.228571 320.31025) scale(0.08 -0.08)">
       <defs>
        <path id="ArialMT-30" d="M 266 2259 
Q 266 3072 433 3567 
Q 600 4063 929 4331 
Q 1259 4600 1759 4600 
Q 2128 4600 2406 4451 
Q 2684 4303 2865 4023 
Q 3047 3744 3150 3342 
Q 3253 2941 3253 2259 
Q 3253 1453 3087 958 
Q 2922 463 2592 192 
Q 2263 -78 1759 -78 
Q 1097 -78 719 397 
Q 266 969 266 2259 
z
M 844 2259 
Q 844 1131 1108 757 
Q 1372 384 1759 384 
Q 2147 384 2411 759 
Q 2675 1134 2675 2259 
Q 2675 3391 2411 3762 
Q 2147 4134 1753 4134 
Q 1366 4134 1134 3806 
Q 844 3388 844 2259 
z
" transform="scale(0.015625)"/>
        <path id="ArialMT-2e" d="M 581 0 
L 581 641 
L 1222 641 
L 1222 0 
L 581 0 
z
" transform="scale(0.015625)"/>
       </defs>
       <use xlink:href="#ArialMT-30"/>
       <use xlink:href="#ArialMT-2e" x="55.615234"/>
       <use xlink:href="#ArialMT-30" x="83.398438"/>
      </g>
     </g>
    </g>
    <g id="xtick_2">
     <g id="text_2">
      <!-- 0.2 -->
      <g style="fill: #262626" transform="translate(74.36 320.31025) scale(0.08 -0.08)">
       <defs>
        <path id="ArialMT-32" d="M 3222 541 
L 3222 0 
L 194 0 
Q 188 203 259 391 
Q 375 700 629 1000 
Q 884 1300 1366 1694 
Q 2113 2306 2375 2664 
Q 2638 3022 2638 3341 
Q 2638 3675 2398 3904 
Q 2159 4134 1775 4134 
Q 1369 4134 1125 3890 
Q 881 3647 878 3216 
L 300 3275 
Q 359 3922 746 4261 
Q 1134 4600 1788 4600 
Q 2447 4600 2831 4234 
Q 3216 3869 3216 3328 
Q 3216 3053 3103 2787 
Q 2991 2522 2730 2228 
Q 2469 1934 1863 1422 
Q 1356 997 1212 845 
Q 1069 694 975 541 
L 3222 541 
z
" transform="scale(0.015625)"/>
       </defs>
       <use xlink:href="#ArialMT-30"/>
       <use xlink:href="#ArialMT-2e" x="55.615234"/>
       <use xlink:href="#ArialMT-32" x="83.398438"/>
      </g>
     </g>
    </g>
    <g id="xtick_3">
     <g id="text_3">
      <!-- 0.5 -->
      <g style="fill: #262626" transform="translate(93.491429 320.31025) scale(0.08 -0.08)">
       <defs>
        <path id="ArialMT-35" d="M 266 1200 
L 856 1250 
Q 922 819 1161 601 
Q 1400 384 1738 384 
Q 2144 384 2425 690 
Q 2706 997 2706 1503 
Q 2706 1984 2436 2262 
Q 2166 2541 1728 2541 
Q 1456 2541 1237 2417 
Q 1019 2294 894 2097 
L 366 2166 
L 809 4519 
L 3088 4519 
L 3088 3981 
L 1259 3981 
L 1013 2750 
Q 1425 3038 1878 3038 
Q 2478 3038 2890 2622 
Q 3303 2206 3303 1553 
Q 3303 931 2941 478 
Q 2500 -78 1738 -78 
Q 1113 -78 717 272 
Q 322 622 266 1200 
z
" transform="scale(0.015625)"/>
       </defs>
       <use xlink:href="#ArialMT-30"/>
       <use xlink:href="#ArialMT-2e" x="55.615234"/>
       <use xlink:href="#ArialMT-35" x="83.398438"/>
      </g>
     </g>
    </g>
    <g id="xtick_4">
     <g id="text_4">
      <!-- 0.8 -->
      <g style="fill: #262626" transform="translate(112.622857 320.31025) scale(0.08 -0.08)">
       <defs>
        <path id="ArialMT-38" d="M 1131 2484 
Q 781 2613 612 2850 
Q 444 3088 444 3419 
Q 444 3919 803 4259 
Q 1163 4600 1759 4600 
Q 2359 4600 2725 4251 
Q 3091 3903 3091 3403 
Q 3091 3084 2923 2848 
Q 2756 2613 2416 2484 
Q 2838 2347 3058 2040 
Q 3278 1734 3278 1309 
Q 3278 722 2862 322 
Q 2447 -78 1769 -78 
Q 1091 -78 675 323 
Q 259 725 259 1325 
Q 259 1772 486 2073 
Q 713 2375 1131 2484 
z
M 1019 3438 
Q 1019 3113 1228 2906 
Q 1438 2700 1772 2700 
Q 2097 2700 2305 2904 
Q 2513 3109 2513 3406 
Q 2513 3716 2298 3927 
Q 2084 4138 1766 4138 
Q 1444 4138 1231 3931 
Q 1019 3725 1019 3438 
z
M 838 1322 
Q 838 1081 952 856 
Q 1066 631 1291 507 
Q 1516 384 1775 384 
Q 2178 384 2440 643 
Q 2703 903 2703 1303 
Q 2703 1709 2433 1975 
Q 2163 2241 1756 2241 
Q 1359 2241 1098 1978 
Q 838 1716 838 1322 
z
" transform="scale(0.015625)"/>
       </defs>
       <use xlink:href="#ArialMT-30"/>
       <use xlink:href="#ArialMT-2e" x="55.615234"/>
       <use xlink:href="#ArialMT-38" x="83.398438"/>
      </g>
     </g>
    </g>
    <g id="xtick_5">
     <g id="text_5">
      <!-- 1.0 -->
      <g style="fill: #262626" transform="translate(131.754286 320.31025) scale(0.08 -0.08)">
       <defs>
        <path id="ArialMT-31" d="M 2384 0 
L 1822 0 
L 1822 3584 
Q 1619 3391 1289 3197 
Q 959 3003 697 2906 
L 697 3450 
Q 1169 3672 1522 3987 
Q 1875 4303 2022 4600 
L 2384 4600 
L 2384 0 
z
" transform="scale(0.015625)"/>
       </defs>
       <use xlink:href="#ArialMT-31"/>
       <use xlink:href="#ArialMT-2e" x="55.615234"/>
       <use xlink:href="#ArialMT-30" x="83.398438"/>
      </g>
     </g>
    </g>
    <g id="xtick_6">
     <g id="text_6">
      <!-- 1.2 -->
      <g style="fill: #262626" transform="translate(150.885714 320.31025) scale(0.08 -0.08)">
       <use xlink:href="#ArialMT-31"/>
       <use xlink:href="#ArialMT-2e" x="55.615234"/>
       <use xlink:href="#ArialMT-32" x="83.398438"/>
      </g>
     </g>
    </g>
    <g id="xtick_7">
     <g id="text_7">
      <!-- 1.5 -->
      <g style="fill: #262626" transform="translate(170.017143 320.31025) scale(0.08 -0.08)">
       <use xlink:href="#ArialMT-31"/>
       <use xlink:href="#ArialMT-2e" x="55.615234"/>
       <use xlink:href="#ArialMT-35" x="83.398438"/>
      </g>
     </g>
    </g>
    <g id="xtick_8">
     <g id="text_8">
      <!-- 1.8 -->
      <g style="fill: #262626" transform="translate(189.148571 320.31025) scale(0.08 -0.08)">
       <use xlink:href="#ArialMT-31"/>
       <use xlink:href="#ArialMT-2e" x="55.615234"/>
       <use xlink:href="#ArialMT-38" x="83.398438"/>
      </g>
     </g>
    </g>
    <g id="xtick_9">
     <g id="text_9">
      <!-- 2.0 -->
      <g style="fill: #262626" transform="translate(208.28 320.31025) scale(0.08 -0.08)">
       <use xlink:href="#ArialMT-32"/>
       <use xlink:href="#ArialMT-2e" x="55.615234"/>
       <use xlink:href="#ArialMT-30" x="83.398438"/>
      </g>
     </g>
    </g>
    <g id="xtick_10">
     <g id="text_10">
      <!-- 2.3 -->
      <g style="fill: #262626" transform="translate(227.411429 320.31025) scale(0.08 -0.08)">
       <defs>
        <path id="ArialMT-33" d="M 269 1209 
L 831 1284 
Q 928 806 1161 595 
Q 1394 384 1728 384 
Q 2125 384 2398 659 
Q 2672 934 2672 1341 
Q 2672 1728 2419 1979 
Q 2166 2231 1775 2231 
Q 1616 2231 1378 2169 
L 1441 2663 
Q 1497 2656 1531 2656 
Q 1891 2656 2178 2843 
Q 2466 3031 2466 3422 
Q 2466 3731 2256 3934 
Q 2047 4138 1716 4138 
Q 1388 4138 1169 3931 
Q 950 3725 888 3313 
L 325 3413 
Q 428 3978 793 4289 
Q 1159 4600 1703 4600 
Q 2078 4600 2393 4439 
Q 2709 4278 2876 4000 
Q 3044 3722 3044 3409 
Q 3044 3113 2884 2869 
Q 2725 2625 2413 2481 
Q 2819 2388 3044 2092 
Q 3269 1797 3269 1353 
Q 3269 753 2831 336 
Q 2394 -81 1725 -81 
Q 1122 -81 723 278 
Q 325 638 269 1209 
z
" transform="scale(0.015625)"/>
       </defs>
       <use xlink:href="#ArialMT-32"/>
       <use xlink:href="#ArialMT-2e" x="55.615234"/>
       <use xlink:href="#ArialMT-33" x="83.398438"/>
      </g>
     </g>
    </g>
    <g id="xtick_11">
     <g id="text_11">
      <!-- 2.6 -->
      <g style="fill: #262626" transform="translate(246.542857 320.31025) scale(0.08 -0.08)">
       <defs>
        <path id="ArialMT-36" d="M 3184 3459 
L 2625 3416 
Q 2550 3747 2413 3897 
Q 2184 4138 1850 4138 
Q 1581 4138 1378 3988 
Q 1113 3794 959 3422 
Q 806 3050 800 2363 
Q 1003 2672 1297 2822 
Q 1591 2972 1913 2972 
Q 2475 2972 2870 2558 
Q 3266 2144 3266 1488 
Q 3266 1056 3080 686 
Q 2894 316 2569 119 
Q 2244 -78 1831 -78 
Q 1128 -78 684 439 
Q 241 956 241 2144 
Q 241 3472 731 4075 
Q 1159 4600 1884 4600 
Q 2425 4600 2770 4297 
Q 3116 3994 3184 3459 
z
M 888 1484 
Q 888 1194 1011 928 
Q 1134 663 1356 523 
Q 1578 384 1822 384 
Q 2178 384 2434 671 
Q 2691 959 2691 1453 
Q 2691 1928 2437 2201 
Q 2184 2475 1800 2475 
Q 1419 2475 1153 2201 
Q 888 1928 888 1484 
z
" transform="scale(0.015625)"/>
       </defs>
       <use xlink:href="#ArialMT-32"/>
       <use xlink:href="#ArialMT-2e" x="55.615234"/>
       <use xlink:href="#ArialMT-36" x="83.398438"/>
      </g>
     </g>
    </g>
    <g id="xtick_12">
     <g id="text_12">
      <!-- 2.9 -->
      <g style="fill: #262626" transform="translate(265.674286 320.31025) scale(0.08 -0.08)">
       <defs>
        <path id="ArialMT-39" d="M 350 1059 
L 891 1109 
Q 959 728 1153 556 
Q 1347 384 1650 384 
Q 1909 384 2104 503 
Q 2300 622 2425 820 
Q 2550 1019 2634 1356 
Q 2719 1694 2719 2044 
Q 2719 2081 2716 2156 
Q 2547 1888 2255 1720 
Q 1963 1553 1622 1553 
Q 1053 1553 659 1965 
Q 266 2378 266 3053 
Q 266 3750 677 4175 
Q 1088 4600 1706 4600 
Q 2153 4600 2523 4359 
Q 2894 4119 3086 3673 
Q 3278 3228 3278 2384 
Q 3278 1506 3087 986 
Q 2897 466 2520 194 
Q 2144 -78 1638 -78 
Q 1100 -78 759 220 
Q 419 519 350 1059 
z
M 2653 3081 
Q 2653 3566 2395 3850 
Q 2138 4134 1775 4134 
Q 1400 4134 1122 3828 
Q 844 3522 844 3034 
Q 844 2597 1108 2323 
Q 1372 2050 1759 2050 
Q 2150 2050 2401 2323 
Q 2653 2597 2653 3081 
z
" transform="scale(0.015625)"/>
       </defs>
       <use xlink:href="#ArialMT-32"/>
       <use xlink:href="#ArialMT-2e" x="55.615234"/>
       <use xlink:href="#ArialMT-39" x="83.398438"/>
      </g>
     </g>
    </g>
    <g id="xtick_13">
     <g id="text_13">
      <!-- 3.2 -->
      <g style="fill: #262626" transform="translate(284.805714 320.31025) scale(0.08 -0.08)">
       <use xlink:href="#ArialMT-33"/>
       <use xlink:href="#ArialMT-2e" x="55.615234"/>
       <use xlink:href="#ArialMT-32" x="83.398438"/>
      </g>
     </g>
    </g>
    <g id="xtick_14">
     <g id="text_14">
      <!-- 3.5 -->
      <g style="fill: #262626" transform="translate(303.937143 320.31025) scale(0.08 -0.08)">
       <use xlink:href="#ArialMT-33"/>
       <use xlink:href="#ArialMT-2e" x="55.615234"/>
       <use xlink:href="#ArialMT-35" x="83.398438"/>
      </g>
     </g>
    </g>
    <g id="xtick_15">
     <g id="text_15">
      <!-- 3.8 -->
      <g style="fill: #262626" transform="translate(323.068571 320.31025) scale(0.08 -0.08)">
       <use xlink:href="#ArialMT-33"/>
       <use xlink:href="#ArialMT-2e" x="55.615234"/>
       <use xlink:href="#ArialMT-38" x="83.398438"/>
      </g>
     </g>
    </g>
    <g id="xtick_16">
     <g id="text_16">
      <!-- 4.1 -->
      <g style="fill: #262626" transform="translate(342.2 320.31025) scale(0.08 -0.08)">
       <defs>
        <path id="ArialMT-34" d="M 2069 0 
L 2069 1097 
L 81 1097 
L 81 1613 
L 2172 4581 
L 2631 4581 
L 2631 1613 
L 3250 1613 
L 3250 1097 
L 2631 1097 
L 2631 0 
L 2069 0 
z
M 2069 1613 
L 2069 3678 
L 634 1613 
L 2069 1613 
z
" transform="scale(0.015625)"/>
       </defs>
       <use xlink:href="#ArialMT-34"/>
       <use xlink:href="#ArialMT-2e" x="55.615234"/>
       <use xlink:href="#ArialMT-31" x="83.398438"/>
      </g>
     </g>
    </g>
    <g id="xtick_17">
     <g id="text_17">
      <!-- 4.4 -->
      <g style="fill: #262626" transform="translate(361.331429 320.31025) scale(0.08 -0.08)">
       <use xlink:href="#ArialMT-34"/>
       <use xlink:href="#ArialMT-2e" x="55.615234"/>
       <use xlink:href="#ArialMT-34" x="83.398438"/>
      </g>
     </g>
    </g>
    <g id="xtick_18">
     <g id="text_18">
      <!-- 4.7 -->
      <g style="fill: #262626" transform="translate(380.462857 320.31025) scale(0.08 -0.08)">
       <defs>
        <path id="ArialMT-37" d="M 303 3981 
L 303 4522 
L 3269 4522 
L 3269 4084 
Q 2831 3619 2401 2847 
Q 1972 2075 1738 1259 
Q 1569 684 1522 0 
L 944 0 
Q 953 541 1156 1306 
Q 1359 2072 1739 2783 
Q 2119 3494 2547 3981 
L 303 3981 
z
" transform="scale(0.015625)"/>
       </defs>
       <use xlink:href="#ArialMT-34"/>
       <use xlink:href="#ArialMT-2e" x="55.615234"/>
       <use xlink:href="#ArialMT-37" x="83.398438"/>
      </g>
     </g>
    </g>
    <g id="xtick_19">
     <g id="text_19">
      <!-- 5.0 -->
      <g style="fill: #262626" transform="translate(399.594286 320.31025) scale(0.08 -0.08)">
       <use xlink:href="#ArialMT-35"/>
       <use xlink:href="#ArialMT-2e" x="55.615234"/>
       <use xlink:href="#ArialMT-30" x="83.398438"/>
      </g>
     </g>
    </g>
    <g id="text_20">
     <!-- Range $(- J_{max}, J_{max})$ -->
     <g style="fill: #262626" transform="translate(190.86 333.50025) scale(0.1 -0.1)">
      <defs>
       <path id="ArialMT-52" d="M 503 0 
L 503 4581 
L 2534 4581 
Q 3147 4581 3465 4457 
Q 3784 4334 3975 4021 
Q 4166 3709 4166 3331 
Q 4166 2844 3850 2509 
Q 3534 2175 2875 2084 
Q 3116 1969 3241 1856 
Q 3506 1613 3744 1247 
L 4541 0 
L 3778 0 
L 3172 953 
Q 2906 1366 2734 1584 
Q 2563 1803 2427 1890 
Q 2291 1978 2150 2013 
Q 2047 2034 1813 2034 
L 1109 2034 
L 1109 0 
L 503 0 
z
M 1109 2559 
L 2413 2559 
Q 2828 2559 3062 2645 
Q 3297 2731 3419 2920 
Q 3541 3109 3541 3331 
Q 3541 3656 3305 3865 
Q 3069 4075 2559 4075 
L 1109 4075 
L 1109 2559 
z
" transform="scale(0.015625)"/>
       <path id="ArialMT-61" d="M 2588 409 
Q 2275 144 1986 34 
Q 1697 -75 1366 -75 
Q 819 -75 525 192 
Q 231 459 231 875 
Q 231 1119 342 1320 
Q 453 1522 633 1644 
Q 813 1766 1038 1828 
Q 1203 1872 1538 1913 
Q 2219 1994 2541 2106 
Q 2544 2222 2544 2253 
Q 2544 2597 2384 2738 
Q 2169 2928 1744 2928 
Q 1347 2928 1158 2789 
Q 969 2650 878 2297 
L 328 2372 
Q 403 2725 575 2942 
Q 747 3159 1072 3276 
Q 1397 3394 1825 3394 
Q 2250 3394 2515 3294 
Q 2781 3194 2906 3042 
Q 3031 2891 3081 2659 
Q 3109 2516 3109 2141 
L 3109 1391 
Q 3109 606 3145 398 
Q 3181 191 3288 0 
L 2700 0 
Q 2613 175 2588 409 
z
M 2541 1666 
Q 2234 1541 1622 1453 
Q 1275 1403 1131 1340 
Q 988 1278 909 1158 
Q 831 1038 831 891 
Q 831 666 1001 516 
Q 1172 366 1500 366 
Q 1825 366 2078 508 
Q 2331 650 2450 897 
Q 2541 1088 2541 1459 
L 2541 1666 
z
" transform="scale(0.015625)"/>
       <path id="ArialMT-6e" d="M 422 0 
L 422 3319 
L 928 3319 
L 928 2847 
Q 1294 3394 1984 3394 
Q 2284 3394 2536 3286 
Q 2788 3178 2913 3003 
Q 3038 2828 3088 2588 
Q 3119 2431 3119 2041 
L 3119 0 
L 2556 0 
L 2556 2019 
Q 2556 2363 2490 2533 
Q 2425 2703 2258 2804 
Q 2091 2906 1866 2906 
Q 1506 2906 1245 2678 
Q 984 2450 984 1813 
L 984 0 
L 422 0 
z
" transform="scale(0.015625)"/>
       <path id="ArialMT-67" d="M 319 -275 
L 866 -356 
Q 900 -609 1056 -725 
Q 1266 -881 1628 -881 
Q 2019 -881 2231 -725 
Q 2444 -569 2519 -288 
Q 2563 -116 2559 434 
Q 2191 0 1641 0 
Q 956 0 581 494 
Q 206 988 206 1678 
Q 206 2153 378 2554 
Q 550 2956 876 3175 
Q 1203 3394 1644 3394 
Q 2231 3394 2613 2919 
L 2613 3319 
L 3131 3319 
L 3131 450 
Q 3131 -325 2973 -648 
Q 2816 -972 2473 -1159 
Q 2131 -1347 1631 -1347 
Q 1038 -1347 672 -1080 
Q 306 -813 319 -275 
z
M 784 1719 
Q 784 1066 1043 766 
Q 1303 466 1694 466 
Q 2081 466 2343 764 
Q 2606 1063 2606 1700 
Q 2606 2309 2336 2618 
Q 2066 2928 1684 2928 
Q 1309 2928 1046 2623 
Q 784 2319 784 1719 
z
" transform="scale(0.015625)"/>
       <path id="ArialMT-65" d="M 2694 1069 
L 3275 997 
Q 3138 488 2766 206 
Q 2394 -75 1816 -75 
Q 1088 -75 661 373 
Q 234 822 234 1631 
Q 234 2469 665 2931 
Q 1097 3394 1784 3394 
Q 2450 3394 2872 2941 
Q 3294 2488 3294 1666 
Q 3294 1616 3291 1516 
L 816 1516 
Q 847 969 1125 678 
Q 1403 388 1819 388 
Q 2128 388 2347 550 
Q 2566 713 2694 1069 
z
M 847 1978 
L 2700 1978 
Q 2663 2397 2488 2606 
Q 2219 2931 1791 2931 
Q 1403 2931 1139 2672 
Q 875 2413 847 1978 
z
" transform="scale(0.015625)"/>
       <path id="ArialMT-20" transform="scale(0.015625)"/>
       <path id="DejaVuSans-28" d="M 1984 4856 
Q 1566 4138 1362 3434 
Q 1159 2731 1159 2009 
Q 1159 1288 1364 580 
Q 1569 -128 1984 -844 
L 1484 -844 
Q 1016 -109 783 600 
Q 550 1309 550 2009 
Q 550 2706 781 3412 
Q 1013 4119 1484 4856 
L 1984 4856 
z
" transform="scale(0.015625)"/>
       <path id="DejaVuSans-2212" d="M 678 2272 
L 4684 2272 
L 4684 1741 
L 678 1741 
L 678 2272 
z
" transform="scale(0.015625)"/>
       <path id="DejaVuSans-Oblique-4a" d="M 1069 4666 
L 1703 4666 
L 856 325 
Q 691 -522 298 -901 
Q -94 -1281 -800 -1281 
L -1050 -1281 
L -947 -750 
L -750 -750 
Q -328 -750 -109 -509 
Q 109 -269 225 325 
L 1069 4666 
z
" transform="scale(0.015625)"/>
       <path id="DejaVuSans-Oblique-6d" d="M 5747 2113 
L 5338 0 
L 4763 0 
L 5166 2094 
Q 5191 2228 5203 2325 
Q 5216 2422 5216 2491 
Q 5216 2772 5059 2928 
Q 4903 3084 4622 3084 
Q 4203 3084 3875 2770 
Q 3547 2456 3450 1953 
L 3066 0 
L 2491 0 
L 2900 2094 
Q 2925 2209 2937 2307 
Q 2950 2406 2950 2484 
Q 2950 2769 2794 2926 
Q 2638 3084 2363 3084 
Q 1938 3084 1609 2770 
Q 1281 2456 1184 1953 
L 800 0 
L 225 0 
L 909 3500 
L 1484 3500 
L 1375 2956 
Q 1609 3263 1923 3423 
Q 2238 3584 2597 3584 
Q 2978 3584 3223 3384 
Q 3469 3184 3519 2828 
Q 3781 3197 4126 3390 
Q 4472 3584 4856 3584 
Q 5306 3584 5551 3325 
Q 5797 3066 5797 2591 
Q 5797 2488 5784 2364 
Q 5772 2241 5747 2113 
z
" transform="scale(0.015625)"/>
       <path id="DejaVuSans-Oblique-61" d="M 3438 1997 
L 3047 0 
L 2472 0 
L 2578 531 
Q 2325 219 2001 64 
Q 1678 -91 1281 -91 
Q 834 -91 548 182 
Q 263 456 263 884 
Q 263 1497 752 1853 
Q 1241 2209 2100 2209 
L 2900 2209 
L 2931 2363 
Q 2938 2388 2941 2417 
Q 2944 2447 2944 2509 
Q 2944 2788 2717 2942 
Q 2491 3097 2081 3097 
Q 1800 3097 1504 3025 
Q 1209 2953 897 2809 
L 997 3341 
Q 1322 3463 1633 3523 
Q 1944 3584 2234 3584 
Q 2853 3584 3176 3315 
Q 3500 3047 3500 2534 
Q 3500 2431 3484 2292 
Q 3469 2153 3438 1997 
z
M 2816 1759 
L 2241 1759 
Q 1534 1759 1195 1570 
Q 856 1381 856 984 
Q 856 709 1029 553 
Q 1203 397 1509 397 
Q 1978 397 2328 733 
Q 2678 1069 2791 1631 
L 2816 1759 
z
" transform="scale(0.015625)"/>
       <path id="DejaVuSans-Oblique-78" d="M 3841 3500 
L 2234 1784 
L 3219 0 
L 2559 0 
L 1819 1388 
L 531 0 
L -166 0 
L 1556 1844 
L 641 3500 
L 1300 3500 
L 1972 2234 
L 3144 3500 
L 3841 3500 
z
" transform="scale(0.015625)"/>
       <path id="DejaVuSans-2c" d="M 750 794 
L 1409 794 
L 1409 256 
L 897 -744 
L 494 -744 
L 750 256 
L 750 794 
z
" transform="scale(0.015625)"/>
       <path id="DejaVuSans-29" d="M 513 4856 
L 1013 4856 
Q 1481 4119 1714 3412 
Q 1947 2706 1947 2009 
Q 1947 1309 1714 600 
Q 1481 -109 1013 -844 
L 513 -844 
Q 928 -128 1133 580 
Q 1338 1288 1338 2009 
Q 1338 2731 1133 3434 
Q 928 4138 513 4856 
z
" transform="scale(0.015625)"/>
      </defs>
      <use xlink:href="#ArialMT-52" transform="translate(0 0.125)"/>
      <use xlink:href="#ArialMT-61" transform="translate(72.216797 0.125)"/>
      <use xlink:href="#ArialMT-6e" transform="translate(127.832031 0.125)"/>
      <use xlink:href="#ArialMT-67" transform="translate(183.447266 0.125)"/>
      <use xlink:href="#ArialMT-65" transform="translate(239.0625 0.125)"/>
      <use xlink:href="#ArialMT-20" transform="translate(294.677734 0.125)"/>
      <use xlink:href="#DejaVuSans-28" transform="translate(322.460938 0.125)"/>
      <use xlink:href="#DejaVuSans-2212" transform="translate(361.474609 0.125)"/>
      <use xlink:href="#DejaVuSans-Oblique-4a" transform="translate(445.263672 0.125)"/>
      <use xlink:href="#DejaVuSans-Oblique-6d" transform="translate(474.755859 -16.28125) scale(0.7)"/>
      <use xlink:href="#DejaVuSans-Oblique-61" transform="translate(542.944336 -16.28125) scale(0.7)"/>
      <use xlink:href="#DejaVuSans-Oblique-78" transform="translate(585.839844 -16.28125) scale(0.7)"/>
      <use xlink:href="#DejaVuSans-2c" transform="translate(630 0.125)"/>
      <use xlink:href="#DejaVuSans-Oblique-4a" transform="translate(681.269531 0.125)"/>
      <use xlink:href="#DejaVuSans-Oblique-6d" transform="translate(710.761719 -16.28125) scale(0.7)"/>
      <use xlink:href="#DejaVuSans-Oblique-61" transform="translate(778.950195 -16.28125) scale(0.7)"/>
      <use xlink:href="#DejaVuSans-Oblique-78" transform="translate(821.845703 -16.28125) scale(0.7)"/>
      <use xlink:href="#DejaVuSans-29" transform="translate(866.005859 0.125)"/>
     </g>
    </g>
   </g>
   <g id="matplotlib.axis_2">
    <g id="ytick_1">
     <g id="line2d_1">
      <path d="M 57.6 300.432279 
L 414.72 300.432279 
" clip-path="url(#p7551294740)" style="fill: none; stroke: #cccccc; stroke-width: 0.8; stroke-linecap: round"/>
     </g>
     <g id="text_21">
      <!-- 0.4 -->
      <g style="fill: #262626" transform="translate(36.7 304.011185) scale(0.1 -0.1)">
       <use xlink:href="#ArialMT-30"/>
       <use xlink:href="#ArialMT-2e" x="55.615234"/>
       <use xlink:href="#ArialMT-34" x="83.398438"/>
      </g>
     </g>
    </g>
    <g id="ytick_2">
     <g id="line2d_2">
      <path d="M 57.6 266.585991 
L 414.72 266.585991 
" clip-path="url(#p7551294740)" style="fill: none; stroke: #cccccc; stroke-width: 0.8; stroke-linecap: round"/>
     </g>
     <g id="text_22">
      <!-- 0.6 -->
      <g style="fill: #262626" transform="translate(36.7 270.164897) scale(0.1 -0.1)">
       <use xlink:href="#ArialMT-30"/>
       <use xlink:href="#ArialMT-2e" x="55.615234"/>
       <use xlink:href="#ArialMT-36" x="83.398438"/>
      </g>
     </g>
    </g>
    <g id="ytick_3">
     <g id="line2d_3">
      <path d="M 57.6 232.739703 
L 414.72 232.739703 
" clip-path="url(#p7551294740)" style="fill: none; stroke: #cccccc; stroke-width: 0.8; stroke-linecap: round"/>
     </g>
     <g id="text_23">
      <!-- 0.8 -->
      <g style="fill: #262626" transform="translate(36.7 236.318609) scale(0.1 -0.1)">
       <use xlink:href="#ArialMT-30"/>
       <use xlink:href="#ArialMT-2e" x="55.615234"/>
       <use xlink:href="#ArialMT-38" x="83.398438"/>
      </g>
     </g>
    </g>
    <g id="ytick_4">
     <g id="line2d_4">
      <path d="M 57.6 198.893415 
L 414.72 198.893415 
" clip-path="url(#p7551294740)" style="fill: none; stroke: #cccccc; stroke-width: 0.8; stroke-linecap: round"/>
     </g>
     <g id="text_24">
      <!-- 1.0 -->
      <g style="fill: #262626" transform="translate(36.7 202.472321) scale(0.1 -0.1)">
       <use xlink:href="#ArialMT-31"/>
       <use xlink:href="#ArialMT-2e" x="55.615234"/>
       <use xlink:href="#ArialMT-30" x="83.398438"/>
      </g>
     </g>
    </g>
    <g id="ytick_5">
     <g id="line2d_5">
      <path d="M 57.6 165.047127 
L 414.72 165.047127 
" clip-path="url(#p7551294740)" style="fill: none; stroke: #cccccc; stroke-width: 0.8; stroke-linecap: round"/>
     </g>
     <g id="text_25">
      <!-- 1.2 -->
      <g style="fill: #262626" transform="translate(36.7 168.626033) scale(0.1 -0.1)">
       <use xlink:href="#ArialMT-31"/>
       <use xlink:href="#ArialMT-2e" x="55.615234"/>
       <use xlink:href="#ArialMT-32" x="83.398438"/>
      </g>
     </g>
    </g>
    <g id="ytick_6">
     <g id="line2d_6">
      <path d="M 57.6 131.200839 
L 414.72 131.200839 
" clip-path="url(#p7551294740)" style="fill: none; stroke: #cccccc; stroke-width: 0.8; stroke-linecap: round"/>
     </g>
     <g id="text_26">
      <!-- 1.4 -->
      <g style="fill: #262626" transform="translate(36.7 134.779745) scale(0.1 -0.1)">
       <use xlink:href="#ArialMT-31"/>
       <use xlink:href="#ArialMT-2e" x="55.615234"/>
       <use xlink:href="#ArialMT-34" x="83.398438"/>
      </g>
     </g>
    </g>
    <g id="ytick_7">
     <g id="line2d_7">
      <path d="M 57.6 97.354551 
L 414.72 97.354551 
" clip-path="url(#p7551294740)" style="fill: none; stroke: #cccccc; stroke-width: 0.8; stroke-linecap: round"/>
     </g>
     <g id="text_27">
      <!-- 1.6 -->
      <g style="fill: #262626" transform="translate(36.7 100.933457) scale(0.1 -0.1)">
       <use xlink:href="#ArialMT-31"/>
       <use xlink:href="#ArialMT-2e" x="55.615234"/>
       <use xlink:href="#ArialMT-36" x="83.398438"/>
      </g>
     </g>
    </g>
    <g id="ytick_8">
     <g id="line2d_8">
      <path d="M 57.6 63.508263 
L 414.72 63.508263 
" clip-path="url(#p7551294740)" style="fill: none; stroke: #cccccc; stroke-width: 0.8; stroke-linecap: round"/>
     </g>
     <g id="text_28">
      <!-- 1.8 -->
      <g style="fill: #262626" transform="translate(36.7 67.087169) scale(0.1 -0.1)">
       <use xlink:href="#ArialMT-31"/>
       <use xlink:href="#ArialMT-2e" x="55.615234"/>
       <use xlink:href="#ArialMT-38" x="83.398438"/>
      </g>
     </g>
    </g>
    <g id="text_29">
     <!-- MAPE validation -->
     <g style="fill: #262626" transform="translate(30.7125 211.211594) rotate(-90) scale(0.1 -0.1)">
      <defs>
       <path id="ArialMT-4d" d="M 475 0 
L 475 4581 
L 1388 4581 
L 2472 1338 
Q 2622 884 2691 659 
Q 2769 909 2934 1394 
L 4031 4581 
L 4847 4581 
L 4847 0 
L 4263 0 
L 4263 3834 
L 2931 0 
L 2384 0 
L 1059 3900 
L 1059 0 
L 475 0 
z
" transform="scale(0.015625)"/>
       <path id="ArialMT-41" d="M -9 0 
L 1750 4581 
L 2403 4581 
L 4278 0 
L 3588 0 
L 3053 1388 
L 1138 1388 
L 634 0 
L -9 0 
z
M 1313 1881 
L 2866 1881 
L 2388 3150 
Q 2169 3728 2063 4100 
Q 1975 3659 1816 3225 
L 1313 1881 
z
" transform="scale(0.015625)"/>
       <path id="ArialMT-50" d="M 494 0 
L 494 4581 
L 2222 4581 
Q 2678 4581 2919 4538 
Q 3256 4481 3484 4323 
Q 3713 4166 3852 3881 
Q 3991 3597 3991 3256 
Q 3991 2672 3619 2267 
Q 3247 1863 2275 1863 
L 1100 1863 
L 1100 0 
L 494 0 
z
M 1100 2403 
L 2284 2403 
Q 2872 2403 3119 2622 
Q 3366 2841 3366 3238 
Q 3366 3525 3220 3729 
Q 3075 3934 2838 4000 
Q 2684 4041 2272 4041 
L 1100 4041 
L 1100 2403 
z
" transform="scale(0.015625)"/>
       <path id="ArialMT-45" d="M 506 0 
L 506 4581 
L 3819 4581 
L 3819 4041 
L 1113 4041 
L 1113 2638 
L 3647 2638 
L 3647 2100 
L 1113 2100 
L 1113 541 
L 3925 541 
L 3925 0 
L 506 0 
z
" transform="scale(0.015625)"/>
       <path id="ArialMT-76" d="M 1344 0 
L 81 3319 
L 675 3319 
L 1388 1331 
Q 1503 1009 1600 663 
Q 1675 925 1809 1294 
L 2547 3319 
L 3125 3319 
L 1869 0 
L 1344 0 
z
" transform="scale(0.015625)"/>
       <path id="ArialMT-6c" d="M 409 0 
L 409 4581 
L 972 4581 
L 972 0 
L 409 0 
z
" transform="scale(0.015625)"/>
       <path id="ArialMT-69" d="M 425 3934 
L 425 4581 
L 988 4581 
L 988 3934 
L 425 3934 
z
M 425 0 
L 425 3319 
L 988 3319 
L 988 0 
L 425 0 
z
" transform="scale(0.015625)"/>
       <path id="ArialMT-64" d="M 2575 0 
L 2575 419 
Q 2259 -75 1647 -75 
Q 1250 -75 917 144 
Q 584 363 401 755 
Q 219 1147 219 1656 
Q 219 2153 384 2558 
Q 550 2963 881 3178 
Q 1213 3394 1622 3394 
Q 1922 3394 2156 3267 
Q 2391 3141 2538 2938 
L 2538 4581 
L 3097 4581 
L 3097 0 
L 2575 0 
z
M 797 1656 
Q 797 1019 1065 703 
Q 1334 388 1700 388 
Q 2069 388 2326 689 
Q 2584 991 2584 1609 
Q 2584 2291 2321 2609 
Q 2059 2928 1675 2928 
Q 1300 2928 1048 2622 
Q 797 2316 797 1656 
z
" transform="scale(0.015625)"/>
       <path id="ArialMT-74" d="M 1650 503 
L 1731 6 
Q 1494 -44 1306 -44 
Q 1000 -44 831 53 
Q 663 150 594 308 
Q 525 466 525 972 
L 525 2881 
L 113 2881 
L 113 3319 
L 525 3319 
L 525 4141 
L 1084 4478 
L 1084 3319 
L 1650 3319 
L 1650 2881 
L 1084 2881 
L 1084 941 
Q 1084 700 1114 631 
Q 1144 563 1211 522 
Q 1278 481 1403 481 
Q 1497 481 1650 503 
z
" transform="scale(0.015625)"/>
       <path id="ArialMT-6f" d="M 213 1659 
Q 213 2581 725 3025 
Q 1153 3394 1769 3394 
Q 2453 3394 2887 2945 
Q 3322 2497 3322 1706 
Q 3322 1066 3130 698 
Q 2938 331 2570 128 
Q 2203 -75 1769 -75 
Q 1072 -75 642 372 
Q 213 819 213 1659 
z
M 791 1659 
Q 791 1022 1069 705 
Q 1347 388 1769 388 
Q 2188 388 2466 706 
Q 2744 1025 2744 1678 
Q 2744 2294 2464 2611 
Q 2184 2928 1769 2928 
Q 1347 2928 1069 2612 
Q 791 2297 791 1659 
z
" transform="scale(0.015625)"/>
      </defs>
      <use xlink:href="#ArialMT-4d"/>
      <use xlink:href="#ArialMT-41" x="83.300781"/>
      <use xlink:href="#ArialMT-50" x="150"/>
      <use xlink:href="#ArialMT-45" x="216.699219"/>
      <use xlink:href="#ArialMT-20" x="283.398438"/>
      <use xlink:href="#ArialMT-76" x="311.181641"/>
      <use xlink:href="#ArialMT-61" x="361.181641"/>
      <use xlink:href="#ArialMT-6c" x="416.796875"/>
      <use xlink:href="#ArialMT-69" x="439.013672"/>
      <use xlink:href="#ArialMT-64" x="461.230469"/>
      <use xlink:href="#ArialMT-61" x="516.845703"/>
      <use xlink:href="#ArialMT-74" x="572.460938"/>
      <use xlink:href="#ArialMT-69" x="600.244141"/>
      <use xlink:href="#ArialMT-6f" x="622.460938"/>
      <use xlink:href="#ArialMT-6e" x="678.076172"/>
     </g>
    </g>
   </g>
   <g id="PathCollection_1">
    <defs>
     <path id="C0_0_ddd067e697" d="M 0 1.691974 
C 0.448717 1.691974 0.879116 1.513697 1.196406 1.196406 
C 1.513697 0.879116 1.691974 0.448717 1.691974 -0 
C 1.691974 -0.448717 1.513697 -0.879116 1.196406 -1.196406 
C 0.879116 -1.513697 0.448717 -1.691974 0 -1.691974 
C -0.448717 -1.691974 -0.879116 -1.513697 -1.196406 -1.196406 
C -1.513697 -0.879116 -1.691974 -0.448717 -1.691974 0 
C -1.691974 0.448717 -1.513697 0.879116 -1.196406 1.196406 
C -0.879116 1.513697 -0.448717 1.691974 0 1.691974 
z
"/>
    </defs>
    <g clip-path="url(#p7551294740)">
     <use xlink:href="#C0_0_ddd067e697" x="60.788571" y="87.941834" style="fill: #4878d0; stroke: #4878d0; stroke-width: 2.025"/>
    </g>
    <g clip-path="url(#p7551294740)">
     <use xlink:href="#C0_0_ddd067e697" x="67.165714" y="138.111761" style="fill: #4878d0; stroke: #4878d0; stroke-width: 2.025"/>
    </g>
    <g clip-path="url(#p7551294740)">
     <use xlink:href="#C0_0_ddd067e697" x="73.542857" y="144.231444" style="fill: #4878d0; stroke: #4878d0; stroke-width: 2.025"/>
    </g>
    <g clip-path="url(#p7551294740)">
     <use xlink:href="#C0_0_ddd067e697" x="79.92" y="157.864936" style="fill: #4878d0; stroke: #4878d0; stroke-width: 2.025"/>
    </g>
    <g clip-path="url(#p7551294740)">
     <use xlink:href="#C0_0_ddd067e697" x="86.297143" y="183.271652" style="fill: #4878d0; stroke: #4878d0; stroke-width: 2.025"/>
    </g>
    <g clip-path="url(#p7551294740)">
     <use xlink:href="#C0_0_ddd067e697" x="92.674286" y="238.862723" style="fill: #4878d0; stroke: #4878d0; stroke-width: 2.025"/>
    </g>
    <g clip-path="url(#p7551294740)">
     <use xlink:href="#C0_0_ddd067e697" x="99.051429" y="265.730065" style="fill: #4878d0; stroke: #4878d0; stroke-width: 2.025"/>
    </g>
    <g clip-path="url(#p7551294740)">
     <use xlink:href="#C0_0_ddd067e697" x="105.428571" y="275.902597" style="fill: #4878d0; stroke: #4878d0; stroke-width: 2.025"/>
    </g>
    <g clip-path="url(#p7551294740)">
     <use xlink:href="#C0_0_ddd067e697" x="111.805714" y="278.671032" style="fill: #4878d0; stroke: #4878d0; stroke-width: 2.025"/>
    </g>
    <g clip-path="url(#p7551294740)">
     <use xlink:href="#C0_0_ddd067e697" x="118.182857" y="279.265723" style="fill: #4878d0; stroke: #4878d0; stroke-width: 2.025"/>
    </g>
    <g clip-path="url(#p7551294740)">
     <use xlink:href="#C0_0_ddd067e697" x="124.56" y="280.751178" style="fill: #4878d0; stroke: #4878d0; stroke-width: 2.025"/>
    </g>
    <g clip-path="url(#p7551294740)">
     <use xlink:href="#C0_0_ddd067e697" x="130.937143" y="277.217408" style="fill: #4878d0; stroke: #4878d0; stroke-width: 2.025"/>
    </g>
    <g clip-path="url(#p7551294740)">
     <use xlink:href="#C0_0_ddd067e697" x="137.314286" y="274.698982" style="fill: #4878d0; stroke: #4878d0; stroke-width: 2.025"/>
    </g>
    <g clip-path="url(#p7551294740)">
     <use xlink:href="#C0_0_ddd067e697" x="143.691429" y="268.665386" style="fill: #4878d0; stroke: #4878d0; stroke-width: 2.025"/>
    </g>
    <g clip-path="url(#p7551294740)">
     <use xlink:href="#C0_0_ddd067e697" x="150.068571" y="264.149452" style="fill: #4878d0; stroke: #4878d0; stroke-width: 2.025"/>
    </g>
    <g clip-path="url(#p7551294740)">
     <use xlink:href="#C0_0_ddd067e697" x="156.445714" y="266.010715" style="fill: #4878d0; stroke: #4878d0; stroke-width: 2.025"/>
    </g>
    <g clip-path="url(#p7551294740)">
     <use xlink:href="#C0_0_ddd067e697" x="162.822857" y="262.468989" style="fill: #4878d0; stroke: #4878d0; stroke-width: 2.025"/>
    </g>
    <g clip-path="url(#p7551294740)">
     <use xlink:href="#C0_0_ddd067e697" x="169.2" y="260.074649" style="fill: #4878d0; stroke: #4878d0; stroke-width: 2.025"/>
    </g>
    <g clip-path="url(#p7551294740)">
     <use xlink:href="#C0_0_ddd067e697" x="175.577143" y="254.278705" style="fill: #4878d0; stroke: #4878d0; stroke-width: 2.025"/>
    </g>
    <g clip-path="url(#p7551294740)">
     <use xlink:href="#C0_0_ddd067e697" x="181.954286" y="247.442491" style="fill: #4878d0; stroke: #4878d0; stroke-width: 2.025"/>
    </g>
    <g clip-path="url(#p7551294740)">
     <use xlink:href="#C0_0_ddd067e697" x="188.331429" y="234.181267" style="fill: #4878d0; stroke: #4878d0; stroke-width: 2.025"/>
    </g>
    <g clip-path="url(#p7551294740)">
     <use xlink:href="#C0_0_ddd067e697" x="194.708571" y="233.52325" style="fill: #4878d0; stroke: #4878d0; stroke-width: 2.025"/>
    </g>
    <g clip-path="url(#p7551294740)">
     <use xlink:href="#C0_0_ddd067e697" x="201.085714" y="226.59804" style="fill: #4878d0; stroke: #4878d0; stroke-width: 2.025"/>
    </g>
    <g clip-path="url(#p7551294740)">
     <use xlink:href="#C0_0_ddd067e697" x="207.462857" y="224.835909" style="fill: #4878d0; stroke: #4878d0; stroke-width: 2.025"/>
    </g>
    <g clip-path="url(#p7551294740)">
     <use xlink:href="#C0_0_ddd067e697" x="213.84" y="225.192801" style="fill: #4878d0; stroke: #4878d0; stroke-width: 2.025"/>
    </g>
    <g clip-path="url(#p7551294740)">
     <use xlink:href="#C0_0_ddd067e697" x="220.217143" y="224.873373" style="fill: #4878d0; stroke: #4878d0; stroke-width: 2.025"/>
    </g>
    <g clip-path="url(#p7551294740)">
     <use xlink:href="#C0_0_ddd067e697" x="226.594286" y="227.25009" style="fill: #4878d0; stroke: #4878d0; stroke-width: 2.025"/>
    </g>
    <g clip-path="url(#p7551294740)">
     <use xlink:href="#C0_0_ddd067e697" x="232.971429" y="222.170974" style="fill: #4878d0; stroke: #4878d0; stroke-width: 2.025"/>
    </g>
    <g clip-path="url(#p7551294740)">
     <use xlink:href="#C0_0_ddd067e697" x="239.348571" y="218.556363" style="fill: #4878d0; stroke: #4878d0; stroke-width: 2.025"/>
    </g>
    <g clip-path="url(#p7551294740)">
     <use xlink:href="#C0_0_ddd067e697" x="245.725714" y="218.710887" style="fill: #4878d0; stroke: #4878d0; stroke-width: 2.025"/>
    </g>
    <g clip-path="url(#p7551294740)">
     <use xlink:href="#C0_0_ddd067e697" x="252.102857" y="210.374346" style="fill: #4878d0; stroke: #4878d0; stroke-width: 2.025"/>
    </g>
    <g clip-path="url(#p7551294740)">
     <use xlink:href="#C0_0_ddd067e697" x="258.48" y="207.228068" style="fill: #4878d0; stroke: #4878d0; stroke-width: 2.025"/>
    </g>
    <g clip-path="url(#p7551294740)">
     <use xlink:href="#C0_0_ddd067e697" x="264.857143" y="206.202291" style="fill: #4878d0; stroke: #4878d0; stroke-width: 2.025"/>
    </g>
    <g clip-path="url(#p7551294740)">
     <use xlink:href="#C0_0_ddd067e697" x="271.234286" y="213.151054" style="fill: #4878d0; stroke: #4878d0; stroke-width: 2.025"/>
    </g>
    <g clip-path="url(#p7551294740)">
     <use xlink:href="#C0_0_ddd067e697" x="277.611429" y="217.662023" style="fill: #4878d0; stroke: #4878d0; stroke-width: 2.025"/>
    </g>
    <g clip-path="url(#p7551294740)">
     <use xlink:href="#C0_0_ddd067e697" x="283.988571" y="225.163816" style="fill: #4878d0; stroke: #4878d0; stroke-width: 2.025"/>
    </g>
    <g clip-path="url(#p7551294740)">
     <use xlink:href="#C0_0_ddd067e697" x="290.365714" y="229.983331" style="fill: #4878d0; stroke: #4878d0; stroke-width: 2.025"/>
    </g>
    <g clip-path="url(#p7551294740)">
     <use xlink:href="#C0_0_ddd067e697" x="296.742857" y="237.346481" style="fill: #4878d0; stroke: #4878d0; stroke-width: 2.025"/>
    </g>
    <g clip-path="url(#p7551294740)">
     <use xlink:href="#C0_0_ddd067e697" x="303.12" y="244.649439" style="fill: #4878d0; stroke: #4878d0; stroke-width: 2.025"/>
    </g>
    <g clip-path="url(#p7551294740)">
     <use xlink:href="#C0_0_ddd067e697" x="309.497143" y="252.154181" style="fill: #4878d0; stroke: #4878d0; stroke-width: 2.025"/>
    </g>
    <g clip-path="url(#p7551294740)">
     <use xlink:href="#C0_0_ddd067e697" x="315.874286" y="259.807325" style="fill: #4878d0; stroke: #4878d0; stroke-width: 2.025"/>
    </g>
    <g clip-path="url(#p7551294740)">
     <use xlink:href="#C0_0_ddd067e697" x="322.251429" y="263.376204" style="fill: #4878d0; stroke: #4878d0; stroke-width: 2.025"/>
    </g>
    <g clip-path="url(#p7551294740)">
     <use xlink:href="#C0_0_ddd067e697" x="328.628571" y="262.858352" style="fill: #4878d0; stroke: #4878d0; stroke-width: 2.025"/>
    </g>
    <g clip-path="url(#p7551294740)">
     <use xlink:href="#C0_0_ddd067e697" x="335.005714" y="258.317207" style="fill: #4878d0; stroke: #4878d0; stroke-width: 2.025"/>
    </g>
    <g clip-path="url(#p7551294740)">
     <use xlink:href="#C0_0_ddd067e697" x="341.382857" y="258.502552" style="fill: #4878d0; stroke: #4878d0; stroke-width: 2.025"/>
    </g>
    <g clip-path="url(#p7551294740)">
     <use xlink:href="#C0_0_ddd067e697" x="347.76" y="258.254296" style="fill: #4878d0; stroke: #4878d0; stroke-width: 2.025"/>
    </g>
    <g clip-path="url(#p7551294740)">
     <use xlink:href="#C0_0_ddd067e697" x="354.137143" y="252.491441" style="fill: #4878d0; stroke: #4878d0; stroke-width: 2.025"/>
    </g>
    <g clip-path="url(#p7551294740)">
     <use xlink:href="#C0_0_ddd067e697" x="360.514286" y="254.958625" style="fill: #4878d0; stroke: #4878d0; stroke-width: 2.025"/>
    </g>
    <g clip-path="url(#p7551294740)">
     <use xlink:href="#C0_0_ddd067e697" x="366.891429" y="250.442976" style="fill: #4878d0; stroke: #4878d0; stroke-width: 2.025"/>
    </g>
    <g clip-path="url(#p7551294740)">
     <use xlink:href="#C0_0_ddd067e697" x="373.268571" y="246.829121" style="fill: #4878d0; stroke: #4878d0; stroke-width: 2.025"/>
    </g>
    <g clip-path="url(#p7551294740)">
     <use xlink:href="#C0_0_ddd067e697" x="379.645714" y="243.769634" style="fill: #4878d0; stroke: #4878d0; stroke-width: 2.025"/>
    </g>
    <g clip-path="url(#p7551294740)">
     <use xlink:href="#C0_0_ddd067e697" x="386.022857" y="241.519183" style="fill: #4878d0; stroke: #4878d0; stroke-width: 2.025"/>
    </g>
    <g clip-path="url(#p7551294740)">
     <use xlink:href="#C0_0_ddd067e697" x="392.4" y="237.109511" style="fill: #4878d0; stroke: #4878d0; stroke-width: 2.025"/>
    </g>
    <g clip-path="url(#p7551294740)">
     <use xlink:href="#C0_0_ddd067e697" x="398.777143" y="235.384538" style="fill: #4878d0; stroke: #4878d0; stroke-width: 2.025"/>
    </g>
    <g clip-path="url(#p7551294740)">
     <use xlink:href="#C0_0_ddd067e697" x="405.154286" y="235.089341" style="fill: #4878d0; stroke: #4878d0; stroke-width: 2.025"/>
    </g>
    <g clip-path="url(#p7551294740)">
     <use xlink:href="#C0_0_ddd067e697" x="411.531429" y="200.244107" style="fill: #4878d0; stroke: #4878d0; stroke-width: 2.025"/>
    </g>
   </g>
   <g id="line2d_9"/>
   <g id="line2d_10">
    <path d="M 60.788571 122.315668 
L 60.788571 53.568 
" clip-path="url(#p7551294740)" style="fill: none; stroke: #4878d0; stroke-linecap: round"/>
   </g>
   <g id="line2d_11">
    <path d="M 67.165714 169.146 
L 67.165714 107.077522 
" clip-path="url(#p7551294740)" style="fill: none; stroke: #4878d0; stroke-linecap: round"/>
   </g>
   <g id="line2d_12">
    <path d="M 73.542857 181.898019 
L 73.542857 106.564868 
" clip-path="url(#p7551294740)" style="fill: none; stroke: #4878d0; stroke-linecap: round"/>
   </g>
   <g id="line2d_13">
    <path d="M 79.92 194.631471 
L 79.92 121.0984 
" clip-path="url(#p7551294740)" style="fill: none; stroke: #4878d0; stroke-linecap: round"/>
   </g>
   <g id="line2d_14">
    <path d="M 86.297143 205.112739 
L 86.297143 161.430565 
" clip-path="url(#p7551294740)" style="fill: none; stroke: #4878d0; stroke-linecap: round"/>
   </g>
   <g id="line2d_15">
    <path d="M 92.674286 247.249778 
L 92.674286 230.475667 
" clip-path="url(#p7551294740)" style="fill: none; stroke: #4878d0; stroke-linecap: round"/>
   </g>
   <g id="line2d_16">
    <path d="M 99.051429 272.937811 
L 99.051429 258.522319 
" clip-path="url(#p7551294740)" style="fill: none; stroke: #4878d0; stroke-linecap: round"/>
   </g>
   <g id="line2d_17">
    <path d="M 105.428571 285.482517 
L 105.428571 266.322676 
" clip-path="url(#p7551294740)" style="fill: none; stroke: #4878d0; stroke-linecap: round"/>
   </g>
   <g id="line2d_18">
    <path d="M 111.805714 289.221315 
L 111.805714 268.120749 
" clip-path="url(#p7551294740)" style="fill: none; stroke: #4878d0; stroke-linecap: round"/>
   </g>
   <g id="line2d_19">
    <path d="M 118.182857 292.336761 
L 118.182857 266.194684 
" clip-path="url(#p7551294740)" style="fill: none; stroke: #4878d0; stroke-linecap: round"/>
   </g>
   <g id="line2d_20">
    <path d="M 124.56 294.785095 
L 124.56 266.717262 
" clip-path="url(#p7551294740)" style="fill: none; stroke: #4878d0; stroke-linecap: round"/>
   </g>
   <g id="line2d_21">
    <path d="M 130.937143 295.488 
L 130.937143 258.946815 
" clip-path="url(#p7551294740)" style="fill: none; stroke: #4878d0; stroke-linecap: round"/>
   </g>
   <g id="line2d_22">
    <path d="M 137.314286 287.261824 
L 137.314286 262.136141 
" clip-path="url(#p7551294740)" style="fill: none; stroke: #4878d0; stroke-linecap: round"/>
   </g>
   <g id="line2d_23">
    <path d="M 143.691429 280.658435 
L 143.691429 256.672337 
" clip-path="url(#p7551294740)" style="fill: none; stroke: #4878d0; stroke-linecap: round"/>
   </g>
   <g id="line2d_24">
    <path d="M 150.068571 274.351795 
L 150.068571 253.947109 
" clip-path="url(#p7551294740)" style="fill: none; stroke: #4878d0; stroke-linecap: round"/>
   </g>
   <g id="line2d_25">
    <path d="M 156.445714 273.246868 
L 156.445714 258.774563 
" clip-path="url(#p7551294740)" style="fill: none; stroke: #4878d0; stroke-linecap: round"/>
   </g>
   <g id="line2d_26">
    <path d="M 162.822857 271.095046 
L 162.822857 253.842933 
" clip-path="url(#p7551294740)" style="fill: none; stroke: #4878d0; stroke-linecap: round"/>
   </g>
   <g id="line2d_27">
    <path d="M 169.2 271.343459 
L 169.2 248.805838 
" clip-path="url(#p7551294740)" style="fill: none; stroke: #4878d0; stroke-linecap: round"/>
   </g>
   <g id="line2d_28">
    <path d="M 175.577143 266.872262 
L 175.577143 241.685148 
" clip-path="url(#p7551294740)" style="fill: none; stroke: #4878d0; stroke-linecap: round"/>
   </g>
   <g id="line2d_29">
    <path d="M 181.954286 264.637019 
L 181.954286 230.247962 
" clip-path="url(#p7551294740)" style="fill: none; stroke: #4878d0; stroke-linecap: round"/>
   </g>
   <g id="line2d_30">
    <path d="M 188.331429 250.803551 
L 188.331429 217.558983 
" clip-path="url(#p7551294740)" style="fill: none; stroke: #4878d0; stroke-linecap: round"/>
   </g>
   <g id="line2d_31">
    <path d="M 194.708571 245.779442 
L 194.708571 221.267058 
" clip-path="url(#p7551294740)" style="fill: none; stroke: #4878d0; stroke-linecap: round"/>
   </g>
   <g id="line2d_32">
    <path d="M 201.085714 237.635126 
L 201.085714 215.560955 
" clip-path="url(#p7551294740)" style="fill: none; stroke: #4878d0; stroke-linecap: round"/>
   </g>
   <g id="line2d_33">
    <path d="M 207.462857 235.97552 
L 207.462857 213.696297 
" clip-path="url(#p7551294740)" style="fill: none; stroke: #4878d0; stroke-linecap: round"/>
   </g>
   <g id="line2d_34">
    <path d="M 213.84 236.988338 
L 213.84 213.397264 
" clip-path="url(#p7551294740)" style="fill: none; stroke: #4878d0; stroke-linecap: round"/>
   </g>
   <g id="line2d_35">
    <path d="M 220.217143 235.673183 
L 220.217143 214.073563 
" clip-path="url(#p7551294740)" style="fill: none; stroke: #4878d0; stroke-linecap: round"/>
   </g>
   <g id="line2d_36">
    <path d="M 226.594286 239.557256 
L 226.594286 214.942923 
" clip-path="url(#p7551294740)" style="fill: none; stroke: #4878d0; stroke-linecap: round"/>
   </g>
   <g id="line2d_37">
    <path d="M 232.971429 235.454116 
L 232.971429 208.887833 
" clip-path="url(#p7551294740)" style="fill: none; stroke: #4878d0; stroke-linecap: round"/>
   </g>
   <g id="line2d_38">
    <path d="M 239.348571 232.230696 
L 239.348571 204.88203 
" clip-path="url(#p7551294740)" style="fill: none; stroke: #4878d0; stroke-linecap: round"/>
   </g>
   <g id="line2d_39">
    <path d="M 245.725714 232.341803 
L 245.725714 205.07997 
" clip-path="url(#p7551294740)" style="fill: none; stroke: #4878d0; stroke-linecap: round"/>
   </g>
   <g id="line2d_40">
    <path d="M 252.102857 222.659128 
L 252.102857 198.089564 
" clip-path="url(#p7551294740)" style="fill: none; stroke: #4878d0; stroke-linecap: round"/>
   </g>
   <g id="line2d_41">
    <path d="M 258.48 220.067583 
L 258.48 194.388553 
" clip-path="url(#p7551294740)" style="fill: none; stroke: #4878d0; stroke-linecap: round"/>
   </g>
   <g id="line2d_42">
    <path d="M 264.857143 217.195592 
L 264.857143 195.208989 
" clip-path="url(#p7551294740)" style="fill: none; stroke: #4878d0; stroke-linecap: round"/>
   </g>
   <g id="line2d_43">
    <path d="M 271.234286 222.919875 
L 271.234286 203.382234 
" clip-path="url(#p7551294740)" style="fill: none; stroke: #4878d0; stroke-linecap: round"/>
   </g>
   <g id="line2d_44">
    <path d="M 277.611429 227.603339 
L 277.611429 207.720707 
" clip-path="url(#p7551294740)" style="fill: none; stroke: #4878d0; stroke-linecap: round"/>
   </g>
   <g id="line2d_45">
    <path d="M 283.988571 236.384979 
L 283.988571 213.942653 
" clip-path="url(#p7551294740)" style="fill: none; stroke: #4878d0; stroke-linecap: round"/>
   </g>
   <g id="line2d_46">
    <path d="M 290.365714 238.517609 
L 290.365714 221.449054 
" clip-path="url(#p7551294740)" style="fill: none; stroke: #4878d0; stroke-linecap: round"/>
   </g>
   <g id="line2d_47">
    <path d="M 296.742857 246.770254 
L 296.742857 227.922707 
" clip-path="url(#p7551294740)" style="fill: none; stroke: #4878d0; stroke-linecap: round"/>
   </g>
   <g id="line2d_48">
    <path d="M 303.12 252.926056 
L 303.12 236.372822 
" clip-path="url(#p7551294740)" style="fill: none; stroke: #4878d0; stroke-linecap: round"/>
   </g>
   <g id="line2d_49">
    <path d="M 309.497143 266.475762 
L 309.497143 237.832601 
" clip-path="url(#p7551294740)" style="fill: none; stroke: #4878d0; stroke-linecap: round"/>
   </g>
   <g id="line2d_50">
    <path d="M 315.874286 271.10478 
L 315.874286 248.50987 
" clip-path="url(#p7551294740)" style="fill: none; stroke: #4878d0; stroke-linecap: round"/>
   </g>
   <g id="line2d_51">
    <path d="M 322.251429 277.905367 
L 322.251429 248.847042 
" clip-path="url(#p7551294740)" style="fill: none; stroke: #4878d0; stroke-linecap: round"/>
   </g>
   <g id="line2d_52">
    <path d="M 328.628571 273.760073 
L 328.628571 251.956631 
" clip-path="url(#p7551294740)" style="fill: none; stroke: #4878d0; stroke-linecap: round"/>
   </g>
   <g id="line2d_53">
    <path d="M 335.005714 269.811805 
L 335.005714 246.82261 
" clip-path="url(#p7551294740)" style="fill: none; stroke: #4878d0; stroke-linecap: round"/>
   </g>
   <g id="line2d_54">
    <path d="M 341.382857 269.229828 
L 341.382857 247.775275 
" clip-path="url(#p7551294740)" style="fill: none; stroke: #4878d0; stroke-linecap: round"/>
   </g>
   <g id="line2d_55">
    <path d="M 347.76 268.21123 
L 347.76 248.297362 
" clip-path="url(#p7551294740)" style="fill: none; stroke: #4878d0; stroke-linecap: round"/>
   </g>
   <g id="line2d_56">
    <path d="M 354.137143 264.654484 
L 354.137143 240.328398 
" clip-path="url(#p7551294740)" style="fill: none; stroke: #4878d0; stroke-linecap: round"/>
   </g>
   <g id="line2d_57">
    <path d="M 360.514286 268.889534 
L 360.514286 241.027716 
" clip-path="url(#p7551294740)" style="fill: none; stroke: #4878d0; stroke-linecap: round"/>
   </g>
   <g id="line2d_58">
    <path d="M 366.891429 262.353167 
L 366.891429 238.532786 
" clip-path="url(#p7551294740)" style="fill: none; stroke: #4878d0; stroke-linecap: round"/>
   </g>
   <g id="line2d_59">
    <path d="M 373.268571 260.188583 
L 373.268571 233.469659 
" clip-path="url(#p7551294740)" style="fill: none; stroke: #4878d0; stroke-linecap: round"/>
   </g>
   <g id="line2d_60">
    <path d="M 379.645714 252.946106 
L 379.645714 234.593163 
" clip-path="url(#p7551294740)" style="fill: none; stroke: #4878d0; stroke-linecap: round"/>
   </g>
   <g id="line2d_61">
    <path d="M 386.022857 249.575777 
L 386.022857 233.46259 
" clip-path="url(#p7551294740)" style="fill: none; stroke: #4878d0; stroke-linecap: round"/>
   </g>
   <g id="line2d_62">
    <path d="M 392.4 244.890407 
L 392.4 229.328615 
" clip-path="url(#p7551294740)" style="fill: none; stroke: #4878d0; stroke-linecap: round"/>
   </g>
   <g id="line2d_63">
    <path d="M 398.777143 245.506427 
L 398.777143 225.262649 
" clip-path="url(#p7551294740)" style="fill: none; stroke: #4878d0; stroke-linecap: round"/>
   </g>
   <g id="line2d_64">
    <path d="M 405.154286 246.111042 
L 405.154286 224.06764 
" clip-path="url(#p7551294740)" style="fill: none; stroke: #4878d0; stroke-linecap: round"/>
   </g>
   <g id="line2d_65">
    <path d="M 411.531429 216.267977 
L 411.531429 184.220237 
" clip-path="url(#p7551294740)" style="fill: none; stroke: #4878d0; stroke-linecap: round"/>
   </g>
   <g id="line2d_66">
    <path d="M 137.314286 307.584 
L 137.314286 41.472 
" clip-path="url(#p7551294740)" style="fill: none; stroke-dasharray: 3.7,1.6; stroke-dashoffset: 0; stroke: #808080"/>
   </g>
   <g id="patch_3">
    <path d="M 57.6 307.584 
L 57.6 41.472 
" style="fill: none; stroke: #cccccc; stroke-width: 0.8; stroke-linejoin: miter; stroke-linecap: square"/>
   </g>
   <g id="patch_4">
    <path d="M 414.72 307.584 
L 414.72 41.472 
" style="fill: none; stroke: #cccccc; stroke-width: 0.8; stroke-linejoin: miter; stroke-linecap: square"/>
   </g>
   <g id="patch_5">
    <path d="M 57.6 307.584 
L 414.72 307.584 
" style="fill: none; stroke: #cccccc; stroke-width: 0.8; stroke-linejoin: miter; stroke-linecap: square"/>
   </g>
   <g id="patch_6">
    <path d="M 57.6 41.472 
L 414.72 41.472 
" style="fill: none; stroke: #cccccc; stroke-width: 0.8; stroke-linejoin: miter; stroke-linecap: square"/>
   </g>
   <g id="text_30">
    <!-- Spin-spin coupling $J_{max}$ -->
    <g style="fill: #262626" transform="translate(174.36 35.472) scale(0.12 -0.12)">
     <defs>
      <path id="ArialMT-53" d="M 288 1472 
L 859 1522 
Q 900 1178 1048 958 
Q 1197 738 1509 602 
Q 1822 466 2213 466 
Q 2559 466 2825 569 
Q 3091 672 3220 851 
Q 3350 1031 3350 1244 
Q 3350 1459 3225 1620 
Q 3100 1781 2813 1891 
Q 2628 1963 1997 2114 
Q 1366 2266 1113 2400 
Q 784 2572 623 2826 
Q 463 3081 463 3397 
Q 463 3744 659 4045 
Q 856 4347 1234 4503 
Q 1613 4659 2075 4659 
Q 2584 4659 2973 4495 
Q 3363 4331 3572 4012 
Q 3781 3694 3797 3291 
L 3216 3247 
Q 3169 3681 2898 3903 
Q 2628 4125 2100 4125 
Q 1550 4125 1298 3923 
Q 1047 3722 1047 3438 
Q 1047 3191 1225 3031 
Q 1400 2872 2139 2705 
Q 2878 2538 3153 2413 
Q 3553 2228 3743 1945 
Q 3934 1663 3934 1294 
Q 3934 928 3725 604 
Q 3516 281 3123 101 
Q 2731 -78 2241 -78 
Q 1619 -78 1198 103 
Q 778 284 539 648 
Q 300 1013 288 1472 
z
" transform="scale(0.015625)"/>
      <path id="ArialMT-70" d="M 422 -1272 
L 422 3319 
L 934 3319 
L 934 2888 
Q 1116 3141 1344 3267 
Q 1572 3394 1897 3394 
Q 2322 3394 2647 3175 
Q 2972 2956 3137 2557 
Q 3303 2159 3303 1684 
Q 3303 1175 3120 767 
Q 2938 359 2589 142 
Q 2241 -75 1856 -75 
Q 1575 -75 1351 44 
Q 1128 163 984 344 
L 984 -1272 
L 422 -1272 
z
M 931 1641 
Q 931 1000 1190 694 
Q 1450 388 1819 388 
Q 2194 388 2461 705 
Q 2728 1022 2728 1688 
Q 2728 2322 2467 2637 
Q 2206 2953 1844 2953 
Q 1484 2953 1207 2617 
Q 931 2281 931 1641 
z
" transform="scale(0.015625)"/>
      <path id="ArialMT-2d" d="M 203 1375 
L 203 1941 
L 1931 1941 
L 1931 1375 
L 203 1375 
z
" transform="scale(0.015625)"/>
      <path id="ArialMT-73" d="M 197 991 
L 753 1078 
Q 800 744 1014 566 
Q 1228 388 1613 388 
Q 2000 388 2187 545 
Q 2375 703 2375 916 
Q 2375 1106 2209 1216 
Q 2094 1291 1634 1406 
Q 1016 1563 777 1677 
Q 538 1791 414 1992 
Q 291 2194 291 2438 
Q 291 2659 392 2848 
Q 494 3038 669 3163 
Q 800 3259 1026 3326 
Q 1253 3394 1513 3394 
Q 1903 3394 2198 3281 
Q 2494 3169 2634 2976 
Q 2775 2784 2828 2463 
L 2278 2388 
Q 2241 2644 2061 2787 
Q 1881 2931 1553 2931 
Q 1166 2931 1000 2803 
Q 834 2675 834 2503 
Q 834 2394 903 2306 
Q 972 2216 1119 2156 
Q 1203 2125 1616 2013 
Q 2213 1853 2448 1751 
Q 2684 1650 2818 1456 
Q 2953 1263 2953 975 
Q 2953 694 2789 445 
Q 2625 197 2315 61 
Q 2006 -75 1616 -75 
Q 969 -75 630 194 
Q 291 463 197 991 
z
" transform="scale(0.015625)"/>
      <path id="ArialMT-63" d="M 2588 1216 
L 3141 1144 
Q 3050 572 2676 248 
Q 2303 -75 1759 -75 
Q 1078 -75 664 370 
Q 250 816 250 1647 
Q 250 2184 428 2587 
Q 606 2991 970 3192 
Q 1334 3394 1763 3394 
Q 2303 3394 2647 3120 
Q 2991 2847 3088 2344 
L 2541 2259 
Q 2463 2594 2264 2762 
Q 2066 2931 1784 2931 
Q 1359 2931 1093 2626 
Q 828 2322 828 1663 
Q 828 994 1084 691 
Q 1341 388 1753 388 
Q 2084 388 2306 591 
Q 2528 794 2588 1216 
z
" transform="scale(0.015625)"/>
      <path id="ArialMT-75" d="M 2597 0 
L 2597 488 
Q 2209 -75 1544 -75 
Q 1250 -75 995 37 
Q 741 150 617 320 
Q 494 491 444 738 
Q 409 903 409 1263 
L 409 3319 
L 972 3319 
L 972 1478 
Q 972 1038 1006 884 
Q 1059 663 1231 536 
Q 1403 409 1656 409 
Q 1909 409 2131 539 
Q 2353 669 2445 892 
Q 2538 1116 2538 1541 
L 2538 3319 
L 3100 3319 
L 3100 0 
L 2597 0 
z
" transform="scale(0.015625)"/>
     </defs>
     <use xlink:href="#ArialMT-53" transform="translate(0 0.09375)"/>
     <use xlink:href="#ArialMT-70" transform="translate(66.699219 0.09375)"/>
     <use xlink:href="#ArialMT-69" transform="translate(122.314453 0.09375)"/>
     <use xlink:href="#ArialMT-6e" transform="translate(144.53125 0.09375)"/>
     <use xlink:href="#ArialMT-2d" transform="translate(200.146484 0.09375)"/>
     <use xlink:href="#ArialMT-73" transform="translate(233.447266 0.09375)"/>
     <use xlink:href="#ArialMT-70" transform="translate(283.447266 0.09375)"/>
     <use xlink:href="#ArialMT-69" transform="translate(339.0625 0.09375)"/>
     <use xlink:href="#ArialMT-6e" transform="translate(361.279297 0.09375)"/>
     <use xlink:href="#ArialMT-20" transform="translate(416.894531 0.09375)"/>
     <use xlink:href="#ArialMT-63" transform="translate(444.677734 0.09375)"/>
     <use xlink:href="#ArialMT-6f" transform="translate(494.677734 0.09375)"/>
     <use xlink:href="#ArialMT-75" transform="translate(550.292969 0.09375)"/>
     <use xlink:href="#ArialMT-70" transform="translate(605.908203 0.09375)"/>
     <use xlink:href="#ArialMT-6c" transform="translate(661.523438 0.09375)"/>
     <use xlink:href="#ArialMT-69" transform="translate(683.740234 0.09375)"/>
     <use xlink:href="#ArialMT-6e" transform="translate(705.957031 0.09375)"/>
     <use xlink:href="#ArialMT-67" transform="translate(761.572266 0.09375)"/>
     <use xlink:href="#ArialMT-20" transform="translate(817.1875 0.09375)"/>
     <use xlink:href="#DejaVuSans-Oblique-4a" transform="translate(844.970703 0.09375)"/>
     <use xlink:href="#DejaVuSans-Oblique-6d" transform="translate(874.462891 -16.3125) scale(0.7)"/>
     <use xlink:href="#DejaVuSans-Oblique-61" transform="translate(942.651367 -16.3125) scale(0.7)"/>
     <use xlink:href="#DejaVuSans-Oblique-78" transform="translate(985.546875 -16.3125) scale(0.7)"/>
    </g>
   </g>
  </g>
 </g>
 <defs>
  <clipPath id="p7551294740">
   <rect x="57.6" y="41.472" width="357.12" height="266.112"/>
  </clipPath>
 </defs>
</svg>
