<?xml version="1.0" encoding="utf-8" standalone="no"?>
<!DOCTYPE svg PUBLIC "-//W3C//DTD SVG 1.1//EN"
  "http://www.w3.org/Graphics/SVG/1.1/DTD/svg11.dtd">
<svg xmlns:xlink="http://www.w3.org/1999/xlink" width="460.8pt" height="345.6pt" viewBox="0 0 460.8 345.6" xmlns="http://www.w3.org/2000/svg" version="1.1">
 <metadata>
  <rdf:RDF xmlns:dc="http://purl.org/dc/elements/1.1/" xmlns:cc="http://creativecommons.org/ns#" xmlns:rdf="http://www.w3.org/1999/02/22-rdf-syntax-ns#">
   <cc:Work>
    <dc:type rdf:resource="http://purl.org/dc/dcmitype/StillImage"/>
    <dc:date>2023-08-11T14:17:45.162641</dc:date>
    <dc:format>image/svg+xml</dc:format>
    <dc:creator>
     <cc:Agent>
      <dc:title>Matplotlib v3.7.1, https://matplotlib.org/</dc:title>
     </cc:Agent>
    </dc:creator>
   </cc:Work>
  </rdf:RDF>
 </metadata>
 <defs>
  <style type="text/css">*{stroke-linejoin: round; stroke-linecap: butt}</style>
 </defs>
 <g id="figure_1">
  <g id="patch_1">
   <path d="M 0 345.6 
L 460.8 345.6 
L 460.8 0 
L 0 0 
z
" style="fill: #ffffff"/>
  </g>
  <g id="axes_1">
   <g id="patch_2">
    <path d="M 57.6 307.584 
L 414.72 307.584 
L 414.72 41.472 
L 57.6 41.472 
z
" style="fill: #ffffff"/>
   </g>
   <g id="matplotlib.axis_1">
    <g id="xtick_1">
     <g id="text_1">
      <!-- Generalization -->
      <g style="fill: #262626" transform="translate(76.44875 320.31025) scale(0.08 -0.08)">
       <defs>
        <path id="ArialMT-47" d="M 2638 1797 
L 2638 2334 
L 4578 2338 
L 4578 638 
Q 4131 281 3656 101 
Q 3181 -78 2681 -78 
Q 2006 -78 1454 211 
Q 903 500 622 1047 
Q 341 1594 341 2269 
Q 341 2938 620 3517 
Q 900 4097 1425 4378 
Q 1950 4659 2634 4659 
Q 3131 4659 3532 4498 
Q 3934 4338 4162 4050 
Q 4391 3763 4509 3300 
L 3963 3150 
Q 3859 3500 3706 3700 
Q 3553 3900 3268 4020 
Q 2984 4141 2638 4141 
Q 2222 4141 1919 4014 
Q 1616 3888 1430 3681 
Q 1244 3475 1141 3228 
Q 966 2803 966 2306 
Q 966 1694 1177 1281 
Q 1388 869 1791 669 
Q 2194 469 2647 469 
Q 3041 469 3416 620 
Q 3791 772 3984 944 
L 3984 1797 
L 2638 1797 
z
" transform="scale(0.015625)"/>
        <path id="ArialMT-65" d="M 2694 1069 
L 3275 997 
Q 3138 488 2766 206 
Q 2394 -75 1816 -75 
Q 1088 -75 661 373 
Q 234 822 234 1631 
Q 234 2469 665 2931 
Q 1097 3394 1784 3394 
Q 2450 3394 2872 2941 
Q 3294 2488 3294 1666 
Q 3294 1616 3291 1516 
L 816 1516 
Q 847 969 1125 678 
Q 1403 388 1819 388 
Q 2128 388 2347 550 
Q 2566 713 2694 1069 
z
M 847 1978 
L 2700 1978 
Q 2663 2397 2488 2606 
Q 2219 2931 1791 2931 
Q 1403 2931 1139 2672 
Q 875 2413 847 1978 
z
" transform="scale(0.015625)"/>
        <path id="ArialMT-6e" d="M 422 0 
L 422 3319 
L 928 3319 
L 928 2847 
Q 1294 3394 1984 3394 
Q 2284 3394 2536 3286 
Q 2788 3178 2913 3003 
Q 3038 2828 3088 2588 
Q 3119 2431 3119 2041 
L 3119 0 
L 2556 0 
L 2556 2019 
Q 2556 2363 2490 2533 
Q 2425 2703 2258 2804 
Q 2091 2906 1866 2906 
Q 1506 2906 1245 2678 
Q 984 2450 984 1813 
L 984 0 
L 422 0 
z
" transform="scale(0.015625)"/>
        <path id="ArialMT-72" d="M 416 0 
L 416 3319 
L 922 3319 
L 922 2816 
Q 1116 3169 1280 3281 
Q 1444 3394 1641 3394 
Q 1925 3394 2219 3213 
L 2025 2691 
Q 1819 2813 1613 2813 
Q 1428 2813 1281 2702 
Q 1134 2591 1072 2394 
Q 978 2094 978 1738 
L 978 0 
L 416 0 
z
" transform="scale(0.015625)"/>
        <path id="ArialMT-61" d="M 2588 409 
Q 2275 144 1986 34 
Q 1697 -75 1366 -75 
Q 819 -75 525 192 
Q 231 459 231 875 
Q 231 1119 342 1320 
Q 453 1522 633 1644 
Q 813 1766 1038 1828 
Q 1203 1872 1538 1913 
Q 2219 1994 2541 2106 
Q 2544 2222 2544 2253 
Q 2544 2597 2384 2738 
Q 2169 2928 1744 2928 
Q 1347 2928 1158 2789 
Q 969 2650 878 2297 
L 328 2372 
Q 403 2725 575 2942 
Q 747 3159 1072 3276 
Q 1397 3394 1825 3394 
Q 2250 3394 2515 3294 
Q 2781 3194 2906 3042 
Q 3031 2891 3081 2659 
Q 3109 2516 3109 2141 
L 3109 1391 
Q 3109 606 3145 398 
Q 3181 191 3288 0 
L 2700 0 
Q 2613 175 2588 409 
z
M 2541 1666 
Q 2234 1541 1622 1453 
Q 1275 1403 1131 1340 
Q 988 1278 909 1158 
Q 831 1038 831 891 
Q 831 666 1001 516 
Q 1172 366 1500 366 
Q 1825 366 2078 508 
Q 2331 650 2450 897 
Q 2541 1088 2541 1459 
L 2541 1666 
z
" transform="scale(0.015625)"/>
        <path id="ArialMT-6c" d="M 409 0 
L 409 4581 
L 972 4581 
L 972 0 
L 409 0 
z
" transform="scale(0.015625)"/>
        <path id="ArialMT-69" d="M 425 3934 
L 425 4581 
L 988 4581 
L 988 3934 
L 425 3934 
z
M 425 0 
L 425 3319 
L 988 3319 
L 988 0 
L 425 0 
z
" transform="scale(0.015625)"/>
        <path id="ArialMT-7a" d="M 125 0 
L 125 456 
L 2238 2881 
Q 1878 2863 1603 2863 
L 250 2863 
L 250 3319 
L 2963 3319 
L 2963 2947 
L 1166 841 
L 819 456 
Q 1197 484 1528 484 
L 3063 484 
L 3063 0 
L 125 0 
z
" transform="scale(0.015625)"/>
        <path id="ArialMT-74" d="M 1650 503 
L 1731 6 
Q 1494 -44 1306 -44 
Q 1000 -44 831 53 
Q 663 150 594 308 
Q 525 466 525 972 
L 525 2881 
L 113 2881 
L 113 3319 
L 525 3319 
L 525 4141 
L 1084 4478 
L 1084 3319 
L 1650 3319 
L 1650 2881 
L 1084 2881 
L 1084 941 
Q 1084 700 1114 631 
Q 1144 563 1211 522 
Q 1278 481 1403 481 
Q 1497 481 1650 503 
z
" transform="scale(0.015625)"/>
        <path id="ArialMT-6f" d="M 213 1659 
Q 213 2581 725 3025 
Q 1153 3394 1769 3394 
Q 2453 3394 2887 2945 
Q 3322 2497 3322 1706 
Q 3322 1066 3130 698 
Q 2938 331 2570 128 
Q 2203 -75 1769 -75 
Q 1072 -75 642 372 
Q 213 819 213 1659 
z
M 791 1659 
Q 791 1022 1069 705 
Q 1347 388 1769 388 
Q 2188 388 2466 706 
Q 2744 1025 2744 1678 
Q 2744 2294 2464 2611 
Q 2184 2928 1769 2928 
Q 1347 2928 1069 2612 
Q 791 2297 791 1659 
z
" transform="scale(0.015625)"/>
       </defs>
       <use xlink:href="#ArialMT-47"/>
       <use xlink:href="#ArialMT-65" x="77.783203"/>
       <use xlink:href="#ArialMT-6e" x="133.398438"/>
       <use xlink:href="#ArialMT-65" x="189.013672"/>
       <use xlink:href="#ArialMT-72" x="244.628906"/>
       <use xlink:href="#ArialMT-61" x="277.929688"/>
       <use xlink:href="#ArialMT-6c" x="333.544922"/>
       <use xlink:href="#ArialMT-69" x="355.761719"/>
       <use xlink:href="#ArialMT-7a" x="377.978516"/>
       <use xlink:href="#ArialMT-61" x="427.978516"/>
       <use xlink:href="#ArialMT-74" x="483.59375"/>
       <use xlink:href="#ArialMT-69" x="511.376953"/>
       <use xlink:href="#ArialMT-6f" x="533.59375"/>
       <use xlink:href="#ArialMT-6e" x="589.208984"/>
      </g>
      <!-- Model -->
      <g style="fill: #262626" transform="translate(91.34625 328.77175) scale(0.08 -0.08)">
       <defs>
        <path id="ArialMT-4d" d="M 475 0 
L 475 4581 
L 1388 4581 
L 2472 1338 
Q 2622 884 2691 659 
Q 2769 909 2934 1394 
L 4031 4581 
L 4847 4581 
L 4847 0 
L 4263 0 
L 4263 3834 
L 2931 0 
L 2384 0 
L 1059 3900 
L 1059 0 
L 475 0 
z
" transform="scale(0.015625)"/>
        <path id="ArialMT-64" d="M 2575 0 
L 2575 419 
Q 2259 -75 1647 -75 
Q 1250 -75 917 144 
Q 584 363 401 755 
Q 219 1147 219 1656 
Q 219 2153 384 2558 
Q 550 2963 881 3178 
Q 1213 3394 1622 3394 
Q 1922 3394 2156 3267 
Q 2391 3141 2538 2938 
L 2538 4581 
L 3097 4581 
L 3097 0 
L 2575 0 
z
M 797 1656 
Q 797 1019 1065 703 
Q 1334 388 1700 388 
Q 2069 388 2326 689 
Q 2584 991 2584 1609 
Q 2584 2291 2321 2609 
Q 2059 2928 1675 2928 
Q 1300 2928 1048 2622 
Q 797 2316 797 1656 
z
" transform="scale(0.015625)"/>
       </defs>
       <use xlink:href="#ArialMT-4d"/>
       <use xlink:href="#ArialMT-6f" x="83.300781"/>
       <use xlink:href="#ArialMT-64" x="138.916016"/>
       <use xlink:href="#ArialMT-65" x="194.53125"/>
       <use xlink:href="#ArialMT-6c" x="250.146484"/>
      </g>
      <!-- Drift -->
      <g style="fill: #262626" transform="translate(94.908125 337.23325) scale(0.08 -0.08)">
       <defs>
        <path id="ArialMT-44" d="M 494 0 
L 494 4581 
L 2072 4581 
Q 2606 4581 2888 4516 
Q 3281 4425 3559 4188 
Q 3922 3881 4101 3404 
Q 4281 2928 4281 2316 
Q 4281 1794 4159 1391 
Q 4038 988 3847 723 
Q 3656 459 3429 307 
Q 3203 156 2883 78 
Q 2563 0 2147 0 
L 494 0 
z
M 1100 541 
L 2078 541 
Q 2531 541 2789 625 
Q 3047 709 3200 863 
Q 3416 1078 3536 1442 
Q 3656 1806 3656 2325 
Q 3656 3044 3420 3430 
Q 3184 3816 2847 3947 
Q 2603 4041 2063 4041 
L 1100 4041 
L 1100 541 
z
" transform="scale(0.015625)"/>
        <path id="ArialMT-66" d="M 556 0 
L 556 2881 
L 59 2881 
L 59 3319 
L 556 3319 
L 556 3672 
Q 556 4006 616 4169 
Q 697 4388 901 4523 
Q 1106 4659 1475 4659 
Q 1713 4659 2000 4603 
L 1916 4113 
Q 1741 4144 1584 4144 
Q 1328 4144 1222 4034 
Q 1116 3925 1116 3625 
L 1116 3319 
L 1763 3319 
L 1763 2881 
L 1116 2881 
L 1116 0 
L 556 0 
z
" transform="scale(0.015625)"/>
       </defs>
       <use xlink:href="#ArialMT-44"/>
       <use xlink:href="#ArialMT-72" x="72.216797"/>
       <use xlink:href="#ArialMT-69" x="105.517578"/>
       <use xlink:href="#ArialMT-66" x="127.734375"/>
       <use xlink:href="#ArialMT-74" x="155.517578"/>
      </g>
     </g>
    </g>
    <g id="xtick_2">
     <g id="text_2">
      <!-- Model -->
      <g style="fill: #262626" transform="translate(180.62625 320.31025) scale(0.08 -0.08)">
       <use xlink:href="#ArialMT-4d"/>
       <use xlink:href="#ArialMT-6f" x="83.300781"/>
       <use xlink:href="#ArialMT-64" x="138.916016"/>
       <use xlink:href="#ArialMT-65" x="194.53125"/>
       <use xlink:href="#ArialMT-6c" x="250.146484"/>
      </g>
      <!-- Drift -->
      <g style="fill: #262626" transform="translate(184.188125 328.77175) scale(0.08 -0.08)">
       <use xlink:href="#ArialMT-44"/>
       <use xlink:href="#ArialMT-72" x="72.216797"/>
       <use xlink:href="#ArialMT-69" x="105.517578"/>
       <use xlink:href="#ArialMT-66" x="127.734375"/>
       <use xlink:href="#ArialMT-74" x="155.517578"/>
      </g>
     </g>
    </g>
    <g id="xtick_3">
     <g id="text_3">
      <!-- Generalization -->
      <g style="fill: #262626" transform="translate(255.00875 320.31025) scale(0.08 -0.08)">
       <use xlink:href="#ArialMT-47"/>
       <use xlink:href="#ArialMT-65" x="77.783203"/>
       <use xlink:href="#ArialMT-6e" x="133.398438"/>
       <use xlink:href="#ArialMT-65" x="189.013672"/>
       <use xlink:href="#ArialMT-72" x="244.628906"/>
       <use xlink:href="#ArialMT-61" x="277.929688"/>
       <use xlink:href="#ArialMT-6c" x="333.544922"/>
       <use xlink:href="#ArialMT-69" x="355.761719"/>
       <use xlink:href="#ArialMT-7a" x="377.978516"/>
       <use xlink:href="#ArialMT-61" x="427.978516"/>
       <use xlink:href="#ArialMT-74" x="483.59375"/>
       <use xlink:href="#ArialMT-69" x="511.376953"/>
       <use xlink:href="#ArialMT-6f" x="533.59375"/>
       <use xlink:href="#ArialMT-6e" x="589.208984"/>
      </g>
      <!-- Model -->
      <g style="fill: #262626" transform="translate(269.90625 328.77175) scale(0.08 -0.08)">
       <use xlink:href="#ArialMT-4d"/>
       <use xlink:href="#ArialMT-6f" x="83.300781"/>
       <use xlink:href="#ArialMT-64" x="138.916016"/>
       <use xlink:href="#ArialMT-65" x="194.53125"/>
       <use xlink:href="#ArialMT-6c" x="250.146484"/>
      </g>
     </g>
    </g>
    <g id="xtick_4">
     <g id="text_4">
      <!-- Model -->
      <g style="fill: #262626" transform="translate(359.18625 320.31025) scale(0.08 -0.08)">
       <use xlink:href="#ArialMT-4d"/>
       <use xlink:href="#ArialMT-6f" x="83.300781"/>
       <use xlink:href="#ArialMT-64" x="138.916016"/>
       <use xlink:href="#ArialMT-65" x="194.53125"/>
       <use xlink:href="#ArialMT-6c" x="250.146484"/>
      </g>
     </g>
    </g>
    <g id="text_5">
     <!-- Error sources present -->
     <g style="fill: #262626" transform="translate(188.089687 349.981062) scale(0.1 -0.1)">
      <defs>
       <path id="ArialMT-45" d="M 506 0 
L 506 4581 
L 3819 4581 
L 3819 4041 
L 1113 4041 
L 1113 2638 
L 3647 2638 
L 3647 2100 
L 1113 2100 
L 1113 541 
L 3925 541 
L 3925 0 
L 506 0 
z
" transform="scale(0.015625)"/>
       <path id="ArialMT-20" transform="scale(0.015625)"/>
       <path id="ArialMT-73" d="M 197 991 
L 753 1078 
Q 800 744 1014 566 
Q 1228 388 1613 388 
Q 2000 388 2187 545 
Q 2375 703 2375 916 
Q 2375 1106 2209 1216 
Q 2094 1291 1634 1406 
Q 1016 1563 777 1677 
Q 538 1791 414 1992 
Q 291 2194 291 2438 
Q 291 2659 392 2848 
Q 494 3038 669 3163 
Q 800 3259 1026 3326 
Q 1253 3394 1513 3394 
Q 1903 3394 2198 3281 
Q 2494 3169 2634 2976 
Q 2775 2784 2828 2463 
L 2278 2388 
Q 2241 2644 2061 2787 
Q 1881 2931 1553 2931 
Q 1166 2931 1000 2803 
Q 834 2675 834 2503 
Q 834 2394 903 2306 
Q 972 2216 1119 2156 
Q 1203 2125 1616 2013 
Q 2213 1853 2448 1751 
Q 2684 1650 2818 1456 
Q 2953 1263 2953 975 
Q 2953 694 2789 445 
Q 2625 197 2315 61 
Q 2006 -75 1616 -75 
Q 969 -75 630 194 
Q 291 463 197 991 
z
" transform="scale(0.015625)"/>
       <path id="ArialMT-75" d="M 2597 0 
L 2597 488 
Q 2209 -75 1544 -75 
Q 1250 -75 995 37 
Q 741 150 617 320 
Q 494 491 444 738 
Q 409 903 409 1263 
L 409 3319 
L 972 3319 
L 972 1478 
Q 972 1038 1006 884 
Q 1059 663 1231 536 
Q 1403 409 1656 409 
Q 1909 409 2131 539 
Q 2353 669 2445 892 
Q 2538 1116 2538 1541 
L 2538 3319 
L 3100 3319 
L 3100 0 
L 2597 0 
z
" transform="scale(0.015625)"/>
       <path id="ArialMT-63" d="M 2588 1216 
L 3141 1144 
Q 3050 572 2676 248 
Q 2303 -75 1759 -75 
Q 1078 -75 664 370 
Q 250 816 250 1647 
Q 250 2184 428 2587 
Q 606 2991 970 3192 
Q 1334 3394 1763 3394 
Q 2303 3394 2647 3120 
Q 2991 2847 3088 2344 
L 2541 2259 
Q 2463 2594 2264 2762 
Q 2066 2931 1784 2931 
Q 1359 2931 1093 2626 
Q 828 2322 828 1663 
Q 828 994 1084 691 
Q 1341 388 1753 388 
Q 2084 388 2306 591 
Q 2528 794 2588 1216 
z
" transform="scale(0.015625)"/>
       <path id="ArialMT-70" d="M 422 -1272 
L 422 3319 
L 934 3319 
L 934 2888 
Q 1116 3141 1344 3267 
Q 1572 3394 1897 3394 
Q 2322 3394 2647 3175 
Q 2972 2956 3137 2557 
Q 3303 2159 3303 1684 
Q 3303 1175 3120 767 
Q 2938 359 2589 142 
Q 2241 -75 1856 -75 
Q 1575 -75 1351 44 
Q 1128 163 984 344 
L 984 -1272 
L 422 -1272 
z
M 931 1641 
Q 931 1000 1190 694 
Q 1450 388 1819 388 
Q 2194 388 2461 705 
Q 2728 1022 2728 1688 
Q 2728 2322 2467 2637 
Q 2206 2953 1844 2953 
Q 1484 2953 1207 2617 
Q 931 2281 931 1641 
z
" transform="scale(0.015625)"/>
      </defs>
      <use xlink:href="#ArialMT-45"/>
      <use xlink:href="#ArialMT-72" x="66.699219"/>
      <use xlink:href="#ArialMT-72" x="100"/>
      <use xlink:href="#ArialMT-6f" x="133.300781"/>
      <use xlink:href="#ArialMT-72" x="188.916016"/>
      <use xlink:href="#ArialMT-20" x="222.216797"/>
      <use xlink:href="#ArialMT-73" x="250"/>
      <use xlink:href="#ArialMT-6f" x="300"/>
      <use xlink:href="#ArialMT-75" x="355.615234"/>
      <use xlink:href="#ArialMT-72" x="411.230469"/>
      <use xlink:href="#ArialMT-63" x="444.53125"/>
      <use xlink:href="#ArialMT-65" x="494.53125"/>
      <use xlink:href="#ArialMT-73" x="550.146484"/>
      <use xlink:href="#ArialMT-20" x="600.146484"/>
      <use xlink:href="#ArialMT-70" x="627.929688"/>
      <use xlink:href="#ArialMT-72" x="683.544922"/>
      <use xlink:href="#ArialMT-65" x="716.845703"/>
      <use xlink:href="#ArialMT-73" x="772.460938"/>
      <use xlink:href="#ArialMT-65" x="822.460938"/>
      <use xlink:href="#ArialMT-6e" x="878.076172"/>
      <use xlink:href="#ArialMT-74" x="933.691406"/>
     </g>
    </g>
   </g>
   <g id="matplotlib.axis_2">
    <g id="ytick_1">
     <g id="line2d_1">
      <path d="M 57.6 269.808687 
L 414.72 269.808687 
" clip-path="url(#pea3c74ea26)" style="fill: none; stroke: #cccccc; stroke-width: 0.8; stroke-linecap: round"/>
     </g>
     <g id="text_6">
      <!-- 0.2 -->
      <g style="fill: #262626" transform="translate(36.7 273.387594) scale(0.1 -0.1)">
       <defs>
        <path id="ArialMT-30" d="M 266 2259 
Q 266 3072 433 3567 
Q 600 4063 929 4331 
Q 1259 4600 1759 4600 
Q 2128 4600 2406 4451 
Q 2684 4303 2865 4023 
Q 3047 3744 3150 3342 
Q 3253 2941 3253 2259 
Q 3253 1453 3087 958 
Q 2922 463 2592 192 
Q 2263 -78 1759 -78 
Q 1097 -78 719 397 
Q 266 969 266 2259 
z
M 844 2259 
Q 844 1131 1108 757 
Q 1372 384 1759 384 
Q 2147 384 2411 759 
Q 2675 1134 2675 2259 
Q 2675 3391 2411 3762 
Q 2147 4134 1753 4134 
Q 1366 4134 1134 3806 
Q 844 3388 844 2259 
z
" transform="scale(0.015625)"/>
        <path id="ArialMT-2e" d="M 581 0 
L 581 641 
L 1222 641 
L 1222 0 
L 581 0 
z
" transform="scale(0.015625)"/>
        <path id="ArialMT-32" d="M 3222 541 
L 3222 0 
L 194 0 
Q 188 203 259 391 
Q 375 700 629 1000 
Q 884 1300 1366 1694 
Q 2113 2306 2375 2664 
Q 2638 3022 2638 3341 
Q 2638 3675 2398 3904 
Q 2159 4134 1775 4134 
Q 1369 4134 1125 3890 
Q 881 3647 878 3216 
L 300 3275 
Q 359 3922 746 4261 
Q 1134 4600 1788 4600 
Q 2447 4600 2831 4234 
Q 3216 3869 3216 3328 
Q 3216 3053 3103 2787 
Q 2991 2522 2730 2228 
Q 2469 1934 1863 1422 
Q 1356 997 1212 845 
Q 1069 694 975 541 
L 3222 541 
z
" transform="scale(0.015625)"/>
       </defs>
       <use xlink:href="#ArialMT-30"/>
       <use xlink:href="#ArialMT-2e" x="55.615234"/>
       <use xlink:href="#ArialMT-32" x="83.398438"/>
      </g>
     </g>
    </g>
    <g id="ytick_2">
     <g id="line2d_2">
      <path d="M 57.6 222.80297 
L 414.72 222.80297 
" clip-path="url(#pea3c74ea26)" style="fill: none; stroke: #cccccc; stroke-width: 0.8; stroke-linecap: round"/>
     </g>
     <g id="text_7">
      <!-- 0.3 -->
      <g style="fill: #262626" transform="translate(36.7 226.381876) scale(0.1 -0.1)">
       <defs>
        <path id="ArialMT-33" d="M 269 1209 
L 831 1284 
Q 928 806 1161 595 
Q 1394 384 1728 384 
Q 2125 384 2398 659 
Q 2672 934 2672 1341 
Q 2672 1728 2419 1979 
Q 2166 2231 1775 2231 
Q 1616 2231 1378 2169 
L 1441 2663 
Q 1497 2656 1531 2656 
Q 1891 2656 2178 2843 
Q 2466 3031 2466 3422 
Q 2466 3731 2256 3934 
Q 2047 4138 1716 4138 
Q 1388 4138 1169 3931 
Q 950 3725 888 3313 
L 325 3413 
Q 428 3978 793 4289 
Q 1159 4600 1703 4600 
Q 2078 4600 2393 4439 
Q 2709 4278 2876 4000 
Q 3044 3722 3044 3409 
Q 3044 3113 2884 2869 
Q 2725 2625 2413 2481 
Q 2819 2388 3044 2092 
Q 3269 1797 3269 1353 
Q 3269 753 2831 336 
Q 2394 -81 1725 -81 
Q 1122 -81 723 278 
Q 325 638 269 1209 
z
" transform="scale(0.015625)"/>
       </defs>
       <use xlink:href="#ArialMT-30"/>
       <use xlink:href="#ArialMT-2e" x="55.615234"/>
       <use xlink:href="#ArialMT-33" x="83.398438"/>
      </g>
     </g>
    </g>
    <g id="ytick_3">
     <g id="line2d_3">
      <path d="M 57.6 175.797252 
L 414.72 175.797252 
" clip-path="url(#pea3c74ea26)" style="fill: none; stroke: #cccccc; stroke-width: 0.8; stroke-linecap: round"/>
     </g>
     <g id="text_8">
      <!-- 0.4 -->
      <g style="fill: #262626" transform="translate(36.7 179.376159) scale(0.1 -0.1)">
       <defs>
        <path id="ArialMT-34" d="M 2069 0 
L 2069 1097 
L 81 1097 
L 81 1613 
L 2172 4581 
L 2631 4581 
L 2631 1613 
L 3250 1613 
L 3250 1097 
L 2631 1097 
L 2631 0 
L 2069 0 
z
M 2069 1613 
L 2069 3678 
L 634 1613 
L 2069 1613 
z
" transform="scale(0.015625)"/>
       </defs>
       <use xlink:href="#ArialMT-30"/>
       <use xlink:href="#ArialMT-2e" x="55.615234"/>
       <use xlink:href="#ArialMT-34" x="83.398438"/>
      </g>
     </g>
    </g>
    <g id="ytick_4">
     <g id="line2d_4">
      <path d="M 57.6 128.791535 
L 414.72 128.791535 
" clip-path="url(#pea3c74ea26)" style="fill: none; stroke: #cccccc; stroke-width: 0.8; stroke-linecap: round"/>
     </g>
     <g id="text_9">
      <!-- 0.5 -->
      <g style="fill: #262626" transform="translate(36.7 132.370441) scale(0.1 -0.1)">
       <defs>
        <path id="ArialMT-35" d="M 266 1200 
L 856 1250 
Q 922 819 1161 601 
Q 1400 384 1738 384 
Q 2144 384 2425 690 
Q 2706 997 2706 1503 
Q 2706 1984 2436 2262 
Q 2166 2541 1728 2541 
Q 1456 2541 1237 2417 
Q 1019 2294 894 2097 
L 366 2166 
L 809 4519 
L 3088 4519 
L 3088 3981 
L 1259 3981 
L 1013 2750 
Q 1425 3038 1878 3038 
Q 2478 3038 2890 2622 
Q 3303 2206 3303 1553 
Q 3303 931 2941 478 
Q 2500 -78 1738 -78 
Q 1113 -78 717 272 
Q 322 622 266 1200 
z
" transform="scale(0.015625)"/>
       </defs>
       <use xlink:href="#ArialMT-30"/>
       <use xlink:href="#ArialMT-2e" x="55.615234"/>
       <use xlink:href="#ArialMT-35" x="83.398438"/>
      </g>
     </g>
    </g>
    <g id="ytick_5">
     <g id="line2d_5">
      <path d="M 57.6 81.785817 
L 414.72 81.785817 
" clip-path="url(#pea3c74ea26)" style="fill: none; stroke: #cccccc; stroke-width: 0.8; stroke-linecap: round"/>
     </g>
     <g id="text_10">
      <!-- 0.6 -->
      <g style="fill: #262626" transform="translate(36.7 85.364723) scale(0.1 -0.1)">
       <defs>
        <path id="ArialMT-36" d="M 3184 3459 
L 2625 3416 
Q 2550 3747 2413 3897 
Q 2184 4138 1850 4138 
Q 1581 4138 1378 3988 
Q 1113 3794 959 3422 
Q 806 3050 800 2363 
Q 1003 2672 1297 2822 
Q 1591 2972 1913 2972 
Q 2475 2972 2870 2558 
Q 3266 2144 3266 1488 
Q 3266 1056 3080 686 
Q 2894 316 2569 119 
Q 2244 -78 1831 -78 
Q 1128 -78 684 439 
Q 241 956 241 2144 
Q 241 3472 731 4075 
Q 1159 4600 1884 4600 
Q 2425 4600 2770 4297 
Q 3116 3994 3184 3459 
z
M 888 1484 
Q 888 1194 1011 928 
Q 1134 663 1356 523 
Q 1578 384 1822 384 
Q 2178 384 2434 671 
Q 2691 959 2691 1453 
Q 2691 1928 2437 2201 
Q 2184 2475 1800 2475 
Q 1419 2475 1153 2201 
Q 888 1928 888 1484 
z
" transform="scale(0.015625)"/>
       </defs>
       <use xlink:href="#ArialMT-30"/>
       <use xlink:href="#ArialMT-2e" x="55.615234"/>
       <use xlink:href="#ArialMT-36" x="83.398438"/>
      </g>
     </g>
    </g>
    <g id="text_11">
     <!-- MAPE -->
     <g style="fill: #262626" transform="translate(30.7125 188.698312) rotate(-90) scale(0.1 -0.1)">
      <defs>
       <path id="ArialMT-41" d="M -9 0 
L 1750 4581 
L 2403 4581 
L 4278 0 
L 3588 0 
L 3053 1388 
L 1138 1388 
L 634 0 
L -9 0 
z
M 1313 1881 
L 2866 1881 
L 2388 3150 
Q 2169 3728 2063 4100 
Q 1975 3659 1816 3225 
L 1313 1881 
z
" transform="scale(0.015625)"/>
       <path id="ArialMT-50" d="M 494 0 
L 494 4581 
L 2222 4581 
Q 2678 4581 2919 4538 
Q 3256 4481 3484 4323 
Q 3713 4166 3852 3881 
Q 3991 3597 3991 3256 
Q 3991 2672 3619 2267 
Q 3247 1863 2275 1863 
L 1100 1863 
L 1100 0 
L 494 0 
z
M 1100 2403 
L 2284 2403 
Q 2872 2403 3119 2622 
Q 3366 2841 3366 3238 
Q 3366 3525 3220 3729 
Q 3075 3934 2838 4000 
Q 2684 4041 2272 4041 
L 1100 4041 
L 1100 2403 
z
" transform="scale(0.015625)"/>
      </defs>
      <use xlink:href="#ArialMT-4d"/>
      <use xlink:href="#ArialMT-41" x="83.300781"/>
      <use xlink:href="#ArialMT-50" x="150"/>
      <use xlink:href="#ArialMT-45" x="216.699219"/>
     </g>
    </g>
   </g>
   <g id="PathCollection_1">
    <defs>
     <path id="C0_0_b80b338241" d="M 0 1.691974 
C 0.448717 1.691974 0.879116 1.513697 1.196406 1.196406 
C 1.513697 0.879116 1.691974 0.448717 1.691974 -0 
C 1.691974 -0.448717 1.513697 -0.879116 1.196406 -1.196406 
C 0.879116 -1.513697 0.448717 -1.691974 0 -1.691974 
C -0.448717 -1.691974 -0.879116 -1.513697 -1.196406 -1.196406 
C -1.513697 -0.879116 -1.691974 -0.448717 -1.691974 0 
C -1.691974 0.448717 -1.513697 0.879116 -1.196406 1.196406 
C -0.879116 1.513697 -0.448717 1.691974 0 1.691974 
z
"/>
    </defs>
    <g clip-path="url(#pea3c74ea26)">
     <use xlink:href="#C0_0_b80b338241" x="102.24" y="87.631044" style="fill: #4878d0; stroke: #4878d0; stroke-width: 2.025"/>
    </g>
    <g clip-path="url(#pea3c74ea26)">
     <use xlink:href="#C0_0_b80b338241" x="191.52" y="121.009873" style="fill: #4878d0; stroke: #4878d0; stroke-width: 2.025"/>
    </g>
    <g clip-path="url(#pea3c74ea26)">
     <use xlink:href="#C0_0_b80b338241" x="280.8" y="286.761395" style="fill: #4878d0; stroke: #4878d0; stroke-width: 2.025"/>
    </g>
    <g clip-path="url(#pea3c74ea26)">
     <use xlink:href="#C0_0_b80b338241" x="370.08" y="292.171508" style="fill: #4878d0; stroke: #4878d0; stroke-width: 2.025"/>
    </g>
   </g>
   <g id="line2d_6"/>
   <g id="line2d_7">
    <path d="M 102.24 121.694088 
L 102.24 53.568 
" clip-path="url(#pea3c74ea26)" style="fill: none; stroke: #4878d0; stroke-linecap: round"/>
   </g>
   <g id="line2d_8">
    <path d="M 191.52 147.953328 
L 191.52 94.066418 
" clip-path="url(#pea3c74ea26)" style="fill: none; stroke: #4878d0; stroke-linecap: round"/>
   </g>
   <g id="line2d_9">
    <path d="M 280.8 292.804621 
L 280.8 280.718169 
" clip-path="url(#pea3c74ea26)" style="fill: none; stroke: #4878d0; stroke-linecap: round"/>
   </g>
   <g id="line2d_10">
    <path d="M 370.08 295.488 
L 370.08 288.855015 
" clip-path="url(#pea3c74ea26)" style="fill: none; stroke: #4878d0; stroke-linecap: round"/>
   </g>
   <g id="line2d_11">
    <path d="M 93.312 293.47346 
L 379.008 293.47346 
" clip-path="url(#pea3c74ea26)" style="fill: none; stroke-dasharray: 5.55,2.4; stroke-dashoffset: 0; stroke: #ee854a; stroke-width: 1.5"/>
   </g>
   <g id="patch_3">
    <path d="M 57.6 307.584 
L 57.6 41.472 
" style="fill: none; stroke: #cccccc; stroke-width: 0.8; stroke-linejoin: miter; stroke-linecap: square"/>
   </g>
   <g id="patch_4">
    <path d="M 414.72 307.584 
L 414.72 41.472 
" style="fill: none; stroke: #cccccc; stroke-width: 0.8; stroke-linejoin: miter; stroke-linecap: square"/>
   </g>
   <g id="patch_5">
    <path d="M 57.6 307.584 
L 414.72 307.584 
" style="fill: none; stroke: #cccccc; stroke-width: 0.8; stroke-linejoin: miter; stroke-linecap: square"/>
   </g>
   <g id="patch_6">
    <path d="M 57.6 41.472 
L 414.72 41.472 
" style="fill: none; stroke: #cccccc; stroke-width: 0.8; stroke-linejoin: miter; stroke-linecap: square"/>
   </g>
   <g id="text_12">
    <!-- Sources for Error -->
    <g style="fill: #262626" transform="translate(190.483125 35.472) scale(0.12 -0.12)">
     <defs>
      <path id="ArialMT-53" d="M 288 1472 
L 859 1522 
Q 900 1178 1048 958 
Q 1197 738 1509 602 
Q 1822 466 2213 466 
Q 2559 466 2825 569 
Q 3091 672 3220 851 
Q 3350 1031 3350 1244 
Q 3350 1459 3225 1620 
Q 3100 1781 2813 1891 
Q 2628 1963 1997 2114 
Q 1366 2266 1113 2400 
Q 784 2572 623 2826 
Q 463 3081 463 3397 
Q 463 3744 659 4045 
Q 856 4347 1234 4503 
Q 1613 4659 2075 4659 
Q 2584 4659 2973 4495 
Q 3363 4331 3572 4012 
Q 3781 3694 3797 3291 
L 3216 3247 
Q 3169 3681 2898 3903 
Q 2628 4125 2100 4125 
Q 1550 4125 1298 3923 
Q 1047 3722 1047 3438 
Q 1047 3191 1225 3031 
Q 1400 2872 2139 2705 
Q 2878 2538 3153 2413 
Q 3553 2228 3743 1945 
Q 3934 1663 3934 1294 
Q 3934 928 3725 604 
Q 3516 281 3123 101 
Q 2731 -78 2241 -78 
Q 1619 -78 1198 103 
Q 778 284 539 648 
Q 300 1013 288 1472 
z
" transform="scale(0.015625)"/>
     </defs>
     <use xlink:href="#ArialMT-53"/>
     <use xlink:href="#ArialMT-6f" x="66.699219"/>
     <use xlink:href="#ArialMT-75" x="122.314453"/>
     <use xlink:href="#ArialMT-72" x="177.929688"/>
     <use xlink:href="#ArialMT-63" x="211.230469"/>
     <use xlink:href="#ArialMT-65" x="261.230469"/>
     <use xlink:href="#ArialMT-73" x="316.845703"/>
     <use xlink:href="#ArialMT-20" x="366.845703"/>
     <use xlink:href="#ArialMT-66" x="394.628906"/>
     <use xlink:href="#ArialMT-6f" x="422.412109"/>
     <use xlink:href="#ArialMT-72" x="478.027344"/>
     <use xlink:href="#ArialMT-20" x="511.328125"/>
     <use xlink:href="#ArialMT-45" x="539.111328"/>
     <use xlink:href="#ArialMT-72" x="605.810547"/>
     <use xlink:href="#ArialMT-72" x="639.111328"/>
     <use xlink:href="#ArialMT-6f" x="672.412109"/>
     <use xlink:href="#ArialMT-72" x="728.027344"/>
    </g>
   </g>
   <g id="legend_1">
    <g id="patch_7">
     <path d="M 271.621563 78.001688 
L 407.72 78.001688 
Q 409.72 78.001688 409.72 76.001688 
L 409.72 48.472 
Q 409.72 46.472 407.72 46.472 
L 271.621563 46.472 
Q 269.621563 46.472 269.621563 48.472 
L 269.621563 76.001688 
Q 269.621563 78.001688 271.621563 78.001688 
z
" style="fill: #ffffff; opacity: 0.8; stroke: #cccccc; stroke-linejoin: miter"/>
    </g>
    <g id="PathCollection_2">
     <path d="M 283.621563 56.696787 
C 284.070279 56.696787 284.500678 56.51851 284.817969 56.201219 
C 285.13526 55.883928 285.313537 55.453529 285.313537 55.004813 
C 285.313537 54.556096 285.13526 54.125697 284.817969 53.808406 
C 284.500678 53.491115 284.070279 53.312838 283.621563 53.312838 
C 283.172846 53.312838 282.742447 53.491115 282.425156 53.808406 
C 282.107865 54.125697 281.929588 54.556096 281.929588 55.004813 
C 281.929588 55.453529 282.107865 55.883928 282.425156 56.201219 
C 282.742447 56.51851 283.172846 56.696787 283.621563 56.696787 
z
" style="fill: #4878d0; stroke: #4878d0; stroke-width: 2.025"/>
    </g>
    <g id="text_13">
     <!-- Validation Error -->
     <g style="fill: #262626" transform="translate(301.621563 57.629813) scale(0.1 -0.1)">
      <defs>
       <path id="ArialMT-56" d="M 1803 0 
L 28 4581 
L 684 4581 
L 1875 1253 
Q 2019 853 2116 503 
Q 2222 878 2363 1253 
L 3600 4581 
L 4219 4581 
L 2425 0 
L 1803 0 
z
" transform="scale(0.015625)"/>
      </defs>
      <use xlink:href="#ArialMT-56"/>
      <use xlink:href="#ArialMT-61" x="59.324219"/>
      <use xlink:href="#ArialMT-6c" x="114.939453"/>
      <use xlink:href="#ArialMT-69" x="137.15625"/>
      <use xlink:href="#ArialMT-64" x="159.373047"/>
      <use xlink:href="#ArialMT-61" x="214.988281"/>
      <use xlink:href="#ArialMT-74" x="270.603516"/>
      <use xlink:href="#ArialMT-69" x="298.386719"/>
      <use xlink:href="#ArialMT-6f" x="320.603516"/>
      <use xlink:href="#ArialMT-6e" x="376.21875"/>
      <use xlink:href="#ArialMT-20" x="431.833984"/>
      <use xlink:href="#ArialMT-45" x="459.617188"/>
      <use xlink:href="#ArialMT-72" x="526.316406"/>
      <use xlink:href="#ArialMT-72" x="559.617188"/>
      <use xlink:href="#ArialMT-6f" x="592.917969"/>
      <use xlink:href="#ArialMT-72" x="648.533203"/>
     </g>
    </g>
    <g id="line2d_12">
     <path d="M 273.621563 68.397 
L 283.621563 68.397 
L 293.621563 68.397 
" style="fill: none; stroke-dasharray: 5.55,2.4; stroke-dashoffset: 0; stroke: #ee854a; stroke-width: 1.5"/>
    </g>
    <g id="text_14">
     <!-- Training Error (1.5e-01) -->
     <g style="fill: #262626" transform="translate(301.621563 71.897) scale(0.1 -0.1)">
      <defs>
       <path id="ArialMT-54" d="M 1659 0 
L 1659 4041 
L 150 4041 
L 150 4581 
L 3781 4581 
L 3781 4041 
L 2266 4041 
L 2266 0 
L 1659 0 
z
" transform="scale(0.015625)"/>
       <path id="ArialMT-67" d="M 319 -275 
L 866 -356 
Q 900 -609 1056 -725 
Q 1266 -881 1628 -881 
Q 2019 -881 2231 -725 
Q 2444 -569 2519 -288 
Q 2563 -116 2559 434 
Q 2191 0 1641 0 
Q 956 0 581 494 
Q 206 988 206 1678 
Q 206 2153 378 2554 
Q 550 2956 876 3175 
Q 1203 3394 1644 3394 
Q 2231 3394 2613 2919 
L 2613 3319 
L 3131 3319 
L 3131 450 
Q 3131 -325 2973 -648 
Q 2816 -972 2473 -1159 
Q 2131 -1347 1631 -1347 
Q 1038 -1347 672 -1080 
Q 306 -813 319 -275 
z
M 784 1719 
Q 784 1066 1043 766 
Q 1303 466 1694 466 
Q 2081 466 2343 764 
Q 2606 1063 2606 1700 
Q 2606 2309 2336 2618 
Q 2066 2928 1684 2928 
Q 1309 2928 1046 2623 
Q 784 2319 784 1719 
z
" transform="scale(0.015625)"/>
       <path id="ArialMT-28" d="M 1497 -1347 
Q 1031 -759 709 28 
Q 388 816 388 1659 
Q 388 2403 628 3084 
Q 909 3875 1497 4659 
L 1900 4659 
Q 1522 4009 1400 3731 
Q 1209 3300 1100 2831 
Q 966 2247 966 1656 
Q 966 153 1900 -1347 
L 1497 -1347 
z
" transform="scale(0.015625)"/>
       <path id="ArialMT-31" d="M 2384 0 
L 1822 0 
L 1822 3584 
Q 1619 3391 1289 3197 
Q 959 3003 697 2906 
L 697 3450 
Q 1169 3672 1522 3987 
Q 1875 4303 2022 4600 
L 2384 4600 
L 2384 0 
z
" transform="scale(0.015625)"/>
       <path id="ArialMT-2d" d="M 203 1375 
L 203 1941 
L 1931 1941 
L 1931 1375 
L 203 1375 
z
" transform="scale(0.015625)"/>
       <path id="ArialMT-29" d="M 791 -1347 
L 388 -1347 
Q 1322 153 1322 1656 
Q 1322 2244 1188 2822 
Q 1081 3291 891 3722 
Q 769 4003 388 4659 
L 791 4659 
Q 1378 3875 1659 3084 
Q 1900 2403 1900 1659 
Q 1900 816 1576 28 
Q 1253 -759 791 -1347 
z
" transform="scale(0.015625)"/>
      </defs>
      <use xlink:href="#ArialMT-54"/>
      <use xlink:href="#ArialMT-72" x="57.333984"/>
      <use xlink:href="#ArialMT-61" x="90.634766"/>
      <use xlink:href="#ArialMT-69" x="146.25"/>
      <use xlink:href="#ArialMT-6e" x="168.466797"/>
      <use xlink:href="#ArialMT-69" x="224.082031"/>
      <use xlink:href="#ArialMT-6e" x="246.298828"/>
      <use xlink:href="#ArialMT-67" x="301.914062"/>
      <use xlink:href="#ArialMT-20" x="357.529297"/>
      <use xlink:href="#ArialMT-45" x="385.3125"/>
      <use xlink:href="#ArialMT-72" x="452.011719"/>
      <use xlink:href="#ArialMT-72" x="485.3125"/>
      <use xlink:href="#ArialMT-6f" x="518.613281"/>
      <use xlink:href="#ArialMT-72" x="574.228516"/>
      <use xlink:href="#ArialMT-20" x="607.529297"/>
      <use xlink:href="#ArialMT-28" x="635.3125"/>
      <use xlink:href="#ArialMT-31" x="668.613281"/>
      <use xlink:href="#ArialMT-2e" x="724.228516"/>
      <use xlink:href="#ArialMT-35" x="752.011719"/>
      <use xlink:href="#ArialMT-65" x="807.626953"/>
      <use xlink:href="#ArialMT-2d" x="863.242188"/>
      <use xlink:href="#ArialMT-30" x="896.542969"/>
      <use xlink:href="#ArialMT-31" x="952.158203"/>
      <use xlink:href="#ArialMT-29" x="1007.773438"/>
     </g>
    </g>
   </g>
  </g>
 </g>
 <defs>
  <clipPath id="pea3c74ea26">
   <rect x="57.6" y="41.472" width="357.12" height="266.112"/>
  </clipPath>
 </defs>
</svg>
