<?xml version="1.0" encoding="utf-8" standalone="no"?>
<!DOCTYPE svg PUBLIC "-//W3C//DTD SVG 1.1//EN"
  "http://www.w3.org/Graphics/SVG/1.1/DTD/svg11.dtd">
<svg xmlns:xlink="http://www.w3.org/1999/xlink" width="460.8pt" height="345.6pt" viewBox="0 0 460.8 345.6" xmlns="http://www.w3.org/2000/svg" version="1.1">
 <metadata>
  <rdf:RDF xmlns:dc="http://purl.org/dc/elements/1.1/" xmlns:cc="http://creativecommons.org/ns#" xmlns:rdf="http://www.w3.org/1999/02/22-rdf-syntax-ns#">
   <cc:Work>
    <dc:type rdf:resource="http://purl.org/dc/dcmitype/StillImage"/>
    <dc:date>2023-07-27T15:01:45.155790</dc:date>
    <dc:format>image/svg+xml</dc:format>
    <dc:creator>
     <cc:Agent>
      <dc:title>Matplotlib v3.7.1, https://matplotlib.org/</dc:title>
     </cc:Agent>
    </dc:creator>
   </cc:Work>
  </rdf:RDF>
 </metadata>
 <defs>
  <style type="text/css">*{stroke-linejoin: round; stroke-linecap: butt}</style>
 </defs>
 <g id="figure_1">
  <g id="patch_1">
   <path d="M 0 345.6 
L 460.8 345.6 
L 460.8 0 
L 0 0 
z
" style="fill: #ffffff"/>
  </g>
  <g id="axes_1">
   <g id="patch_2">
    <path d="M 57.6 307.584 
L 414.72 307.584 
L 414.72 41.472 
L 57.6 41.472 
z
" style="fill: #ffffff"/>
   </g>
   <g id="matplotlib.axis_1">
    <g id="xtick_1">
     <g id="line2d_1">
      <path d="M 73.832727 307.584 
L 73.832727 41.472 
" clip-path="url(#pd581d0a48a)" style="fill: none; stroke: #cccccc; stroke-width: 0.8; stroke-linecap: round"/>
     </g>
     <g id="text_1">
      <!-- 0 -->
      <g style="fill: #262626" transform="translate(71.052259 321.741812) scale(0.1 -0.1)">
       <defs>
        <path id="ArialMT-30" d="M 266 2259 
Q 266 3072 433 3567 
Q 600 4063 929 4331 
Q 1259 4600 1759 4600 
Q 2128 4600 2406 4451 
Q 2684 4303 2865 4023 
Q 3047 3744 3150 3342 
Q 3253 2941 3253 2259 
Q 3253 1453 3087 958 
Q 2922 463 2592 192 
Q 2263 -78 1759 -78 
Q 1097 -78 719 397 
Q 266 969 266 2259 
z
M 844 2259 
Q 844 1131 1108 757 
Q 1372 384 1759 384 
Q 2147 384 2411 759 
Q 2675 1134 2675 2259 
Q 2675 3391 2411 3762 
Q 2147 4134 1753 4134 
Q 1366 4134 1134 3806 
Q 844 3388 844 2259 
z
" transform="scale(0.015625)"/>
       </defs>
       <use xlink:href="#ArialMT-30"/>
      </g>
     </g>
    </g>
    <g id="xtick_2">
     <g id="line2d_2">
      <path d="M 118.184441 307.584 
L 118.184441 41.472 
" clip-path="url(#pd581d0a48a)" style="fill: none; stroke: #cccccc; stroke-width: 0.8; stroke-linecap: round"/>
     </g>
     <g id="text_2">
      <!-- 25 -->
      <g style="fill: #262626" transform="translate(112.623504 321.741812) scale(0.1 -0.1)">
       <defs>
        <path id="ArialMT-32" d="M 3222 541 
L 3222 0 
L 194 0 
Q 188 203 259 391 
Q 375 700 629 1000 
Q 884 1300 1366 1694 
Q 2113 2306 2375 2664 
Q 2638 3022 2638 3341 
Q 2638 3675 2398 3904 
Q 2159 4134 1775 4134 
Q 1369 4134 1125 3890 
Q 881 3647 878 3216 
L 300 3275 
Q 359 3922 746 4261 
Q 1134 4600 1788 4600 
Q 2447 4600 2831 4234 
Q 3216 3869 3216 3328 
Q 3216 3053 3103 2787 
Q 2991 2522 2730 2228 
Q 2469 1934 1863 1422 
Q 1356 997 1212 845 
Q 1069 694 975 541 
L 3222 541 
z
" transform="scale(0.015625)"/>
        <path id="ArialMT-35" d="M 266 1200 
L 856 1250 
Q 922 819 1161 601 
Q 1400 384 1738 384 
Q 2144 384 2425 690 
Q 2706 997 2706 1503 
Q 2706 1984 2436 2262 
Q 2166 2541 1728 2541 
Q 1456 2541 1237 2417 
Q 1019 2294 894 2097 
L 366 2166 
L 809 4519 
L 3088 4519 
L 3088 3981 
L 1259 3981 
L 1013 2750 
Q 1425 3038 1878 3038 
Q 2478 3038 2890 2622 
Q 3303 2206 3303 1553 
Q 3303 931 2941 478 
Q 2500 -78 1738 -78 
Q 1113 -78 717 272 
Q 322 622 266 1200 
z
" transform="scale(0.015625)"/>
       </defs>
       <use xlink:href="#ArialMT-32"/>
       <use xlink:href="#ArialMT-35" x="55.615234"/>
      </g>
     </g>
    </g>
    <g id="xtick_3">
     <g id="line2d_3">
      <path d="M 162.536155 307.584 
L 162.536155 41.472 
" clip-path="url(#pd581d0a48a)" style="fill: none; stroke: #cccccc; stroke-width: 0.8; stroke-linecap: round"/>
     </g>
     <g id="text_3">
      <!-- 50 -->
      <g style="fill: #262626" transform="translate(156.975217 321.741812) scale(0.1 -0.1)">
       <use xlink:href="#ArialMT-35"/>
       <use xlink:href="#ArialMT-30" x="55.615234"/>
      </g>
     </g>
    </g>
    <g id="xtick_4">
     <g id="line2d_4">
      <path d="M 206.887869 307.584 
L 206.887869 41.472 
" clip-path="url(#pd581d0a48a)" style="fill: none; stroke: #cccccc; stroke-width: 0.8; stroke-linecap: round"/>
     </g>
     <g id="text_4">
      <!-- 75 -->
      <g style="fill: #262626" transform="translate(201.326931 321.741812) scale(0.1 -0.1)">
       <defs>
        <path id="ArialMT-37" d="M 303 3981 
L 303 4522 
L 3269 4522 
L 3269 4084 
Q 2831 3619 2401 2847 
Q 1972 2075 1738 1259 
Q 1569 684 1522 0 
L 944 0 
Q 953 541 1156 1306 
Q 1359 2072 1739 2783 
Q 2119 3494 2547 3981 
L 303 3981 
z
" transform="scale(0.015625)"/>
       </defs>
       <use xlink:href="#ArialMT-37"/>
       <use xlink:href="#ArialMT-35" x="55.615234"/>
      </g>
     </g>
    </g>
    <g id="xtick_5">
     <g id="line2d_5">
      <path d="M 251.239583 307.584 
L 251.239583 41.472 
" clip-path="url(#pd581d0a48a)" style="fill: none; stroke: #cccccc; stroke-width: 0.8; stroke-linecap: round"/>
     </g>
     <g id="text_5">
      <!-- 100 -->
      <g style="fill: #262626" transform="translate(242.898176 321.741812) scale(0.1 -0.1)">
       <defs>
        <path id="ArialMT-31" d="M 2384 0 
L 1822 0 
L 1822 3584 
Q 1619 3391 1289 3197 
Q 959 3003 697 2906 
L 697 3450 
Q 1169 3672 1522 3987 
Q 1875 4303 2022 4600 
L 2384 4600 
L 2384 0 
z
" transform="scale(0.015625)"/>
       </defs>
       <use xlink:href="#ArialMT-31"/>
       <use xlink:href="#ArialMT-30" x="55.615234"/>
       <use xlink:href="#ArialMT-30" x="111.230469"/>
      </g>
     </g>
    </g>
    <g id="xtick_6">
     <g id="line2d_6">
      <path d="M 295.591297 307.584 
L 295.591297 41.472 
" clip-path="url(#pd581d0a48a)" style="fill: none; stroke: #cccccc; stroke-width: 0.8; stroke-linecap: round"/>
     </g>
     <g id="text_6">
      <!-- 125 -->
      <g style="fill: #262626" transform="translate(287.24989 321.741812) scale(0.1 -0.1)">
       <use xlink:href="#ArialMT-31"/>
       <use xlink:href="#ArialMT-32" x="55.615234"/>
       <use xlink:href="#ArialMT-35" x="111.230469"/>
      </g>
     </g>
    </g>
    <g id="xtick_7">
     <g id="line2d_7">
      <path d="M 339.94301 307.584 
L 339.94301 41.472 
" clip-path="url(#pd581d0a48a)" style="fill: none; stroke: #cccccc; stroke-width: 0.8; stroke-linecap: round"/>
     </g>
     <g id="text_7">
      <!-- 150 -->
      <g style="fill: #262626" transform="translate(331.601604 321.741812) scale(0.1 -0.1)">
       <use xlink:href="#ArialMT-31"/>
       <use xlink:href="#ArialMT-35" x="55.615234"/>
       <use xlink:href="#ArialMT-30" x="111.230469"/>
      </g>
     </g>
    </g>
    <g id="xtick_8">
     <g id="line2d_8">
      <path d="M 384.294724 307.584 
L 384.294724 41.472 
" clip-path="url(#pd581d0a48a)" style="fill: none; stroke: #cccccc; stroke-width: 0.8; stroke-linecap: round"/>
     </g>
     <g id="text_8">
      <!-- 175 -->
      <g style="fill: #262626" transform="translate(375.953318 321.741812) scale(0.1 -0.1)">
       <use xlink:href="#ArialMT-31"/>
       <use xlink:href="#ArialMT-37" x="55.615234"/>
       <use xlink:href="#ArialMT-35" x="111.230469"/>
      </g>
     </g>
    </g>
    <g id="text_9">
     <!-- Timesteps -->
     <g style="fill: #262626" transform="translate(213.287344 334.887125) scale(0.1 -0.1)">
      <defs>
       <path id="ArialMT-54" d="M 1659 0 
L 1659 4041 
L 150 4041 
L 150 4581 
L 3781 4581 
L 3781 4041 
L 2266 4041 
L 2266 0 
L 1659 0 
z
" transform="scale(0.015625)"/>
       <path id="ArialMT-69" d="M 425 3934 
L 425 4581 
L 988 4581 
L 988 3934 
L 425 3934 
z
M 425 0 
L 425 3319 
L 988 3319 
L 988 0 
L 425 0 
z
" transform="scale(0.015625)"/>
       <path id="ArialMT-6d" d="M 422 0 
L 422 3319 
L 925 3319 
L 925 2853 
Q 1081 3097 1340 3245 
Q 1600 3394 1931 3394 
Q 2300 3394 2536 3241 
Q 2772 3088 2869 2813 
Q 3263 3394 3894 3394 
Q 4388 3394 4653 3120 
Q 4919 2847 4919 2278 
L 4919 0 
L 4359 0 
L 4359 2091 
Q 4359 2428 4304 2576 
Q 4250 2725 4106 2815 
Q 3963 2906 3769 2906 
Q 3419 2906 3187 2673 
Q 2956 2441 2956 1928 
L 2956 0 
L 2394 0 
L 2394 2156 
Q 2394 2531 2256 2718 
Q 2119 2906 1806 2906 
Q 1569 2906 1367 2781 
Q 1166 2656 1075 2415 
Q 984 2175 984 1722 
L 984 0 
L 422 0 
z
" transform="scale(0.015625)"/>
       <path id="ArialMT-65" d="M 2694 1069 
L 3275 997 
Q 3138 488 2766 206 
Q 2394 -75 1816 -75 
Q 1088 -75 661 373 
Q 234 822 234 1631 
Q 234 2469 665 2931 
Q 1097 3394 1784 3394 
Q 2450 3394 2872 2941 
Q 3294 2488 3294 1666 
Q 3294 1616 3291 1516 
L 816 1516 
Q 847 969 1125 678 
Q 1403 388 1819 388 
Q 2128 388 2347 550 
Q 2566 713 2694 1069 
z
M 847 1978 
L 2700 1978 
Q 2663 2397 2488 2606 
Q 2219 2931 1791 2931 
Q 1403 2931 1139 2672 
Q 875 2413 847 1978 
z
" transform="scale(0.015625)"/>
       <path id="ArialMT-73" d="M 197 991 
L 753 1078 
Q 800 744 1014 566 
Q 1228 388 1613 388 
Q 2000 388 2187 545 
Q 2375 703 2375 916 
Q 2375 1106 2209 1216 
Q 2094 1291 1634 1406 
Q 1016 1563 777 1677 
Q 538 1791 414 1992 
Q 291 2194 291 2438 
Q 291 2659 392 2848 
Q 494 3038 669 3163 
Q 800 3259 1026 3326 
Q 1253 3394 1513 3394 
Q 1903 3394 2198 3281 
Q 2494 3169 2634 2976 
Q 2775 2784 2828 2463 
L 2278 2388 
Q 2241 2644 2061 2787 
Q 1881 2931 1553 2931 
Q 1166 2931 1000 2803 
Q 834 2675 834 2503 
Q 834 2394 903 2306 
Q 972 2216 1119 2156 
Q 1203 2125 1616 2013 
Q 2213 1853 2448 1751 
Q 2684 1650 2818 1456 
Q 2953 1263 2953 975 
Q 2953 694 2789 445 
Q 2625 197 2315 61 
Q 2006 -75 1616 -75 
Q 969 -75 630 194 
Q 291 463 197 991 
z
" transform="scale(0.015625)"/>
       <path id="ArialMT-74" d="M 1650 503 
L 1731 6 
Q 1494 -44 1306 -44 
Q 1000 -44 831 53 
Q 663 150 594 308 
Q 525 466 525 972 
L 525 2881 
L 113 2881 
L 113 3319 
L 525 3319 
L 525 4141 
L 1084 4478 
L 1084 3319 
L 1650 3319 
L 1650 2881 
L 1084 2881 
L 1084 941 
Q 1084 700 1114 631 
Q 1144 563 1211 522 
Q 1278 481 1403 481 
Q 1497 481 1650 503 
z
" transform="scale(0.015625)"/>
       <path id="ArialMT-70" d="M 422 -1272 
L 422 3319 
L 934 3319 
L 934 2888 
Q 1116 3141 1344 3267 
Q 1572 3394 1897 3394 
Q 2322 3394 2647 3175 
Q 2972 2956 3137 2557 
Q 3303 2159 3303 1684 
Q 3303 1175 3120 767 
Q 2938 359 2589 142 
Q 2241 -75 1856 -75 
Q 1575 -75 1351 44 
Q 1128 163 984 344 
L 984 -1272 
L 422 -1272 
z
M 931 1641 
Q 931 1000 1190 694 
Q 1450 388 1819 388 
Q 2194 388 2461 705 
Q 2728 1022 2728 1688 
Q 2728 2322 2467 2637 
Q 2206 2953 1844 2953 
Q 1484 2953 1207 2617 
Q 931 2281 931 1641 
z
" transform="scale(0.015625)"/>
      </defs>
      <use xlink:href="#ArialMT-54"/>
      <use xlink:href="#ArialMT-69" x="57.333984"/>
      <use xlink:href="#ArialMT-6d" x="79.550781"/>
      <use xlink:href="#ArialMT-65" x="162.851562"/>
      <use xlink:href="#ArialMT-73" x="218.466797"/>
      <use xlink:href="#ArialMT-74" x="268.466797"/>
      <use xlink:href="#ArialMT-65" x="296.25"/>
      <use xlink:href="#ArialMT-70" x="351.865234"/>
      <use xlink:href="#ArialMT-73" x="407.480469"/>
     </g>
    </g>
   </g>
   <g id="matplotlib.axis_2">
    <g id="ytick_1">
     <g id="line2d_9">
      <path d="M 57.6 302.201812 
L 414.72 302.201812 
" clip-path="url(#pd581d0a48a)" style="fill: none; stroke: #cccccc; stroke-width: 0.8; stroke-linecap: round"/>
     </g>
     <g id="text_10">
      <!-- 310 -->
      <g style="fill: #262626" transform="translate(33.917187 305.780718) scale(0.1 -0.1)">
       <defs>
        <path id="ArialMT-33" d="M 269 1209 
L 831 1284 
Q 928 806 1161 595 
Q 1394 384 1728 384 
Q 2125 384 2398 659 
Q 2672 934 2672 1341 
Q 2672 1728 2419 1979 
Q 2166 2231 1775 2231 
Q 1616 2231 1378 2169 
L 1441 2663 
Q 1497 2656 1531 2656 
Q 1891 2656 2178 2843 
Q 2466 3031 2466 3422 
Q 2466 3731 2256 3934 
Q 2047 4138 1716 4138 
Q 1388 4138 1169 3931 
Q 950 3725 888 3313 
L 325 3413 
Q 428 3978 793 4289 
Q 1159 4600 1703 4600 
Q 2078 4600 2393 4439 
Q 2709 4278 2876 4000 
Q 3044 3722 3044 3409 
Q 3044 3113 2884 2869 
Q 2725 2625 2413 2481 
Q 2819 2388 3044 2092 
Q 3269 1797 3269 1353 
Q 3269 753 2831 336 
Q 2394 -81 1725 -81 
Q 1122 -81 723 278 
Q 325 638 269 1209 
z
" transform="scale(0.015625)"/>
       </defs>
       <use xlink:href="#ArialMT-33"/>
       <use xlink:href="#ArialMT-31" x="55.615234"/>
       <use xlink:href="#ArialMT-30" x="111.230469"/>
      </g>
     </g>
    </g>
    <g id="ytick_2">
     <g id="line2d_10">
      <path d="M 57.6 264.417667 
L 414.72 264.417667 
" clip-path="url(#pd581d0a48a)" style="fill: none; stroke: #cccccc; stroke-width: 0.8; stroke-linecap: round"/>
     </g>
     <g id="text_11">
      <!-- 320 -->
      <g style="fill: #262626" transform="translate(33.917187 267.996573) scale(0.1 -0.1)">
       <use xlink:href="#ArialMT-33"/>
       <use xlink:href="#ArialMT-32" x="55.615234"/>
       <use xlink:href="#ArialMT-30" x="111.230469"/>
      </g>
     </g>
    </g>
    <g id="ytick_3">
     <g id="line2d_11">
      <path d="M 57.6 226.633522 
L 414.72 226.633522 
" clip-path="url(#pd581d0a48a)" style="fill: none; stroke: #cccccc; stroke-width: 0.8; stroke-linecap: round"/>
     </g>
     <g id="text_12">
      <!-- 330 -->
      <g style="fill: #262626" transform="translate(33.917187 230.212428) scale(0.1 -0.1)">
       <use xlink:href="#ArialMT-33"/>
       <use xlink:href="#ArialMT-33" x="55.615234"/>
       <use xlink:href="#ArialMT-30" x="111.230469"/>
      </g>
     </g>
    </g>
    <g id="ytick_4">
     <g id="line2d_12">
      <path d="M 57.6 188.849376 
L 414.72 188.849376 
" clip-path="url(#pd581d0a48a)" style="fill: none; stroke: #cccccc; stroke-width: 0.8; stroke-linecap: round"/>
     </g>
     <g id="text_13">
      <!-- 340 -->
      <g style="fill: #262626" transform="translate(33.917187 192.428283) scale(0.1 -0.1)">
       <defs>
        <path id="ArialMT-34" d="M 2069 0 
L 2069 1097 
L 81 1097 
L 81 1613 
L 2172 4581 
L 2631 4581 
L 2631 1613 
L 3250 1613 
L 3250 1097 
L 2631 1097 
L 2631 0 
L 2069 0 
z
M 2069 1613 
L 2069 3678 
L 634 1613 
L 2069 1613 
z
" transform="scale(0.015625)"/>
       </defs>
       <use xlink:href="#ArialMT-33"/>
       <use xlink:href="#ArialMT-34" x="55.615234"/>
       <use xlink:href="#ArialMT-30" x="111.230469"/>
      </g>
     </g>
    </g>
    <g id="ytick_5">
     <g id="line2d_13">
      <path d="M 57.6 151.065231 
L 414.72 151.065231 
" clip-path="url(#pd581d0a48a)" style="fill: none; stroke: #cccccc; stroke-width: 0.8; stroke-linecap: round"/>
     </g>
     <g id="text_14">
      <!-- 350 -->
      <g style="fill: #262626" transform="translate(33.917187 154.644137) scale(0.1 -0.1)">
       <use xlink:href="#ArialMT-33"/>
       <use xlink:href="#ArialMT-35" x="55.615234"/>
       <use xlink:href="#ArialMT-30" x="111.230469"/>
      </g>
     </g>
    </g>
    <g id="ytick_6">
     <g id="line2d_14">
      <path d="M 57.6 113.281086 
L 414.72 113.281086 
" clip-path="url(#pd581d0a48a)" style="fill: none; stroke: #cccccc; stroke-width: 0.8; stroke-linecap: round"/>
     </g>
     <g id="text_15">
      <!-- 360 -->
      <g style="fill: #262626" transform="translate(33.917187 116.859992) scale(0.1 -0.1)">
       <defs>
        <path id="ArialMT-36" d="M 3184 3459 
L 2625 3416 
Q 2550 3747 2413 3897 
Q 2184 4138 1850 4138 
Q 1581 4138 1378 3988 
Q 1113 3794 959 3422 
Q 806 3050 800 2363 
Q 1003 2672 1297 2822 
Q 1591 2972 1913 2972 
Q 2475 2972 2870 2558 
Q 3266 2144 3266 1488 
Q 3266 1056 3080 686 
Q 2894 316 2569 119 
Q 2244 -78 1831 -78 
Q 1128 -78 684 439 
Q 241 956 241 2144 
Q 241 3472 731 4075 
Q 1159 4600 1884 4600 
Q 2425 4600 2770 4297 
Q 3116 3994 3184 3459 
z
M 888 1484 
Q 888 1194 1011 928 
Q 1134 663 1356 523 
Q 1578 384 1822 384 
Q 2178 384 2434 671 
Q 2691 959 2691 1453 
Q 2691 1928 2437 2201 
Q 2184 2475 1800 2475 
Q 1419 2475 1153 2201 
Q 888 1928 888 1484 
z
" transform="scale(0.015625)"/>
       </defs>
       <use xlink:href="#ArialMT-33"/>
       <use xlink:href="#ArialMT-36" x="55.615234"/>
       <use xlink:href="#ArialMT-30" x="111.230469"/>
      </g>
     </g>
    </g>
    <g id="ytick_7">
     <g id="line2d_15">
      <path d="M 57.6 75.496941 
L 414.72 75.496941 
" clip-path="url(#pd581d0a48a)" style="fill: none; stroke: #cccccc; stroke-width: 0.8; stroke-linecap: round"/>
     </g>
     <g id="text_16">
      <!-- 370 -->
      <g style="fill: #262626" transform="translate(33.917187 79.075847) scale(0.1 -0.1)">
       <use xlink:href="#ArialMT-33"/>
       <use xlink:href="#ArialMT-37" x="55.615234"/>
       <use xlink:href="#ArialMT-30" x="111.230469"/>
      </g>
     </g>
    </g>
   </g>
   <g id="line2d_16">
    <path d="M 73.832727 94.389014 
L 75.606796 94.389014 
L 77.380864 94.389014 
L 79.154933 94.389014 
L 80.929001 94.389014 
L 82.70307 94.389014 
L 84.477139 94.389014 
L 86.251207 94.389014 
L 88.025276 94.389014 
L 89.799344 94.389014 
L 91.573413 94.389014 
L 93.347481 94.389014 
L 95.12155 94.389014 
L 96.895618 94.389014 
L 98.669687 94.389014 
L 100.443756 94.389014 
L 102.217824 94.389014 
L 103.991893 94.389014 
L 105.765961 94.389014 
L 107.54003 94.389014 
L 109.314098 94.389014 
L 111.088167 94.389014 
L 112.862235 94.389014 
L 114.636304 94.389014 
L 116.410373 94.389014 
L 118.184441 94.389014 
L 119.95851 143.508402 
L 121.732578 143.508402 
L 123.506647 143.508402 
L 125.280715 143.508402 
L 127.054784 143.508402 
L 128.828852 143.508402 
L 130.602921 143.508402 
L 132.37699 143.508402 
L 134.151058 143.508402 
L 135.925127 143.508402 
L 137.699195 143.508402 
L 139.473264 143.508402 
L 141.247332 143.508402 
L 143.021401 143.508402 
L 144.795469 143.508402 
L 146.569538 143.508402 
L 148.343607 143.508402 
L 150.117675 143.508402 
L 151.891744 143.508402 
L 153.665812 143.508402 
L 155.439881 143.508402 
L 157.213949 143.508402 
L 158.988018 143.508402 
L 160.762086 143.508402 
L 162.536155 143.508402 
L 164.310224 143.508402 
L 166.084292 143.508402 
L 167.858361 143.508402 
L 169.632429 143.508402 
L 171.406498 143.508402 
L 173.180566 143.508402 
" clip-path="url(#pd581d0a48a)" style="fill: none; stroke-dasharray: 5.55,2.4; stroke-dashoffset: 0; stroke: #4878d0; stroke-width: 1.5"/>
   </g>
   <g id="line2d_17">
    <path d="M 73.832727 295.488 
L 75.606796 281.527192 
L 77.380864 262.486833 
L 79.154933 245.259117 
L 80.929001 227.717648 
L 82.70307 210.419248 
L 84.477139 192.845031 
L 86.251207 172.437004 
L 88.025276 155.481299 
L 89.799344 139.38637 
L 91.573413 125.346691 
L 93.347481 112.28494 
L 95.12155 100.185319 
L 96.895618 89.373805 
L 98.669687 80.004218 
L 100.443756 72.450041 
L 102.217824 66.27391 
L 103.991893 61.523795 
L 105.765961 58.602235 
L 107.54003 55.94865 
L 109.314098 54.281296 
L 111.088167 53.628883 
L 112.862235 53.568 
L 114.636304 53.788584 
L 116.410373 54.958154 
L 118.184441 56.149747 
L 119.95851 57.856883 
L 121.732578 63.339205 
L 123.506647 70.439068 
L 125.280715 78.679097 
L 127.054784 87.894633 
L 128.828852 94.695272 
L 130.602921 100.33718 
L 132.37699 105.007502 
L 134.151058 108.707853 
L 135.925127 111.620765 
L 137.699195 114.099197 
L 139.473264 116.09345 
L 141.247332 117.615401 
L 143.021401 118.769058 
L 144.795469 119.799335 
L 146.569538 120.38487 
L 148.343607 120.934774 
L 150.117675 121.263632 
L 151.891744 121.728439 
L 153.665812 122.049342 
L 155.439881 122.050033 
L 157.213949 121.96632 
L 158.988018 121.773179 
L 160.762086 121.258213 
L 162.536155 120.814738 
L 164.310224 120.117009 
L 166.084292 119.125129 
L 167.858361 120.425343 
L 169.632429 122.700602 
L 171.406498 125.426715 
L 173.180566 128.344239 
" clip-path="url(#pd581d0a48a)" style="fill: none; stroke: #ee854a; stroke-width: 1.5; stroke-linecap: round"/>
   </g>
   <g id="line2d_18">
    <path d="M 75.606796 272.901584 
L 77.380864 256.884286 
L 79.154933 240.272413 
L 80.929001 221.307542 
L 82.70307 204.207488 
L 84.477139 192.442163 
L 86.251207 176.446867 
L 88.025276 162.397052 
L 89.799344 150.522466 
L 91.573413 141.443321 
L 93.347481 125.6907 
L 95.12155 113.269641 
L 96.895618 101.365393 
L 98.669687 90.832063 
L 100.443756 80.884132 
L 102.217824 73.093977 
L 103.991893 67.064306 
L 105.765961 62.409852 
L 107.54003 59.902784 
L 109.314098 59.134043 
L 111.088167 61.041687 
L 112.862235 62.016365 
L 114.636304 64.80068 
L 116.410373 65.231204 
L 118.184441 64.425024 
L 119.95851 65.886502 
L 121.732578 75.69439 
L 123.506647 82.247847 
L 125.280715 86.871048 
L 127.054784 90.972519 
L 128.828852 94.604068 
L 130.602921 99.689108 
L 132.37699 103.638009 
L 134.151058 107.260967 
L 135.925127 108.489443 
L 137.699195 110.495068 
L 139.473264 113.70051 
L 141.247332 117.331822 
L 143.021401 116.268642 
L 144.795469 119.307319 
L 146.569538 122.113193 
L 148.343607 124.097642 
L 150.117675 126.810456 
L 151.891744 128.010747 
L 153.665812 129.85624 
L 155.439881 130.268309 
L 157.213949 131.695679 
L 158.988018 133.725184 
L 160.762086 133.934689 
L 162.536155 134.923908 
L 164.310224 134.206056 
L 166.084292 135.678085 
L 167.858361 133.45627 
L 169.632429 132.767574 
L 171.406498 136.45489 
L 173.180566 137.061608 
" clip-path="url(#pd581d0a48a)" style="fill: none; stroke: #6acc64; stroke-width: 1.5; stroke-linecap: round"/>
   </g>
   <g id="line2d_19">
    <path d="M 183.824978 143.508402 
L 185.599046 143.508402 
L 187.373115 143.508402 
L 189.147183 143.508402 
L 190.921252 143.508402 
L 192.69532 143.508402 
L 194.469389 143.508402 
L 196.243458 143.508402 
L 198.017526 143.508402 
L 199.791595 143.508402 
L 201.565663 143.508402 
L 203.339732 94.389014 
L 205.1138 94.389014 
L 206.887869 94.389014 
L 208.661937 94.389014 
L 210.436006 94.389014 
L 212.210075 94.389014 
L 213.984143 94.389014 
L 215.758212 94.389014 
L 217.53228 94.389014 
L 219.306349 94.389014 
L 221.080417 94.389014 
L 222.854486 94.389014 
L 224.628554 94.389014 
L 226.402623 94.389014 
L 228.176692 94.389014 
L 229.95076 94.389014 
L 231.724829 94.389014 
L 233.498897 94.389014 
L 235.272966 94.389014 
L 237.047034 94.389014 
L 238.821103 94.389014 
L 240.595171 94.389014 
L 242.36924 94.389014 
L 244.143308 94.389014 
L 245.917377 94.389014 
L 247.691446 94.389014 
L 249.465514 94.389014 
L 251.239583 94.389014 
L 253.013651 94.389014 
L 254.78772 94.389014 
L 256.561788 94.389014 
L 258.335857 94.389014 
L 260.109925 94.389014 
L 261.883994 94.389014 
L 263.658063 94.389014 
L 265.432131 94.389014 
L 267.2062 94.389014 
L 268.980268 94.389014 
L 270.754337 94.389014 
L 272.528405 94.389014 
L 274.302474 94.389014 
L 276.076542 94.389014 
L 277.850611 94.389014 
L 279.62468 94.389014 
L 281.398748 94.389014 
L 283.172817 94.389014 
L 284.946885 94.389014 
L 286.720954 94.389014 
L 288.495022 94.389014 
" clip-path="url(#pd581d0a48a)" style="fill: none; stroke-dasharray: 5.55,2.4; stroke-dashoffset: 0; stroke: #4878d0; stroke-width: 1.5"/>
   </g>
   <g id="line2d_20">
    <path d="M 183.824978 290.206199 
L 185.599046 275.680958 
L 187.373115 259.822871 
L 189.147183 242.779302 
L 190.921252 225.624807 
L 192.69532 209.733511 
L 194.469389 197.887337 
L 196.243458 185.005582 
L 198.017526 174.331515 
L 199.791595 165.693673 
L 201.565663 159.141408 
L 203.339732 154.452175 
L 205.1138 149.259392 
L 206.887869 144.181571 
L 208.661937 138.676649 
L 210.436006 132.488411 
L 212.210075 125.807347 
L 213.984143 119.051909 
L 215.758212 110.417872 
L 217.53228 103.654016 
L 219.306349 97.169552 
L 221.080417 91.603863 
L 222.854486 87.094972 
L 224.628554 83.511082 
L 226.402623 80.832706 
L 228.176692 78.720378 
L 229.95076 77.127743 
L 231.724829 75.863159 
L 233.498897 75.243724 
L 235.272966 74.634091 
L 237.047034 74.39229 
L 238.821103 74.522357 
L 240.595171 74.86021 
L 242.36924 75.340929 
L 244.143308 76.526065 
L 245.917377 77.500303 
L 247.691446 78.49645 
L 249.465514 79.710874 
L 251.239583 80.982607 
L 253.013651 82.07884 
L 254.78772 83.315865 
L 256.561788 84.294139 
L 258.335857 85.34252 
L 260.109925 86.055815 
L 261.883994 86.742129 
L 263.658063 87.398462 
L 265.432131 87.81507 
L 267.2062 88.172756 
L 268.980268 88.320927 
L 270.754337 88.420668 
L 272.528405 88.355865 
L 274.302474 88.224991 
L 276.076542 88.113834 
L 277.850611 87.798466 
L 279.62468 87.458307 
L 281.398748 87.011373 
L 283.172817 86.630165 
L 284.946885 87.172228 
L 286.720954 90.008806 
L 288.495022 93.639281 
" clip-path="url(#pd581d0a48a)" style="fill: none; stroke: #ee854a; stroke-width: 1.5; stroke-linecap: round"/>
   </g>
   <g id="line2d_21">
    <path d="M 185.599046 280.324707 
L 187.373115 259.878765 
L 189.147183 243.334705 
L 190.921252 227.09489 
L 192.69532 215.630763 
L 194.469389 200.906304 
L 196.243458 187.514109 
L 198.017526 176.131207 
L 199.791595 169.042903 
L 201.565663 163.445476 
L 203.339732 154.279432 
L 205.1138 143.23929 
L 206.887869 129.591653 
L 208.661937 118.809381 
L 210.436006 110.513007 
L 212.210075 102.119509 
L 213.984143 91.699379 
L 215.758212 85.792419 
L 217.53228 76.791082 
L 219.306349 70.795981 
L 221.080417 68.902283 
L 222.854486 67.016541 
L 224.628554 68.272844 
L 226.402623 68.51764 
L 228.176692 67.799578 
L 229.95076 67.374755 
L 231.724829 67.972609 
L 233.498897 68.958604 
L 235.272966 68.90273 
L 237.047034 69.155309 
L 238.821103 70.035734 
L 240.595171 71.2234 
L 242.36924 72.323826 
L 244.143308 73.130125 
L 245.917377 73.670238 
L 247.691446 74.366184 
L 249.465514 75.234433 
L 251.239583 76.685941 
L 253.013651 76.703756 
L 254.78772 76.564961 
L 256.561788 78.85138 
L 258.335857 79.459349 
L 260.109925 80.504273 
L 261.883994 79.540097 
L 263.658063 79.214046 
L 265.432131 78.54565 
L 267.2062 77.48079 
L 268.980268 77.550699 
L 270.754337 79.519064 
L 272.528405 80.675195 
L 274.302474 83.344403 
L 276.076542 85.410565 
L 277.850611 82.665887 
L 279.62468 83.42009 
L 281.398748 86.001226 
L 283.172817 84.829457 
L 284.946885 87.965928 
L 286.720954 88.753864 
L 288.495022 89.480637 
" clip-path="url(#pd581d0a48a)" style="fill: none; stroke: #6acc64; stroke-width: 1.5; stroke-linecap: round"/>
   </g>
   <g id="line2d_22">
    <path d="M 299.139434 94.389014 
L 300.913502 94.389014 
L 302.687571 94.389014 
L 304.461639 94.389014 
L 306.235708 94.389014 
L 308.009776 94.389014 
L 309.783845 143.508402 
L 311.557914 143.508402 
L 313.331982 143.508402 
L 315.106051 143.508402 
L 316.880119 143.508402 
L 318.654188 143.508402 
L 320.428256 143.508402 
L 322.202325 143.508402 
L 323.976393 143.508402 
L 325.750462 143.508402 
L 327.524531 143.508402 
L 329.298599 143.508402 
L 331.072668 143.508402 
L 332.846736 143.508402 
L 334.620805 143.508402 
L 336.394873 143.508402 
L 338.168942 143.508402 
L 339.94301 143.508402 
L 341.717079 143.508402 
L 343.491148 143.508402 
L 345.265216 143.508402 
L 347.039285 143.508402 
L 348.813353 143.508402 
L 350.587422 143.508402 
L 352.36149 143.508402 
L 354.135559 143.508402 
L 355.909627 143.508402 
L 357.683696 143.508402 
L 359.457765 143.508402 
L 361.231833 143.508402 
L 363.005902 143.508402 
L 364.77997 143.508402 
L 366.554039 143.508402 
L 368.328107 143.508402 
L 370.102176 143.508402 
L 371.876244 143.508402 
L 373.650313 143.508402 
L 375.424382 143.508402 
L 377.19845 143.508402 
L 378.972519 143.508402 
L 380.746587 143.508402 
L 382.520656 143.508402 
L 384.294724 143.508402 
L 386.068793 143.508402 
L 387.842861 143.508402 
L 389.61693 143.508402 
L 391.390999 143.508402 
L 393.165067 143.508402 
L 394.939136 143.508402 
L 396.713204 143.508402 
L 398.487273 143.508402 
" clip-path="url(#pd581d0a48a)" style="fill: none; stroke-dasharray: 5.55,2.4; stroke-dashoffset: 0; stroke: #4878d0; stroke-width: 1.5"/>
   </g>
   <g id="line2d_23">
    <path d="M 299.139434 287.101991 
L 300.913502 272.565565 
L 302.687571 256.331574 
L 304.461639 239.433869 
L 306.235708 221.947171 
L 308.009776 204.397169 
L 309.783845 183.773746 
L 311.557914 167.742582 
L 313.331982 153.407023 
L 315.106051 141.075979 
L 316.880119 131.6123 
L 318.654188 123.609921 
L 320.428256 117.136411 
L 322.202325 112.083497 
L 323.976393 107.957428 
L 325.750462 104.753133 
L 327.524531 102.460808 
L 329.298599 101.132921 
L 331.072668 100.342369 
L 332.846736 100.305931 
L 334.620805 100.600774 
L 336.394873 100.995704 
L 338.168942 101.438833 
L 339.94301 102.372482 
L 341.717079 103.108724 
L 343.491148 103.851308 
L 345.265216 104.499916 
L 347.039285 105.086949 
L 348.813353 105.761502 
L 350.587422 106.916542 
L 352.36149 107.877174 
L 354.135559 109.085256 
L 355.909627 110.409915 
L 357.683696 112.095835 
L 359.457765 113.61375 
L 361.231833 115.1598 
L 363.005902 116.456094 
L 364.77997 117.810733 
L 366.554039 119.115674 
L 368.328107 120.295737 
L 370.102176 121.617513 
L 371.876244 122.532021 
L 373.650313 123.295937 
L 375.424382 124.112549 
L 377.19845 124.739248 
L 378.972519 125.360874 
L 380.746587 125.68512 
L 382.520656 125.799967 
L 384.294724 125.793971 
L 386.068793 125.787744 
L 387.842861 125.4605 
L 389.61693 125.051963 
L 391.390999 124.104938 
L 393.165067 125.38751 
L 394.939136 128.214979 
L 396.713204 131.707891 
L 398.487273 135.209335 
" clip-path="url(#pd581d0a48a)" style="fill: none; stroke: #ee854a; stroke-width: 1.5; stroke-linecap: round"/>
   </g>
   <g id="line2d_24">
    <path d="M 300.913502 273.478263 
L 302.687571 255.410729 
L 304.461639 239.862062 
L 306.235708 222.758425 
L 308.009776 209.303703 
L 309.783845 193.752731 
L 311.557914 183.22308 
L 313.331982 172.614784 
L 315.106051 162.282541 
L 316.880119 158.086949 
L 318.654188 152.935834 
L 320.428256 147.931615 
L 322.202325 144.794734 
L 323.976393 140.984198 
L 325.750462 135.662463 
L 327.524531 133.039722 
L 329.298599 132.901728 
L 331.072668 132.471675 
L 332.846736 133.688503 
L 334.620805 132.30633 
L 336.394873 131.294719 
L 338.168942 132.41894 
L 339.94301 130.987567 
L 341.717079 132.641871 
L 343.491148 131.438783 
L 345.265216 130.412629 
L 347.039285 132.424285 
L 348.813353 129.210102 
L 350.587422 131.073502 
L 352.36149 129.643977 
L 354.135559 128.231095 
L 355.909627 128.432144 
L 357.683696 128.972683 
L 359.457765 128.802224 
L 361.231833 127.098648 
L 363.005902 130.379385 
L 364.77997 130.279069 
L 366.554039 130.810513 
L 368.328107 132.533979 
L 370.102176 133.306068 
L 371.876244 135.623466 
L 373.650313 134.797243 
L 375.424382 134.993699 
L 377.19845 134.817055 
L 378.972519 134.974391 
L 380.746587 136.819887 
L 382.520656 137.528924 
L 384.294724 135.990367 
L 386.068793 134.47102 
L 387.842861 135.497635 
L 389.61693 137.131439 
L 391.390999 138.383947 
L 393.165067 140.128708 
L 394.939136 140.984126 
L 396.713204 141.160846 
L 398.487273 140.424381 
" clip-path="url(#pd581d0a48a)" style="fill: none; stroke: #6acc64; stroke-width: 1.5; stroke-linecap: round"/>
   </g>
   <g id="patch_3">
    <path d="M 57.6 307.584 
L 57.6 41.472 
" style="fill: none; stroke: #cccccc; stroke-width: 0.8; stroke-linejoin: miter; stroke-linecap: square"/>
   </g>
   <g id="patch_4">
    <path d="M 414.72 307.584 
L 414.72 41.472 
" style="fill: none; stroke: #cccccc; stroke-width: 0.8; stroke-linejoin: miter; stroke-linecap: square"/>
   </g>
   <g id="patch_5">
    <path d="M 57.6 307.584 
L 414.72 307.584 
" style="fill: none; stroke: #cccccc; stroke-width: 0.8; stroke-linejoin: miter; stroke-linecap: square"/>
   </g>
   <g id="patch_6">
    <path d="M 57.6 41.472 
L 414.72 41.472 
" style="fill: none; stroke: #cccccc; stroke-width: 0.8; stroke-linejoin: miter; stroke-linecap: square"/>
   </g>
   <g id="text_17">
    <!-- Validation (randomly selected episodes) -->
    <g style="fill: #262626" transform="translate(130.217812 35.472) scale(0.12 -0.12)">
     <defs>
      <path id="ArialMT-56" d="M 1803 0 
L 28 4581 
L 684 4581 
L 1875 1253 
Q 2019 853 2116 503 
Q 2222 878 2363 1253 
L 3600 4581 
L 4219 4581 
L 2425 0 
L 1803 0 
z
" transform="scale(0.015625)"/>
      <path id="ArialMT-61" d="M 2588 409 
Q 2275 144 1986 34 
Q 1697 -75 1366 -75 
Q 819 -75 525 192 
Q 231 459 231 875 
Q 231 1119 342 1320 
Q 453 1522 633 1644 
Q 813 1766 1038 1828 
Q 1203 1872 1538 1913 
Q 2219 1994 2541 2106 
Q 2544 2222 2544 2253 
Q 2544 2597 2384 2738 
Q 2169 2928 1744 2928 
Q 1347 2928 1158 2789 
Q 969 2650 878 2297 
L 328 2372 
Q 403 2725 575 2942 
Q 747 3159 1072 3276 
Q 1397 3394 1825 3394 
Q 2250 3394 2515 3294 
Q 2781 3194 2906 3042 
Q 3031 2891 3081 2659 
Q 3109 2516 3109 2141 
L 3109 1391 
Q 3109 606 3145 398 
Q 3181 191 3288 0 
L 2700 0 
Q 2613 175 2588 409 
z
M 2541 1666 
Q 2234 1541 1622 1453 
Q 1275 1403 1131 1340 
Q 988 1278 909 1158 
Q 831 1038 831 891 
Q 831 666 1001 516 
Q 1172 366 1500 366 
Q 1825 366 2078 508 
Q 2331 650 2450 897 
Q 2541 1088 2541 1459 
L 2541 1666 
z
" transform="scale(0.015625)"/>
      <path id="ArialMT-6c" d="M 409 0 
L 409 4581 
L 972 4581 
L 972 0 
L 409 0 
z
" transform="scale(0.015625)"/>
      <path id="ArialMT-64" d="M 2575 0 
L 2575 419 
Q 2259 -75 1647 -75 
Q 1250 -75 917 144 
Q 584 363 401 755 
Q 219 1147 219 1656 
Q 219 2153 384 2558 
Q 550 2963 881 3178 
Q 1213 3394 1622 3394 
Q 1922 3394 2156 3267 
Q 2391 3141 2538 2938 
L 2538 4581 
L 3097 4581 
L 3097 0 
L 2575 0 
z
M 797 1656 
Q 797 1019 1065 703 
Q 1334 388 1700 388 
Q 2069 388 2326 689 
Q 2584 991 2584 1609 
Q 2584 2291 2321 2609 
Q 2059 2928 1675 2928 
Q 1300 2928 1048 2622 
Q 797 2316 797 1656 
z
" transform="scale(0.015625)"/>
      <path id="ArialMT-6f" d="M 213 1659 
Q 213 2581 725 3025 
Q 1153 3394 1769 3394 
Q 2453 3394 2887 2945 
Q 3322 2497 3322 1706 
Q 3322 1066 3130 698 
Q 2938 331 2570 128 
Q 2203 -75 1769 -75 
Q 1072 -75 642 372 
Q 213 819 213 1659 
z
M 791 1659 
Q 791 1022 1069 705 
Q 1347 388 1769 388 
Q 2188 388 2466 706 
Q 2744 1025 2744 1678 
Q 2744 2294 2464 2611 
Q 2184 2928 1769 2928 
Q 1347 2928 1069 2612 
Q 791 2297 791 1659 
z
" transform="scale(0.015625)"/>
      <path id="ArialMT-6e" d="M 422 0 
L 422 3319 
L 928 3319 
L 928 2847 
Q 1294 3394 1984 3394 
Q 2284 3394 2536 3286 
Q 2788 3178 2913 3003 
Q 3038 2828 3088 2588 
Q 3119 2431 3119 2041 
L 3119 0 
L 2556 0 
L 2556 2019 
Q 2556 2363 2490 2533 
Q 2425 2703 2258 2804 
Q 2091 2906 1866 2906 
Q 1506 2906 1245 2678 
Q 984 2450 984 1813 
L 984 0 
L 422 0 
z
" transform="scale(0.015625)"/>
      <path id="ArialMT-20" transform="scale(0.015625)"/>
      <path id="ArialMT-28" d="M 1497 -1347 
Q 1031 -759 709 28 
Q 388 816 388 1659 
Q 388 2403 628 3084 
Q 909 3875 1497 4659 
L 1900 4659 
Q 1522 4009 1400 3731 
Q 1209 3300 1100 2831 
Q 966 2247 966 1656 
Q 966 153 1900 -1347 
L 1497 -1347 
z
" transform="scale(0.015625)"/>
      <path id="ArialMT-72" d="M 416 0 
L 416 3319 
L 922 3319 
L 922 2816 
Q 1116 3169 1280 3281 
Q 1444 3394 1641 3394 
Q 1925 3394 2219 3213 
L 2025 2691 
Q 1819 2813 1613 2813 
Q 1428 2813 1281 2702 
Q 1134 2591 1072 2394 
Q 978 2094 978 1738 
L 978 0 
L 416 0 
z
" transform="scale(0.015625)"/>
      <path id="ArialMT-79" d="M 397 -1278 
L 334 -750 
Q 519 -800 656 -800 
Q 844 -800 956 -737 
Q 1069 -675 1141 -563 
Q 1194 -478 1313 -144 
Q 1328 -97 1363 -6 
L 103 3319 
L 709 3319 
L 1400 1397 
Q 1534 1031 1641 628 
Q 1738 1016 1872 1384 
L 2581 3319 
L 3144 3319 
L 1881 -56 
Q 1678 -603 1566 -809 
Q 1416 -1088 1222 -1217 
Q 1028 -1347 759 -1347 
Q 597 -1347 397 -1278 
z
" transform="scale(0.015625)"/>
      <path id="ArialMT-63" d="M 2588 1216 
L 3141 1144 
Q 3050 572 2676 248 
Q 2303 -75 1759 -75 
Q 1078 -75 664 370 
Q 250 816 250 1647 
Q 250 2184 428 2587 
Q 606 2991 970 3192 
Q 1334 3394 1763 3394 
Q 2303 3394 2647 3120 
Q 2991 2847 3088 2344 
L 2541 2259 
Q 2463 2594 2264 2762 
Q 2066 2931 1784 2931 
Q 1359 2931 1093 2626 
Q 828 2322 828 1663 
Q 828 994 1084 691 
Q 1341 388 1753 388 
Q 2084 388 2306 591 
Q 2528 794 2588 1216 
z
" transform="scale(0.015625)"/>
      <path id="ArialMT-29" d="M 791 -1347 
L 388 -1347 
Q 1322 153 1322 1656 
Q 1322 2244 1188 2822 
Q 1081 3291 891 3722 
Q 769 4003 388 4659 
L 791 4659 
Q 1378 3875 1659 3084 
Q 1900 2403 1900 1659 
Q 1900 816 1576 28 
Q 1253 -759 791 -1347 
z
" transform="scale(0.015625)"/>
     </defs>
     <use xlink:href="#ArialMT-56"/>
     <use xlink:href="#ArialMT-61" x="59.324219"/>
     <use xlink:href="#ArialMT-6c" x="114.939453"/>
     <use xlink:href="#ArialMT-69" x="137.15625"/>
     <use xlink:href="#ArialMT-64" x="159.373047"/>
     <use xlink:href="#ArialMT-61" x="214.988281"/>
     <use xlink:href="#ArialMT-74" x="270.603516"/>
     <use xlink:href="#ArialMT-69" x="298.386719"/>
     <use xlink:href="#ArialMT-6f" x="320.603516"/>
     <use xlink:href="#ArialMT-6e" x="376.21875"/>
     <use xlink:href="#ArialMT-20" x="431.833984"/>
     <use xlink:href="#ArialMT-28" x="459.617188"/>
     <use xlink:href="#ArialMT-72" x="492.917969"/>
     <use xlink:href="#ArialMT-61" x="526.21875"/>
     <use xlink:href="#ArialMT-6e" x="581.833984"/>
     <use xlink:href="#ArialMT-64" x="637.449219"/>
     <use xlink:href="#ArialMT-6f" x="693.064453"/>
     <use xlink:href="#ArialMT-6d" x="748.679688"/>
     <use xlink:href="#ArialMT-6c" x="831.980469"/>
     <use xlink:href="#ArialMT-79" x="854.197266"/>
     <use xlink:href="#ArialMT-20" x="904.197266"/>
     <use xlink:href="#ArialMT-73" x="931.980469"/>
     <use xlink:href="#ArialMT-65" x="981.980469"/>
     <use xlink:href="#ArialMT-6c" x="1037.595703"/>
     <use xlink:href="#ArialMT-65" x="1059.8125"/>
     <use xlink:href="#ArialMT-63" x="1115.427734"/>
     <use xlink:href="#ArialMT-74" x="1165.427734"/>
     <use xlink:href="#ArialMT-65" x="1193.210938"/>
     <use xlink:href="#ArialMT-64" x="1248.826172"/>
     <use xlink:href="#ArialMT-20" x="1304.441406"/>
     <use xlink:href="#ArialMT-65" x="1332.224609"/>
     <use xlink:href="#ArialMT-70" x="1387.839844"/>
     <use xlink:href="#ArialMT-69" x="1443.455078"/>
     <use xlink:href="#ArialMT-73" x="1465.671875"/>
     <use xlink:href="#ArialMT-6f" x="1515.671875"/>
     <use xlink:href="#ArialMT-64" x="1571.287109"/>
     <use xlink:href="#ArialMT-65" x="1626.902344"/>
     <use xlink:href="#ArialMT-73" x="1682.517578"/>
     <use xlink:href="#ArialMT-29" x="1732.517578"/>
    </g>
   </g>
   <g id="legend_1">
    <g id="patch_7">
     <path d="M 353.62 92.162625 
L 407.72 92.162625 
Q 409.72 92.162625 409.72 90.162625 
L 409.72 48.472 
Q 409.72 46.472 407.72 46.472 
L 353.62 46.472 
Q 351.62 46.472 351.62 48.472 
L 351.62 90.162625 
Q 351.62 92.162625 353.62 92.162625 
z
" style="fill: #ffffff; opacity: 0.8; stroke: #cccccc; stroke-linejoin: miter"/>
    </g>
    <g id="line2d_25">
     <path d="M 355.62 54.129813 
L 365.62 54.129813 
L 375.62 54.129813 
" style="fill: none; stroke-dasharray: 5.55,2.4; stroke-dashoffset: 0; stroke: #4878d0; stroke-width: 1.5"/>
    </g>
    <g id="text_18">
     <!-- $a$ -->
     <g style="fill: #262626" transform="translate(383.62 57.629813) scale(0.1 -0.1)">
      <defs>
       <path id="DejaVuSans-Oblique-61" d="M 3438 1997 
L 3047 0 
L 2472 0 
L 2578 531 
Q 2325 219 2001 64 
Q 1678 -91 1281 -91 
Q 834 -91 548 182 
Q 263 456 263 884 
Q 263 1497 752 1853 
Q 1241 2209 2100 2209 
L 2900 2209 
L 2931 2363 
Q 2938 2388 2941 2417 
Q 2944 2447 2944 2509 
Q 2944 2788 2717 2942 
Q 2491 3097 2081 3097 
Q 1800 3097 1504 3025 
Q 1209 2953 897 2809 
L 997 3341 
Q 1322 3463 1633 3523 
Q 1944 3584 2234 3584 
Q 2853 3584 3176 3315 
Q 3500 3047 3500 2534 
Q 3500 2431 3484 2292 
Q 3469 2153 3438 1997 
z
M 2816 1759 
L 2241 1759 
Q 1534 1759 1195 1570 
Q 856 1381 856 984 
Q 856 709 1029 553 
Q 1203 397 1509 397 
Q 1978 397 2328 733 
Q 2678 1069 2791 1631 
L 2816 1759 
z
" transform="scale(0.015625)"/>
      </defs>
      <use xlink:href="#DejaVuSans-Oblique-61"/>
     </g>
    </g>
    <g id="line2d_26">
     <path d="M 355.62 68.275125 
L 365.62 68.275125 
L 375.62 68.275125 
" style="fill: none; stroke: #ee854a; stroke-width: 1.5; stroke-linecap: round"/>
    </g>
    <g id="text_19">
     <!-- $s^{true}$ -->
     <g style="fill: #262626" transform="translate(383.62 71.775125) scale(0.1 -0.1)">
      <defs>
       <path id="DejaVuSans-Oblique-73" d="M 3200 3397 
L 3091 2853 
Q 2863 2978 2609 3040 
Q 2356 3103 2088 3103 
Q 1634 3103 1373 2948 
Q 1113 2794 1113 2528 
Q 1113 2219 1719 2053 
Q 1766 2041 1788 2034 
L 1972 1978 
Q 2547 1819 2739 1644 
Q 2931 1469 2931 1166 
Q 2931 609 2489 259 
Q 2047 -91 1331 -91 
Q 1053 -91 747 -37 
Q 441 16 72 128 
L 184 722 
Q 500 559 806 475 
Q 1113 391 1394 391 
Q 1816 391 2080 572 
Q 2344 753 2344 1031 
Q 2344 1331 1650 1516 
L 1591 1531 
L 1394 1581 
Q 956 1697 753 1886 
Q 550 2075 550 2369 
Q 550 2928 970 3256 
Q 1391 3584 2113 3584 
Q 2397 3584 2667 3537 
Q 2938 3491 3200 3397 
z
" transform="scale(0.015625)"/>
       <path id="DejaVuSans-Oblique-74" d="M 2706 3500 
L 2619 3053 
L 1472 3053 
L 1100 1153 
Q 1081 1047 1072 975 
Q 1063 903 1063 863 
Q 1063 663 1183 572 
Q 1303 481 1569 481 
L 2150 481 
L 2053 0 
L 1503 0 
Q 991 0 739 200 
Q 488 400 488 806 
Q 488 878 497 964 
Q 506 1050 525 1153 
L 897 3053 
L 409 3053 
L 500 3500 
L 978 3500 
L 1172 4494 
L 1747 4494 
L 1556 3500 
L 2706 3500 
z
" transform="scale(0.015625)"/>
       <path id="DejaVuSans-Oblique-72" d="M 2853 2969 
Q 2766 3016 2653 3041 
Q 2541 3066 2413 3066 
Q 1953 3066 1609 2717 
Q 1266 2369 1153 1784 
L 800 0 
L 225 0 
L 909 3500 
L 1484 3500 
L 1375 2956 
Q 1603 3259 1920 3421 
Q 2238 3584 2597 3584 
Q 2691 3584 2781 3573 
Q 2872 3563 2963 3538 
L 2853 2969 
z
" transform="scale(0.015625)"/>
       <path id="DejaVuSans-Oblique-75" d="M 428 1388 
L 838 3500 
L 1416 3500 
L 1006 1409 
Q 975 1256 961 1147 
Q 947 1038 947 966 
Q 947 700 1109 554 
Q 1272 409 1569 409 
Q 2031 409 2368 721 
Q 2706 1034 2809 1563 
L 3194 3500 
L 3769 3500 
L 3091 0 
L 2516 0 
L 2631 550 
Q 2388 244 2052 76 
Q 1716 -91 1338 -91 
Q 878 -91 622 161 
Q 366 413 366 863 
Q 366 956 381 1097 
Q 397 1238 428 1388 
z
" transform="scale(0.015625)"/>
       <path id="DejaVuSans-Oblique-65" d="M 3078 2063 
Q 3088 2113 3092 2166 
Q 3097 2219 3097 2272 
Q 3097 2653 2873 2875 
Q 2650 3097 2266 3097 
Q 1838 3097 1509 2826 
Q 1181 2556 1013 2059 
L 3078 2063 
z
M 3578 1613 
L 903 1613 
Q 884 1494 878 1425 
Q 872 1356 872 1306 
Q 872 872 1139 634 
Q 1406 397 1894 397 
Q 2269 397 2603 481 
Q 2938 566 3225 728 
L 3116 159 
Q 2806 34 2476 -28 
Q 2147 -91 1806 -91 
Q 1078 -91 686 257 
Q 294 606 294 1247 
Q 294 1794 489 2264 
Q 684 2734 1063 3103 
Q 1306 3334 1642 3459 
Q 1978 3584 2356 3584 
Q 2950 3584 3301 3228 
Q 3653 2872 3653 2272 
Q 3653 2128 3634 1964 
Q 3616 1800 3578 1613 
z
" transform="scale(0.015625)"/>
      </defs>
      <use xlink:href="#DejaVuSans-Oblique-73" transform="translate(0 0.565625)"/>
      <use xlink:href="#DejaVuSans-Oblique-74" transform="translate(56.749505 38.846875) scale(0.7)"/>
      <use xlink:href="#DejaVuSans-Oblique-72" transform="translate(84.195794 38.846875) scale(0.7)"/>
      <use xlink:href="#DejaVuSans-Oblique-75" transform="translate(112.975091 38.846875) scale(0.7)"/>
      <use xlink:href="#DejaVuSans-Oblique-65" transform="translate(157.340326 38.846875) scale(0.7)"/>
     </g>
    </g>
    <g id="line2d_27">
     <path d="M 355.62 82.675125 
L 365.62 82.675125 
L 375.62 82.675125 
" style="fill: none; stroke: #6acc64; stroke-width: 1.5; stroke-linecap: round"/>
    </g>
    <g id="text_20">
     <!-- $s^{pred}$ -->
     <g style="fill: #262626" transform="translate(383.62 86.175125) scale(0.1 -0.1)">
      <defs>
       <path id="DejaVuSans-Oblique-70" d="M 3175 2156 
Q 3175 2616 2975 2859 
Q 2775 3103 2400 3103 
Q 2144 3103 1911 2972 
Q 1678 2841 1497 2591 
Q 1319 2344 1212 1994 
Q 1106 1644 1106 1300 
Q 1106 863 1306 627 
Q 1506 391 1875 391 
Q 2147 391 2380 519 
Q 2613 647 2778 891 
Q 2956 1147 3065 1494 
Q 3175 1841 3175 2156 
z
M 1394 2969 
Q 1625 3272 1939 3428 
Q 2253 3584 2638 3584 
Q 3175 3584 3472 3232 
Q 3769 2881 3769 2247 
Q 3769 1728 3584 1258 
Q 3400 788 3053 416 
Q 2822 169 2531 39 
Q 2241 -91 1919 -91 
Q 1547 -91 1294 64 
Q 1041 219 916 525 
L 556 -1331 
L -19 -1331 
L 922 3500 
L 1497 3500 
L 1394 2969 
z
" transform="scale(0.015625)"/>
       <path id="DejaVuSans-Oblique-64" d="M 2675 525 
Q 2444 222 2128 65 
Q 1813 -91 1428 -91 
Q 903 -91 598 267 
Q 294 625 294 1247 
Q 294 1766 478 2236 
Q 663 2706 1013 3078 
Q 1244 3325 1534 3454 
Q 1825 3584 2144 3584 
Q 2481 3584 2739 3421 
Q 2997 3259 3138 2956 
L 3513 4863 
L 4091 4863 
L 3144 0 
L 2566 0 
L 2675 525 
z
M 891 1350 
Q 891 897 1095 644 
Q 1300 391 1663 391 
Q 1931 391 2161 520 
Q 2391 650 2566 903 
Q 2750 1166 2856 1509 
Q 2963 1853 2963 2188 
Q 2963 2622 2758 2865 
Q 2553 3109 2194 3109 
Q 1922 3109 1687 2981 
Q 1453 2853 1288 2613 
Q 1106 2353 998 2009 
Q 891 1666 891 1350 
z
" transform="scale(0.015625)"/>
      </defs>
      <use xlink:href="#DejaVuSans-Oblique-73" transform="translate(0 0.529687)"/>
      <use xlink:href="#DejaVuSans-Oblique-70" transform="translate(56.749505 38.810937) scale(0.7)"/>
      <use xlink:href="#DejaVuSans-Oblique-72" transform="translate(101.183099 38.810937) scale(0.7)"/>
      <use xlink:href="#DejaVuSans-Oblique-65" transform="translate(129.962396 38.810937) scale(0.7)"/>
      <use xlink:href="#DejaVuSans-Oblique-64" transform="translate(173.028802 38.810937) scale(0.7)"/>
     </g>
    </g>
   </g>
  </g>
 </g>
 <defs>
  <clipPath id="pd581d0a48a">
   <rect x="57.6" y="41.472" width="357.12" height="266.112"/>
  </clipPath>
 </defs>
</svg>
