<?xml version="1.0" encoding="utf-8" standalone="no"?>
<!DOCTYPE svg PUBLIC "-//W3C//DTD SVG 1.1//EN"
  "http://www.w3.org/Graphics/SVG/1.1/DTD/svg11.dtd">
<svg xmlns:xlink="http://www.w3.org/1999/xlink" width="460.8pt" height="345.6pt" viewBox="0 0 460.8 345.6" xmlns="http://www.w3.org/2000/svg" version="1.1">
 <metadata>
  <rdf:RDF xmlns:dc="http://purl.org/dc/elements/1.1/" xmlns:cc="http://creativecommons.org/ns#" xmlns:rdf="http://www.w3.org/1999/02/22-rdf-syntax-ns#">
   <cc:Work>
    <dc:type rdf:resource="http://purl.org/dc/dcmitype/StillImage"/>
    <dc:date>2023-07-27T15:01:45.431550</dc:date>
    <dc:format>image/svg+xml</dc:format>
    <dc:creator>
     <cc:Agent>
      <dc:title>Matplotlib v3.7.1, https://matplotlib.org/</dc:title>
     </cc:Agent>
    </dc:creator>
   </cc:Work>
  </rdf:RDF>
 </metadata>
 <defs>
  <style type="text/css">*{stroke-linejoin: round; stroke-linecap: butt}</style>
 </defs>
 <g id="figure_1">
  <g id="patch_1">
   <path d="M 0 345.6 
L 460.8 345.6 
L 460.8 0 
L 0 0 
z
" style="fill: #ffffff"/>
  </g>
  <g id="axes_1">
   <g id="patch_2">
    <path d="M 57.6 307.584 
L 414.72 307.584 
L 414.72 41.472 
L 57.6 41.472 
z
" style="fill: #ffffff"/>
   </g>
   <g id="matplotlib.axis_1">
    <g id="xtick_1">
     <g id="line2d_1">
      <path d="M 73.832727 307.584 
L 73.832727 41.472 
" clip-path="url(#p2a82a5ef6f)" style="fill: none; stroke: #cccccc; stroke-width: 0.8; stroke-linecap: round"/>
     </g>
     <g id="text_1">
      <!-- 0 -->
      <g style="fill: #262626" transform="translate(71.052259 321.741812) scale(0.1 -0.1)">
       <defs>
        <path id="ArialMT-30" d="M 266 2259 
Q 266 3072 433 3567 
Q 600 4063 929 4331 
Q 1259 4600 1759 4600 
Q 2128 4600 2406 4451 
Q 2684 4303 2865 4023 
Q 3047 3744 3150 3342 
Q 3253 2941 3253 2259 
Q 3253 1453 3087 958 
Q 2922 463 2592 192 
Q 2263 -78 1759 -78 
Q 1097 -78 719 397 
Q 266 969 266 2259 
z
M 844 2259 
Q 844 1131 1108 757 
Q 1372 384 1759 384 
Q 2147 384 2411 759 
Q 2675 1134 2675 2259 
Q 2675 3391 2411 3762 
Q 2147 4134 1753 4134 
Q 1366 4134 1134 3806 
Q 844 3388 844 2259 
z
" transform="scale(0.015625)"/>
       </defs>
       <use xlink:href="#ArialMT-30"/>
      </g>
     </g>
    </g>
    <g id="xtick_2">
     <g id="line2d_2">
      <path d="M 118.184441 307.584 
L 118.184441 41.472 
" clip-path="url(#p2a82a5ef6f)" style="fill: none; stroke: #cccccc; stroke-width: 0.8; stroke-linecap: round"/>
     </g>
     <g id="text_2">
      <!-- 25 -->
      <g style="fill: #262626" transform="translate(112.623504 321.741812) scale(0.1 -0.1)">
       <defs>
        <path id="ArialMT-32" d="M 3222 541 
L 3222 0 
L 194 0 
Q 188 203 259 391 
Q 375 700 629 1000 
Q 884 1300 1366 1694 
Q 2113 2306 2375 2664 
Q 2638 3022 2638 3341 
Q 2638 3675 2398 3904 
Q 2159 4134 1775 4134 
Q 1369 4134 1125 3890 
Q 881 3647 878 3216 
L 300 3275 
Q 359 3922 746 4261 
Q 1134 4600 1788 4600 
Q 2447 4600 2831 4234 
Q 3216 3869 3216 3328 
Q 3216 3053 3103 2787 
Q 2991 2522 2730 2228 
Q 2469 1934 1863 1422 
Q 1356 997 1212 845 
Q 1069 694 975 541 
L 3222 541 
z
" transform="scale(0.015625)"/>
        <path id="ArialMT-35" d="M 266 1200 
L 856 1250 
Q 922 819 1161 601 
Q 1400 384 1738 384 
Q 2144 384 2425 690 
Q 2706 997 2706 1503 
Q 2706 1984 2436 2262 
Q 2166 2541 1728 2541 
Q 1456 2541 1237 2417 
Q 1019 2294 894 2097 
L 366 2166 
L 809 4519 
L 3088 4519 
L 3088 3981 
L 1259 3981 
L 1013 2750 
Q 1425 3038 1878 3038 
Q 2478 3038 2890 2622 
Q 3303 2206 3303 1553 
Q 3303 931 2941 478 
Q 2500 -78 1738 -78 
Q 1113 -78 717 272 
Q 322 622 266 1200 
z
" transform="scale(0.015625)"/>
       </defs>
       <use xlink:href="#ArialMT-32"/>
       <use xlink:href="#ArialMT-35" x="55.615234"/>
      </g>
     </g>
    </g>
    <g id="xtick_3">
     <g id="line2d_3">
      <path d="M 162.536155 307.584 
L 162.536155 41.472 
" clip-path="url(#p2a82a5ef6f)" style="fill: none; stroke: #cccccc; stroke-width: 0.8; stroke-linecap: round"/>
     </g>
     <g id="text_3">
      <!-- 50 -->
      <g style="fill: #262626" transform="translate(156.975217 321.741812) scale(0.1 -0.1)">
       <use xlink:href="#ArialMT-35"/>
       <use xlink:href="#ArialMT-30" x="55.615234"/>
      </g>
     </g>
    </g>
    <g id="xtick_4">
     <g id="line2d_4">
      <path d="M 206.887869 307.584 
L 206.887869 41.472 
" clip-path="url(#p2a82a5ef6f)" style="fill: none; stroke: #cccccc; stroke-width: 0.8; stroke-linecap: round"/>
     </g>
     <g id="text_4">
      <!-- 75 -->
      <g style="fill: #262626" transform="translate(201.326931 321.741812) scale(0.1 -0.1)">
       <defs>
        <path id="ArialMT-37" d="M 303 3981 
L 303 4522 
L 3269 4522 
L 3269 4084 
Q 2831 3619 2401 2847 
Q 1972 2075 1738 1259 
Q 1569 684 1522 0 
L 944 0 
Q 953 541 1156 1306 
Q 1359 2072 1739 2783 
Q 2119 3494 2547 3981 
L 303 3981 
z
" transform="scale(0.015625)"/>
       </defs>
       <use xlink:href="#ArialMT-37"/>
       <use xlink:href="#ArialMT-35" x="55.615234"/>
      </g>
     </g>
    </g>
    <g id="xtick_5">
     <g id="line2d_5">
      <path d="M 251.239583 307.584 
L 251.239583 41.472 
" clip-path="url(#p2a82a5ef6f)" style="fill: none; stroke: #cccccc; stroke-width: 0.8; stroke-linecap: round"/>
     </g>
     <g id="text_5">
      <!-- 100 -->
      <g style="fill: #262626" transform="translate(242.898176 321.741812) scale(0.1 -0.1)">
       <defs>
        <path id="ArialMT-31" d="M 2384 0 
L 1822 0 
L 1822 3584 
Q 1619 3391 1289 3197 
Q 959 3003 697 2906 
L 697 3450 
Q 1169 3672 1522 3987 
Q 1875 4303 2022 4600 
L 2384 4600 
L 2384 0 
z
" transform="scale(0.015625)"/>
       </defs>
       <use xlink:href="#ArialMT-31"/>
       <use xlink:href="#ArialMT-30" x="55.615234"/>
       <use xlink:href="#ArialMT-30" x="111.230469"/>
      </g>
     </g>
    </g>
    <g id="xtick_6">
     <g id="line2d_6">
      <path d="M 295.591297 307.584 
L 295.591297 41.472 
" clip-path="url(#p2a82a5ef6f)" style="fill: none; stroke: #cccccc; stroke-width: 0.8; stroke-linecap: round"/>
     </g>
     <g id="text_6">
      <!-- 125 -->
      <g style="fill: #262626" transform="translate(287.24989 321.741812) scale(0.1 -0.1)">
       <use xlink:href="#ArialMT-31"/>
       <use xlink:href="#ArialMT-32" x="55.615234"/>
       <use xlink:href="#ArialMT-35" x="111.230469"/>
      </g>
     </g>
    </g>
    <g id="xtick_7">
     <g id="line2d_7">
      <path d="M 339.94301 307.584 
L 339.94301 41.472 
" clip-path="url(#p2a82a5ef6f)" style="fill: none; stroke: #cccccc; stroke-width: 0.8; stroke-linecap: round"/>
     </g>
     <g id="text_7">
      <!-- 150 -->
      <g style="fill: #262626" transform="translate(331.601604 321.741812) scale(0.1 -0.1)">
       <use xlink:href="#ArialMT-31"/>
       <use xlink:href="#ArialMT-35" x="55.615234"/>
       <use xlink:href="#ArialMT-30" x="111.230469"/>
      </g>
     </g>
    </g>
    <g id="xtick_8">
     <g id="line2d_8">
      <path d="M 384.294724 307.584 
L 384.294724 41.472 
" clip-path="url(#p2a82a5ef6f)" style="fill: none; stroke: #cccccc; stroke-width: 0.8; stroke-linecap: round"/>
     </g>
     <g id="text_8">
      <!-- 175 -->
      <g style="fill: #262626" transform="translate(375.953318 321.741812) scale(0.1 -0.1)">
       <use xlink:href="#ArialMT-31"/>
       <use xlink:href="#ArialMT-37" x="55.615234"/>
       <use xlink:href="#ArialMT-35" x="111.230469"/>
      </g>
     </g>
    </g>
    <g id="text_9">
     <!-- Timesteps -->
     <g style="fill: #262626" transform="translate(213.287344 334.887125) scale(0.1 -0.1)">
      <defs>
       <path id="ArialMT-54" d="M 1659 0 
L 1659 4041 
L 150 4041 
L 150 4581 
L 3781 4581 
L 3781 4041 
L 2266 4041 
L 2266 0 
L 1659 0 
z
" transform="scale(0.015625)"/>
       <path id="ArialMT-69" d="M 425 3934 
L 425 4581 
L 988 4581 
L 988 3934 
L 425 3934 
z
M 425 0 
L 425 3319 
L 988 3319 
L 988 0 
L 425 0 
z
" transform="scale(0.015625)"/>
       <path id="ArialMT-6d" d="M 422 0 
L 422 3319 
L 925 3319 
L 925 2853 
Q 1081 3097 1340 3245 
Q 1600 3394 1931 3394 
Q 2300 3394 2536 3241 
Q 2772 3088 2869 2813 
Q 3263 3394 3894 3394 
Q 4388 3394 4653 3120 
Q 4919 2847 4919 2278 
L 4919 0 
L 4359 0 
L 4359 2091 
Q 4359 2428 4304 2576 
Q 4250 2725 4106 2815 
Q 3963 2906 3769 2906 
Q 3419 2906 3187 2673 
Q 2956 2441 2956 1928 
L 2956 0 
L 2394 0 
L 2394 2156 
Q 2394 2531 2256 2718 
Q 2119 2906 1806 2906 
Q 1569 2906 1367 2781 
Q 1166 2656 1075 2415 
Q 984 2175 984 1722 
L 984 0 
L 422 0 
z
" transform="scale(0.015625)"/>
       <path id="ArialMT-65" d="M 2694 1069 
L 3275 997 
Q 3138 488 2766 206 
Q 2394 -75 1816 -75 
Q 1088 -75 661 373 
Q 234 822 234 1631 
Q 234 2469 665 2931 
Q 1097 3394 1784 3394 
Q 2450 3394 2872 2941 
Q 3294 2488 3294 1666 
Q 3294 1616 3291 1516 
L 816 1516 
Q 847 969 1125 678 
Q 1403 388 1819 388 
Q 2128 388 2347 550 
Q 2566 713 2694 1069 
z
M 847 1978 
L 2700 1978 
Q 2663 2397 2488 2606 
Q 2219 2931 1791 2931 
Q 1403 2931 1139 2672 
Q 875 2413 847 1978 
z
" transform="scale(0.015625)"/>
       <path id="ArialMT-73" d="M 197 991 
L 753 1078 
Q 800 744 1014 566 
Q 1228 388 1613 388 
Q 2000 388 2187 545 
Q 2375 703 2375 916 
Q 2375 1106 2209 1216 
Q 2094 1291 1634 1406 
Q 1016 1563 777 1677 
Q 538 1791 414 1992 
Q 291 2194 291 2438 
Q 291 2659 392 2848 
Q 494 3038 669 3163 
Q 800 3259 1026 3326 
Q 1253 3394 1513 3394 
Q 1903 3394 2198 3281 
Q 2494 3169 2634 2976 
Q 2775 2784 2828 2463 
L 2278 2388 
Q 2241 2644 2061 2787 
Q 1881 2931 1553 2931 
Q 1166 2931 1000 2803 
Q 834 2675 834 2503 
Q 834 2394 903 2306 
Q 972 2216 1119 2156 
Q 1203 2125 1616 2013 
Q 2213 1853 2448 1751 
Q 2684 1650 2818 1456 
Q 2953 1263 2953 975 
Q 2953 694 2789 445 
Q 2625 197 2315 61 
Q 2006 -75 1616 -75 
Q 969 -75 630 194 
Q 291 463 197 991 
z
" transform="scale(0.015625)"/>
       <path id="ArialMT-74" d="M 1650 503 
L 1731 6 
Q 1494 -44 1306 -44 
Q 1000 -44 831 53 
Q 663 150 594 308 
Q 525 466 525 972 
L 525 2881 
L 113 2881 
L 113 3319 
L 525 3319 
L 525 4141 
L 1084 4478 
L 1084 3319 
L 1650 3319 
L 1650 2881 
L 1084 2881 
L 1084 941 
Q 1084 700 1114 631 
Q 1144 563 1211 522 
Q 1278 481 1403 481 
Q 1497 481 1650 503 
z
" transform="scale(0.015625)"/>
       <path id="ArialMT-70" d="M 422 -1272 
L 422 3319 
L 934 3319 
L 934 2888 
Q 1116 3141 1344 3267 
Q 1572 3394 1897 3394 
Q 2322 3394 2647 3175 
Q 2972 2956 3137 2557 
Q 3303 2159 3303 1684 
Q 3303 1175 3120 767 
Q 2938 359 2589 142 
Q 2241 -75 1856 -75 
Q 1575 -75 1351 44 
Q 1128 163 984 344 
L 984 -1272 
L 422 -1272 
z
M 931 1641 
Q 931 1000 1190 694 
Q 1450 388 1819 388 
Q 2194 388 2461 705 
Q 2728 1022 2728 1688 
Q 2728 2322 2467 2637 
Q 2206 2953 1844 2953 
Q 1484 2953 1207 2617 
Q 931 2281 931 1641 
z
" transform="scale(0.015625)"/>
      </defs>
      <use xlink:href="#ArialMT-54"/>
      <use xlink:href="#ArialMT-69" x="57.333984"/>
      <use xlink:href="#ArialMT-6d" x="79.550781"/>
      <use xlink:href="#ArialMT-65" x="162.851562"/>
      <use xlink:href="#ArialMT-73" x="218.466797"/>
      <use xlink:href="#ArialMT-74" x="268.466797"/>
      <use xlink:href="#ArialMT-65" x="296.25"/>
      <use xlink:href="#ArialMT-70" x="351.865234"/>
      <use xlink:href="#ArialMT-73" x="407.480469"/>
     </g>
    </g>
   </g>
   <g id="matplotlib.axis_2">
    <g id="ytick_1">
     <g id="line2d_9">
      <path d="M 57.6 270.631843 
L 414.72 270.631843 
" clip-path="url(#p2a82a5ef6f)" style="fill: none; stroke: #cccccc; stroke-width: 0.8; stroke-linecap: round"/>
     </g>
     <g id="text_10">
      <!-- 320 -->
      <g style="fill: #262626" transform="translate(33.917187 274.210749) scale(0.1 -0.1)">
       <defs>
        <path id="ArialMT-33" d="M 269 1209 
L 831 1284 
Q 928 806 1161 595 
Q 1394 384 1728 384 
Q 2125 384 2398 659 
Q 2672 934 2672 1341 
Q 2672 1728 2419 1979 
Q 2166 2231 1775 2231 
Q 1616 2231 1378 2169 
L 1441 2663 
Q 1497 2656 1531 2656 
Q 1891 2656 2178 2843 
Q 2466 3031 2466 3422 
Q 2466 3731 2256 3934 
Q 2047 4138 1716 4138 
Q 1388 4138 1169 3931 
Q 950 3725 888 3313 
L 325 3413 
Q 428 3978 793 4289 
Q 1159 4600 1703 4600 
Q 2078 4600 2393 4439 
Q 2709 4278 2876 4000 
Q 3044 3722 3044 3409 
Q 3044 3113 2884 2869 
Q 2725 2625 2413 2481 
Q 2819 2388 3044 2092 
Q 3269 1797 3269 1353 
Q 3269 753 2831 336 
Q 2394 -81 1725 -81 
Q 1122 -81 723 278 
Q 325 638 269 1209 
z
" transform="scale(0.015625)"/>
       </defs>
       <use xlink:href="#ArialMT-33"/>
       <use xlink:href="#ArialMT-32" x="55.615234"/>
       <use xlink:href="#ArialMT-30" x="111.230469"/>
      </g>
     </g>
    </g>
    <g id="ytick_2">
     <g id="line2d_10">
      <path d="M 57.6 232.346843 
L 414.72 232.346843 
" clip-path="url(#p2a82a5ef6f)" style="fill: none; stroke: #cccccc; stroke-width: 0.8; stroke-linecap: round"/>
     </g>
     <g id="text_11">
      <!-- 330 -->
      <g style="fill: #262626" transform="translate(33.917187 235.925749) scale(0.1 -0.1)">
       <use xlink:href="#ArialMT-33"/>
       <use xlink:href="#ArialMT-33" x="55.615234"/>
       <use xlink:href="#ArialMT-30" x="111.230469"/>
      </g>
     </g>
    </g>
    <g id="ytick_3">
     <g id="line2d_11">
      <path d="M 57.6 194.061844 
L 414.72 194.061844 
" clip-path="url(#p2a82a5ef6f)" style="fill: none; stroke: #cccccc; stroke-width: 0.8; stroke-linecap: round"/>
     </g>
     <g id="text_12">
      <!-- 340 -->
      <g style="fill: #262626" transform="translate(33.917187 197.64075) scale(0.1 -0.1)">
       <defs>
        <path id="ArialMT-34" d="M 2069 0 
L 2069 1097 
L 81 1097 
L 81 1613 
L 2172 4581 
L 2631 4581 
L 2631 1613 
L 3250 1613 
L 3250 1097 
L 2631 1097 
L 2631 0 
L 2069 0 
z
M 2069 1613 
L 2069 3678 
L 634 1613 
L 2069 1613 
z
" transform="scale(0.015625)"/>
       </defs>
       <use xlink:href="#ArialMT-33"/>
       <use xlink:href="#ArialMT-34" x="55.615234"/>
       <use xlink:href="#ArialMT-30" x="111.230469"/>
      </g>
     </g>
    </g>
    <g id="ytick_4">
     <g id="line2d_12">
      <path d="M 57.6 155.776844 
L 414.72 155.776844 
" clip-path="url(#p2a82a5ef6f)" style="fill: none; stroke: #cccccc; stroke-width: 0.8; stroke-linecap: round"/>
     </g>
     <g id="text_13">
      <!-- 350 -->
      <g style="fill: #262626" transform="translate(33.917187 159.355751) scale(0.1 -0.1)">
       <use xlink:href="#ArialMT-33"/>
       <use xlink:href="#ArialMT-35" x="55.615234"/>
       <use xlink:href="#ArialMT-30" x="111.230469"/>
      </g>
     </g>
    </g>
    <g id="ytick_5">
     <g id="line2d_13">
      <path d="M 57.6 117.491845 
L 414.72 117.491845 
" clip-path="url(#p2a82a5ef6f)" style="fill: none; stroke: #cccccc; stroke-width: 0.8; stroke-linecap: round"/>
     </g>
     <g id="text_14">
      <!-- 360 -->
      <g style="fill: #262626" transform="translate(33.917187 121.070751) scale(0.1 -0.1)">
       <defs>
        <path id="ArialMT-36" d="M 3184 3459 
L 2625 3416 
Q 2550 3747 2413 3897 
Q 2184 4138 1850 4138 
Q 1581 4138 1378 3988 
Q 1113 3794 959 3422 
Q 806 3050 800 2363 
Q 1003 2672 1297 2822 
Q 1591 2972 1913 2972 
Q 2475 2972 2870 2558 
Q 3266 2144 3266 1488 
Q 3266 1056 3080 686 
Q 2894 316 2569 119 
Q 2244 -78 1831 -78 
Q 1128 -78 684 439 
Q 241 956 241 2144 
Q 241 3472 731 4075 
Q 1159 4600 1884 4600 
Q 2425 4600 2770 4297 
Q 3116 3994 3184 3459 
z
M 888 1484 
Q 888 1194 1011 928 
Q 1134 663 1356 523 
Q 1578 384 1822 384 
Q 2178 384 2434 671 
Q 2691 959 2691 1453 
Q 2691 1928 2437 2201 
Q 2184 2475 1800 2475 
Q 1419 2475 1153 2201 
Q 888 1928 888 1484 
z
" transform="scale(0.015625)"/>
       </defs>
       <use xlink:href="#ArialMT-33"/>
       <use xlink:href="#ArialMT-36" x="55.615234"/>
       <use xlink:href="#ArialMT-30" x="111.230469"/>
      </g>
     </g>
    </g>
    <g id="ytick_6">
     <g id="line2d_14">
      <path d="M 57.6 79.206845 
L 414.72 79.206845 
" clip-path="url(#p2a82a5ef6f)" style="fill: none; stroke: #cccccc; stroke-width: 0.8; stroke-linecap: round"/>
     </g>
     <g id="text_15">
      <!-- 370 -->
      <g style="fill: #262626" transform="translate(33.917187 82.785752) scale(0.1 -0.1)">
       <use xlink:href="#ArialMT-33"/>
       <use xlink:href="#ArialMT-37" x="55.615234"/>
       <use xlink:href="#ArialMT-30" x="111.230469"/>
      </g>
     </g>
    </g>
   </g>
   <g id="line2d_15">
    <path d="M 73.832727 148.119844 
L 75.606796 148.119844 
L 77.380864 148.119844 
L 79.154933 148.119844 
L 80.929001 148.119844 
L 82.70307 148.119844 
L 84.477139 148.119844 
L 86.251207 148.119844 
L 88.025276 148.119844 
L 89.799344 148.119844 
L 91.573413 148.119844 
L 93.347481 148.119844 
L 95.12155 148.119844 
L 96.895618 148.119844 
L 98.669687 148.119844 
L 100.443756 148.119844 
L 102.217824 148.119844 
L 103.991893 148.119844 
L 105.765961 148.119844 
L 107.54003 148.119844 
L 109.314098 148.119844 
L 111.088167 148.119844 
L 112.862235 148.119844 
L 114.636304 148.119844 
L 116.410373 148.119844 
L 118.184441 148.119844 
L 119.95851 148.119844 
L 121.732578 148.119844 
L 123.506647 148.119844 
L 125.280715 148.119844 
L 127.054784 148.119844 
L 128.828852 148.119844 
L 130.602921 148.119844 
L 132.37699 148.119844 
L 134.151058 148.119844 
L 135.925127 98.349345 
L 137.699195 98.349345 
L 139.473264 98.349345 
L 141.247332 98.349345 
L 143.021401 98.349345 
L 144.795469 98.349345 
L 146.569538 98.349345 
L 148.343607 98.349345 
L 150.117675 98.349345 
L 151.891744 98.349345 
L 153.665812 98.349345 
L 155.439881 98.349345 
L 157.213949 98.349345 
L 158.988018 98.349345 
L 160.762086 98.349345 
L 162.536155 98.349345 
L 164.310224 98.349345 
L 166.084292 98.349345 
L 167.858361 98.349345 
L 169.632429 98.349345 
L 171.406498 98.349345 
L 173.180566 98.349345 
L 174.954635 98.349345 
" clip-path="url(#p2a82a5ef6f)" style="fill: none; stroke-dasharray: 5.55,2.4; stroke-dashoffset: 0; stroke: #4878d0; stroke-width: 1.5"/>
   </g>
   <g id="line2d_16">
    <path d="M 73.832727 294.634392 
L 75.606796 280.068263 
L 77.380864 263.950545 
L 79.154933 246.884464 
L 80.929001 229.229878 
L 82.70307 212.047194 
L 84.477139 196.100641 
L 86.251207 182.014243 
L 88.025276 168.095038 
L 89.799344 158.992186 
L 91.573413 152.400502 
L 93.347481 147.66757 
L 95.12155 145.249638 
L 96.895618 143.102883 
L 98.669687 140.91138 
L 100.443756 138.653514 
L 102.217824 136.394713 
L 103.991893 134.112194 
L 105.765961 132.17925 
L 107.54003 130.575552 
L 109.314098 129.530332 
L 111.088167 128.890301 
L 112.862235 128.365472 
L 114.636304 128.205055 
L 116.410373 127.828958 
L 118.184441 127.610941 
L 119.95851 127.673799 
L 121.732578 127.671696 
L 123.506647 127.533595 
L 125.280715 127.009233 
L 127.054784 126.571797 
L 128.828852 126.06718 
L 130.602921 125.773803 
L 132.37699 125.573312 
L 134.151058 125.520619 
L 135.925127 125.220699 
L 137.699195 123.671914 
L 139.473264 120.625518 
L 141.247332 116.76886 
L 143.021401 111.501051 
L 144.795469 107.065468 
L 146.569538 102.996636 
L 148.343607 99.694835 
L 150.117675 97.253418 
L 151.891744 95.708956 
L 153.665812 94.198727 
L 155.439881 93.618517 
L 157.213949 93.063192 
L 158.988018 92.827183 
L 160.762086 92.672374 
L 162.536155 92.66735 
L 164.310224 92.460549 
L 166.084292 92.371754 
L 167.858361 92.153036 
L 169.632429 92.369183 
L 171.406498 95.088904 
L 173.180566 98.544929 
L 174.954635 102.250284 
" clip-path="url(#p2a82a5ef6f)" style="fill: none; stroke: #ee854a; stroke-width: 1.5; stroke-linecap: round"/>
   </g>
   <g id="line2d_17">
    <path d="M 75.606796 283.301507 
L 77.380864 266.872592 
L 79.154933 248.865184 
L 80.929001 229.954229 
L 82.70307 216.852575 
L 84.477139 204.03337 
L 86.251207 192.994218 
L 88.025276 180.61778 
L 89.799344 175.992182 
L 91.573413 164.397888 
L 93.347481 159.530596 
L 95.12155 152.941684 
L 96.895618 147.819166 
L 98.669687 144.653679 
L 100.443756 141.338614 
L 102.217824 137.938079 
L 103.991893 134.813646 
L 105.765961 133.939952 
L 107.54003 134.399286 
L 109.314098 132.461547 
L 111.088167 131.490517 
L 112.862235 128.354698 
L 114.636304 130.327925 
L 116.410373 129.10266 
L 118.184441 129.036779 
L 119.95851 128.857092 
L 121.732578 130.44209 
L 123.506647 130.908519 
L 125.280715 129.977103 
L 127.054784 134.683979 
L 128.828852 132.720093 
L 130.602921 132.608545 
L 132.37699 134.940801 
L 134.151058 134.867684 
L 135.925127 133.728363 
L 137.699195 126.947601 
L 139.473264 119.288124 
L 141.247332 111.347222 
L 143.021401 107.577438 
L 144.795469 101.247775 
L 146.569538 97.975493 
L 148.343607 95.811059 
L 150.117675 95.232544 
L 151.891744 94.351659 
L 153.665812 91.46106 
L 155.439881 89.970973 
L 157.213949 91.168815 
L 158.988018 89.917612 
L 160.762086 88.200098 
L 162.536155 88.40213 
L 164.310224 89.669908 
L 166.084292 89.766172 
L 167.858361 89.216155 
L 169.632429 90.14542 
L 171.406498 91.884731 
L 173.180566 93.438104 
L 174.954635 95.880346 
" clip-path="url(#p2a82a5ef6f)" style="fill: none; stroke: #6acc64; stroke-width: 1.5; stroke-linecap: round"/>
   </g>
   <g id="line2d_18">
    <path d="M 185.599046 148.119844 
L 187.373115 148.119844 
L 189.147183 148.119844 
L 190.921252 148.119844 
L 192.69532 148.119844 
L 194.469389 148.119844 
L 196.243458 148.119844 
L 198.017526 148.119844 
L 199.791595 148.119844 
L 201.565663 148.119844 
L 203.339732 148.119844 
L 205.1138 148.119844 
L 206.887869 148.119844 
L 208.661937 148.119844 
L 210.436006 148.119844 
L 212.210075 148.119844 
L 213.984143 148.119844 
L 215.758212 148.119844 
L 217.53228 148.119844 
L 219.306349 148.119844 
L 221.080417 148.119844 
L 222.854486 148.119844 
L 224.628554 148.119844 
L 226.402623 148.119844 
L 228.176692 148.119844 
L 229.95076 98.349345 
L 231.724829 98.349345 
L 233.498897 98.349345 
L 235.272966 98.349345 
L 237.047034 98.349345 
L 238.821103 98.349345 
L 240.595171 98.349345 
L 242.36924 98.349345 
L 244.143308 98.349345 
L 245.917377 98.349345 
L 247.691446 98.349345 
L 249.465514 98.349345 
L 251.239583 98.349345 
L 253.013651 98.349345 
L 254.78772 98.349345 
L 256.561788 98.349345 
L 258.335857 98.349345 
L 260.109925 98.349345 
L 261.883994 98.349345 
L 263.658063 98.349345 
L 265.432131 98.349345 
L 267.2062 98.349345 
L 268.980268 98.349345 
L 270.754337 98.349345 
L 272.528405 98.349345 
L 274.302474 98.349345 
L 276.076542 98.349345 
L 277.850611 98.349345 
L 279.62468 98.349345 
L 281.398748 98.349345 
L 283.172817 98.349345 
L 284.946885 98.349345 
L 286.720954 98.349345 
L 288.495022 98.349345 
L 290.269091 98.349345 
" clip-path="url(#p2a82a5ef6f)" style="fill: none; stroke-dasharray: 5.55,2.4; stroke-dashoffset: 0; stroke: #4878d0; stroke-width: 1.5"/>
   </g>
   <g id="line2d_19">
    <path d="M 185.599046 295.488 
L 187.373115 280.529417 
L 189.147183 264.364613 
L 190.921252 247.356951 
L 192.69532 229.702832 
L 194.469389 215.976291 
L 196.243458 199.81838 
L 198.017526 185.892983 
L 199.791595 174.048912 
L 201.565663 164.294229 
L 203.339732 156.886207 
L 205.1138 151.693758 
L 206.887869 148.274653 
L 208.661937 146.705655 
L 210.436006 145.127427 
L 212.210075 143.403737 
L 213.984143 141.341923 
L 215.758212 139.155093 
L 217.53228 136.3856 
L 219.306349 134.450553 
L 221.080417 132.836222 
L 222.854486 131.815304 
L 224.628554 130.929683 
L 226.402623 130.50323 
L 228.176692 130.257172 
L 229.95076 129.643313 
L 231.724829 127.207972 
L 233.498897 122.948579 
L 235.272966 118.56861 
L 237.047034 112.447193 
L 238.821103 105.825015 
L 240.595171 99.400757 
L 242.36924 93.647492 
L 244.143308 88.837565 
L 245.917377 85.288889 
L 247.691446 83.0614 
L 249.465514 81.683663 
L 251.239583 81.187575 
L 253.013651 81.333972 
L 254.78772 82.040365 
L 256.561788 83.051936 
L 258.335857 84.44416 
L 260.109925 85.65003 
L 261.883994 86.785565 
L 263.658063 87.980335 
L 265.432131 89.03794 
L 267.2062 89.900193 
L 268.980268 90.700056 
L 270.754337 91.293002 
L 272.528405 91.875198 
L 274.302474 92.127682 
L 276.076542 92.29137 
L 277.850611 92.336469 
L 279.62468 92.397341 
L 281.398748 92.288683 
L 283.172817 92.073587 
L 284.946885 92.715253 
L 286.720954 95.637803 
L 288.495022 99.393163 
L 290.269091 102.973852 
" clip-path="url(#p2a82a5ef6f)" style="fill: none; stroke: #ee854a; stroke-width: 1.5; stroke-linecap: round"/>
   </g>
   <g id="line2d_20">
    <path d="M 187.373115 285.16075 
L 189.147183 264.167422 
L 190.921252 246.314663 
L 192.69532 232.286165 
L 194.469389 222.697468 
L 196.243458 209.502702 
L 198.017526 198.187681 
L 199.791595 184.593678 
L 201.565663 176.545537 
L 203.339732 172.537079 
L 205.1138 164.728922 
L 206.887869 159.924922 
L 208.661937 155.725176 
L 210.436006 153.706108 
L 212.210075 149.838508 
L 213.984143 144.592479 
L 215.758212 140.988603 
L 217.53228 139.455451 
L 219.306349 137.679546 
L 221.080417 135.413157 
L 222.854486 135.876503 
L 224.628554 133.58774 
L 226.402623 132.921173 
L 228.176692 132.472782 
L 229.95076 131.900568 
L 231.724829 126.945439 
L 233.498897 120.357142 
L 235.272966 113.053893 
L 237.047034 106.273483 
L 238.821103 101.416355 
L 240.595171 97.153632 
L 242.36924 91.648081 
L 244.143308 88.06255 
L 245.917377 83.613251 
L 247.691446 81.616198 
L 249.465514 83.650203 
L 251.239583 82.016666 
L 253.013651 82.498882 
L 254.78772 81.296273 
L 256.561788 82.30474 
L 258.335857 81.197072 
L 260.109925 81.905973 
L 261.883994 83.715729 
L 263.658063 85.911199 
L 265.432131 86.334253 
L 267.2062 87.084065 
L 268.980268 87.061461 
L 270.754337 87.198878 
L 272.528405 89.162147 
L 274.302474 88.053868 
L 276.076542 86.933278 
L 277.850611 86.968817 
L 279.62468 89.724616 
L 281.398748 88.536599 
L 283.172817 89.288541 
L 284.946885 87.617976 
L 286.720954 89.101323 
L 288.495022 90.880624 
L 290.269091 90.240875 
" clip-path="url(#p2a82a5ef6f)" style="fill: none; stroke: #6acc64; stroke-width: 1.5; stroke-linecap: round"/>
   </g>
   <g id="line2d_21">
    <path d="M 300.913502 98.349345 
L 302.687571 98.349345 
L 304.461639 98.349345 
L 306.235708 98.349345 
L 308.009776 98.349345 
L 309.783845 98.349345 
L 311.557914 98.349345 
L 313.331982 98.349345 
L 315.106051 98.349345 
L 316.880119 98.349345 
L 318.654188 98.349345 
L 320.428256 98.349345 
L 322.202325 98.349345 
L 323.976393 98.349345 
L 325.750462 98.349345 
L 327.524531 98.349345 
L 329.298599 98.349345 
L 331.072668 98.349345 
L 332.846736 98.349345 
L 334.620805 98.349345 
L 336.394873 98.349345 
L 338.168942 98.349345 
L 339.94301 98.349345 
L 341.717079 98.349345 
L 343.491148 98.349345 
L 345.265216 98.349345 
L 347.039285 98.349345 
L 348.813353 98.349345 
L 350.587422 98.349345 
L 352.36149 98.349345 
L 354.135559 98.349345 
L 355.909627 98.349345 
L 357.683696 98.349345 
L 359.457765 98.349345 
L 361.231833 98.349345 
L 363.005902 98.349345 
L 364.77997 98.349345 
L 366.554039 98.349345 
L 368.328107 98.349345 
L 370.102176 98.349345 
L 371.876244 98.349345 
L 373.650313 98.349345 
L 375.424382 98.349345 
L 377.19845 98.349345 
L 378.972519 98.349345 
L 380.746587 98.349345 
L 382.520656 98.349345 
L 384.294724 98.349345 
L 386.068793 98.349345 
L 387.842861 98.349345 
L 389.61693 98.349345 
L 391.390999 98.349345 
L 393.165067 148.119844 
L 394.939136 148.119844 
L 396.713204 148.119844 
L 398.487273 148.119844 
" clip-path="url(#p2a82a5ef6f)" style="fill: none; stroke-dasharray: 5.55,2.4; stroke-dashoffset: 0; stroke: #4878d0; stroke-width: 1.5"/>
   </g>
   <g id="line2d_22">
    <path d="M 300.913502 285.702121 
L 302.687571 270.080491 
L 304.461639 253.218641 
L 306.235708 235.772841 
L 308.009776 218.070001 
L 309.783845 200.526176 
L 311.557914 186.693781 
L 313.331982 169.535516 
L 315.106051 152.925916 
L 316.880119 137.499052 
L 318.654188 123.312291 
L 320.428256 110.036388 
L 322.202325 97.912143 
L 323.976393 87.031038 
L 325.750462 77.76777 
L 327.524531 70.231929 
L 329.298599 64.174889 
L 331.072668 59.771904 
L 332.846736 56.223227 
L 334.620805 54.424061 
L 336.394873 53.568 
L 338.168942 53.674672 
L 339.94301 53.956832 
L 341.717079 55.136063 
L 343.491148 56.54815 
L 345.265216 58.06352 
L 347.039285 60.024738 
L 348.813353 62.05968 
L 350.587422 64.323739 
L 352.36149 66.070445 
L 354.135559 68.161819 
L 355.909627 70.049664 
L 357.683696 71.989268 
L 359.457765 73.837972 
L 361.231833 75.441671 
L 363.005902 77.041397 
L 364.77997 78.33875 
L 366.554039 79.533988 
L 368.328107 80.571029 
L 370.102176 81.579445 
L 371.876244 82.170288 
L 373.650313 82.864297 
L 375.424382 83.514141 
L 377.19845 83.875634 
L 378.972519 84.150784 
L 380.746587 84.375694 
L 382.520656 84.539382 
L 384.294724 84.63402 
L 386.068793 84.513912 
L 387.842861 84.339358 
L 389.61693 84.125664 
L 391.390999 83.742907 
L 393.165067 83.981721 
L 394.939136 88.656235 
L 396.713204 93.538133 
L 398.487273 97.850103 
" clip-path="url(#p2a82a5ef6f)" style="fill: none; stroke: #ee854a; stroke-width: 1.5; stroke-linecap: round"/>
   </g>
   <g id="line2d_23">
    <path d="M 302.687571 278.627273 
L 304.461639 263.53262 
L 306.235708 247.041715 
L 308.009776 226.775053 
L 309.783845 210.787905 
L 311.557914 195.75499 
L 313.331982 179.483539 
L 315.106051 162.6083 
L 316.880119 146.126013 
L 318.654188 134.48409 
L 320.428256 121.758794 
L 322.202325 108.139605 
L 323.976393 94.883499 
L 325.750462 84.913259 
L 327.524531 76.488843 
L 329.298599 73.211188 
L 331.072668 68.186407 
L 332.846736 64.464946 
L 334.620805 63.123364 
L 336.394873 63.383063 
L 338.168942 62.667871 
L 339.94301 65.343981 
L 341.717079 65.779645 
L 343.491148 66.155204 
L 345.265216 64.676217 
L 347.039285 67.824903 
L 348.813353 69.39611 
L 350.587422 69.087475 
L 352.36149 69.451548 
L 354.135559 68.48107 
L 355.909627 71.670398 
L 357.683696 74.154768 
L 359.457765 75.303215 
L 361.231833 76.293301 
L 363.005902 78.226287 
L 364.77997 78.096669 
L 366.554039 77.496214 
L 368.328107 81.840161 
L 370.102176 80.244542 
L 371.876244 82.321295 
L 373.650313 83.101238 
L 375.424382 82.661979 
L 377.19845 82.192651 
L 378.972519 81.803729 
L 380.746587 80.303246 
L 382.520656 82.644383 
L 384.294724 82.105054 
L 386.068793 84.527482 
L 387.842861 82.918386 
L 389.61693 84.359641 
L 391.390999 84.882931 
L 393.165067 86.404864 
L 394.939136 93.197727 
L 396.713204 101.291682 
L 398.487273 106.946712 
" clip-path="url(#p2a82a5ef6f)" style="fill: none; stroke: #6acc64; stroke-width: 1.5; stroke-linecap: round"/>
   </g>
   <g id="patch_3">
    <path d="M 57.6 307.584 
L 57.6 41.472 
" style="fill: none; stroke: #cccccc; stroke-width: 0.8; stroke-linejoin: miter; stroke-linecap: square"/>
   </g>
   <g id="patch_4">
    <path d="M 414.72 307.584 
L 414.72 41.472 
" style="fill: none; stroke: #cccccc; stroke-width: 0.8; stroke-linejoin: miter; stroke-linecap: square"/>
   </g>
   <g id="patch_5">
    <path d="M 57.6 307.584 
L 414.72 307.584 
" style="fill: none; stroke: #cccccc; stroke-width: 0.8; stroke-linejoin: miter; stroke-linecap: square"/>
   </g>
   <g id="patch_6">
    <path d="M 57.6 41.472 
L 414.72 41.472 
" style="fill: none; stroke: #cccccc; stroke-width: 0.8; stroke-linejoin: miter; stroke-linecap: square"/>
   </g>
   <g id="text_16">
    <!-- Validation (best episodes) -->
    <g style="fill: #262626" transform="translate(167.565938 35.472) scale(0.12 -0.12)">
     <defs>
      <path id="ArialMT-56" d="M 1803 0 
L 28 4581 
L 684 4581 
L 1875 1253 
Q 2019 853 2116 503 
Q 2222 878 2363 1253 
L 3600 4581 
L 4219 4581 
L 2425 0 
L 1803 0 
z
" transform="scale(0.015625)"/>
      <path id="ArialMT-61" d="M 2588 409 
Q 2275 144 1986 34 
Q 1697 -75 1366 -75 
Q 819 -75 525 192 
Q 231 459 231 875 
Q 231 1119 342 1320 
Q 453 1522 633 1644 
Q 813 1766 1038 1828 
Q 1203 1872 1538 1913 
Q 2219 1994 2541 2106 
Q 2544 2222 2544 2253 
Q 2544 2597 2384 2738 
Q 2169 2928 1744 2928 
Q 1347 2928 1158 2789 
Q 969 2650 878 2297 
L 328 2372 
Q 403 2725 575 2942 
Q 747 3159 1072 3276 
Q 1397 3394 1825 3394 
Q 2250 3394 2515 3294 
Q 2781 3194 2906 3042 
Q 3031 2891 3081 2659 
Q 3109 2516 3109 2141 
L 3109 1391 
Q 3109 606 3145 398 
Q 3181 191 3288 0 
L 2700 0 
Q 2613 175 2588 409 
z
M 2541 1666 
Q 2234 1541 1622 1453 
Q 1275 1403 1131 1340 
Q 988 1278 909 1158 
Q 831 1038 831 891 
Q 831 666 1001 516 
Q 1172 366 1500 366 
Q 1825 366 2078 508 
Q 2331 650 2450 897 
Q 2541 1088 2541 1459 
L 2541 1666 
z
" transform="scale(0.015625)"/>
      <path id="ArialMT-6c" d="M 409 0 
L 409 4581 
L 972 4581 
L 972 0 
L 409 0 
z
" transform="scale(0.015625)"/>
      <path id="ArialMT-64" d="M 2575 0 
L 2575 419 
Q 2259 -75 1647 -75 
Q 1250 -75 917 144 
Q 584 363 401 755 
Q 219 1147 219 1656 
Q 219 2153 384 2558 
Q 550 2963 881 3178 
Q 1213 3394 1622 3394 
Q 1922 3394 2156 3267 
Q 2391 3141 2538 2938 
L 2538 4581 
L 3097 4581 
L 3097 0 
L 2575 0 
z
M 797 1656 
Q 797 1019 1065 703 
Q 1334 388 1700 388 
Q 2069 388 2326 689 
Q 2584 991 2584 1609 
Q 2584 2291 2321 2609 
Q 2059 2928 1675 2928 
Q 1300 2928 1048 2622 
Q 797 2316 797 1656 
z
" transform="scale(0.015625)"/>
      <path id="ArialMT-6f" d="M 213 1659 
Q 213 2581 725 3025 
Q 1153 3394 1769 3394 
Q 2453 3394 2887 2945 
Q 3322 2497 3322 1706 
Q 3322 1066 3130 698 
Q 2938 331 2570 128 
Q 2203 -75 1769 -75 
Q 1072 -75 642 372 
Q 213 819 213 1659 
z
M 791 1659 
Q 791 1022 1069 705 
Q 1347 388 1769 388 
Q 2188 388 2466 706 
Q 2744 1025 2744 1678 
Q 2744 2294 2464 2611 
Q 2184 2928 1769 2928 
Q 1347 2928 1069 2612 
Q 791 2297 791 1659 
z
" transform="scale(0.015625)"/>
      <path id="ArialMT-6e" d="M 422 0 
L 422 3319 
L 928 3319 
L 928 2847 
Q 1294 3394 1984 3394 
Q 2284 3394 2536 3286 
Q 2788 3178 2913 3003 
Q 3038 2828 3088 2588 
Q 3119 2431 3119 2041 
L 3119 0 
L 2556 0 
L 2556 2019 
Q 2556 2363 2490 2533 
Q 2425 2703 2258 2804 
Q 2091 2906 1866 2906 
Q 1506 2906 1245 2678 
Q 984 2450 984 1813 
L 984 0 
L 422 0 
z
" transform="scale(0.015625)"/>
      <path id="ArialMT-20" transform="scale(0.015625)"/>
      <path id="ArialMT-28" d="M 1497 -1347 
Q 1031 -759 709 28 
Q 388 816 388 1659 
Q 388 2403 628 3084 
Q 909 3875 1497 4659 
L 1900 4659 
Q 1522 4009 1400 3731 
Q 1209 3300 1100 2831 
Q 966 2247 966 1656 
Q 966 153 1900 -1347 
L 1497 -1347 
z
" transform="scale(0.015625)"/>
      <path id="ArialMT-62" d="M 941 0 
L 419 0 
L 419 4581 
L 981 4581 
L 981 2947 
Q 1338 3394 1891 3394 
Q 2197 3394 2470 3270 
Q 2744 3147 2920 2923 
Q 3097 2700 3197 2384 
Q 3297 2069 3297 1709 
Q 3297 856 2875 390 
Q 2453 -75 1863 -75 
Q 1275 -75 941 416 
L 941 0 
z
M 934 1684 
Q 934 1088 1097 822 
Q 1363 388 1816 388 
Q 2184 388 2453 708 
Q 2722 1028 2722 1663 
Q 2722 2313 2464 2622 
Q 2206 2931 1841 2931 
Q 1472 2931 1203 2611 
Q 934 2291 934 1684 
z
" transform="scale(0.015625)"/>
      <path id="ArialMT-29" d="M 791 -1347 
L 388 -1347 
Q 1322 153 1322 1656 
Q 1322 2244 1188 2822 
Q 1081 3291 891 3722 
Q 769 4003 388 4659 
L 791 4659 
Q 1378 3875 1659 3084 
Q 1900 2403 1900 1659 
Q 1900 816 1576 28 
Q 1253 -759 791 -1347 
z
" transform="scale(0.015625)"/>
     </defs>
     <use xlink:href="#ArialMT-56"/>
     <use xlink:href="#ArialMT-61" x="59.324219"/>
     <use xlink:href="#ArialMT-6c" x="114.939453"/>
     <use xlink:href="#ArialMT-69" x="137.15625"/>
     <use xlink:href="#ArialMT-64" x="159.373047"/>
     <use xlink:href="#ArialMT-61" x="214.988281"/>
     <use xlink:href="#ArialMT-74" x="270.603516"/>
     <use xlink:href="#ArialMT-69" x="298.386719"/>
     <use xlink:href="#ArialMT-6f" x="320.603516"/>
     <use xlink:href="#ArialMT-6e" x="376.21875"/>
     <use xlink:href="#ArialMT-20" x="431.833984"/>
     <use xlink:href="#ArialMT-28" x="459.617188"/>
     <use xlink:href="#ArialMT-62" x="492.917969"/>
     <use xlink:href="#ArialMT-65" x="548.533203"/>
     <use xlink:href="#ArialMT-73" x="604.148438"/>
     <use xlink:href="#ArialMT-74" x="654.148438"/>
     <use xlink:href="#ArialMT-20" x="681.931641"/>
     <use xlink:href="#ArialMT-65" x="709.714844"/>
     <use xlink:href="#ArialMT-70" x="765.330078"/>
     <use xlink:href="#ArialMT-69" x="820.945312"/>
     <use xlink:href="#ArialMT-73" x="843.162109"/>
     <use xlink:href="#ArialMT-6f" x="893.162109"/>
     <use xlink:href="#ArialMT-64" x="948.777344"/>
     <use xlink:href="#ArialMT-65" x="1004.392578"/>
     <use xlink:href="#ArialMT-73" x="1060.007812"/>
     <use xlink:href="#ArialMT-29" x="1110.007812"/>
    </g>
   </g>
   <g id="legend_1">
    <g id="patch_7">
     <path d="M 64.6 92.162625 
L 118.7 92.162625 
Q 120.7 92.162625 120.7 90.162625 
L 120.7 48.472 
Q 120.7 46.472 118.7 46.472 
L 64.6 46.472 
Q 62.6 46.472 62.6 48.472 
L 62.6 90.162625 
Q 62.6 92.162625 64.6 92.162625 
z
" style="fill: #ffffff; opacity: 0.8; stroke: #cccccc; stroke-linejoin: miter"/>
    </g>
    <g id="line2d_24">
     <path d="M 66.6 54.129813 
L 76.6 54.129813 
L 86.6 54.129813 
" style="fill: none; stroke-dasharray: 5.55,2.4; stroke-dashoffset: 0; stroke: #4878d0; stroke-width: 1.5"/>
    </g>
    <g id="text_17">
     <!-- $a$ -->
     <g style="fill: #262626" transform="translate(94.6 57.629813) scale(0.1 -0.1)">
      <defs>
       <path id="DejaVuSans-Oblique-61" d="M 3438 1997 
L 3047 0 
L 2472 0 
L 2578 531 
Q 2325 219 2001 64 
Q 1678 -91 1281 -91 
Q 834 -91 548 182 
Q 263 456 263 884 
Q 263 1497 752 1853 
Q 1241 2209 2100 2209 
L 2900 2209 
L 2931 2363 
Q 2938 2388 2941 2417 
Q 2944 2447 2944 2509 
Q 2944 2788 2717 2942 
Q 2491 3097 2081 3097 
Q 1800 3097 1504 3025 
Q 1209 2953 897 2809 
L 997 3341 
Q 1322 3463 1633 3523 
Q 1944 3584 2234 3584 
Q 2853 3584 3176 3315 
Q 3500 3047 3500 2534 
Q 3500 2431 3484 2292 
Q 3469 2153 3438 1997 
z
M 2816 1759 
L 2241 1759 
Q 1534 1759 1195 1570 
Q 856 1381 856 984 
Q 856 709 1029 553 
Q 1203 397 1509 397 
Q 1978 397 2328 733 
Q 2678 1069 2791 1631 
L 2816 1759 
z
" transform="scale(0.015625)"/>
      </defs>
      <use xlink:href="#DejaVuSans-Oblique-61"/>
     </g>
    </g>
    <g id="line2d_25">
     <path d="M 66.6 68.275125 
L 76.6 68.275125 
L 86.6 68.275125 
" style="fill: none; stroke: #ee854a; stroke-width: 1.5; stroke-linecap: round"/>
    </g>
    <g id="text_18">
     <!-- $s^{true}$ -->
     <g style="fill: #262626" transform="translate(94.6 71.775125) scale(0.1 -0.1)">
      <defs>
       <path id="DejaVuSans-Oblique-73" d="M 3200 3397 
L 3091 2853 
Q 2863 2978 2609 3040 
Q 2356 3103 2088 3103 
Q 1634 3103 1373 2948 
Q 1113 2794 1113 2528 
Q 1113 2219 1719 2053 
Q 1766 2041 1788 2034 
L 1972 1978 
Q 2547 1819 2739 1644 
Q 2931 1469 2931 1166 
Q 2931 609 2489 259 
Q 2047 -91 1331 -91 
Q 1053 -91 747 -37 
Q 441 16 72 128 
L 184 722 
Q 500 559 806 475 
Q 1113 391 1394 391 
Q 1816 391 2080 572 
Q 2344 753 2344 1031 
Q 2344 1331 1650 1516 
L 1591 1531 
L 1394 1581 
Q 956 1697 753 1886 
Q 550 2075 550 2369 
Q 550 2928 970 3256 
Q 1391 3584 2113 3584 
Q 2397 3584 2667 3537 
Q 2938 3491 3200 3397 
z
" transform="scale(0.015625)"/>
       <path id="DejaVuSans-Oblique-74" d="M 2706 3500 
L 2619 3053 
L 1472 3053 
L 1100 1153 
Q 1081 1047 1072 975 
Q 1063 903 1063 863 
Q 1063 663 1183 572 
Q 1303 481 1569 481 
L 2150 481 
L 2053 0 
L 1503 0 
Q 991 0 739 200 
Q 488 400 488 806 
Q 488 878 497 964 
Q 506 1050 525 1153 
L 897 3053 
L 409 3053 
L 500 3500 
L 978 3500 
L 1172 4494 
L 1747 4494 
L 1556 3500 
L 2706 3500 
z
" transform="scale(0.015625)"/>
       <path id="DejaVuSans-Oblique-72" d="M 2853 2969 
Q 2766 3016 2653 3041 
Q 2541 3066 2413 3066 
Q 1953 3066 1609 2717 
Q 1266 2369 1153 1784 
L 800 0 
L 225 0 
L 909 3500 
L 1484 3500 
L 1375 2956 
Q 1603 3259 1920 3421 
Q 2238 3584 2597 3584 
Q 2691 3584 2781 3573 
Q 2872 3563 2963 3538 
L 2853 2969 
z
" transform="scale(0.015625)"/>
       <path id="DejaVuSans-Oblique-75" d="M 428 1388 
L 838 3500 
L 1416 3500 
L 1006 1409 
Q 975 1256 961 1147 
Q 947 1038 947 966 
Q 947 700 1109 554 
Q 1272 409 1569 409 
Q 2031 409 2368 721 
Q 2706 1034 2809 1563 
L 3194 3500 
L 3769 3500 
L 3091 0 
L 2516 0 
L 2631 550 
Q 2388 244 2052 76 
Q 1716 -91 1338 -91 
Q 878 -91 622 161 
Q 366 413 366 863 
Q 366 956 381 1097 
Q 397 1238 428 1388 
z
" transform="scale(0.015625)"/>
       <path id="DejaVuSans-Oblique-65" d="M 3078 2063 
Q 3088 2113 3092 2166 
Q 3097 2219 3097 2272 
Q 3097 2653 2873 2875 
Q 2650 3097 2266 3097 
Q 1838 3097 1509 2826 
Q 1181 2556 1013 2059 
L 3078 2063 
z
M 3578 1613 
L 903 1613 
Q 884 1494 878 1425 
Q 872 1356 872 1306 
Q 872 872 1139 634 
Q 1406 397 1894 397 
Q 2269 397 2603 481 
Q 2938 566 3225 728 
L 3116 159 
Q 2806 34 2476 -28 
Q 2147 -91 1806 -91 
Q 1078 -91 686 257 
Q 294 606 294 1247 
Q 294 1794 489 2264 
Q 684 2734 1063 3103 
Q 1306 3334 1642 3459 
Q 1978 3584 2356 3584 
Q 2950 3584 3301 3228 
Q 3653 2872 3653 2272 
Q 3653 2128 3634 1964 
Q 3616 1800 3578 1613 
z
" transform="scale(0.015625)"/>
      </defs>
      <use xlink:href="#DejaVuSans-Oblique-73" transform="translate(0 0.565625)"/>
      <use xlink:href="#DejaVuSans-Oblique-74" transform="translate(56.749505 38.846875) scale(0.7)"/>
      <use xlink:href="#DejaVuSans-Oblique-72" transform="translate(84.195794 38.846875) scale(0.7)"/>
      <use xlink:href="#DejaVuSans-Oblique-75" transform="translate(112.975091 38.846875) scale(0.7)"/>
      <use xlink:href="#DejaVuSans-Oblique-65" transform="translate(157.340326 38.846875) scale(0.7)"/>
     </g>
    </g>
    <g id="line2d_26">
     <path d="M 66.6 82.675125 
L 76.6 82.675125 
L 86.6 82.675125 
" style="fill: none; stroke: #6acc64; stroke-width: 1.5; stroke-linecap: round"/>
    </g>
    <g id="text_19">
     <!-- $s^{pred}$ -->
     <g style="fill: #262626" transform="translate(94.6 86.175125) scale(0.1 -0.1)">
      <defs>
       <path id="DejaVuSans-Oblique-70" d="M 3175 2156 
Q 3175 2616 2975 2859 
Q 2775 3103 2400 3103 
Q 2144 3103 1911 2972 
Q 1678 2841 1497 2591 
Q 1319 2344 1212 1994 
Q 1106 1644 1106 1300 
Q 1106 863 1306 627 
Q 1506 391 1875 391 
Q 2147 391 2380 519 
Q 2613 647 2778 891 
Q 2956 1147 3065 1494 
Q 3175 1841 3175 2156 
z
M 1394 2969 
Q 1625 3272 1939 3428 
Q 2253 3584 2638 3584 
Q 3175 3584 3472 3232 
Q 3769 2881 3769 2247 
Q 3769 1728 3584 1258 
Q 3400 788 3053 416 
Q 2822 169 2531 39 
Q 2241 -91 1919 -91 
Q 1547 -91 1294 64 
Q 1041 219 916 525 
L 556 -1331 
L -19 -1331 
L 922 3500 
L 1497 3500 
L 1394 2969 
z
" transform="scale(0.015625)"/>
       <path id="DejaVuSans-Oblique-64" d="M 2675 525 
Q 2444 222 2128 65 
Q 1813 -91 1428 -91 
Q 903 -91 598 267 
Q 294 625 294 1247 
Q 294 1766 478 2236 
Q 663 2706 1013 3078 
Q 1244 3325 1534 3454 
Q 1825 3584 2144 3584 
Q 2481 3584 2739 3421 
Q 2997 3259 3138 2956 
L 3513 4863 
L 4091 4863 
L 3144 0 
L 2566 0 
L 2675 525 
z
M 891 1350 
Q 891 897 1095 644 
Q 1300 391 1663 391 
Q 1931 391 2161 520 
Q 2391 650 2566 903 
Q 2750 1166 2856 1509 
Q 2963 1853 2963 2188 
Q 2963 2622 2758 2865 
Q 2553 3109 2194 3109 
Q 1922 3109 1687 2981 
Q 1453 2853 1288 2613 
Q 1106 2353 998 2009 
Q 891 1666 891 1350 
z
" transform="scale(0.015625)"/>
      </defs>
      <use xlink:href="#DejaVuSans-Oblique-73" transform="translate(0 0.529687)"/>
      <use xlink:href="#DejaVuSans-Oblique-70" transform="translate(56.749505 38.810937) scale(0.7)"/>
      <use xlink:href="#DejaVuSans-Oblique-72" transform="translate(101.183099 38.810937) scale(0.7)"/>
      <use xlink:href="#DejaVuSans-Oblique-65" transform="translate(129.962396 38.810937) scale(0.7)"/>
      <use xlink:href="#DejaVuSans-Oblique-64" transform="translate(173.028802 38.810937) scale(0.7)"/>
     </g>
    </g>
   </g>
  </g>
 </g>
 <defs>
  <clipPath id="p2a82a5ef6f">
   <rect x="57.6" y="41.472" width="357.12" height="266.112"/>
  </clipPath>
 </defs>
</svg>
